<svg width="242" height="263" viewBox="0 0 242 263" fill="none" xmlns="http://www.w3.org/2000/svg">
<circle cx="107.5" cy="155.5" r="107.5" fill="#2EC2F1"/>
<g clip-path="url(#clip0)">
<path d="M133.798 128.779C135.365 127.728 136.931 126.677 138.498 125.626C139.109 125.225 139.816 124.9 140.294 124.365C141.765 122.722 143.313 121.327 145.854 121.251C146.122 123.391 144.593 124.499 143.256 124.919C141.326 125.531 140.409 126.964 139.243 128.263C138.059 129.619 136.091 130.135 133.798 128.779Z" fill="white"/>
<path d="M155.503 39.1686C157.184 38.156 158.426 37.4299 159.649 36.6657C160.853 35.9205 161.98 35.0798 163.203 34.392C164.598 33.6086 166.069 32.959 167.884 32.0801C167.215 35.5957 158.751 40.5061 155.503 39.1686Z" fill="white"/>
<path d="M207.148 53.8042C207.301 54.5494 207.473 54.9697 207.454 55.4092C207.454 55.7531 207.32 56.269 207.071 56.3836C206.823 56.5174 206.307 56.3836 206.021 56.1925C204.874 55.4092 203.575 51.3395 204.129 49.2568C205.256 50.5943 206.154 51.6643 206.88 52.5432C209.211 52.7151 211.523 52.8871 213.816 53.0591C211.982 55.4474 209.88 55.5238 207.148 53.8042Z" fill="white"/>
<path d="M142.911 80.114C143.408 79.5981 143.847 78.7192 144.382 78.6619C146.924 78.3371 149.484 78.1842 152.044 78.146C152.503 78.146 152.961 79.0058 153.42 79.4835C152.98 79.9038 152.541 80.6681 152.082 80.6872C149.14 80.8018 146.197 80.7445 143.236 80.7445C143.14 80.5343 143.026 80.3242 142.911 80.114Z" fill="white"/>
<path d="M157.298 29.3095C156.954 29.8445 156.649 30.4368 156.247 30.9335C154.432 33.0735 151.452 34.2963 151.165 37.6782C151.108 38.3278 149.866 38.8819 149.178 39.4933C149.006 39.3787 148.834 39.2831 148.662 39.1685C148.719 38.6335 148.605 37.9839 148.872 37.5827C150.821 34.7358 152.789 31.8889 154.891 29.1566C155.254 28.6981 156.324 28.7745 157.069 28.6025C157.145 28.8318 157.222 29.0611 157.298 29.3095Z" fill="white"/>
<path d="M173.711 30.3987C175.622 32.1183 175.775 34.1054 175.622 36.1116C176.959 37.086 178.335 38.0222 179.615 39.0731C179.902 39.3215 179.844 39.9902 179.94 40.4488C179.519 40.5061 179.08 40.6589 178.698 40.5634C176.845 40.0857 175.354 39.1686 174.896 37.1242C174.838 36.8185 174.724 36.4555 174.514 36.2835C172.565 34.6404 172.909 32.7106 173.711 30.3987Z" fill="white"/>
<path d="M193.544 149.719C193.448 146.318 195.263 143.663 198.492 142.325C199.581 145.172 196.486 149.93 193.544 149.719Z" fill="white"/>
<path d="M97.6474 88.9413C95.1635 89.61 90.5779 86.1517 89.9092 83.2284C92.1447 82.3877 96.329 85.4066 97.6474 88.9413Z" fill="white"/>
<path d="M186.016 123.505C185.137 121.384 185.959 116.818 187.506 115.27C188.309 114.449 189.035 114.544 189.455 115.595C190.162 117.372 187.888 122.531 186.016 123.505Z" fill="white"/>
<path d="M225.375 131.721C223.159 130.174 221.955 127.938 221.019 125.55C220.847 125.11 221.516 124.346 221.783 123.735C222.261 123.964 222.93 124.04 223.197 124.422C224.726 126.562 225.624 128.932 225.375 131.721Z" fill="white"/>
<path d="M160.337 115.213C161.98 116.875 163.432 118.194 164.693 119.684C165.037 120.085 165.133 121.231 164.827 121.537C164.426 121.919 163.47 122.034 162.859 121.881C161.063 121.403 159.496 117.907 160.337 115.213Z" fill="white"/>
<path d="M105.615 64.6761C106.227 61.447 107.717 59.288 110.067 57.7213C110.411 57.492 110.984 57.6257 111.443 57.6066C111.443 58.0843 111.596 58.6002 111.443 59.0205C110.468 61.6381 108.577 63.3577 105.615 64.6761Z" fill="white"/>
<path d="M166.068 66.9114C168.113 65.6504 172.45 66.0325 173.902 67.4846C174.189 67.7712 174.533 68.4781 174.418 68.5928C174.055 68.9749 173.482 69.4335 173.023 69.3953C170.558 69.2424 168.227 68.5737 166.068 66.9114Z" fill="white"/>
<path d="M164.426 98.3228C166.202 101.189 166.355 103.978 165.381 106.94C162.572 104.819 161.999 100.673 164.426 98.3228Z" fill="white"/>
<path d="M212.02 73.2739C212.268 72.93 212.497 72.3186 212.784 72.2804C214.809 72.1275 218.096 76.9806 217.274 79.2734C215 77.592 212.784 76.0635 211.981 73.1975L212.02 73.2739Z" fill="white"/>
<path d="M210.434 82.1204C211.332 82.4834 212.364 82.5789 212.841 83.133C213.95 84.4514 214.809 85.9608 215.688 87.4511C215.841 87.7186 215.65 88.33 215.421 88.6548C215.287 88.8268 214.714 88.8268 214.427 88.7121C212.746 88.1007 210.396 84.394 210.434 82.1204Z" fill="white"/>
<path d="M207.224 107.513C205.371 105.354 204.473 103.061 204.396 100.482C204.377 100.042 204.683 99.4691 205.027 99.2207C205.275 99.0488 205.925 99.2016 206.231 99.45C207.492 100.405 208.218 105.66 207.224 107.513Z" fill="white"/>
<path d="M179.711 119.55C180.15 116.608 181.66 114.812 183.532 113.302C183.972 112.958 184.679 112.978 185.271 112.825C185.347 113.436 185.653 114.162 185.443 114.659C184.354 117.047 182.309 118.366 179.711 119.55Z" fill="white"/>
<path d="M165.285 64.5422C162.954 66.0325 159.305 66.1281 157.433 64.7715C157.089 64.5231 156.764 64.1219 156.687 63.7397C156.649 63.5296 157.184 62.9946 157.433 63.0137C160.031 63.1856 162.878 62.2685 165.285 64.5422Z" fill="white"/>
<path d="M181.412 101.666C183.724 103.329 184.048 105.679 184.392 108.22C182.596 108.239 181.24 107.647 180.437 106.195C179.482 104.551 180.112 103.118 181.412 101.666Z" fill="white"/>
<path d="M233.343 75.5859C231.108 76.6941 226.885 75.3758 226.121 73.2358C225.72 72.0894 226.541 71.4971 227.477 71.8984C229.56 72.7773 231.547 73.8854 233.592 74.9172C233.515 75.1274 233.439 75.3567 233.343 75.5859Z" fill="white"/>
<path d="M200.861 22.5267C202.18 19.9855 204.358 18.5525 206.842 17.559C207.052 17.4826 207.854 18.0749 207.835 18.3233C207.702 19.9473 203.269 23.2337 201.645 22.9853C201.415 22.9471 201.205 22.7369 200.861 22.5267Z" fill="white"/>
<path d="M203.67 26.5964C201.664 28.7555 197.193 29.4815 195.072 28.0867C196.142 26.1379 201.244 25.2207 203.67 26.5964Z" fill="white"/>
<path d="M137.982 101.151C137.963 98.705 138.765 97.0427 140.198 95.7625C140.676 95.3231 141.555 95.2849 142.243 95.0747C142.415 95.7817 142.873 96.5459 142.72 97.1764C142.204 99.5265 140.084 100.062 137.982 101.151Z" fill="white"/>
<path d="M184.124 137.873C187.124 137.147 189.741 135.466 192.607 137.51C191.117 139.88 186.665 140.204 184.124 137.873Z" fill="white"/>
<path d="M221.84 28.8701C222.242 31.4304 219.949 35.2708 217.847 35.7103C217.541 35.7676 216.72 34.9651 216.758 34.8505C217.885 32.4431 219.318 30.284 221.84 28.8701Z" fill="white"/>
<path d="M175.431 22.6604C175.966 25.2971 173.119 28.5643 170.826 28.1631C170.521 28.1058 170.005 26.9594 170.177 26.711C171.457 24.8959 173.043 23.4247 175.431 22.6604Z" fill="white"/>
<path d="M159.572 55.6195C161.387 53.4223 163.585 52.295 166.24 52.2185C166.565 52.1994 167.31 53.1739 167.196 53.4032C166.68 54.5495 161.483 56.4793 160.241 56.0972C160.088 56.0399 159.954 55.887 159.572 55.6195Z" fill="white"/>
<path d="M149.809 155.356C148.128 154.343 146.733 153.732 145.682 152.757C145.128 152.242 145.147 151.095 144.918 150.235C145.854 150.14 146.981 149.681 147.727 150.025C149.79 150.942 149.523 153.006 149.809 155.356Z" fill="white"/>
<path d="M199.544 96.947C201.397 98.3227 202.008 102.335 200.766 105.01C198.321 102.889 197.767 99.2589 199.544 96.947Z" fill="white"/>
<path d="M209.097 28.2586C206.498 25.45 208.008 21.0363 211.619 20.0237C210.721 22.9279 209.899 25.5837 209.097 28.2586Z" fill="white"/>
<path d="M100.342 120.735C99.5395 123.181 96.2149 125.512 93.8457 125.397C93.8457 122.665 97.5333 119.952 100.342 120.735Z" fill="white"/>
<path d="M189.569 43.2384C187.219 41.4615 185.748 39.4744 185.576 36.6848C188.48 36.1689 190.429 39.226 189.569 43.2384Z" fill="white"/>
<path d="M156.936 12.1136C156.859 9.7253 161.292 7.01216 163.871 7.71911C163.489 9.7062 159.916 12.0181 156.936 12.1136Z" fill="white"/>
<path d="M213.969 61.8865C215.784 62.4597 218.229 66.9306 217.733 68.5738C217.656 68.8413 217.312 69.2807 217.179 69.2425C216.758 69.147 216.319 68.9559 216.032 68.6502C214.58 67.1217 213.701 64.2175 213.969 61.8865Z" fill="white"/>
<path d="M126.729 60.4341C129.423 56.995 131.314 56.0396 133.722 57.3962C132.059 58.7528 130.569 60.0711 128.983 61.2366C127.97 61.9818 127.168 61.5997 126.729 60.4341Z" fill="white"/>
<path d="M230.114 68.9175C227.898 68.9557 225.663 69.1086 223.465 68.9366C222.701 68.8793 221.918 67.9622 222.911 67.0642C224.306 65.7841 228.93 66.5292 230.172 68.1724C230.153 68.4399 230.133 68.6691 230.114 68.9175Z" fill="white"/>
<path d="M148.605 84.7952C151.032 83.2284 153.153 81.2222 156.439 81.6426C154.911 84.8334 150.573 86.6485 148.605 84.7952Z" fill="white"/>
<path d="M194.193 60.5871C193.238 62.9945 191.614 64.6568 189.264 65.4784C188.767 65.6503 188.079 65.2873 187.468 65.1918C187.697 64.6759 187.793 63.969 188.194 63.6441C189.913 62.192 191.557 60.5489 194.193 60.5871Z" fill="white"/>
<path d="M120.251 124.938C117.328 126.62 114.825 125.798 112.341 125.034C112.055 124.938 111.73 124.422 111.749 124.136C111.768 123.868 112.207 123.467 112.513 123.429C115.15 122.97 117.653 123.257 120.251 124.938Z" fill="white"/>
<path d="M203.518 93.0494C202.085 91.4444 201.703 89.0179 202.41 87.3747C202.926 86.171 203.728 86.3429 204.34 87.0499C205.467 88.3491 206.269 89.5911 204.875 91.1578C204.378 91.731 203.977 92.3997 203.518 93.0494Z" fill="white"/>
<path d="M167.254 16.6226C165.553 14.3681 166.948 9.61051 168.858 9.11373C169.164 9.03731 170.081 9.93532 170.005 10.1073C169.241 12.1899 168.323 14.1961 167.254 16.6226Z" fill="white"/>
<path d="M179.272 123.926C181.373 125.836 181.794 129.294 180.342 131.74C178.412 130.116 177.781 125.894 179.272 123.926Z" fill="white"/>
<path d="M113.755 151.764C115.245 150.522 120.194 150.159 121.493 151.191C121.761 151.401 122.066 151.917 121.99 152.108C121.837 152.452 121.417 152.777 121.035 152.91C119.372 153.464 115.646 152.872 113.755 151.764Z" fill="white"/>
<path d="M130.989 153.254C134.104 152.643 137.39 153.541 138.001 156.369C135.594 157.114 132.212 155.681 130.989 153.254Z" fill="white"/>
<path d="M99.501 31.9654C96.5395 33.1692 93.9028 34.2582 90.8457 32.959C92.3742 30.9146 97.17 30.3414 99.501 31.9654Z" fill="white"/>
<path d="M227 116.646C229.312 117.391 230.898 118.881 231.968 121.021C232.503 122.11 232.063 122.512 231.012 122.416C229.121 122.244 226.618 118.71 227 116.646Z" fill="white"/>
<path d="M162.4 95.0555C164.598 93.0493 166.757 92.0939 169.336 92.2468C169.642 92.2659 170.119 92.5907 170.177 92.8391C170.234 93.1257 169.986 93.5843 169.718 93.7944C167.712 95.3994 165.438 95.8197 162.4 95.0555Z" fill="white"/>
<path d="M108.576 91.8646C107.869 94.4822 104.679 96.9852 102.214 96.9852C102.539 94.4631 105.806 91.75 108.576 91.8646Z" fill="white"/>
<path d="M137.256 50.8428C139.377 48.7602 141.765 48.4927 144.268 48.7219C144.574 48.7411 145.051 49.1423 145.07 49.3907C145.09 49.7728 144.841 50.3842 144.555 50.4989C142.262 51.3778 139.931 51.951 137.256 50.8428Z" fill="white"/>
<path d="M169.737 1.16553C171.896 2.17818 173.329 5.90397 172.508 8.06302C169.89 7.22233 168.839 4.70025 169.737 1.16553Z" fill="white"/>
<path d="M130.817 113.321C128.008 114.544 124.091 113.016 123.633 110.627C125.696 109.978 129.327 111.296 130.817 113.321Z" fill="white"/>
<path d="M232.12 56.7084C231.68 57.0332 231.203 57.6829 230.821 57.6255C228.49 57.3389 226.292 56.6129 224.286 54.7022C227.668 53.3074 229.884 55.1608 232.158 56.7466C232.139 56.7466 232.12 56.7084 232.12 56.7084Z" fill="white"/>
<path d="M182.08 140.969C180.074 138.924 180.036 135.81 181.889 133.479C183.647 135.046 183.781 138.542 182.08 140.969Z" fill="white"/>
<path d="M173.043 84.6998C175.068 83.2859 178.641 83.2095 180.361 84.4514C180.59 84.6234 180.934 85.0628 180.877 85.1583C180.647 85.4832 180.323 85.8653 179.96 85.9799C177.552 86.706 175.412 85.8271 173.043 84.6998Z" fill="white"/>
<path d="M187.2 98.7813C185.252 97.1763 184.526 93.355 185.729 91.1577C188.041 92.5716 188.538 95.1128 187.2 98.7813Z" fill="white"/>
<path d="M215.077 142.975C212.498 143.72 209.345 142.134 208.046 139.44C211.141 139.077 214.561 140.797 215.077 142.975Z" fill="white"/>
<path d="M218.555 100.596C218.612 98.1699 220.809 97.5967 222.452 96.6796C223.178 96.2784 224.191 96.3739 225.089 96.2593C225.204 96.5841 225.318 96.9089 225.433 97.2337C223.35 98.5903 221.249 99.966 219.166 101.323C218.956 101.074 218.765 100.845 218.555 100.596Z" fill="white"/>
<path d="M158.14 92.6672C155.579 92.3614 153.478 89.7056 153.841 87.8905C153.917 87.4702 154.357 86.897 154.72 86.8014C155.102 86.7059 155.866 87.0116 156.019 87.3555C156.764 88.9987 157.375 90.6992 158.14 92.6672Z" fill="white"/>
<path d="M116.888 21.2658C114.652 22.7179 112.417 23.4057 109.895 23.0809C109.608 23.0427 109.169 22.6223 109.15 22.3549C109.112 22.0683 109.417 21.6479 109.685 21.4186C111.118 20.2149 114.824 20.0812 116.888 21.2658Z" fill="white"/>
<path d="M122.238 92.0558C124.608 90.7947 127.13 91.4062 129.594 93.7181C126.939 95.0555 123.92 94.4059 122.238 92.0558Z" fill="white"/>
<path d="M93.7113 102.01C91.5141 102.526 88.094 100.444 87.9602 98.5138C87.9411 98.2081 88.9156 97.4439 89.1448 97.5585C91.2275 98.4183 92.8706 99.794 93.7113 102.01Z" fill="white"/>
<path d="M130.282 155.929C132.46 157.114 134.639 157.802 135.842 159.903C136.435 160.916 136.148 161.547 134.963 161.547C133.53 161.547 130.282 157.897 130.282 155.929Z" fill="white"/>
<path d="M193.391 120.811C195.283 122.817 195.569 126.41 194.098 128.549C192.321 126.792 191.862 122.397 193.391 120.811Z" fill="white"/>
<path d="M176.043 74.4204C174.323 77.9169 172.508 79.1397 169.833 78.643C170.177 76.2738 172.565 74.6497 176.043 74.4204Z" fill="white"/>
<path d="M158.388 17.5591C160.451 19.1831 160.604 23.7687 158.789 25.3737C157.375 24.1509 157.126 20.062 158.388 17.5591Z" fill="white"/>
<path d="M165.591 160.266C165.247 162.502 161.808 165.826 160.203 165.75C159.955 165.731 159.439 164.756 159.573 164.527C160.91 162.368 162.878 161.069 165.591 160.266Z" fill="white"/>
<path d="M223.14 57.6637C220.235 56.632 218.096 53.3265 218.841 51.2439C221.898 52.7915 223.235 54.7595 223.14 57.6637Z" fill="white"/>
<path d="M126.441 130.193C128.104 132.352 127.702 135.753 125.62 137.797C124.34 135.906 124.684 132.352 126.441 130.193Z" fill="white"/>
<path d="M230.955 103.252C234.127 104.188 236.343 106.462 236.42 108.717C233.917 108.831 231.758 106.71 230.955 103.252Z" fill="white"/>
<path d="M89.9093 35.5383C91.9346 36.0733 94.2847 38.5763 94.342 40.3723C94.3611 40.7353 93.4631 41.5187 93.1765 41.4232C91.6097 40.9837 89.7564 37.5445 89.9093 35.5383Z" fill="white"/>
<path d="M195.569 76.9232C198.015 75.9297 201.168 76.8086 202.753 78.8148C200.365 80.3242 197.576 79.6173 195.569 76.9232Z" fill="white"/>
<path d="M173.349 109.959C172.03 112.366 169.05 113.207 166.489 111.984C167.941 109.806 170.788 108.927 173.349 109.959Z" fill="white"/>
<path d="M142.778 140.071C142.414 143.223 140.676 145.115 138.345 146.777C137.81 143.854 139.74 140.873 142.778 140.071Z" fill="white"/>
<path d="M95.431 61.4277C97.3034 62.9754 98.125 65.3255 97.4945 67.1215C97.3417 67.5419 96.9404 68.1342 96.5774 68.1915C96.2144 68.2297 95.5838 67.7902 95.431 67.4081C94.6094 65.5165 94.5903 63.5868 95.431 61.4277Z" fill="white"/>
<path d="M156.057 0C156.84 2.21637 156.095 4.87219 154.624 5.82752C154.28 6.0568 153.325 6.0568 153.306 5.96127C153.057 5.15879 152.561 4.08882 152.905 3.53473C153.65 2.2928 154.815 1.31836 156.057 0Z" fill="white"/>
<path d="M219.644 38.7672C221.306 37.2769 223.121 36.1114 225.509 36.5509C225.949 36.6273 226.331 37.0094 226.732 37.2578C226.426 37.6208 226.197 38.1558 225.815 38.3087C224.554 38.8246 223.274 39.3213 221.955 39.6079C221.249 39.7608 220.427 39.5124 219.663 39.436C219.663 39.2067 219.663 38.9774 219.644 38.7672Z" fill="white"/>
<path d="M179.538 89.4954C179.634 92.3996 178.354 94.272 175.278 95.877C174.743 93.5651 176.672 90.6035 179.538 89.4954Z" fill="white"/>
<path d="M152.255 165.139C150.612 163.496 150.669 159.712 152.388 157.878C154.108 159.923 154.051 163.4 152.255 165.139Z" fill="white"/>
<path d="M122.257 78.0889C123.194 79.6174 122.181 80.8211 121.512 81.9675C120.882 83.0375 120.213 84.2985 118.551 83.8782C118.321 80.9358 119.181 79.5601 122.257 78.0889Z" fill="white"/>
<path d="M112.685 149.605C111.978 146.892 111.385 144.427 113.411 142.153C115.245 144.389 114.977 147.924 112.685 149.605Z" fill="white"/>
<path d="M138.44 10.9098C139.53 8.65523 143.427 7.10759 145.261 8.12024C143.714 10.5468 140.982 11.7123 138.44 10.9098Z" fill="white"/>
<path d="M107.01 67.542C106.341 70.3507 105.672 72.9874 102.997 74.5732C101.908 72.2995 103.59 69.3571 107.01 67.542Z" fill="white"/>
<path d="M97.5137 109.175C99.0231 107.628 101.698 106.997 103.284 107.781C103.704 107.991 103.991 108.449 104.335 108.793C103.953 109.156 103.628 109.653 103.169 109.844C101.239 110.685 99.4243 110.245 97.5137 109.175Z" fill="white"/>
<path d="M166.412 74.8407C165.743 77.3436 163.088 78.6047 160.222 77.9168C160.718 75.7196 163.546 74.2675 166.412 74.8407Z" fill="white"/>
<path d="M130.798 78.9294C132.307 76.9805 134.275 76.2354 136.377 75.815C136.606 75.7768 137.371 76.7704 137.275 77.0761C136.625 78.8339 132.804 80.0185 130.798 78.9294Z" fill="white"/>
<path d="M107.373 38.6144C107.297 40.8499 105.462 43.3337 103.628 43.6586C103.284 43.7159 102.482 43.2191 102.463 42.9516C102.405 41.3276 105.52 38.5762 107.373 38.6144Z" fill="white"/>
<path d="M84.0443 92.5526C82.019 94.7307 80.0319 95.5523 76.7646 93.0685C79.1339 91.9412 81.3693 90.8712 84.0443 92.5526Z" fill="white"/>
<path d="M187.277 87.0879C188.271 84.6614 189.914 83.6869 193.602 83.343C193.621 85.674 190.411 87.5847 187.277 87.0879Z" fill="white"/>
<path d="M204.187 126.581C203.231 123.734 204.206 120.869 206.556 119.741C207.588 122.416 206.804 124.728 204.187 126.581Z" fill="white"/>
<path d="M117.806 146.414C117.271 143.453 118.627 140.95 121.321 139.822C121.761 142.363 120.022 145.745 117.806 146.414Z" fill="white"/>
<path d="M135.02 69.8537C132.976 68.65 132.135 65.5165 133.167 62.8989C135.364 64.1217 136.205 67.2552 135.02 69.8537Z" fill="white"/>
<path d="M86.279 98.017C83.4512 99.7175 79.6681 98.8004 78.751 96.3165C81.445 95.8198 83.7951 96.393 86.279 98.017Z" fill="white"/>
<path d="M180.628 27.418C179.921 25.2016 180.514 23.2336 181.756 21.4376C182.271 20.6924 183.074 20.4823 183.513 21.5904C184.125 23.0617 182.348 26.6728 180.628 27.418Z" fill="white"/>
<path d="M79.7638 77.0953C81.9228 77.0379 83.6424 80.1905 82.9546 82.9992C80.4325 82.0248 79.267 79.8848 79.7638 77.0953Z" fill="white"/>
<path d="M173.864 58.8866C173.731 56.1161 174.648 54.3392 176.195 52.8489C176.463 52.6005 177.074 52.4285 177.38 52.5814C177.667 52.7151 177.972 53.3457 177.896 53.6514C177.323 55.7531 176.176 57.4536 173.864 58.8866Z" fill="white"/>
<path d="M139.931 67.2172C141.899 65.7268 143.905 65.2492 146.102 65.5549C146.465 65.6122 146.885 65.9561 147.057 66.2809C147.134 66.4338 146.771 66.9306 146.503 67.1407C144.726 68.5164 142.09 68.5928 139.931 67.2172Z" fill="white"/>
<path d="M118.761 104.399C120.71 103.329 123.958 103.634 125.372 104.953C125.62 105.182 125.907 105.736 125.811 105.87C125.582 106.195 125.123 106.558 124.76 106.558C122.582 106.462 120.48 106.061 118.761 104.399Z" fill="white"/>
<path d="M231.547 51.7981C229.789 50.6135 229.827 46.582 231.509 44.4038C233.076 46.3527 233.133 49.3142 231.547 51.7981Z" fill="white"/>
<path d="M144.65 107.265C147.153 105.411 149.714 105.201 151.739 106.577C150.516 108.64 147.44 108.984 144.65 107.265Z" fill="white"/>
<path d="M221.134 121.04C218.86 120.486 217.045 117.85 216.911 115.136C218.898 115.041 221.401 118.442 221.134 121.04Z" fill="white"/>
<path d="M128.983 153.846C128.868 156.636 125.582 158.375 123.117 156.999C124.608 155.05 126.365 153.751 128.983 153.846Z" fill="white"/>
<path d="M146.848 22.221C149.064 21.0937 152.408 21.9726 153.745 23.9788C151.854 25.1825 149.083 24.5138 146.848 22.221Z" fill="white"/>
<path d="M123.27 22.5648C125.658 21.8197 127.607 22.1445 129.422 23.2527C129.785 23.4629 129.9 24.0743 130.148 24.5137C129.708 24.7239 129.25 25.1251 128.83 25.0869C126.842 24.8576 124.817 24.6093 123.27 22.5648Z" fill="white"/>
<path d="M101.545 130.441C99.3481 128.989 98.9659 126.046 100.724 123.983C102.654 125.263 102.978 127.842 101.545 130.441Z" fill="white"/>
<path d="M105.768 27.2271C103.59 26.7303 102.424 22.6606 103.781 20.3296C105.501 21.6479 106.418 24.8579 105.768 27.2271Z" fill="white"/>
<path d="M228.012 50.7471C227.324 49.4288 226.503 48.1678 225.987 46.773C225.796 46.2762 226.331 45.5119 226.541 44.8623C227.286 45.2444 228.49 45.4928 228.662 46.0278C229.063 47.4417 229.006 48.9702 229.12 50.4605C228.738 50.5561 228.375 50.6516 228.012 50.7471Z" fill="white"/>
<path d="M236.457 114.85C234.126 116.55 231.432 116.245 228.7 114.105C231.413 113.035 233.84 113.302 236.457 114.85Z" fill="white"/>
<path d="M213.186 32.2139C214.963 35.3856 213.874 37.8694 210.263 38.5573C211.027 36.2645 211.18 33.8761 213.186 32.2139Z" fill="white"/>
<path d="M222.223 116.55C222.089 113.914 223.561 111.85 226.274 110.704C227.229 112.462 225.987 114.315 222.223 116.55Z" fill="white"/>
<path d="M203.422 63.3575C201.015 65.4975 197.614 64.8669 196.62 62.192C199.028 61.657 201.187 62.0009 203.422 63.3575Z" fill="white"/>
<path d="M110.124 79.8085C109.341 79.7321 108.844 79.7894 108.443 79.6365C108.003 79.4646 107.488 79.1397 107.316 78.7385C107.201 78.471 107.545 77.8978 107.831 77.5921C108.691 76.6368 111.634 76.5986 112.551 77.5157C113.258 78.2226 113.258 78.9487 112.264 79.3308C111.5 79.6365 110.64 79.6938 110.124 79.8085Z" fill="white"/>
<path d="M134.505 137.491C136.377 135.122 138.46 134.663 141.039 135.982C139.817 138.026 137.103 138.695 134.505 137.491Z" fill="white"/>
<path d="M129.48 80.6107C126.327 81.375 123.901 80.1904 123.251 77.5346C125.41 76.9614 127.684 78.0887 129.48 80.6107Z" fill="white"/>
<path d="M83.471 115.117C86.5471 116.34 87.5407 117.754 87.3305 120.467C84.8466 120.257 82.8596 117.601 83.471 115.117Z" fill="white"/>
<path d="M162.19 143.51C159.152 144.026 156.993 142.554 156.63 139.86C158.98 139.536 161.12 140.911 162.19 143.51Z" fill="white"/>
<path d="M186.188 4.94873C187.066 7.92936 186.952 10.4132 185.825 12.9926C183.914 11.5787 184.028 8.71274 186.188 4.94873Z" fill="white"/>
<path d="M117.022 70.9428C115.264 68.1724 114.997 65.7458 116.277 62.8225C118.55 65.421 117.767 67.9431 117.022 70.9428Z" fill="white"/>
<path d="M212.307 43.2766C212.04 43.4294 211.619 43.8498 211.18 43.888C209.67 43.9835 207.416 42.3213 207.626 41.2322C207.741 40.659 208.467 39.9138 209.04 39.7992C210.148 39.5508 212.345 41.8054 212.307 43.2766Z" fill="white"/>
<path d="M105.539 55.2946C103.819 56.6129 100.724 55.5047 99.6924 53.2311C101.641 51.8554 103.915 52.5432 105.539 55.2946Z" fill="white"/>
<path d="M168.553 26.7302C165.993 25.8513 164.636 24.1891 164.082 21.3804C166.681 21.304 168.534 23.463 168.553 26.7302Z" fill="white"/>
<path d="M201.435 49.6391C198.97 50.5371 196.907 52.0656 194.251 51.3778C194.958 48.9321 199.352 47.7666 201.435 49.6391Z" fill="white"/>
<path d="M211.982 73.1974C211.887 73.9426 211.791 74.6686 211.696 75.4138C209.326 74.2865 208.409 72.1084 208.906 68.822C210.893 69.6436 211.294 71.5543 212.02 73.2548C212.02 73.2739 211.982 73.1974 211.982 73.1974Z" fill="white"/>
<path d="M167.693 89.9349C165.916 88.0625 165.534 86.19 166.451 84.3367C166.604 84.031 167.043 83.5724 167.254 83.6106C167.617 83.6871 168.075 84.0501 168.209 84.394C168.992 86.2474 168.916 88.0816 167.693 89.9349Z" fill="white"/>
<path d="M122.734 44.1937C125.295 42.8753 127.855 43.9835 128.199 46.4482C125.734 47.4036 124.378 46.8495 122.734 44.1937Z" fill="white"/>
<path d="M106.991 134.912C105.768 132.944 105.978 129.944 107.43 128.396C109.379 129.829 109.15 133.154 106.991 134.912Z" fill="white"/>
<path d="M167.998 159.75C170.463 159.942 171.647 161.088 172.469 163.897C170.367 164.795 168.246 162.884 167.998 159.75Z" fill="white"/>
<path d="M157.089 111.908C155.847 113.551 152.599 114.716 151.166 114.143C150.268 113.78 150.077 113.035 150.955 112.576C152.809 111.602 154.777 111.01 157.089 111.908Z" fill="white"/>
<path d="M201.168 117.85C201.034 117.028 200.595 116.13 200.881 115.614C201.665 114.181 202.639 112.729 204.588 112.576C204.894 114.926 203.881 116.569 201.168 117.85Z" fill="white"/>
<path d="M131.772 104.647C133.951 103.462 135.689 104.131 137.294 105.43C137.6 105.679 137.676 106.195 137.867 106.596C137.485 106.768 137.103 107.073 136.721 107.112C134.658 107.303 133.129 106.347 131.772 104.647Z" fill="white"/>
<path d="M158.693 95.9343C159.037 98.7812 157.184 100.845 154.203 101.112C154.585 98.4373 156.267 97.0234 158.693 95.9343Z" fill="white"/>
<path d="M93.75 117.468C94.7818 115.576 96.4058 115.117 98.049 114.812C98.5458 114.716 99.1381 115.194 99.6922 115.423C99.4247 115.977 99.31 116.761 98.8706 117.047C97.3229 118.022 95.6416 117.964 93.75 117.468Z" fill="white"/>
<path d="M89.0118 77.0569C86.8719 74.6113 86.6235 73.312 88.0374 70.9619C90.3875 72.777 90.827 75.2609 89.0118 77.0569Z" fill="white"/>
<path d="M171.457 154.649C170.406 152.49 170.349 150.713 171.38 148.993C171.61 148.611 172.202 148.172 172.565 148.248C172.89 148.306 173.329 148.974 173.348 149.376C173.386 151.21 172.928 152.91 171.457 154.649Z" fill="white"/>
<path d="M221.975 81.2414C224.134 80.1142 225.891 80.5536 227.42 81.7382C227.783 82.0248 227.745 82.8464 227.898 83.4196C227.382 83.5151 226.751 83.859 226.369 83.6871C224.86 82.9419 223.427 82.063 221.975 81.2414Z" fill="white"/>
<path d="M118.76 101.227C115.894 100.73 114.366 98.9724 114.309 96.202C116.353 96.1446 118.493 98.4757 118.76 101.227Z" fill="white"/>
<path d="M206.957 141.198C206.785 144.599 204.836 146.548 202.199 146.204C202.581 143.51 204.664 142.421 206.957 141.198Z" fill="white"/>
<path d="M93.4248 45.6074C95.9087 45.0533 98.2397 46.4481 98.7556 48.8174C96.1571 49.3141 93.8452 47.9193 93.4248 45.6074Z" fill="white"/>
<path d="M177.513 103.654C176.004 101.227 176.252 99.3355 178.296 97.4248C179.729 99.8705 179.5 101.991 177.513 103.654Z" fill="white"/>
<path d="M130.626 93.5651C129.709 91.941 130.015 89.1897 131.314 87.9286C131.543 87.6993 132.174 87.4701 132.25 87.5465C132.556 87.9095 132.996 88.4636 132.9 88.8075C132.461 90.4698 131.868 92.113 131.333 93.7561C131.104 93.6988 130.856 93.6415 130.626 93.5651Z" fill="white"/>
<path d="M211.982 91.9793C211.447 94.5014 210.129 96.1445 208.008 97.2718C207.148 94.8453 209.288 91.8646 211.982 91.9793Z" fill="white"/>
<path d="M114.462 49.7918C116.697 48.6836 118.608 48.8173 120.481 49.7727C120.805 49.9446 121.035 50.4223 121.168 50.8235C121.207 50.9191 120.748 51.3394 120.481 51.3776C118.398 51.7216 116.353 51.7598 114.462 49.7918Z" fill="white"/>
<path d="M147.669 30.991C146.045 32.8634 143.293 33.7041 141.153 32.9781C142.262 30.7999 145.223 29.9019 147.669 30.991Z" fill="white"/>
<path d="M142.338 24.4375C141.173 27.4181 139.663 28.3735 136.645 28.1633C137.199 26.0233 139.472 24.4948 142.338 24.4375Z" fill="white"/>
<path d="M105.519 118.614C105.214 116.474 106.207 115.079 107.621 113.952C107.965 113.665 108.767 113.704 109.226 113.914C109.436 114.009 109.513 114.907 109.341 115.309C108.653 116.971 107.621 118.327 105.519 118.614Z" fill="white"/>
<path d="M219.93 45.4739C218.784 47.9577 217.79 50.0595 216.663 52.4669C215.192 49.6391 216.835 46.0853 219.93 45.4739Z" fill="white"/>
<path d="M87.1582 56.0205C88.3619 54.7404 92.0304 54.5302 92.9475 55.7339C93.1195 55.9632 92.7182 57.0332 92.3361 57.2052C91.0177 57.8739 88.7823 57.3007 87.1582 56.0205Z" fill="white"/>
<path d="M189.665 76.2354C190.544 73.0064 192.932 71.516 195.359 72.395C194.403 74.9361 192.13 75.3947 189.665 76.2354Z" fill="white"/>
<path d="M185.634 58.4089C185.653 60.9119 185.329 63.0327 182.749 64.0454C181.889 61.2558 183.017 59.0203 185.634 58.4089Z" fill="white"/>
<path d="M171.265 127.9C171.476 131.11 169.737 132.715 166.775 132.485C167.425 130.078 168.954 128.683 171.265 127.9Z" fill="white"/>
<path d="M87.9031 53.8997C86.2217 54.7213 82.9927 53.9188 82.1711 52.5623C82.0183 52.3139 81.9036 51.798 82.0183 51.6834C82.324 51.4159 82.8207 51.1293 83.1646 51.1866C84.9416 51.5878 86.6994 52.0846 87.9031 53.8997Z" fill="white"/>
<path d="M240.928 69.701C238.425 70.8856 235.961 70.236 234.279 68.0006C236.801 67.2745 238.999 67.542 240.928 69.701Z" fill="white"/>
<path d="M116.066 87.8333C118.015 89.0752 118.512 91.6164 117.366 93.7563C115.226 92.8965 114.786 91.0432 116.066 87.8333Z" fill="white"/>
<path d="M170.291 38.1177C171.514 40.0092 170.788 40.8499 169.794 41.4231C168.705 42.0345 167.502 42.4358 166.336 42.9134C166.298 42.474 166.03 41.8435 166.221 41.6524C167.502 40.4678 168.839 39.3596 170.291 38.1177Z" fill="white"/>
<path d="M122.639 53.2883C123.766 54.5685 124.989 55.7722 125.982 57.1479C126.269 57.5491 125.944 58.428 125.906 59.0776C125.352 58.8675 124.53 58.8101 124.282 58.4089C123.365 56.9377 122.658 55.3327 121.855 53.7851C122.123 53.6131 122.39 53.4412 122.639 53.2883Z" fill="white"/>
<path d="M175.718 8.27322C176.425 6.26703 179.253 4.35637 180.896 4.58565C181.163 4.62386 181.622 4.87225 181.622 5.0442C181.641 5.38812 181.507 5.82758 181.278 6.07596C179.826 7.58539 177.972 8.13948 175.718 8.27322Z" fill="white"/>
<path d="M215.135 96.7178C216.109 94.3295 217.523 93.164 219.51 92.7054C219.892 92.6099 220.523 92.7245 220.695 92.992C220.867 93.2213 220.676 93.8518 220.466 94.1766C219.3 96.0108 217.332 96.0682 215.135 96.7178Z" fill="white"/>
<path d="M116.811 13.8141C114.461 16.852 113.812 17.1004 111.404 15.8394C113.162 13.088 115.321 12.2664 116.811 13.8141Z" fill="white"/>
<path d="M208.065 149.299C207.033 147.236 208.428 144.446 209.994 144.045C210.377 143.949 210.912 144.045 211.236 144.274C211.408 144.389 211.408 145.077 211.236 145.306C210.205 146.662 209.135 147.981 208.065 149.299Z" fill="white"/>
<path d="M212.956 114.888C211.255 113.245 211.045 112.232 211.657 108.717C213.739 109.214 214.523 112.557 212.956 114.888Z" fill="white"/>
<path d="M185.366 106.997C187.334 105.392 189.684 105.43 191.404 106.978C190.105 108.851 187.411 108.889 185.366 106.997Z" fill="white"/>
<path d="M136.835 100.291C134.714 101.896 131.753 101.609 130.205 99.7747C131.848 98.4563 134.6 98.6474 136.835 100.291Z" fill="white"/>
<path d="M129.346 66.8732C126.652 67.4655 124.646 66.6248 123.385 64.3893C125.735 63.434 127.875 64.3129 129.346 66.8732Z" fill="white"/>
<path d="M107.698 33.0353C107.679 30.9335 110.889 28.5834 112.169 29.1757C113.163 29.6343 113.163 30.5132 112.322 30.9909C110.985 31.7551 109.475 32.271 107.698 33.0353Z" fill="white"/>
<path d="M97.6674 79.9805C96.6356 77.9934 96.6165 76.1782 97.2279 74.344C97.3235 74.0383 97.7056 73.6179 97.9731 73.5988C98.2406 73.5797 98.6227 73.9619 98.7947 74.2485C99.5398 75.7197 99.024 78.5283 97.6674 79.9805Z" fill="white"/>
<path d="M136.147 59.5745C137.294 57.1671 139.357 56.8996 141.574 56.6321C141.096 59.307 138.708 60.6063 136.147 59.5745Z" fill="white"/>
<path d="M109.303 139.65C109.857 137.854 112.302 136.058 114.003 136.173C114.328 136.192 114.882 136.46 114.901 136.651C114.92 137.052 114.786 137.625 114.5 137.835C112.952 138.905 111.385 139.975 109.303 139.65Z" fill="white"/>
<path d="M160.795 70.771C161.006 73.0829 160.987 75.3375 159.42 77.3437C157.719 75.2037 158.579 71.2678 160.795 70.771Z" fill="white"/>
<path d="M111.882 50.4606C110.182 48.913 110.029 47.2125 110.774 45.3783C110.908 45.0534 111.29 44.6713 111.596 44.6522C111.882 44.614 112.398 44.977 112.475 45.2445C112.914 46.9832 113.564 48.7792 111.882 50.4606Z" fill="white"/>
<path d="M142.204 149.643C141.516 152.242 140.026 152.796 138.383 152.949C137.924 152.987 137.122 152.605 137.026 152.261C136.912 151.859 137.275 150.981 137.638 150.847C138.956 150.35 140.37 150.083 142.204 149.643Z" fill="white"/>
<path d="M87.273 48.1678C86.1648 46.4482 86.4896 43.9261 88.0945 42.0728C89.795 43.8688 89.3747 46.9258 87.273 48.1678Z" fill="white"/>
<path d="M213.568 132.887C213.358 129.505 213.759 129.065 217.313 128.492C217.618 130.154 216.128 131.95 213.568 132.887Z" fill="white"/>
<path d="M236.763 59.3643C237.012 62.1156 235.942 63.6824 233.401 64.4848C232.885 62.2685 234.031 60.4724 236.763 59.3643Z" fill="white"/>
<path d="M107.106 138.619C105.711 142.554 104.106 143.548 102.195 141.637C103.647 140.453 104.488 138.447 107.106 138.619Z" fill="white"/>
<path d="M195.072 94.6543C194.728 92.0367 195.76 90.1069 197.327 87.9861C198.129 91.8647 197.518 93.6608 195.072 94.6543Z" fill="white"/>
<path d="M136.244 110.551C139.167 110.589 139.836 112.595 140.332 114.774C137.906 114.907 136.072 113.092 136.244 110.551Z" fill="white"/>
<path d="M227.802 106.634C226.79 104.8 227.038 102.851 227.42 100.902C227.477 100.558 227.993 100.31 228.299 100.004C228.566 100.31 229.082 100.635 229.082 100.921C229.006 102.851 228.834 104.762 228.681 106.691C228.395 106.672 228.108 106.653 227.802 106.634Z" fill="white"/>
<path d="M93.8838 134.129C94.992 132.084 97.7051 131.473 99.0426 132.314C99.2719 132.466 99.5776 132.848 99.5202 133.04C99.4056 133.441 99.0999 134.071 98.8515 134.09C97.2083 134.167 95.5461 134.129 93.8838 134.129Z" fill="white"/>
<path d="M187.22 32.3284C185.94 31.5259 184.583 30.8381 183.456 29.8827C183.017 29.5006 183.055 28.5453 182.883 27.8574C183.571 27.9338 184.488 27.7619 184.889 28.144C185.978 29.1949 186.857 30.4559 187.812 31.6405C187.602 31.8698 187.411 32.0991 187.22 32.3284Z" fill="white"/>
<path d="M229.885 85.7123C230.553 84.0309 231.681 82.8081 233.553 82.3495C233.974 82.254 234.489 82.5406 234.948 82.6362C234.814 83.1711 234.852 83.9736 234.528 84.1647C233.152 84.9863 231.681 85.6168 230.248 86.3046C230.152 86.1136 230.019 85.9034 229.885 85.7123Z" fill="white"/>
<path d="M188.233 159.407C185.94 161.642 183.341 161.279 182.042 158.776C184.239 157.324 185.997 159.005 188.233 159.407Z" fill="white"/>
<path d="M235.77 76.5795C236.84 73.981 239.228 74.6879 241.234 74.2676C240.814 76.7132 238.062 77.8596 235.77 76.5795Z" fill="white"/>
<path d="M83.3365 89.8777C80.375 88.1199 79.5534 86.7251 80.2221 84.8145C82.6104 85.3494 83.8142 87.2219 83.3365 89.8777Z" fill="white"/>
<path d="M102.31 29.0039C100.437 30.3414 98.1253 29.8637 96.5586 27.8384C98.1636 26.5965 100.991 27.1697 102.31 29.0039Z" fill="white"/>
<path d="M125.563 120.372C125.505 116.894 126.709 114.869 128.983 114.716C128.333 116.894 128.257 119.245 125.563 120.372Z" fill="white"/>
<path d="M212.287 65.2681C209.364 65.8987 207.587 65.0962 206.498 62.7461C208.6 62.1346 210.644 62.9753 212.287 65.2681Z" fill="white"/>
<path d="M230.305 94.8072C230.267 92.7054 231.968 90.7375 234.432 90.0305C234.719 92.0749 232.789 94.3295 230.305 94.8072Z" fill="white"/>
<path d="M179.462 69.51C183.035 70.9048 183.57 72.0703 182.213 75.0127C179.749 74.0192 180.15 71.7073 179.462 69.51Z" fill="white"/>
<path d="M194.289 14.4637C191.901 15.9731 189.398 15.3235 188.557 13.5083C188.423 13.2026 188.423 12.7632 188.538 12.4575C188.614 12.3046 189.149 12.2091 189.398 12.3046C190.907 12.9351 192.397 13.623 194.289 14.4637Z" fill="white"/>
<path d="M194.309 17.8457C196.964 17.6164 199.009 18.8201 199.735 20.9409C197.614 21.4377 195.092 20.0429 194.309 17.8457Z" fill="white"/>
<path d="M140.16 5.50263C137.963 6.62992 137.485 6.49618 134.256 4.01231C135.765 2.75128 138.727 3.43911 140.16 5.50263Z" fill="white"/>
<path d="M148.529 101.857C147.077 99.4117 147.115 97.4437 148.644 95.8005C150.44 97.4628 150.42 99.3162 148.529 101.857Z" fill="white"/>
<path d="M223.924 107.265C221.765 107.895 220.064 107.131 218.727 104.895C220.809 103.844 223.293 104.972 223.924 107.265Z" fill="white"/>
<path d="M146.484 156.617C147.993 158.394 147.898 160.362 146.274 162.349C144.535 160.954 144.573 158.891 146.484 156.617Z" fill="white"/>
<path d="M136.645 41.4233C134.906 42.4359 132.155 41.4424 131.123 39.4171C133.034 38.4426 135.021 39.1687 136.645 41.4233Z" fill="white"/>
<path d="M187.353 72.1083C187.086 69.9493 188.882 68.6882 192.111 68.8029C191.194 71.1148 189.684 72.1847 187.353 72.1083Z" fill="white"/>
<path d="M125.659 15.8203C123.843 16.5272 122.277 17.5017 120.442 16.5463C120.099 16.3744 119.64 15.8585 119.697 15.6292C119.812 15.228 120.251 14.6739 120.614 14.6166C122.353 14.3491 124.054 14.3873 125.659 15.8203Z" fill="white"/>
<path d="M178.45 80.6681C178.527 79.3689 178.469 78.0314 178.718 76.7704C178.832 76.1972 179.539 75.7195 179.979 75.2036C180.38 76.0061 181.24 76.9232 181.068 77.5919C180.762 78.7574 179.826 79.751 179.157 80.821C178.928 80.7827 178.679 80.7254 178.45 80.6681Z" fill="white"/>
<path d="M170.807 136.345C170.597 137.778 170.464 139.23 170.101 140.606C169.986 141.064 169.222 141.351 168.763 141.714C168.496 141.198 167.884 140.587 168.018 140.185C168.476 138.733 169.164 137.377 169.776 135.982C170.101 136.116 170.464 136.23 170.807 136.345Z" fill="white"/>
<path d="M161.77 151.879C164.024 152.872 165.133 155.413 164.311 157.458C162.171 156.159 161.388 154.515 161.77 151.879Z" fill="white"/>
<path d="M80.3369 67.7522C80.6426 65.5932 82.6106 64.5805 85.362 65.0582C84.12 67.542 83.222 68.0388 80.3369 67.7522Z" fill="white"/>
<path d="M184.965 16.9094C183.341 17.6737 181.736 18.4761 180.093 19.164C179.844 19.2786 179.042 18.8392 179.042 18.6481C179.042 18.2087 179.252 17.4826 179.577 17.368C181.201 16.7374 182.863 16.2789 184.526 15.7439C184.659 16.1451 184.812 16.5273 184.965 16.9094Z" fill="white"/>
<path d="M200.346 136.937C199.887 135.008 200.824 133.517 203.288 132.237C204.53 133.995 203.193 136.135 200.346 136.937Z" fill="white"/>
<path d="M154.05 133.192C152.846 131.072 153.458 128.301 155.311 126.964C156.19 129.008 155.693 131.626 154.05 133.192Z" fill="white"/>
<path d="M99.2528 95.1891C97.1128 94.6733 96.3677 93.1447 95.8327 91.5207C95.718 91.1767 95.8709 90.4889 96.1193 90.3552C96.425 90.2023 97.0555 90.336 97.3421 90.5844C98.6032 91.769 99.4056 93.202 99.2528 95.1891Z" fill="white"/>
<path d="M202.658 152.949C201.111 153.847 199.639 153.388 198.245 152.643C197.939 152.471 197.633 151.879 197.691 151.554C197.748 151.229 198.226 150.828 198.589 150.732C200.136 150.293 201.932 151.286 202.658 152.949Z" fill="white"/>
<path d="M198.512 11.311C198.645 11.1391 198.97 10.757 199.295 10.3557C200.231 11.4066 201.168 12.4574 202.027 13.5656C202.085 13.6229 201.531 14.4254 201.206 14.4636C200.002 14.6738 198.531 13.088 198.512 11.311Z" fill="white"/>
<path d="M100.61 103.004C99.75 104.15 98.9475 105.373 97.9731 106.405C97.6865 106.711 96.8267 106.481 96.2344 106.5C96.3299 105.965 96.2344 105.239 96.5592 104.934C97.5718 103.94 98.7182 103.099 99.8073 102.182C100.075 102.469 100.342 102.736 100.61 103.004Z" fill="white"/>
<path d="M138.249 82.0247C139.854 83.4385 140.026 85.8269 138.67 87.8713C136.855 86.7631 136.702 84.7378 138.249 82.0247Z" fill="white"/>
<path d="M152.924 58.3898C150.363 57.6065 149.141 56.1544 149.141 54.0335C151.166 53.4794 152.198 54.6258 152.924 58.3898Z" fill="white"/>
<path d="M187.067 147.389C187.698 148.726 188.424 150.025 188.921 151.42C189.073 151.821 188.615 152.433 188.443 152.949C187.946 152.719 187.144 152.605 187.029 152.261C186.551 150.809 186.303 149.28 185.959 147.771C186.341 147.637 186.704 147.522 187.067 147.389Z" fill="white"/>
<path d="M216.739 23.5012C217.331 26.7876 216.911 28.0868 214.905 29.367C214.045 26.7302 214.637 24.6285 216.739 23.5012Z" fill="white"/>
<path d="M90.3682 127.231C91.7821 126.792 94.5907 127.69 95.0302 128.855C95.1448 129.142 94.5907 130.021 94.2659 130.078C92.3553 130.345 91.0942 129.352 90.3682 127.231Z" fill="white"/>
<path d="M131.868 143.376C129.537 144.37 127.874 144.083 126.346 142.478C127.855 140.797 130.339 141.141 131.868 143.376Z" fill="white"/>
<path d="M143.924 70.446C145.778 71.8026 145.816 73.5031 145.491 75.2609C145.434 75.5666 145.09 76.0061 144.803 76.0634C144.536 76.1207 144.039 75.815 143.905 75.5475C143.16 73.9426 142.721 72.3185 143.924 70.446Z" fill="white"/>
<path d="M154.834 63.4722C152.427 62.7079 152.35 61.0839 154.509 57.6064C156.095 59.5553 155.102 61.5042 154.834 63.4722Z" fill="white"/>
<path d="M176.845 113.054C175.66 116.321 174.495 116.875 171.571 115.538C173.062 114.124 174.418 112.691 176.845 113.054Z" fill="white"/>
<path d="M121.723 35.5193C123.595 37.1434 124.015 38.9394 123.136 40.3533C122.907 40.7163 122.334 41.1366 121.99 41.0984C121.665 41.0602 121.149 40.4106 121.168 40.0476C121.226 38.6719 121.474 37.3153 121.723 35.5193Z" fill="white"/>
<path d="M190.849 95.4568C193.238 96.7751 193.945 98.7622 192.837 100.768C191.021 99.7176 190.181 97.5776 190.849 95.4568Z" fill="white"/>
<path d="M159.936 53.0209C159.248 51.0147 160.471 49.4862 163.26 48.7219C163.776 50.709 162.897 51.8745 159.936 53.0209Z" fill="white"/>
<path d="M192.226 152.758C194.729 152.987 196.2 154.42 196.467 156.732C194.327 156.885 193.028 155.719 192.226 152.758Z" fill="white"/>
<path d="M128.581 29.9209C131.103 29.9782 132.46 31.9653 131.925 34.6402C129.727 33.8378 129.154 32.0035 128.581 29.9209Z" fill="white"/>
<path d="M207.435 129.791C208.142 127.116 209.594 126.257 211.925 125.989C211.867 126.753 212.077 127.881 211.734 128.072C210.549 128.759 209.154 129.142 207.435 129.791Z" fill="white"/>
<path d="M78.4835 75.1655C79.7063 76.9233 78.9611 78.3754 78.3497 79.7702C78.216 80.0759 77.5855 80.4007 77.2606 80.3243C76.9549 80.267 76.5728 79.732 76.5155 79.3499C76.2098 77.6303 77.1842 76.4266 78.4835 75.1655Z" fill="white"/>
<path d="M173.577 154.726C176.252 157.095 175.66 158.451 171.38 160.171C172.182 158.184 172.832 156.598 173.577 154.726Z" fill="white"/>
<path d="M148.758 13.1836C149.98 14.9987 149.713 16.4508 148.719 17.7501C148.433 18.1131 147.745 18.1513 147.248 18.3424C147.114 17.8838 146.732 17.3106 146.885 16.9667C147.401 15.6675 148.108 14.4446 148.758 13.1836Z" fill="white"/>
<path d="M193.277 28.4689C192.054 29.7299 191.156 30.7999 190.105 31.6979C189.78 31.9845 189.093 31.8508 188.558 31.9272C188.577 31.3349 188.386 30.5706 188.672 30.1503C189.647 28.8319 190.965 28.0294 193.277 28.4689Z" fill="white"/>
<path d="M232.139 56.7466C232.712 54.9506 233.152 53.0781 235.254 52.0464C235.922 54.664 234.623 56.1543 232.98 57.5109C232.655 57.2243 232.388 56.9568 232.12 56.7084L232.139 56.7466Z" fill="white"/>
<path d="M125.888 147.637C127.149 148.134 128.467 148.554 129.652 149.185C129.976 149.357 129.957 150.178 130.11 150.713C129.633 150.809 129.021 151.133 128.696 150.942C127.512 150.293 126.442 149.49 125.314 148.726C125.525 148.363 125.716 148 125.888 147.637Z" fill="white"/>
<path d="M153.784 64.313C154.166 65.6122 154.662 66.8924 154.854 68.2299C154.93 68.7266 154.299 69.338 153.994 69.8921C153.535 69.3571 152.733 68.8413 152.675 68.2681C152.58 67.0261 152.886 65.746 153.038 64.4658C153.287 64.4085 153.535 64.3703 153.784 64.313Z" fill="white"/>
<path d="M130.95 123.773C129.747 125.11 128.562 126.448 127.129 128.053C126.365 125.148 127.874 123.276 130.377 123.276C130.568 123.429 130.759 123.601 130.95 123.773Z" fill="white"/>
<path d="M155.598 50.8999C153.707 50.6325 151.815 50.3841 149.561 50.0784C152.025 47.8238 153.86 47.9957 155.694 50.2503C155.656 50.4796 155.636 50.6898 155.598 50.8999Z" fill="white"/>
<path d="M205.562 85.9415C202.581 83.5723 202.753 82.4068 206.078 80.8401C205.887 82.7316 205.715 84.3366 205.562 85.9415Z" fill="white"/>
<path d="M186.093 47.7474C187.64 45.9896 188.997 45.8367 191.424 47.136C190.201 48.932 188.214 49.1995 186.093 47.7474Z" fill="white"/>
<path d="M205.925 42.5696C204.721 44.0408 203.135 43.6586 201.588 43.3338C201.282 43.2765 200.823 42.818 200.862 42.6078C200.919 42.2448 201.301 41.6524 201.549 41.6524C203.002 41.5951 204.454 41.6716 205.906 41.7098C205.906 41.9773 205.906 42.2639 205.925 42.5696Z" fill="white"/>
<path d="M114.232 41.1366C113.258 38.1942 113.506 36.9331 115.283 35.7485C116.506 38.1942 116.277 39.5699 114.232 41.1366Z" fill="white"/>
<path d="M87.9798 109.653C91.1515 111.812 91.5718 112.366 91.61 114.391C89.2217 114.277 87.655 112.194 88.018 109.596L87.9798 109.653Z" fill="white"/>
<path d="M239.553 98.0552C239.687 100.119 238.215 101.724 235.712 102.411C235.617 100.424 237.088 98.6857 239.553 98.0552Z" fill="white"/>
<path d="M173.673 121.977C172.756 121.193 171.763 120.486 170.998 119.569C170.731 119.264 171.037 118.461 171.075 117.888C171.724 117.945 172.756 117.754 172.985 118.079C173.635 119.072 173.979 120.295 174.438 121.423C174.17 121.595 173.922 121.786 173.673 121.977Z" fill="white"/>
<path d="M116.984 32.959C115.035 31.5069 114.786 30.1694 115.933 27.8958C117.652 28.3925 118.207 30.8764 116.984 32.959Z" fill="white"/>
<path d="M175.163 140.682C177.723 141.141 178.258 143.032 178.793 144.943C176.329 144.847 174.857 143.128 175.163 140.682Z" fill="white"/>
<path d="M160.28 150.847C158.426 151.477 157.203 150.656 156.133 149.624C155.866 149.376 155.675 148.726 155.828 148.478C156 148.191 156.611 147.924 156.955 147.981C158.464 148.306 159.917 148.822 160.28 150.847Z" fill="white"/>
<path d="M104.316 34.7358C103.151 35.2707 102.023 35.9204 100.801 36.2834C100.399 36.398 99.7688 35.7484 99.2529 35.4427C99.5777 34.9459 99.8643 34.067 100.266 34.0097C101.527 33.8186 102.826 33.9333 104.125 33.9333C104.202 34.2008 104.259 34.4683 104.316 34.7358Z" fill="white"/>
<path d="M89.8711 53.2692C90.0622 51.0146 91.8009 49.5625 93.9981 49.658C93.5969 51.8171 92.3167 52.9826 89.8711 53.2692Z" fill="white"/>
<path d="M215.86 136.555C217.198 134.74 219.261 134.052 220.694 134.74C221 134.893 221.344 135.39 221.325 135.714C221.306 136.02 220.847 136.517 220.541 136.517C219.108 136.593 217.656 136.555 215.86 136.555Z" fill="white"/>
<path d="M148.414 47.1169C148.261 44.7477 149.426 43.5822 152.025 43.3147C151.738 45.6075 150.592 46.8494 148.414 47.1169Z" fill="white"/>
<path d="M128.123 48.569C130.32 47.3079 132.078 48.0531 133.225 50.5561C131.199 50.8427 129.537 50.3459 128.123 48.569Z" fill="white"/>
<path d="M120.442 113.512C118.092 114.028 116.2 113.971 114.442 112.442C116.601 111.277 118.799 111.64 120.442 113.512Z" fill="white"/>
<path d="M144.689 92.8773C142.491 94.4058 141.039 93.355 139.683 91.8264C141.058 90.489 142.988 90.8902 144.689 92.8773Z" fill="white"/>
<path d="M241.33 88.7695C238.827 88.8268 237.318 87.6422 236.095 85.827C238.024 85.0628 240.279 86.3238 241.33 88.7695Z" fill="white"/>
<path d="M128.199 10.0883C128.237 7.75727 129.804 6.72551 131.333 5.50269C131.486 8.63617 130.511 10.1265 128.199 10.0883Z" fill="white"/>
<path d="M180.666 150.331C182.825 151.955 183.074 154.038 181.373 155.604C180.38 153.961 179.883 152.356 180.666 150.331Z" fill="white"/>
<path d="M120.557 9.7444C123.174 9.70619 123.958 10.394 124.588 13.2027C122.83 13.2027 121.092 11.7124 120.557 9.7444Z" fill="white"/>
<path d="M118.034 129.409C120.059 129.046 122.066 130.632 121.894 132.027C121.856 132.313 120.805 132.81 120.728 132.734C119.849 131.759 119.047 130.689 118.034 129.409Z" fill="white"/>
<path d="M87.9985 109.615C85.9541 110.895 84.4065 111.029 82.8779 110.054C84.6357 107.991 87.0623 107.819 87.9603 109.653C87.9794 109.653 87.9985 109.615 87.9985 109.615Z" fill="white"/>
<path d="M152.14 8.90369C151.433 10.8526 150.229 11.3111 147.268 10.8335C148.051 8.99922 149.694 8.34959 152.14 8.90369Z" fill="white"/>
<path d="M98.7373 139.459C99.4251 137.434 101.087 136.956 102.845 136.536C103.304 138.619 101.393 139.975 98.7373 139.459Z" fill="white"/>
<path d="M81.2158 59.7656C81.9228 58.0078 84.2347 57.5302 85.8205 58.8294C84.5595 60.5681 83.4704 60.7783 81.2158 59.7656Z" fill="white"/>
<path d="M134.543 13.9478C132.537 15.3426 131.505 15.247 129.919 13.623C131.218 12.1327 132.575 12.2091 134.543 13.9478Z" fill="white"/>
<path d="M89.0693 81.2604C89.6043 78.9867 90.8654 78.4135 92.4512 78.3753C92.8142 78.3562 93.3874 78.7001 93.5021 79.0058C93.6167 79.2924 93.3301 79.9993 93.0626 80.0949C91.878 80.5343 90.617 80.8209 89.0693 81.2604Z" fill="white"/>
<path d="M110.105 107.093C111.233 104.895 112.952 104.169 114.806 104.934C113.487 106.118 112.589 108.029 110.105 107.093Z" fill="white"/>
<path d="M81.2357 102.622C81.3312 104.207 81.4267 105.793 81.5414 107.704C79.1912 106.5 78.962 104.112 80.5096 102.603C80.7389 102.603 80.9873 102.622 81.2357 102.622Z" fill="white"/>
<path d="M177.571 50.518C176.31 48.6073 176.405 47.4418 177.934 45.7795C179.329 47.1934 179.195 48.9321 177.571 50.518Z" fill="white"/>
<path d="M123.69 73.7899C121.875 75.1082 120.251 74.8216 118.474 74C120.423 72.1849 121.703 72.1085 123.69 73.7899Z" fill="white"/>
<path d="M102.654 86.7823C102.157 85.6359 101.603 84.5087 101.221 83.3432C101.145 83.0948 101.622 82.3496 101.833 82.3496C102.253 82.3687 102.941 82.6553 103.017 82.9801C103.323 84.1074 103.437 85.292 103.629 86.4575C103.304 86.5531 102.979 86.6677 102.654 86.7823Z" fill="white"/>
<path d="M142.663 42.1301C141.612 44.5567 140.962 45.0152 138.65 45.0152C138.803 43.1428 140.007 42.2639 142.663 42.1301Z" fill="white"/>
<path d="M211.084 134.109C211.963 134.606 212.937 135.007 213.644 135.676C213.988 136.001 213.797 136.88 213.855 137.491C213.224 137.396 212.326 137.51 212.001 137.128C211.371 136.402 211.065 135.409 210.606 134.511C210.778 134.377 210.931 134.243 211.084 134.109Z" fill="white"/>
<path d="M151.949 146.968C150.402 146.873 148.835 146.777 147.249 146.682C147.994 144.293 148.93 144.236 151.93 146.338C151.93 146.548 151.949 146.758 151.949 146.968Z" fill="white"/>
<path d="M76 72.032C78.8087 70.2551 80.0888 70.2169 81.5218 71.5926C79.9551 73.3504 78.2355 72.204 76 72.032Z" fill="white"/>
<path d="M135.651 19.6606C134.218 18.113 134.314 16.9093 135.919 14.4636C136.874 16.2214 136.874 17.8455 135.651 19.6606Z" fill="white"/>
<path d="M110.621 74.6878C111.328 73.0255 111.863 71.8027 112.494 70.3506C114.5 73.2548 114.251 73.9044 110.621 74.6878Z" fill="white"/>
<path d="M149.752 138.198C151.108 138.752 152.484 139.287 154.242 139.994C151.873 141.351 150.535 140.854 149.484 138.81C149.58 138.619 149.675 138.408 149.752 138.198Z" fill="white"/>
<path d="M149.962 121.996C150.975 120.563 153.573 119.951 154.223 120.716C154.395 120.907 154.032 121.939 153.86 121.939C152.675 122.053 151.471 121.996 149.962 121.996Z" fill="white"/>
<path d="M144.039 128.855C146.198 128.511 146.981 129.791 147.841 131.091C145.969 131.664 145.166 131.224 144.039 128.855Z" fill="white"/>
</g>
<defs>
<clipPath id="clip0">
<rect width="165.33" height="165.75" fill="white" transform="translate(76)"/>
</clipPath>
</defs>
</svg>
