<svg width="452" height="27" viewBox="0 0 452 27" fill="none" xmlns="http://www.w3.org/2000/svg">
<path d="M18.9751 13.9031L9.02987 0.585403L0.970135 15.9164L17.5791 16.5586L18.9751 13.9031ZM128.611 18.2598L128.795 19.7484L128.611 18.2598ZM320.208 8.25092L320.297 6.75354L320.208 8.25092ZM435.607 22.7414L451.739 26.7436L448.261 9.77591L435.004 19.8025L435.607 22.7414ZM16.4786 15.9566C34.8903 22.0118 72.512 26.7122 128.795 19.7484L128.427 16.7711C72.4022 23.7029 35.2629 18.9762 17.4158 13.1068L16.4786 15.9566ZM128.795 19.7484C209.689 9.73959 231.564 4.50683 320.12 9.7483L320.297 6.75354C231.436 1.49397 209.311 6.76347 128.427 16.7711L128.795 19.7484ZM320.12 9.7483C343.646 11.1408 365.344 15.0411 384.934 18.2451C404.459 21.4386 421.985 23.9604 436.921 22.464L436.622 19.479C422.144 20.9294 405.01 18.4889 385.418 15.2845C365.89 12.0906 344.014 8.1573 320.297 6.75354L320.12 9.7483Z" fill="#FFE99B"/>
</svg>
