<svg width="44" height="54" viewBox="0 0 44 54" fill="none" xmlns="http://www.w3.org/2000/svg">
<path fill-rule="evenodd" clip-rule="evenodd" d="M19.2097 54C14.3838 54 9.56116 52.157 5.88136 48.4772C2.20155 44.7974 0.361755 39.9745 0.361755 35.1516C0.361755 31.8931 1.09898 28.5755 2.87993 25.7289C5.49418 21.5473 6.36451 19.3326 4.1716 14.0234C3.63888 12.7348 3.15562 12.6418 4.53399 12.5056C8.7094 12.0967 12.1815 14.7048 13.8449 17.7001C12.3829 8.68318 20.8327 12.2732 18.7326 0.790746C18.5375 -0.271746 19.4451 -0.0704062 20.0584 0.285867C34.4615 8.68329 24.8098 12.7906 32.5349 21.823C36.2147 25.5029 38.0545 30.3257 38.0545 35.1516C38.0545 39.9745 36.2146 44.7973 32.5349 48.4772C28.8552 52.1571 24.0324 54 19.2097 54Z" fill="#BC0428"/>
<path fill-rule="evenodd" clip-rule="evenodd" d="M32.7456 35.1764C32.7456 27.699 26.6838 21.6372 19.2097 21.6372C11.7325 21.6372 5.67078 27.699 5.67078 35.1764C5.67078 42.6508 11.7325 48.7126 19.2097 48.7126C26.6838 48.7126 32.7456 42.6508 32.7456 35.1764Z" fill="#EFF6FF"/>
<path fill-rule="evenodd" clip-rule="evenodd" d="M38.3859 5.10572C37.0571 7.03854 33.9845 11.276 33.9845 13.689C33.9845 16.8237 36.3819 18.9145 38.7763 18.9145C42.5118 18.9145 45.2314 14.482 42.5768 11.6787C41.0838 10.1021 39.0457 8.2219 39.1479 5.41243C39.1726 4.75578 38.7205 4.61941 38.3859 5.10572Z" fill="#E0BB61"/>
<path fill-rule="evenodd" clip-rule="evenodd" d="M19.2096 22.7151C24.0881 24.7595 27.517 29.5823 27.517 35.2074C27.517 40.8295 24.0881 45.6523 19.2096 47.6966C18.4012 48.0374 17.5525 48.2976 16.6728 48.4772C17.4936 48.632 18.3423 48.7126 19.2096 48.7126C21.1455 48.7126 22.9885 48.3069 24.655 47.5727C29.4188 45.4757 32.7455 40.7148 32.7455 35.1764C32.7455 30.1677 30.026 25.794 25.9838 23.4523C23.9921 22.3001 21.6783 21.6372 19.2096 21.6372C18.2866 21.6372 17.3852 21.7301 16.5149 21.9067C17.4503 22.0832 18.3516 22.3558 19.2096 22.7151Z" fill="#D9EEFF"/>
<path fill-rule="evenodd" clip-rule="evenodd" d="M32.5349 21.8229C24.8098 12.7905 34.4615 8.68321 20.0583 0.285789C19.445 -0.0703789 18.5375 -0.271719 18.7326 0.790668C19.1724 3.19746 19.1508 4.94139 18.8534 6.27947C22.5177 11.378 18.5808 15.3801 24.3576 22.1326C24.6488 22.4268 24.9306 22.7243 25.2001 23.0309C25.4665 23.1641 25.7267 23.3034 25.9837 23.4521C30.0259 25.7938 32.7454 30.1675 32.7454 35.1762C32.7454 40.1632 30.0507 44.5183 26.0363 46.8693C25.5252 47.5353 24.9677 48.1765 24.3575 48.7866C21.9043 51.2398 18.9463 52.8753 15.8179 53.6932C16.9391 53.8975 18.0728 53.9999 19.2095 53.9999C24.0322 53.9999 28.855 52.1568 32.5348 48.477C36.2146 44.7972 38.0544 39.9743 38.0544 35.1514C38.0545 30.3256 36.2147 25.5027 32.5349 21.8229Z" fill="#86011B"/>
<path d="M16.5082 26.7041C16.3352 26.2886 15.8581 26.0917 15.4426 26.2653C15.0271 26.4383 14.8307 26.9154 15.0037 27.3308L17.5406 33.4205C17.6709 33.7335 17.9739 33.9223 18.2931 33.9223C18.3975 33.9223 18.5037 33.9021 18.6061 33.8593C19.0216 33.6863 19.2181 33.2092 19.045 32.7938L16.5082 26.7041Z" fill="#2C2C2C"/>
<path d="M24.7882 34.3369H21.443C20.9929 34.3369 20.6281 34.7017 20.6281 35.1518C20.6281 35.6018 20.9929 35.9666 21.443 35.9666H24.7882C25.2383 35.9666 25.6031 35.6018 25.6031 35.1518C25.6031 34.7017 25.2383 34.3369 24.7882 34.3369Z" fill="#2C2C2C"/>
<path d="M19.2097 20.8223C11.295 20.8223 4.8559 27.2616 4.8559 35.1766C4.8559 43.0898 11.295 49.5276 19.2097 49.5276C27.1227 49.5276 33.5604 43.0898 33.5604 35.1766C33.5605 27.2616 27.1227 20.8223 19.2097 20.8223ZM30.41 35.9665H31.9054C31.7268 38.8653 30.5736 41.5044 28.7695 43.5593L27.706 42.4959C27.3878 42.1777 26.8719 42.1776 26.5536 42.4958C26.2354 42.814 26.2353 43.3299 26.5536 43.6482L27.6186 44.7134C25.5659 46.5256 22.9259 47.6867 20.0245 47.8711V46.3526C20.0245 45.9024 19.6597 45.5377 19.2097 45.5377C18.7596 45.5377 18.3948 45.9025 18.3948 46.3526V47.8712C15.4924 47.6868 12.8516 46.5255 10.7981 44.7129L11.8626 43.6483C12.1809 43.3301 12.1809 42.8143 11.8626 42.4959C11.5444 42.1778 11.0285 42.1777 10.7102 42.496L9.64703 43.5591C7.84277 41.5043 6.68937 38.8653 6.51081 35.9667H8.00614C8.45618 35.9667 8.82099 35.6019 8.82099 35.1519C8.82099 34.7018 8.45618 34.337 8.00614 34.337H6.51408C6.7035 31.4444 7.86344 28.8129 9.67097 26.7653L10.7103 27.8046C10.8694 27.9638 11.0779 28.0434 11.2864 28.0434C11.4949 28.0434 11.7036 27.9638 11.8626 27.8047C12.1809 27.4864 12.1809 26.9706 11.8626 26.6523L10.8247 25.6143C12.8743 23.8148 15.5049 22.6626 18.3947 22.4791V23.9481C18.3947 24.3983 18.7595 24.763 19.2096 24.763C19.6596 24.763 20.0244 24.3982 20.0244 23.9481V22.4791C22.9132 22.6627 25.5429 23.8146 27.5918 25.6139L26.5535 26.6524C26.2353 26.9706 26.2353 27.4865 26.5535 27.8048C26.7126 27.9639 26.9211 28.0435 27.1296 28.0435C27.3381 28.0435 27.5468 27.9639 27.7059 27.8047L28.7455 26.765C30.5529 28.8126 31.7127 31.4443 31.902 34.3371H30.4098C29.9598 34.3371 29.595 34.702 29.595 35.152C29.595 35.602 29.96 35.9665 30.41 35.9665Z" fill="#2C2C2C"/>
<path fill-rule="evenodd" clip-rule="evenodd" d="M36.2177 8.33961C36.7226 10.3313 38.2806 11.7995 39.4856 13.0726C41.1953 14.8816 40.6719 17.3689 39.0798 18.9053C42.6573 18.6761 45.157 14.4046 42.5768 11.6787C41.0838 10.1021 39.0458 8.2219 39.148 5.41243C39.1727 4.75578 38.7205 4.61941 38.3859 5.10572C37.8438 5.89568 37.0138 7.06649 36.2177 8.33961Z" fill="#DAAB39"/>
<path fill-rule="evenodd" clip-rule="evenodd" d="M19.2097 37.3847C20.4425 37.3847 21.443 36.3842 21.443 35.1514C21.443 33.9155 20.4425 32.915 19.2097 32.915C17.9738 32.915 16.9733 33.9155 16.9733 35.1514C16.9734 36.3842 17.9739 37.3847 19.2097 37.3847Z" fill="#E0BB61"/>
</svg>
