<svg width="25" height="25" viewBox="0 0 25 25" fill="none" xmlns="http://www.w3.org/2000/svg">
<g clip-path="url(#clip0)">
<path d="M25 7.97451L23.7375 11.4995V11.487C23.0875 11.2495 22.45 11.287 21.825 11.587C21.2 11.887 20.7625 12.362 20.525 13.012C20.2875 13.662 20.325 14.2995 20.6125 14.9245C20.9125 15.5495 21.3875 15.9745 22.05 16.212V16.2245L20.7875 19.7495L1.9625 13.0245L3.2 9.53701C3.85 9.77451 4.4875 9.73701 5.1125 9.43701C5.7375 9.14951 6.1625 8.67451 6.4 8.02451C6.6375 7.37451 6.6 6.73701 6.3 6.11201C6.1633 5.81483 5.96759 5.54855 5.72476 5.32937C5.48194 5.11018 5.19708 4.94267 4.8875 4.83701L6.1625 1.24951L25 7.97451ZM18.7875 15.087L20.5 10.387C20.65 9.99951 20.625 9.57451 20.45 9.19951C20.275 8.82451 19.9625 8.53701 19.575 8.38701L10.175 4.97451C9.375 4.68701 8.4625 5.12451 8.175 5.89951L6.4625 10.5995C6.1625 11.412 6.5875 12.312 7.3875 12.5995L16.7875 16.0245C16.9625 16.087 17.1375 16.1245 17.325 16.1245C17.975 16.1245 18.575 15.712 18.7875 15.087ZM9.9625 5.56201L19.35 8.97451C19.5875 9.06201 19.775 9.23701 19.8875 9.46201C19.9875 9.68701 20 9.93701 19.9125 10.1745L18.2 14.8745C18.0375 15.3495 17.475 15.612 17 15.437L7.6125 12.012C7.37884 11.9274 7.18834 11.7535 7.08286 11.5284C6.97739 11.3034 6.96557 11.0457 7.05 10.812L8.7625 6.11201C8.8875 5.74951 9.25 5.49951 9.6375 5.49951C9.75 5.49951 9.85 5.52451 9.9625 5.56201ZM18.4875 20.737C18.925 21.0745 19.425 21.2495 19.9875 21.2495H20V24.9995H0V21.2995C0.6875 21.2995 1.2875 21.0495 1.7625 20.562C2.25 20.087 2.5 19.487 2.5 18.7995C2.5 18.112 2.25 17.5245 1.7625 17.037C1.275 16.5495 0.6875 16.2995 0 16.2995V12.4995H1.3125L0.9625 13.4995L4.55 14.7745C3.9125 14.9745 3.4375 15.5495 3.4375 16.2495V21.2495C3.4375 22.112 4.1375 22.812 5 22.812H15C15.8625 22.812 16.5625 22.112 16.5625 21.2495V19.062L17.6 19.437C17.75 19.9745 18.05 20.412 18.4875 20.737ZM4.0625 21.2495V16.2495C4.0625 15.737 4.4875 15.312 5 15.312H6.0375L15.9375 18.8495V21.2495C15.9375 21.762 15.5125 22.187 15 22.187H5C4.4875 22.187 4.0625 21.762 4.0625 21.2495Z" fill="#2C2C2C"/>
</g>
<defs>
<clipPath id="clip0">
<rect width="25" height="25" fill="white" transform="translate(0 -0.000488281)"/>
</clipPath>
</defs>
</svg>
