<svg width="25" height="25" viewBox="0 0 25 25" fill="none" xmlns="http://www.w3.org/2000/svg">
<g clip-path="url(#clip0)">
<path d="M12.5 1.56201C10.428 1.56201 8.44086 2.38511 6.97573 3.85024C5.5106 5.31537 4.6875 7.30251 4.6875 9.37451V10.937H6.25C6.6644 10.937 7.06183 11.1016 7.35485 11.3947C7.64788 11.6877 7.8125 12.0851 7.8125 12.4995V17.187C7.8125 17.6014 7.64788 17.9988 7.35485 18.2919C7.06183 18.5849 6.6644 18.7495 6.25 18.7495H4.6875C4.2731 18.7495 3.87567 18.5849 3.58265 18.2919C3.28962 17.9988 3.125 17.6014 3.125 17.187V9.37451C3.125 8.14337 3.36749 6.92428 3.83863 5.78685C4.30977 4.64943 5.00032 3.61594 5.87087 2.74539C6.74142 1.87484 7.77492 1.18428 8.91234 0.713141C10.0498 0.242003 11.2689 -0.000488281 12.5 -0.000488281C13.7311 -0.000488281 14.9502 0.242003 16.0877 0.713141C17.2251 1.18428 18.2586 1.87484 19.1291 2.74539C19.9997 3.61594 20.6902 4.64943 21.1614 5.78685C21.6325 6.92428 21.875 8.14337 21.875 9.37451V18.7495C21.875 19.7855 21.4634 20.7791 20.7309 21.5116C19.9983 22.2442 19.0048 22.6558 17.9688 22.6558H14.6344C14.4972 22.8933 14.3 23.0905 14.0625 23.2277C13.825 23.3648 13.5555 23.437 13.2812 23.437H11.7188C11.3043 23.437 10.9069 23.2724 10.6139 22.9794C10.3209 22.6863 10.1562 22.2889 10.1562 21.8745C10.1562 21.4601 10.3209 21.0627 10.6139 20.7697C10.9069 20.4766 11.3043 20.312 11.7188 20.312H13.2812C13.5555 20.312 13.825 20.3842 14.0625 20.5214C14.3 20.6585 14.4972 20.8557 14.6344 21.0933H17.9688C18.5904 21.0933 19.1865 20.8463 19.626 20.4068C20.0656 19.9673 20.3125 19.3711 20.3125 18.7495H18.75C18.3356 18.7495 17.9382 18.5849 17.6451 18.2919C17.3521 17.9988 17.1875 17.6014 17.1875 17.187V12.4995C17.1875 12.0851 17.3521 11.6877 17.6451 11.3947C17.9382 11.1016 18.3356 10.937 18.75 10.937H20.3125V9.37451C20.3125 8.34856 20.1104 7.33265 19.7178 6.3848C19.3252 5.43694 18.7497 4.5757 18.0243 3.85024C17.2988 3.12478 16.4376 2.54932 15.4897 2.1567C14.5419 1.76409 13.526 1.56201 12.5 1.56201Z" fill="#2C2C2C"/>
</g>
<defs>
<clipPath id="clip0">
<rect width="25" height="25" fill="white" transform="translate(0 -0.000488281)"/>
</clipPath>
</defs>
</svg>
