<svg width="524" height="33" viewBox="0 0 524 33" fill="none" xmlns="http://www.w3.org/2000/svg">
<path d="M18.5399 17.8786L9.56239 3.89021L0.437606 18.6122L16.9594 20.4285L18.5399 17.8786ZM371.208 11.2512L370.886 12.7162L371.208 11.2512ZM507.664 25.9201L523.844 29.7216L520.156 12.7985L507.025 22.9889L507.664 25.9201ZM15.842 19.7236C36.8695 29.542 83.2377 41.2369 149.018 22.7038L148.204 19.8163C83.118 38.1538 37.4889 26.5203 17.1112 17.0053L15.842 19.7236ZM149.018 22.7038C233.16 -1.00237 309.391 -0.817797 370.886 12.7162L371.531 9.78628C309.538 -3.85721 232.806 -4.01948 148.204 19.8163L149.018 22.7038ZM370.886 12.7162C425.339 24.7003 474.041 31.1787 509.042 25.6172L508.571 22.6544C474.179 28.119 425.967 21.7669 371.531 9.78628L370.886 12.7162Z" fill="#7B61FF"/>
</svg>
