<svg width="371" height="25" viewBox="0 0 371 25" fill="none" xmlns="http://www.w3.org/2000/svg">
<path d="M18.973 13.413L9.03264 0.0916874L0.967363 15.4198L17.5761 16.0679L18.973 13.413ZM106.111 15.6166L106.378 17.0926L106.111 15.6166ZM262.833 7.75575L262.476 9.2125L262.833 7.75575ZM354.659 20.2614L370.835 24.0802L367.165 7.15306L354.023 17.3295L354.659 20.2614ZM16.4656 15.4625C32.2888 20.8153 62.3877 25.0544 106.378 17.0926L105.844 14.1406C62.248 22.0309 32.6769 17.7796 17.427 12.6207L16.4656 15.4625ZM106.378 17.0926C135.803 11.7671 167.08 7.88499 194.902 6.29489C222.766 4.70231 247.02 5.41869 262.476 9.2125L263.191 6.29899C247.276 2.39249 222.645 1.70433 194.73 3.29978C166.772 4.89769 135.373 8.79617 105.844 14.1406L106.378 17.0926ZM262.476 9.2125C298.827 18.1352 331.609 23.1938 356.007 19.9639L355.613 16.9898C331.815 20.1403 299.507 15.2132 263.191 6.29899L262.476 9.2125Z" fill="#7B61FF"/>
</svg>
