<svg width="152" height="152" viewBox="0 0 152 152" fill="none" xmlns="http://www.w3.org/2000/svg">
<g clip-path="url(#clip0)">
<path d="M88.448 112.655C89.4205 113.522 90.4638 114.317 91.3302 115.272C91.79 115.785 91.9314 116.563 92.232 117.217C91.5247 117.376 90.7467 117.783 90.1101 117.624C88.501 117.199 86.8212 116.74 85.4066 115.909C82.6128 114.264 79.9427 112.39 77.3081 110.498C75.7343 109.366 75.8404 108.288 77.644 107.669C82.9134 105.883 88.0767 106.396 93.0277 108.818C93.6643 109.136 93.9472 110.18 94.3893 110.887C93.6113 111.311 92.8686 111.93 92.0375 112.107C90.9589 112.319 89.8095 112.16 88.6779 112.16C88.5895 112.301 88.5187 112.478 88.448 112.655Z" fill="#FEDCD0"/>
<path d="M66.0085 77.9797C66.7865 76.1584 67.2463 74.7439 67.9889 73.453C68.5901 72.3744 69.3858 71.3311 70.3407 70.5708C70.8712 70.1464 72.0913 69.9873 72.6217 70.3232C73.0992 70.6238 73.329 71.7909 73.2229 72.4982C73.0815 73.4707 72.6748 74.514 72.0913 75.3097C70.2169 77.8913 68.2542 80.4199 66.203 82.8778C65.0006 84.3101 64.0281 84.2217 63.3384 82.5241C61.9592 79.0761 60.6861 75.5749 59.6428 72.0208C59.0239 69.8635 59.9965 67.8654 61.3403 67.5471C62.6488 67.2288 64.647 69.0501 65.1244 71.0836C65.3719 72.1268 65.4957 73.2232 65.6195 74.2841C65.7433 75.3451 65.8317 76.406 66.0085 77.9797Z" fill="#FEDCD0"/>
<path d="M129.701 129.542C126.518 129.577 124.75 127.102 122.045 125.775C122.717 127.172 123.389 128.339 123.831 129.577C124.184 130.603 124.821 131.858 123.406 132.619C122.08 133.308 121.09 132.424 120.559 131.416C119.074 128.481 117.677 125.475 116.386 122.433C115.767 120.966 115.432 119.374 114.954 117.818C119.481 116.722 129.807 124.803 129.701 129.542Z" fill="#FEDCD0"/>
<path d="M31.333 106.59C29.6531 105.6 28.2209 104.946 27.0361 103.991C26.4526 103.531 26.3288 102.488 25.9929 101.727C26.7179 101.444 27.4428 101.038 28.1855 100.896C28.7337 100.808 29.4056 100.967 29.9361 101.215C34.0561 103.124 38.1584 105.105 42.2784 107.05C42.3138 107.333 42.3492 107.616 42.3845 107.881C42.0132 108.075 41.6772 108.323 41.2882 108.464C36.2487 110.126 31.2092 111.895 25.8161 110.286C24.9319 110.02 24.1893 109.242 23.3936 108.694C24.3307 108.164 25.1972 107.386 26.2051 107.156C27.7434 106.767 29.3879 106.767 31.333 106.59Z" fill="#FEDCD0"/>
<path d="M108.199 60.262C107.474 61.3406 106.908 62.3485 106.183 63.215C105.847 63.6217 105.034 64.0637 104.698 63.9046C104.221 63.6747 103.655 62.9144 103.69 62.4192C103.814 60.4565 104.079 58.4937 104.415 56.5664C104.663 55.0987 105.105 53.6664 105.476 52.2165C105.6 51.686 105.67 51.1202 105.918 50.6604C106.82 48.9806 108.447 48.8745 109.348 50.5013C111.523 54.3914 112.885 58.5291 113.044 63.0028C113.062 63.3034 113.15 63.6747 113.009 63.9046C112.443 64.8771 111.789 65.7966 111.187 66.7338C110.498 65.9381 109.561 65.2308 109.154 64.2936C108.641 63.0558 108.517 61.6412 108.199 60.262Z" fill="#FEDCD0"/>
<path d="M130.161 58.5465C130.161 56.8844 130.072 55.735 130.196 54.621C130.249 54.0906 130.585 53.3479 131.01 53.1534C131.363 52.9943 132.3 53.3479 132.495 53.7192C133.485 55.6643 134.564 57.6447 135.147 59.7313C135.784 62.03 135.978 64.4702 136.244 66.8573C136.314 67.5116 135.996 68.2012 135.855 68.8731C135.271 68.6432 134.546 68.5548 134.104 68.1658C131.204 65.5311 128.357 62.8434 125.528 60.138C125.139 59.7843 124.679 59.2538 124.679 58.7941C124.662 57.91 124.803 56.9551 125.192 56.1771C125.298 55.9826 126.607 56.1948 127.243 56.4954C128.11 56.9551 128.888 57.6447 130.161 58.5465Z" fill="#FEDCD0"/>
<path d="M52.641 21.0596C54.6215 21.3955 56.5489 23.8004 56.7434 26.382C56.9556 29.4411 57.0793 32.5178 57.1324 35.5945C57.1678 37.4512 56.5312 37.8225 54.9751 36.7616C52.6941 35.2055 50.4131 33.5787 48.3265 31.7751C47.4955 31.0502 46.8766 29.8124 46.6644 28.7161C46.3638 27.1247 47.6369 26.2759 49.193 26.8417C49.8119 27.0716 50.3777 27.4253 50.9258 27.7966C51.4563 28.1679 51.8984 28.6453 52.5703 29.0344C51.3325 26.2936 51.421 23.6766 52.641 21.0596Z" fill="#FEDCD0"/>
<path d="M79.1998 7.05522C79.3589 6.25951 79.5534 5.4638 79.6418 4.65041C79.7302 3.92543 79.5888 3.18277 79.7479 2.49315C79.9955 1.41452 80.1016 -0.159218 81.5515 0.0176064C82.4003 0.123701 83.5143 1.22001 83.7972 2.10414C85.1941 6.36561 83.7972 10.1143 81.1979 13.7569C77.7498 11.1222 74.5316 8.43446 72.392 4.70346C72.1445 4.29676 71.8262 3.83702 71.8262 3.39496C71.8262 2.56388 72.0207 1.71512 72.1445 0.884047C72.9225 1.07855 73.9304 1.02551 74.4078 1.50293C75.681 2.75839 76.7419 4.20835 77.8559 5.62295C78.2095 6.08269 78.4217 6.64853 78.7046 7.16132C78.8815 7.10827 79.0406 7.07291 79.1998 7.05522Z" fill="#FEDCD0"/>
<path d="M0 84.8756C0.300602 84.2214 0.335967 84.0622 0.424379 84.0092C3.74868 81.7635 7.07298 79.5001 10.415 77.2722C10.6979 77.0776 11.1046 76.9008 11.4229 76.9362C12.4838 77.0246 14.0399 76.8478 14.4996 77.4667C15.3661 78.5807 14.0752 79.5001 13.2265 80.2251C12.7667 80.6141 12.1832 80.844 11.6704 81.1623C11.7942 81.3745 11.9357 81.6044 12.0594 81.8165C13.1734 82.1171 14.3405 82.2763 15.3837 82.7537C15.9849 83.0189 16.6215 83.7439 16.7276 84.3451C16.7807 84.6988 15.8435 85.6006 15.3307 85.6183C11.971 85.7774 8.61136 85.8481 5.25169 85.7421C3.55417 85.689 1.89202 85.2116 0 84.8756Z" fill="#FEDCD0"/>
<path d="M102.877 87.2804C103.372 86.8561 103.814 86.3609 104.345 85.9896C106.52 84.4689 108.641 82.8421 110.922 81.5336C112.39 80.6849 114.123 80.2605 115.785 79.8184C116.227 79.6947 117.235 80.119 117.288 80.4196C117.394 81.0385 117.217 81.8519 116.846 82.3824C116.263 83.1958 115.431 83.8147 114.441 84.7342C115.679 85.0701 116.652 85.1585 117.447 85.5829C118.243 86.0073 118.88 86.7676 119.587 87.3865C118.791 87.8816 117.995 88.8011 117.182 88.8188C113.699 88.9072 110.197 88.8011 106.696 88.642C105.423 88.5713 104.168 88.1292 102.912 87.8463C102.912 87.6694 102.895 87.4749 102.877 87.2804Z" fill="#FEDCD0"/>
<path d="M135.483 97.165C137.34 99.5168 139.091 101.621 140.717 103.814C141.531 104.928 142.256 106.13 142.804 107.385C143.105 108.075 142.945 108.977 142.998 109.773C142.15 109.755 141.301 109.773 140.47 109.702C140.134 109.667 139.816 109.454 139.144 109.171C138.931 110.392 138.825 111.523 138.507 112.566C138.33 113.185 137.924 113.963 137.393 114.193C137.022 114.37 136.138 113.893 135.766 113.468C135.165 112.761 134.529 111.895 134.352 111.01C133.574 106.82 133.821 102.629 134.847 98.4735C134.918 98.1729 135.13 97.8723 135.483 97.165Z" fill="#FEDCD0"/>
<path d="M56.0179 95.0433C52.9411 91.5421 50.112 88.4477 48.3791 84.5399C48.0962 83.9033 48.2907 83.0546 48.2553 82.3119C48.998 82.3119 49.829 82.0643 50.4479 82.3296C51.8979 82.9485 52.4991 82.6125 52.4284 81.0564C52.4284 81.0034 52.446 80.9327 52.4637 80.8796C52.8174 79.7303 52.5168 77.7675 54.0375 77.8559C54.9923 77.909 56.5307 79.5711 56.6368 80.6321C57.0258 84.1332 56.9374 87.705 56.8843 91.2415C56.8843 92.3732 56.3892 93.5226 56.0179 95.0433Z" fill="#FEDCD0"/>
<path d="M14.8533 40.2101C14.0575 41.1296 13.5094 41.9606 12.7844 42.5442C12.3423 42.8978 11.529 43.1277 11.0162 42.9685C10.6448 42.8625 10.2381 41.9606 10.3089 41.5009C10.6448 39.6442 11.0338 37.7522 11.6704 35.984C12.5192 33.6322 13.5978 31.3512 14.6764 29.0878C14.8533 28.6988 15.5429 28.2037 15.8258 28.2921C16.3032 28.4336 16.8867 28.964 16.9928 29.4238C17.6117 31.9347 18.1776 34.4456 18.5843 36.9919C18.8495 38.5833 19.0086 40.2278 18.8672 41.8369C18.7964 42.6503 17.983 43.4106 17.4879 44.1886C16.8691 43.5521 16.1971 42.9685 15.6843 42.2612C15.3484 41.7131 15.1892 41.0235 14.8533 40.2101Z" fill="#FEDCD0"/>
<path d="M97.6072 68.9265C97.8017 70.3057 98.0492 71.6319 98.1377 72.9581C98.173 73.4178 97.8371 73.9129 97.6602 74.408C97.1651 74.2312 96.5639 74.1781 96.1926 73.8599C93.9116 71.9502 93.2043 69.2801 92.7445 66.504C92.5677 65.4253 92.497 64.3467 92.3732 63.2681C92.2494 62.1894 92.8683 61.6236 93.7524 62.101C97.2182 64.0284 100.649 66.0265 104.008 68.1131C105.034 68.7496 105.564 70.0228 104.839 71.1191C104.026 72.3569 102.664 72.0386 101.568 71.4727C100.26 70.8008 99.0748 69.8813 97.6072 68.9265Z" fill="#FEDCD0"/>
<path d="M121.885 46.0981C122.628 45.1078 123.176 44.1176 123.971 43.428C124.573 42.9152 125.492 42.7738 126.27 42.4555C126.571 43.3219 127.26 44.2944 127.084 45.0371C126.783 46.3279 126.129 47.6895 125.262 48.6974C123.706 50.5187 121.885 52.1101 119.887 54.0552C119.321 53.1003 118.79 52.5345 118.596 51.8449C117.942 49.5285 117.217 47.2121 116.863 44.8426C116.669 43.4987 117.04 41.9957 117.411 40.6519C117.57 40.1037 118.384 39.4848 118.967 39.4141C119.356 39.361 120.046 40.1744 120.24 40.7226C120.877 42.4201 121.319 44.1707 121.885 46.0981Z" fill="#FEDCD0"/>
<path d="M90.2686 3.21842C94.4416 3.21842 98.2433 3.16537 102.027 3.25378C102.735 3.27147 103.53 3.74889 104.114 4.20864C104.574 4.56229 105.104 5.26958 105.051 5.76469C105.016 6.17139 104.238 6.64882 103.69 6.84332C102.416 7.28538 101.108 7.58599 99.5695 8.01037C100.401 9.00058 101.161 9.70788 101.674 10.5566C101.939 11.0164 102.027 11.9005 101.762 12.2718C101.462 12.6785 100.436 13.0675 100.1 12.8554C96.2806 10.539 92.4081 8.18719 90.2686 3.21842Z" fill="#FEDCD0"/>
<path d="M79.0932 151.645C78.6688 151.167 78.4743 151.061 78.439 150.92C77.6079 146.517 76.989 142.096 78.9164 137.817C79.1816 137.216 80.1011 136.915 80.72 136.491C81.0913 137.18 81.6925 137.817 81.7986 138.542C81.9754 139.78 81.8517 141.07 81.8517 142.591C82.7358 141.919 83.4431 141.212 84.2918 140.77C84.9815 140.416 85.8302 140.399 86.6082 140.239C86.6967 141.088 87.121 142.131 86.7851 142.768C85.9363 144.412 84.8931 146.004 83.6553 147.383C82.2937 148.939 80.6316 150.23 79.0932 151.645Z" fill="#FEDCD0"/>
<path d="M5.30431 66.2738C5.23358 64.8768 5.07444 63.9043 5.16285 62.9671C5.2159 62.3836 5.49882 61.5349 5.90551 61.3757C6.36526 61.1812 7.24938 61.4641 7.65608 61.8355C9.70724 63.7805 10.5383 66.3622 10.945 69.0676C11.1218 70.3054 11.0688 71.5962 10.945 72.8516C10.8212 74.1778 10.0078 74.7437 8.8408 73.8949C6.2238 71.9852 3.65984 69.9871 1.14893 67.9359C0.636141 67.5292 0.247127 66.7512 0.141032 66.0969C-0.0711577 64.8238 1.16661 64.1342 2.51048 64.7354C3.37692 65.1421 4.17263 65.6549 5.30431 66.2738Z" fill="#FEDCD0"/>
<path d="M118.49 17.9831C117.73 16.6569 117.005 15.7374 116.669 14.6941C116.439 13.9161 116.704 12.9966 116.757 12.1655C117.57 12.3424 118.578 12.2716 119.18 12.7314C121.496 14.535 122.362 17.1697 122.875 19.9458C122.946 20.3525 123.052 20.7769 123.034 21.2013C123.034 21.9439 122.946 22.6866 122.911 23.4293C122.221 23.3055 121.461 23.3408 120.859 23.0402C118.207 21.7494 115.59 20.4056 113.008 18.9556C112.089 18.4428 111.24 17.6648 110.639 16.7983C110.321 16.3563 110.374 15.313 110.71 14.8709C111.01 14.4819 112.089 14.2344 112.531 14.4642C114.441 15.4368 116.244 16.6215 118.49 17.9831Z" fill="#FEDCD0"/>
<path d="M133.344 31.1036C134.475 30.9444 135.342 30.6969 136.226 30.7146C136.827 30.7146 137.729 30.8914 137.941 31.2981C138.171 31.7048 137.888 32.6066 137.552 33.0663C135.607 35.7894 132.884 37.3455 129.648 38.0528C128.799 38.2296 127.898 38.2473 126.89 38.3357C127.791 34.9407 128.623 31.7578 129.489 28.6104C129.595 28.2213 129.772 27.6909 130.09 27.5317C131.027 27.0366 132.159 26.2055 132.99 26.4C134.281 26.7006 133.927 28.1152 133.715 29.1762C133.609 29.7774 133.485 30.3963 133.344 31.1036Z" fill="#FEDCD0"/>
<path d="M80.597 87.7757C80.3848 86.5203 79.9958 85.4947 80.1019 84.5399C80.1903 83.7265 80.8445 82.9661 81.2512 82.1704C81.8878 82.6125 82.9664 82.9308 83.1079 83.4966C83.7798 86.149 84.328 88.8367 84.6639 91.5598C84.8231 92.8329 83.8152 93.7347 82.5421 93.0982C80.0311 91.8604 77.6263 90.4104 75.2038 88.9958C74.7618 88.7306 74.302 88.2532 74.1606 87.7757C73.86 86.7502 73.7716 85.6539 73.5947 84.5929C74.6557 84.6636 75.8404 84.4691 76.7245 84.8935C78.033 85.5301 79.1117 86.6264 80.597 87.7757Z" fill="#FEDCD0"/>
<path d="M145.474 79.7126C146.429 80.5084 147.33 81.1272 148.02 81.923C148.391 82.3473 148.727 83.1961 148.551 83.6205C148.356 84.0625 147.543 84.4162 146.977 84.4869C146.305 84.5576 145.438 84.4692 144.908 84.1156C142.874 82.7187 140.859 81.3041 139.02 79.6596C137.835 78.5986 138.083 77.7853 139.621 77.3432C142.379 76.5298 145.191 75.8755 148.002 75.2036C148.515 75.0798 149.152 75.0798 149.612 75.292C150.425 75.6457 151.168 76.1938 151.928 76.6713C151.256 77.467 150.743 78.5987 149.912 78.9523C148.621 79.4474 147.101 79.4474 145.474 79.7126Z" fill="#FEDCD0"/>
<path d="M54.3382 66.5922C51.12 64.8239 48.22 63.2502 45.3555 61.6411C45.0018 61.4466 44.5951 61.0929 44.489 60.7393C44.2415 59.8729 44.1708 58.9534 44.0293 58.0516C44.8073 57.9985 45.603 57.9278 46.3811 57.9101C46.7347 57.8924 47.0707 57.9808 47.6365 58.0516C47.6365 57.3089 47.5658 56.6547 47.6542 56.0181C47.7426 55.3638 47.9194 54.2145 48.2024 54.1614C48.945 54.0376 50.0944 54.1261 50.4834 54.6212C51.509 55.912 52.4461 57.362 53.012 58.9003C53.737 60.8454 54.0906 62.9319 54.5504 64.9654C54.6388 65.3367 54.4619 65.7611 54.3382 66.5922Z" fill="#FEDCD0"/>
<path d="M105.122 117.765C106.289 118.543 107.421 119.198 108.446 119.993C109.454 120.771 109.242 121.726 108.163 122.062C107.067 122.416 105.723 122.699 104.68 122.363C102.629 121.708 100.719 120.63 98.7563 119.71C97.4654 119.109 97.6069 118.367 98.5441 117.518C101.002 115.325 103.672 113.486 106.926 112.743C107.668 112.584 108.535 113.026 109.33 113.186C109.047 114.158 109.03 115.414 108.393 116.032C107.562 116.881 106.254 117.199 105.122 117.765Z" fill="#FEDCD0"/>
<path d="M28.1502 84.1863C28.5215 83.0016 28.6807 82.0113 29.1227 81.1979C29.4233 80.6321 30.0953 80.0309 30.6788 79.9602C31.0855 79.9071 31.669 80.6675 32.0227 81.1803C32.2879 81.5516 32.5001 82.1174 32.4117 82.5241C31.8635 84.8228 31.3507 87.1393 30.555 89.3496C30.1837 90.3928 29.052 90.7818 28.0087 89.9684C24.8966 87.5283 23.3936 84.1863 22.8632 80.3846C22.704 79.3059 23.6589 78.6517 24.6844 79.2529C25.5686 79.7657 26.3466 80.5967 26.9478 81.4455C27.4606 82.1882 27.7081 83.143 28.1502 84.1863Z" fill="#FEDCD0"/>
<path d="M85.4242 25.2506C86.8034 25.5865 87.882 25.7634 88.8899 26.117C90.446 26.6652 90.5344 27.4786 89.332 28.5926C87.5638 30.237 85.4242 29.9541 83.373 29.6535C81.4987 29.3706 79.6951 28.7163 77.75 28.2035C77.9268 27.6554 77.9445 27.231 78.1567 27.0011C80.0664 24.9323 81.9584 22.8458 83.9919 20.9007C84.487 20.4409 85.5656 20.3172 86.3083 20.4586C87.5284 20.6885 88.0235 21.5196 87.1924 22.7043C86.6443 23.5 86.0961 24.278 85.4242 25.2506Z" fill="#FEDCD0"/>
<path d="M21.7137 117.818C22.7923 117.217 23.6411 116.616 24.5783 116.245C25.8337 115.749 26.4703 116.333 26.1874 117.659C26.0636 118.243 25.8691 118.862 25.5154 119.304C23.5527 121.797 21.5369 124.255 19.4857 126.766C16.9748 122.469 17.0455 114.317 19.5741 111.453C22.1735 112.867 21.1656 115.626 21.7137 117.818Z" fill="#FEDCD0"/>
<path d="M3.58984 48.2905C6.93183 48.0076 9.95553 48.8918 12.9262 50.0057C13.8634 50.3594 14.7652 50.8899 15.5962 51.4734C15.8968 51.6856 16.1444 52.3398 16.056 52.6935C15.9676 53.0294 15.384 53.4185 15.0127 53.4185C13.881 53.4538 12.7494 53.3124 11.2287 53.224C11.9536 54.3733 12.6079 55.2398 13.0853 56.2123C13.3506 56.7428 13.3152 57.4324 13.4213 58.0513C12.7494 58.1574 12.0597 58.4403 11.4409 58.3165C10.7689 58.1927 9.95553 57.8568 9.56651 57.344C7.55071 54.6739 5.64101 51.8978 3.69594 49.157C3.57216 48.9978 3.62521 48.7149 3.58984 48.2905Z" fill="#FEDCD0"/>
<path d="M146.146 63.8338C145.032 64.382 144.077 64.8948 143.087 65.3368C142.167 65.7435 141.619 65.3368 141.76 64.382C141.884 63.5155 142.079 62.5253 142.574 61.8711C144.43 59.4486 146.446 57.1499 148.727 54.4268C149.47 59.3778 151.185 63.7985 149.399 68.4313C149.169 69.0325 148.568 69.4745 148.144 70.005C147.684 69.4922 146.977 69.0325 146.818 68.4489C146.499 67.2465 146.499 65.9557 146.358 64.7179C146.34 64.4527 146.252 64.2228 146.146 63.8338Z" fill="#FEDCD0"/>
<path d="M8.34647 102.151C8.66475 101.391 8.8239 100.79 9.14218 100.313C9.51351 99.7467 10.0263 99.2692 10.4684 98.7388C10.9812 99.2869 11.8122 99.7467 11.9714 100.383C12.5018 102.54 12.9085 104.733 13.1031 106.943C13.2268 108.34 12.9262 109.755 12.8201 111.17C12.661 111.24 12.4842 111.293 12.325 111.364C9.81411 109.012 7.28552 106.661 4.77461 104.291C4.59779 104.132 4.42097 103.902 4.40328 103.69C4.33255 102.558 4.29719 101.409 4.24414 100.259C5.14595 100.595 6.06543 100.914 6.94956 101.303C7.37394 101.497 7.76295 101.798 8.34647 102.151Z" fill="#FEDCD0"/>
<path d="M126.394 89.8269C125.952 89.155 125.404 88.5892 125.192 87.9349C124.945 87.1923 124.697 86.202 125.015 85.6008C125.28 85.088 126.394 84.5753 126.978 84.7167C129.135 85.1941 131.257 85.8838 133.344 86.6264C134.405 86.9978 134.405 87.9526 133.733 88.6953C131.204 91.5068 128.269 93.8232 124.732 95.2201C124.343 95.3792 123.424 95.1317 123.353 94.9018C123.194 94.336 123.159 93.5049 123.477 93.0628C124.273 91.9488 125.298 90.994 126.394 89.8269Z" fill="#FEDCD0"/>
<path d="M124.856 73.4528C125.669 73.8772 126.553 74.1955 127.207 74.7613C127.632 75.115 127.915 75.9107 127.844 76.4412C127.791 76.7771 126.995 77.2192 126.5 77.2546C123.37 77.4844 120.559 76.4942 118.03 74.726C116.669 73.7711 116.686 72.94 118.136 72.109C120.47 70.7651 122.91 69.5627 125.351 68.4133C125.952 68.1304 126.783 68.1127 127.455 68.2719C128.746 68.5725 129.082 69.8102 128.144 70.7297C127.137 71.6846 126.023 72.498 124.856 73.4528Z" fill="#FEDCD0"/>
<path d="M38.5302 137.888C35.6656 137.127 32.8718 136.597 30.2371 135.624C28.8932 135.129 27.5494 134.015 26.7183 132.83C25.8872 131.646 26.6829 130.691 28.1506 131.044C29.9365 131.486 31.634 132.229 33.526 132.919C32.9072 131.822 32.2529 130.85 31.8285 129.771C31.634 129.312 31.7932 128.587 32.0407 128.109C32.1291 127.915 32.9248 127.932 33.3315 128.056C36.0193 128.993 39.3259 134.616 38.8485 137.392C38.7954 137.552 38.654 137.693 38.5302 137.888Z" fill="#FEDCD0"/>
<path d="M51.9507 147.684C49.7403 144.501 47.7069 141.707 45.7972 138.807C45.3551 138.153 45.2313 137.216 45.196 136.402C45.1606 135.872 45.3905 135.076 45.7795 134.846C46.1154 134.652 46.9288 134.935 47.3532 135.235C48.2197 135.872 48.9446 136.65 49.705 137.357C49.9172 137.286 50.0586 137.269 50.1294 137.18C50.8367 136.385 51.597 135.094 52.711 135.836C53.436 136.332 53.7896 137.729 53.8427 138.754C53.9488 141.707 53.436 144.589 51.9507 147.684Z" fill="#FEDCD0"/>
<path d="M68.6609 1.13162C66.3091 3.80167 64.1165 6.25953 61.9415 8.7174C61.8708 8.80581 61.7647 8.92959 61.6586 8.94727C60.5976 9.15946 59.519 9.35396 58.4404 9.54847C58.6349 8.6113 58.7056 7.62108 59.0416 6.71928C59.3422 5.8882 59.9257 5.16322 60.5269 4.15532C59.3952 4.06691 58.4581 4.03154 57.5386 3.89009C56.2654 3.71326 55.9648 2.88219 56.7605 2.01574C57.4148 1.30845 58.3873 0.548101 59.2891 0.477371C61.9769 0.265182 64.6823 0.353594 67.3877 0.388959C67.706 0.406641 68.0066 0.742608 68.6609 1.13162Z" fill="#FEDCD0"/>
<path d="M37.151 16.144C37.2395 16.0732 37.3809 16.0202 37.4163 15.9318C37.9468 14.9062 38.4419 13.6154 39.9095 14.1989C41.2887 14.7647 41.1473 16.0379 40.8467 17.311C40.1924 20.0695 38.6187 22.1737 36.4084 23.995C36.0547 23.6767 35.6834 23.4999 35.5596 23.1993C34.3926 20.317 33.2432 17.4171 32.1469 14.4995C32.0054 14.1282 31.9701 13.5977 32.1115 13.2617C32.4298 12.5367 32.9249 11.8825 33.3493 11.1929C33.9682 11.5996 34.7993 11.8825 35.1883 12.4483C35.9663 13.58 36.4968 14.8708 37.151 16.144Z" fill="#FEDCD0"/>
<path d="M22.7041 57.4506C23.9065 55.6823 24.826 54.1263 25.94 52.747C27.1778 51.2086 28.5216 49.741 29.9893 48.4325C30.4844 47.9904 31.4923 48.0965 32.2703 47.9551C32.2349 48.6977 32.3764 49.5111 32.1112 50.1477C31.5807 51.4032 30.8203 52.5525 30.0423 53.9671C30.8911 53.9671 31.6514 53.861 32.3764 54.0025C33.013 54.1086 33.6142 54.4799 34.2154 54.7451C33.9148 55.3463 33.7733 56.2128 33.2782 56.5134C32.2349 57.15 31.0325 57.7512 29.8478 57.9103C28.0088 58.1755 26.1168 58.1048 24.2425 58.0694C23.7297 58.0694 23.1992 57.6627 22.7041 57.4506Z" fill="#FEDCD0"/>
<path d="M94.6366 26.7003C93.6818 24.1363 93.505 21.5193 94.1769 18.9023C94.3891 18.0889 95.1671 17.417 95.6799 16.6743C96.2281 17.3286 96.7939 17.9651 97.3244 18.6548C97.5012 18.8846 97.5189 19.2029 97.678 19.7157C98.5798 19.1145 99.4109 18.5487 100.242 18.0182C100.755 17.6999 101.268 17.2048 101.798 17.1694C102.558 17.1341 103.672 17.2048 103.991 17.6822C104.309 18.1596 104.132 19.4681 103.672 19.8925C101.816 21.59 99.7822 23.093 97.7664 24.6137C96.7939 25.3564 95.7153 25.9753 94.6366 26.7003Z" fill="#FEDCD0"/>
<path d="M92.7625 133.255C93.5229 134.493 94.5838 135.748 93.3107 136.933C92.1083 138.047 90.6053 137.464 89.4913 136.58C88.0944 135.466 86.7682 134.21 85.6188 132.831C84.5756 131.558 84.8408 130.621 86.4322 130.355C89.0846 129.913 91.79 129.736 94.4954 129.683C95.0966 129.666 95.7332 130.603 96.3344 131.08C95.8216 131.611 95.3972 132.265 94.796 132.654C94.2655 132.99 93.5582 133.043 92.7625 133.255Z" fill="#FEDCD0"/>
<path d="M141.212 51.1201C139.568 48.061 137.817 45.0727 136.367 41.9252C135.978 41.0942 136.102 39.2905 136.65 38.9192C137.799 38.1589 138.86 39.1491 139.603 40.21C139.833 40.546 140.098 40.882 140.204 41.0057C141.23 40.7936 142.538 40.1747 142.856 40.4929C143.511 41.1826 144.024 42.438 143.882 43.3398C143.44 45.9391 142.644 48.4854 141.972 51.0494C141.725 51.1024 141.477 51.1024 141.212 51.1201Z" fill="#FEDCD0"/>
<path d="M42.7742 98.8804C41.6248 99.0926 40.4224 99.6408 40.0511 99.3048C39.4145 98.7213 38.9901 97.5543 39.0255 96.6701C39.0785 95.3263 39.556 93.9824 39.9627 92.6739C40.3517 91.4184 40.8645 90.1984 41.4657 88.6069C42.0846 89.5972 42.615 90.4105 43.0748 91.2416C44.2418 93.3458 45.568 95.3793 46.4698 97.5896C46.8765 98.5798 46.8588 100.56 46.2753 100.949C44.8961 101.851 43.9589 100.383 43.1278 99.3756C42.951 99.1634 42.8095 98.9158 42.7742 98.8804Z" fill="#FEDCD0"/>
<path d="M80.9329 122.362C78.2098 124.361 76.2293 127.137 72.9581 128.092C72.0916 128.339 70.6063 128.162 70.0758 127.561C69.174 126.536 70.3057 125.616 71.1014 124.873C71.3136 124.661 71.5965 124.52 72.0032 124.219C71.5258 123.6 71.1368 123.176 70.8539 122.681C70.5002 122.08 70.2527 121.443 69.9521 120.806C70.6417 120.541 71.3667 120.028 72.0386 120.081C73.4532 120.188 74.8678 120.524 76.247 120.877C77.6616 121.266 79.0762 121.779 80.9329 122.362Z" fill="#FEDCD0"/>
<path d="M75.0796 44.9134C72.1443 42.6677 70.0755 40.2983 68.3603 37.5752C68.1127 37.1862 67.9359 36.6557 67.9889 36.2136C68.0773 35.5417 68.3956 34.9051 68.6078 34.2509C69.2267 34.5161 69.934 34.6576 70.4291 35.0643C71.1187 35.6124 71.6492 36.3728 72.4803 37.3099C72.7986 36.4081 72.9577 35.7539 73.276 35.1704C73.5059 34.7283 73.9302 34.1094 74.3016 34.0741C74.6906 34.0387 75.2741 34.5338 75.5393 34.9405C76.9186 37.1508 76.5119 39.5733 76.1405 41.9604C75.9991 42.8269 75.5217 43.6933 75.0796 44.9134Z" fill="#FEDCD0"/>
<path d="M113.663 100.472C116.333 100.595 117.093 102.859 118.791 104.061C118.968 102.841 119.039 101.674 119.339 100.56C119.498 100.012 120.1 99.5697 120.506 99.0923C120.931 99.4813 121.567 99.7819 121.744 100.259C122.805 103.159 122.805 106.148 122.186 109.136C121.974 110.197 121.249 110.144 120.559 109.702C117.942 108.04 115.555 106.095 114.194 103.212C113.822 102.47 113.84 101.532 113.663 100.472Z" fill="#FEDCD0"/>
<path d="M59.6958 15.8613C62.7018 15.3839 65.7255 14.9065 68.7316 14.4644C69.1383 14.4114 69.6334 14.3937 69.987 14.5528C70.5529 14.8181 71.3132 15.154 71.49 15.6491C71.6138 16.0028 70.9242 16.657 70.5529 17.1522C70.3407 17.4351 70.0401 17.6473 69.7218 17.9655C70.0931 18.496 70.5175 18.9381 70.7474 19.4509C70.9772 20.0167 71.3132 20.8478 71.0833 21.2191C70.8358 21.5905 69.8809 21.8026 69.3328 21.6612C65.6548 20.7417 62.4897 18.832 59.6074 16.4802C59.6428 16.268 59.6782 16.0735 59.6958 15.8613Z" fill="#FEDCD0"/>
<path d="M59.9785 148.055C61.8529 146.623 63.904 146.941 66.1143 147.33C65.1241 145.951 64.1693 144.784 63.4089 143.511C63.126 143.051 63.0553 141.937 63.3028 141.778C63.8863 141.424 64.7351 141.283 65.4247 141.389C65.9198 141.477 66.468 142.026 66.7686 142.503C67.9533 144.377 69.1557 146.269 70.1459 148.25C70.3935 148.763 70.1106 150 69.6508 150.336C67.7057 151.733 61.9059 150.69 60.3675 148.833C60.2084 148.656 60.1377 148.409 59.9785 148.055Z" fill="#FEDCD0"/>
<path d="M109.048 29.6181C109.843 30.7144 110.78 31.8107 111.47 33.0485C111.771 33.579 111.523 34.4277 111.523 35.1173C110.745 35.0997 109.826 35.3472 109.224 35.0112C108.482 34.6045 107.916 33.7735 107.438 33.0308C106.554 31.6693 105.776 30.237 104.981 28.8224C104.132 27.3547 104.468 26.4353 106.095 25.9932C108.871 25.2505 111.47 25.9225 113.946 27.1956C114.352 27.4078 114.564 28.0267 114.883 28.4511C114.423 28.7517 113.981 29.2821 113.486 29.3352C112.001 29.5297 110.533 29.5297 109.048 29.6181Z" fill="#FEDCD0"/>
<path d="M9.63658 93.6461C12.7841 93.0272 15.9315 92.3199 19.0967 91.8602C19.8394 91.7541 20.7235 92.5144 21.5369 92.8857C20.8296 93.4869 20.1576 94.1589 19.3796 94.654C18.9022 94.9546 18.2479 94.9899 17.3461 95.2375C18.2479 96.0863 19.026 96.7051 19.6625 97.4655C19.9985 97.8722 20.0869 98.4911 20.2814 99.0039C19.7863 99.1453 19.2912 99.4459 18.7961 99.4282C14.8883 99.1453 12.0591 96.9881 9.49512 94.3534C9.54816 94.1058 9.60121 93.8759 9.63658 93.6461Z" fill="#FEDCD0"/>
<path d="M47.9018 123.264C48.1494 123.671 48.3262 123.901 48.4323 124.166C48.6798 124.785 48.892 125.421 49.1219 126.04C48.3969 126.235 47.5835 126.748 46.9823 126.571C43.7111 125.563 41.2532 123.512 39.2197 120.134C40.8819 119.922 42.1373 119.657 43.4105 119.622C45.5147 119.569 47.6189 119.604 49.7054 119.763C50.2536 119.798 50.7664 120.382 51.2968 120.7C50.9432 121.195 50.6603 121.797 50.2005 122.15C49.564 122.592 48.8036 122.84 47.9018 123.264Z" fill="#FEDCD0"/>
<path d="M96.3875 39.0781C96.3875 38.6007 96.2284 38.0348 96.4229 37.6458C96.8827 36.7263 97.4839 35.8952 98.0497 35.0288C98.6863 35.6477 99.5527 36.1605 99.924 36.9032C100.384 37.8757 100.897 37.6812 101.639 37.4867C103.337 37.0446 104.221 37.7873 103.478 39.2726C102.382 41.5006 101.003 43.6225 99.4466 45.5499C98.5095 46.7169 97.5546 46.3809 97.2009 45.1255C97.1479 44.9487 97.1479 44.7718 97.1302 44.595C96.8473 42.756 96.5467 40.9348 96.2461 39.0958C96.2815 39.0958 96.3345 39.0781 96.3875 39.0781Z" fill="#FEDCD0"/>
<path d="M101.886 135.678C102.346 137.941 102.912 140.028 103.159 142.132C103.301 143.334 103.071 144.643 102.752 145.827C102.593 146.393 101.851 147.048 101.267 147.189C100.931 147.277 100.312 146.446 99.9232 145.951C99.6049 145.545 99.4457 144.996 99.2336 144.554C99.0567 144.519 98.933 144.466 98.8269 144.466C97.9604 144.501 97.094 144.554 96.2275 144.59C96.2983 143.67 96.1568 142.662 96.4928 141.849C97.6245 139.285 98.9683 136.827 101.886 135.678Z" fill="#FEDCD0"/>
<path d="M76.1756 63.5154C74.3366 63.0203 72.7805 62.5782 71.083 62.1185C71.9848 60.0673 73.3994 59.7136 74.9732 59.9258C77.1658 60.2088 79.3584 60.6155 81.5333 60.9868C82.4882 61.1459 82.7534 61.6764 82.1876 62.5252C80.5785 64.93 78.5273 66.8397 75.8926 68.0421C75.4152 68.2543 74.6725 67.9183 74.0537 67.8476C74.1421 67.2464 74.0713 66.5568 74.3543 66.044C74.7963 65.2129 75.4683 64.4879 76.1756 63.5154Z" fill="#FEDCD0"/>
<path d="M40.4225 40.6164C39.9274 39.7146 39.5207 39.1664 39.3085 38.5652C39.114 37.9817 39.1493 37.3275 39.0786 36.7086C39.7505 36.7086 40.6347 36.408 41.0767 36.7263C42.3852 37.6634 43.6761 38.689 44.6486 39.9268C45.7449 41.3237 46.4699 42.9859 47.5662 44.8956C44.0474 44.8071 40.9883 44.6303 38.1061 43.3572C37.611 43.1273 37.3634 42.2962 37.0098 41.7481C37.5756 41.3944 38.1238 40.9701 38.725 40.7225C39.1493 40.581 39.6621 40.6695 40.4225 40.6164Z" fill="#FEDCD0"/>
<path d="M57.6627 124.573C60.0322 126.783 63.1089 128.18 64.9302 131.027C65.2485 131.522 65.3192 132.654 64.9833 132.99C64.4881 133.485 63.5333 133.555 62.773 133.768C62.1717 133.944 61.3937 133.874 60.9517 134.245C59.6608 135.306 58.2286 135.112 57.981 133.502C57.5213 130.691 57.3444 127.826 57.0615 124.979C57.256 124.82 57.4505 124.697 57.6627 124.573Z" fill="#FEDCD0"/>
<path d="M102.929 96.6879C101.904 99.022 100.949 101.268 99.8702 103.443C99.7288 103.726 98.5087 103.885 98.3672 103.672C97.1118 101.94 95.9447 100.136 94.8661 98.2793C94.6009 97.8196 94.5832 97.0946 94.7423 96.5641C95.096 95.344 95.8033 94.6014 97.0587 95.6623C97.9782 96.4404 98.6148 96.4934 99.3575 95.344C99.7288 94.7605 100.984 94.0532 101.267 94.2477C101.939 94.7428 102.293 95.6977 102.929 96.6879Z" fill="#FEDCD0"/>
<path d="M113.009 136.615C114.405 136.933 115.573 137.145 116.704 137.481C117.111 137.605 117.747 138.029 117.73 138.277C117.694 138.737 117.323 139.444 116.952 139.532C115.82 139.815 114.6 140.081 113.433 139.974C111.523 139.798 109.649 139.302 107.757 138.967C106.643 138.772 106.696 138.082 107.156 137.393C108.712 135.023 110.692 133.096 113.309 131.982C113.787 131.787 114.423 132 114.989 132.017C114.954 132.636 115.113 133.343 114.865 133.856C114.423 134.793 113.716 135.607 113.009 136.615Z" fill="#FEDCD0"/>
<path d="M58.2814 108.128C58.529 107.209 58.6704 106.448 58.9357 105.723C59.3777 104.521 60.0497 104.592 60.7747 105.511C61.9771 107.067 61.7826 113.345 60.421 114.706C60.1558 114.971 59.1656 115.007 58.971 114.777C57.3266 112.726 55.7528 110.586 54.2145 108.464C53.9492 108.093 53.7901 107.598 53.7194 107.12C53.6486 106.678 53.7547 106.219 53.7724 105.777C54.2852 105.83 54.8864 105.706 55.2754 105.953C56.301 106.555 57.2028 107.333 58.2814 108.128Z" fill="#FEDCD0"/>
<path d="M101.002 84.4692C98.3676 87.2454 95.4676 88.8014 92.0019 89.1727C91.3299 89.2435 90.5873 88.5715 89.8623 88.2533C90.4281 87.6344 90.8702 86.7503 91.5775 86.432C93.0805 85.76 94.7073 85.371 96.8115 84.7168C95.1847 84.1509 93.9823 83.9034 92.9921 83.3199C92.3909 82.9662 92.108 82.0998 91.6836 81.4632C92.3909 81.2333 93.1866 80.6675 93.7878 80.8266C96.3518 81.4809 98.7389 82.5595 101.002 84.4692Z" fill="#FEDCD0"/>
<path d="M48.1321 10.1147C48.6979 11.2463 49.1577 12.0951 49.5113 12.9792C49.6528 13.3152 49.6704 13.881 49.4759 14.1109C49.2814 14.3408 48.6625 14.4469 48.3619 14.3231C45.3206 12.9969 43.3401 10.6451 42.2084 7.58607C41.8194 6.52512 42.3145 5.97696 43.5169 6.18915C45.5327 6.5428 47.5662 6.79036 49.5467 7.23242C50.5192 7.44461 51.421 7.9574 52.2874 8.47019C52.5527 8.62933 52.7826 9.23053 52.6765 9.53114C52.588 9.81405 52.0576 10.0793 51.7039 10.1147C50.6076 10.15 49.4759 10.1147 48.1321 10.1147Z" fill="#FEDCD0"/>
<path d="M71.3843 96.9352C70.2527 97.059 69.4569 97.1651 68.6612 97.2358C67.5826 97.3242 66.3271 97.2005 66.3271 95.9273C66.3271 95.3261 67.4235 94.3182 68.1661 94.1768C71.349 93.5402 74.3727 94.1591 77.2549 96.0865C75.6281 98.5974 73.5239 100.401 70.7831 101.391C70.3764 101.533 69.6868 101.338 69.3509 101.038C69.1563 100.878 69.2801 100.118 69.4746 99.7644C69.9697 98.898 70.5886 98.1023 71.3843 96.9352Z" fill="#FEDCD0"/>
<path d="M22.8107 67.1758C21.8205 66.8221 20.8302 66.4861 19.8577 66.1148C18.9029 65.7612 17.895 65.2307 18.3901 64.0813C18.5846 63.6393 19.84 63.3387 20.4943 63.4801C23.1113 64.0283 25.3039 65.4782 27.7971 67.2995C24.5966 69.3684 22.1564 72.0031 18.3193 71.7732C17.7005 71.7378 17.0993 71.2427 16.498 70.9598C16.9755 70.3409 17.3291 69.4745 17.9657 69.1916C19.4687 68.5019 21.1132 68.1129 22.7046 67.5825C22.7223 67.4587 22.7576 67.3172 22.8107 67.1758Z" fill="#FEDCD0"/>
<path d="M27.3546 23.677C27.6552 23.9953 28.0088 24.2605 28.221 24.6142C28.5747 25.1977 28.8399 25.8343 29.1405 26.4531C28.3802 26.6477 27.4607 27.2135 26.8595 26.9836C24.6315 26.1172 22.4565 25.0562 20.3523 23.9246C19.3444 23.3764 19.4152 22.2978 20.4407 22.0149C23.0047 21.2899 25.6394 20.6887 28.2918 20.3527C29.5295 20.1936 29.7063 21.3076 28.999 22.227C28.5924 22.7752 27.9558 23.1642 27.3546 23.677Z" fill="#FEDCD0"/>
<path d="M144.13 95.3795C145.492 94.7959 146.358 94.3362 147.26 94.0886C147.684 93.9825 148.409 94.177 148.639 94.4953C148.834 94.7606 148.639 95.6977 148.374 95.8392C146.234 96.8648 144.059 97.802 141.831 98.633C141.654 98.7038 140.682 97.6605 140.77 97.2892C141.372 94.7429 142.061 92.1966 142.928 89.7211C143.122 89.1552 144.148 88.89 144.802 88.501C145.103 89.2967 145.739 90.1278 145.615 90.8527C145.403 92.2143 144.767 93.5405 144.13 95.3795Z" fill="#FEDCD0"/>
<path d="M37.0445 70.04C37.3628 69.4211 37.7165 68.4486 38.3354 67.6706C38.5652 67.3876 39.6085 67.3169 39.9091 67.5821C41.3944 68.9083 41.9779 74.5844 40.7048 76.9362C38.9012 75.5746 37.0622 74.3368 35.4531 72.8692C34.8696 72.3387 34.7812 71.2247 34.4629 70.3937C35.2586 70.2699 36.072 70.1638 37.0445 70.04Z" fill="#FEDCD0"/>
<path d="M61.4818 50.0946C60.2264 50.4659 59.1654 50.8903 58.0514 51.0848C56.9021 51.2793 56.3893 50.6251 57.0082 49.5995C58.4051 47.3008 60.4032 45.727 63.0909 45.2142C64.1696 45.002 64.8592 45.5679 64.7354 46.7526C64.5232 48.4678 64.311 50.2007 63.9574 51.8982C63.8336 52.4994 63.3915 53.136 62.9141 53.5073C62.5251 53.8256 61.8531 53.7902 61.2873 53.8963C61.1989 53.4012 61.0221 52.8884 61.0751 52.411C61.1282 51.6506 61.3227 50.908 61.4818 50.0946Z" fill="#FEDCD0"/>
<path d="M81.3213 50.2182C83.9737 49.7584 86.4315 49.281 88.9071 48.9451C89.4375 48.8743 90.4985 49.3164 90.5162 49.5993C90.5692 50.2182 90.2156 50.9432 89.8442 51.4913C89.5613 51.898 88.9955 52.1279 88.5534 52.4285C89.2784 53.401 90.0211 54.3913 90.8168 55.4522C88.1113 56.1949 82.4706 53.1712 81.3213 50.2182Z" fill="#FEDCD0"/>
<path d="M130.708 117.022C130.213 116.351 129.488 115.413 128.657 114.299C131.628 113.804 136.773 116.633 138.312 119.622C135.412 120.082 132.671 120.594 129.913 120.877C128.834 120.983 128.41 120.152 129.046 119.162C129.524 118.419 130.125 117.747 130.708 117.022Z" fill="#FEDCD0"/>
</g>
<defs>
<clipPath id="clip0">
<rect width="151.91" height="151.645" fill="white"/>
</clipPath>
</defs>
</svg>
