<svg width="1185" height="23" viewBox="0 0 1185 23" fill="none" xmlns="http://www.w3.org/2000/svg">
<path d="M-3 2C11.8464 2 11.8464 21 26.6787 21C41.5251 21 41.5251 2 56.3575 2C71.2038 2 71.2038 21 86.0362 21C100.883 21 100.883 2 115.715 2C130.561 2 130.561 21 145.394 21C160.24 21 160.24 2 175.072 2C189.919 2 189.919 21 204.765 21C219.611 21 219.612 2 234.458 2" stroke="#E5E5E5" stroke-width="3" stroke-miterlimit="10"/>
<path d="M471.943 2C486.79 2 486.79 21 501.622 21C516.468 21 516.468 2 531.301 2C546.147 2 546.147 21 560.98 21C575.826 21 575.826 2 590.658 2C605.505 2 605.505 21 620.337 21C635.183 21 635.183 2 650.016 2C664.862 2 664.862 21 679.708 21C694.555 21 694.555 2 709.401 2" stroke="#E5E5E5" stroke-width="3" stroke-miterlimit="10"/>
<path d="M234.472 2C249.318 2 249.318 21 264.15 21C278.997 21 278.997 2 293.829 2C308.676 2 308.676 21 323.508 21C338.354 21 338.354 2 353.187 2C368.033 2 368.033 21 382.865 21C397.712 21 397.712 2 412.544 2C427.39 2 427.39 21 442.237 21C457.083 21 457.083 2 471.93 2" stroke="#E5E5E5" stroke-width="3" stroke-miterlimit="10"/>
<path d="M709.401 2C724.248 2 724.248 21 739.08 21C753.926 21 753.926 2 768.759 2C783.605 2 783.605 21 798.438 21C813.284 21 813.284 2 828.116 2C842.963 2 842.963 21 857.795 21C872.641 21 872.641 2 887.474 2C902.32 2 902.32 21 917.166 21C932.013 21 932.013 2 946.859 2" stroke="#E5E5E5" stroke-width="3" stroke-miterlimit="10"/>
<path d="M946.873 2C961.719 2 961.719 21 976.552 21C991.398 21 991.398 2 1006.23 2C1021.08 2 1021.08 21 1035.91 21C1050.76 21 1050.76 2 1065.59 2C1080.43 2 1080.43 21 1095.27 21C1110.11 21 1110.11 2 1124.95 2C1139.79 2 1139.79 21 1154.64 21C1169.48 21 1169.48 2 1184.33 2" stroke="#E5E5E5" stroke-width="3" stroke-miterlimit="10"/>
</svg>
