<svg width="88" height="73" viewBox="0 0 88 73" fill="none" xmlns="http://www.w3.org/2000/svg">
<path d="M81 37.4845C81 58.5795 63.9165 73 42.843 73C21.7694 73 0 58.5795 0 37.4845C0 16.3895 21.7694 8 42.843 8C63.9165 8 81 16.3895 81 37.4845Z" fill="#2EC2F1"/>
<g clip-path="url(#clip0)">
<circle cx="52.5" cy="50.5" r="7.5" fill="#FDB614"/>
<path d="M11 16.2148C11.4484 15.6955 11.8544 15.1314 12.35 14.6617C19.5912 7.81208 28.1164 3.36997 37.8263 1.17724C42.3745 0.150505 46.9816 -0.175218 51.636 0.0844161C53.2693 0.176468 54.9191 0.155226 56.5335 0.379455C67.2135 1.86881 76.7394 5.96632 84.9034 13.0779C85.7413 13.8073 86.5437 14.5791 87.3415 15.3533C87.5988 15.6035 87.7829 15.9245 88 16.2124C88 16.3965 88 16.5783 88 16.7624C87.2754 17.8293 86.8199 17.9095 85.8262 17.0763C84.2826 15.7829 82.8004 14.4139 81.2143 13.1747C74.4853 7.90414 66.9303 4.44156 58.4854 2.97816C54.0788 2.21342 49.644 2.02931 45.1879 2.38572C33.9084 3.285 24.1158 7.67991 15.5694 14.9851C14.8236 15.6224 14.0966 16.2809 13.3602 16.93C13.3012 16.9819 13.2399 17.0291 13.1785 17.0787C12.1612 17.8953 11.7269 17.8316 11 16.7648C11 16.5807 11 16.3989 11 16.2148Z" fill="white"/>
<path d="M49.5024 14.2917C47.4537 14.4309 45.4405 14.4333 43.4673 14.7283C38.7964 15.427 34.4111 17.0249 30.2807 19.3121C27.38 20.9171 24.7531 22.8927 22.3504 25.1727C22.0105 25.4937 21.6329 25.7864 21.2411 26.039C20.7572 26.3505 20.4268 26.2868 20.0114 25.8855C19.537 25.4276 19.4261 25.0476 19.747 24.5661C20.0492 24.1129 20.4055 23.6834 20.8044 23.3128C24.2126 20.124 28.0598 17.5843 32.3223 15.6772C36.1907 13.9447 40.2362 12.8377 44.4421 12.309C46.8684 12.0045 49.3041 12.0942 51.7375 12.1697C58.1739 12.368 64.1759 14.1571 69.8074 17.2232C72.8899 18.9014 75.6891 20.9832 78.2617 23.3647C78.5757 23.655 78.8612 23.9878 79.1114 24.3372C79.5221 24.9084 79.482 25.4654 79.0548 25.8596C78.6087 26.2679 77.9478 26.2844 77.4428 25.8667C76.9896 25.4914 76.5506 25.0995 76.1187 24.6983C70.3432 19.3498 63.5151 16.1115 55.7948 14.7732C53.7201 14.4144 51.577 14.4404 49.5024 14.2917Z" fill="white"/>
<path d="M49.7525 57.9882C47.0217 58.0425 44.8692 57.0701 43.0117 55.373C42.6152 55.0119 42.3414 54.587 42.4169 53.9946C42.5161 53.2228 43.3587 52.7554 44.0266 53.159C44.4042 53.3856 44.7394 53.6877 45.0769 53.9757C48.6597 57.063 54.2818 55.6208 55.8986 51.2165C56.9654 48.3109 55.9292 43.6422 51.4826 42.3535C47.6637 41.2465 43.767 43.4652 42.8748 47.3007C42.7474 47.8436 42.745 48.4148 42.6718 48.9695C42.5916 49.5855 42.1266 50.0269 41.5625 50.0481C40.9843 50.0694 40.4698 49.6894 40.3541 49.0828C40.288 48.7287 40.2857 48.3511 40.3187 47.9923C40.6562 44.3102 43.8284 40.7273 47.456 39.9129C52.3346 38.8178 57.3643 42.0089 58.4476 46.8924C59.2949 50.7114 57.6357 54.4879 54.1661 56.6263C52.7618 57.4949 51.2725 58.0921 49.7525 57.9882Z" fill="white"/>
<path d="M49.535 25.5433C56.0398 25.6023 61.8624 27.5826 67.0007 31.5385C67.8787 32.2136 68.6646 33.009 69.4671 33.7761C69.8188 34.1113 70.0217 34.5314 69.8471 35.053C69.6394 35.6809 68.7331 36.0184 68.2115 35.6124C67.3972 34.9775 66.6183 34.2954 65.8111 33.651C62.0772 30.6605 57.8619 28.7321 53.1084 28.0878C46.3676 27.1743 40.1932 28.7014 34.6184 32.5842C33.4619 33.389 32.4068 34.3379 31.3046 35.2206C31.1724 35.3268 31.0379 35.4307 30.901 35.5322C30.3936 35.9051 29.8129 35.8579 29.3551 35.4071C28.9892 35.0483 28.9373 34.4276 29.3669 33.9862C30.167 33.1624 30.9883 32.3481 31.8829 31.6306C35.7206 28.5527 40.1153 26.6999 44.9656 25.9517C46.4761 25.7204 48.0126 25.6732 49.535 25.5433Z" fill="white"/>
</g>
<defs>
<clipPath id="clip0">
<rect width="77" height="58" fill="white" transform="translate(11)"/>
</clipPath>
</defs>
</svg>
