<svg width="106" height="102" viewBox="0 0 106 102" fill="none" xmlns="http://www.w3.org/2000/svg">
<path d="M32.7572 80.7284C14.4884 70.1809 10.5417 48.176 21.0784 29.9257C31.6152 11.6755 43.2491 25.5869 66.7572 21.8387C90.2653 18.0905 98.2992 50.1755 87.7624 68.4257C77.2256 86.676 51.026 91.2759 32.7572 80.7284Z" fill="#2EC2F1"/>
<g clip-path="url(#clip0)">
<path d="M-0.000420634 13.0493C0.048378 12.8713 0.0902054 12.6899 0.14249 12.512C0.57122 11.0397 1.94107 9.99996 3.47474 9.99996C25.5143 9.99996 47.5538 9.99996 69.5899 9.99996C70.2557 9.99996 70.9179 9.99647 71.5837 9.99996C73.2219 10.0104 74.7173 11.3153 74.9508 12.9341C74.9822 13.1435 74.9961 13.3528 74.9961 13.5621C74.9996 27.6085 74.9996 41.6513 74.9961 55.6976C74.9961 57.7107 73.4485 59.2633 71.4373 59.2633C62.5768 59.2633 53.7199 59.2633 44.8595 59.2633C44.7584 59.2633 44.6573 59.2633 44.5423 59.2633C44.5423 60.8298 44.5423 62.3789 44.5423 63.9559C44.6294 63.9559 44.7131 63.9559 44.7967 63.9559C45.6472 63.9559 46.5012 63.9489 47.3517 63.9594C48.8958 63.9768 50.2343 64.5246 51.3392 65.5991C52.4651 66.6947 53.5665 67.8146 54.675 68.9276C55.0793 69.3323 55.1873 69.8137 54.9817 70.2743C54.7551 70.7767 54.3508 70.993 53.8036 70.993C42.9354 70.9895 32.0707 70.9895 21.2026 70.9895C20.617 70.9895 20.1987 70.7418 20.0105 70.2603C19.8083 69.744 19.9443 69.2974 20.3277 68.9136C21.4291 67.8146 22.5201 66.7051 23.6286 65.6166C24.7509 64.5176 26.1068 63.9628 27.6789 63.9524C28.5154 63.9454 29.352 63.9524 30.185 63.9524C30.2687 63.9524 30.3523 63.9524 30.4534 63.9524C30.4534 62.3824 30.4534 60.8333 30.4534 59.2598C30.3454 59.2598 30.2443 59.2598 30.1467 59.2598C21.3037 59.2598 12.4607 59.2493 3.61416 59.2703C1.8121 59.2738 0.281914 57.9654 0.0379211 56.2907C0.0344355 56.2628 0.0100362 56.2384 -0.00390625 56.2105C-0.000420634 41.8292 -0.000420634 27.4375 -0.000420634 13.0493ZM2.34191 49.8851C2.47785 49.8851 2.58591 49.8851 2.69396 49.8851C16.9815 49.8851 31.2725 49.8851 45.5601 49.8851C45.6681 49.8851 45.7797 49.8816 45.8877 49.8851C46.4454 49.9095 46.9404 50.4015 46.9648 50.9597C46.9996 51.7063 46.4907 52.2262 45.7239 52.2262C31.3736 52.2262 17.0198 52.2262 2.66956 52.2262C2.56499 52.2262 2.45694 52.2262 2.34191 52.2262C2.34191 53.3531 2.34191 54.4486 2.34191 55.5406C2.34191 56.4652 2.79853 56.9187 3.72222 56.9187C26.2393 56.9187 48.7529 56.9187 71.27 56.9187C71.3257 56.9187 71.378 56.9187 71.4338 56.9187C72.1379 56.9118 72.6503 56.4129 72.6538 55.7081C72.6607 54.5882 72.6572 53.4717 72.6538 52.3518C72.6538 52.3134 72.6468 52.2785 72.6398 52.2227C72.5422 52.2227 72.4586 52.2227 72.3749 52.2227C71.3118 52.2227 70.2487 52.2227 69.1891 52.2227C69.074 52.2227 68.952 52.2157 68.844 52.1843C68.2549 52.0273 67.8994 51.49 67.9761 50.8864C68.0458 50.3143 68.5442 49.8816 69.1437 49.8781C70.2313 49.8747 71.3153 49.8781 72.4028 49.8781C72.4865 49.8781 72.5666 49.8781 72.6607 49.8781C72.6607 49.7491 72.6607 49.6549 72.6607 49.5641C72.6607 37.6216 72.6607 25.6826 72.6607 13.7401C72.6607 13.6528 72.6642 13.5691 72.6572 13.4819C72.6294 12.983 72.3366 12.5678 71.873 12.4213C71.6848 12.362 71.4756 12.3445 71.2735 12.3445C48.7564 12.3445 26.2428 12.3445 3.7257 12.3445C2.79504 12.3445 2.34191 12.7981 2.34191 13.7191C2.34191 25.6686 2.34191 37.6181 2.34191 49.5676C2.34191 49.6618 2.34191 49.756 2.34191 49.8851ZM51.0778 68.645C50.6735 68.2437 50.304 67.9018 49.9589 67.5285C49.1537 66.6598 48.1673 66.2899 46.9892 66.2969C43.2491 66.3144 39.5056 66.3039 35.7655 66.3039C33.1269 66.3039 30.4848 66.3039 27.8462 66.3039C26.8772 66.3039 26.0197 66.597 25.3121 67.2703C24.8764 67.6855 24.4582 68.1181 24.0364 68.5473C24.012 68.5717 23.9981 68.6031 23.9667 68.6484C32.9979 68.645 42.0013 68.645 51.0778 68.645ZM32.8201 63.9454C35.9502 63.9454 39.0629 63.9454 42.1686 63.9454C42.1686 62.3789 42.1686 60.8263 42.1686 59.2807C39.0455 59.2807 35.9363 59.2807 32.8201 59.2807C32.8201 60.8368 32.8201 62.3824 32.8201 63.9454Z" fill="white"/>
<path d="M50.1933 37.7061C44.4707 41.1894 38.7647 44.6634 33.0401 48.1489C31.7073 48.9604 30 48.0011 30 46.4407V25.5579C30 23.9978 31.7067 23.0384 33.0395 23.8493C38.759 27.3294 44.4635 30.8013 50.1934 34.2892C51.4735 35.0685 51.4735 36.9269 50.1933 37.7061Z" fill="#FDB614"/>
<path d="M28.0792 33.4489C28.0792 29.8588 28.0792 26.2722 28.0792 22.6822C28.0792 21.2587 29.1702 20.2016 30.5854 20.2958C30.9444 20.3202 31.3278 20.4493 31.6381 20.6342C33.7573 21.8797 35.8591 23.1497 37.9679 24.4127C41.83 26.7258 45.6886 29.0424 49.5541 31.3521C50.2513 31.7708 50.7079 32.336 50.8194 33.1593C50.9449 34.0909 50.5162 34.9875 49.6901 35.483C45.8001 37.8135 41.9137 40.1441 38.0237 42.4782C35.9149 43.7412 33.8096 45.0077 31.7008 46.2706C30.1985 47.1708 28.4208 46.3788 28.1036 44.6623C28.0758 44.5192 28.0792 44.3657 28.0792 44.2192C28.0792 40.6256 28.0792 37.0355 28.0792 33.4489ZM30.4285 44.2924C36.4622 40.6744 42.4609 37.0774 48.491 33.4629C42.4504 29.8414 36.4552 26.2478 30.4285 22.6368C30.4285 29.8728 30.4285 37.0564 30.4285 44.2924Z" fill="white"/>
<path d="M32.8339 14.6925C41.785 14.6925 50.7395 14.6925 59.6906 14.6925C60.3215 14.6925 60.7711 15.0309 60.9105 15.6066C61.0813 16.3079 60.5306 17.0196 59.8091 17.0371C59.7638 17.0371 59.715 17.0371 59.6697 17.0371C41.7641 17.0371 23.8619 17.0371 5.95633 17.0371C5.31149 17.0371 4.86881 16.7161 4.71893 16.1439C4.53419 15.4287 5.07795 14.7065 5.81342 14.696C6.10272 14.6925 6.39203 14.696 6.68133 14.696C15.3989 14.6925 24.1164 14.6925 32.8339 14.6925Z" fill="white"/>
<path d="M66.7872 17.0371C66.0134 17.0371 65.2431 17.0371 64.4693 17.0371C63.7931 17.0371 63.2807 16.5242 63.2842 15.8544C63.2877 15.1984 63.7966 14.6926 64.4658 14.6926C66.0204 14.6891 67.5715 14.6891 69.1261 14.6926C69.8093 14.6926 70.3147 15.2019 70.3147 15.8718C70.3112 16.5242 69.7988 17.0336 69.1331 17.0336C68.3488 17.0406 67.568 17.0371 66.7872 17.0371Z" fill="white"/>
<path d="M52.7331 51.0469C52.7331 51.4446 52.7365 51.8424 52.7331 52.2436C52.7261 52.8995 52.2067 53.4054 51.548 53.4019C50.9066 53.3984 50.3977 52.8855 50.3942 52.2366C50.3907 51.4481 50.3907 50.6596 50.3942 49.8711C50.3977 49.2222 50.9101 48.7163 51.5549 48.7163C52.2172 48.7163 52.7261 49.2187 52.7331 49.8816C52.7365 50.2654 52.7331 50.6561 52.7331 51.0469Z" fill="white"/>
<path d="M58.5924 51.0574C58.5924 51.4551 58.5959 51.8528 58.5924 52.2541C58.5855 52.8995 58.0661 53.4054 57.4213 53.4054C56.7764 53.4054 56.2571 52.8995 56.2536 52.2541C56.2501 51.4586 56.2501 50.6596 56.2536 49.8642C56.2571 49.2187 56.7729 48.7163 57.4248 48.7163C58.0731 48.7163 58.589 49.2187 58.5959 49.8642C58.5959 50.2584 58.5924 50.6561 58.5924 51.0574Z" fill="white"/>
<path d="M64.4524 51.0679C64.4524 51.4586 64.4559 51.8494 64.4524 52.2401C64.4454 52.896 63.926 53.4054 63.2673 53.4019C62.6259 53.3984 62.1135 52.8856 62.11 52.2366C62.1066 51.4481 62.1066 50.6597 62.11 49.8712C62.1135 49.2222 62.6259 48.7163 63.2707 48.7128C63.933 48.7094 64.4454 49.2153 64.4524 49.8747C64.4559 50.2724 64.4524 50.6701 64.4524 51.0679Z" fill="white"/>
</g>
<defs>
<clipPath id="clip0">
<rect width="75" height="61" fill="white" transform="translate(0 10)"/>
</clipPath>
</defs>
</svg>
