<svg width="99" height="70" viewBox="0 0 99 70" fill="none" xmlns="http://www.w3.org/2000/svg">
<path d="M99 29.4845C99 50.5795 81.9165 65 60.843 65C39.7694 65 18 50.5795 18 29.4845C18 8.38954 39.7694 0 60.843 0C81.9165 0 99 8.38954 99 29.4845Z" fill="#2EC2F1"/>
<g clip-path="url(#clip0)">
<rect x="13" y="51" width="13" height="17" fill="#FCB514"/>
<path d="M27.0798 61.5457H61.3509C61.9854 61.5457 62.6199 61.5471 63.2544 61.5485C64.6796 61.5514 66.1527 61.5542 67.6004 61.5415C69.5757 61.5232 71.0065 60.1898 71.0009 58.3711C70.9953 56.5736 69.5518 55.2488 67.5666 55.222C67.4836 55.2205 67.3992 55.2177 67.3162 55.2135C67.1319 55.205 66.9588 55.198 66.8111 55.222C65.6574 55.4138 65.3578 54.4883 65.2452 54.1412C64.0226 50.3712 63.9494 46.4573 65.0243 42.5053C65.4788 40.8347 65.6785 40.6824 67.3936 40.6979C67.4147 40.6979 67.4372 40.6979 67.4583 40.6979C68.4952 40.6979 69.2296 40.4735 69.8332 39.9741C70.8729 39.112 71.2513 37.7885 70.8194 36.5201C70.3776 35.2235 69.2676 34.4447 67.7734 34.3812C67.3767 34.3642 66.9659 34.3685 66.5677 34.3741C66.5593 34.3741 66.5508 34.3741 66.5424 34.3741C66.3848 34.518 66.1485 34.5462 65.9599 34.4348L65.7489 34.3092C65.5575 34.1963 65.4661 33.9692 65.5238 33.7533C65.5829 33.5388 65.777 33.3893 65.9993 33.3893C66.0232 33.3893 66.0486 33.3893 66.0725 33.3893C66.1583 33.2806 66.2427 33.1706 66.3271 33.0605C66.6887 32.5935 67.0615 32.111 67.478 31.6665C71.7325 27.1375 72.1799 19.692 68.4966 14.7185C65.6954 10.9372 61.901 9.01411 57.2173 9.00564C52.4634 8.99718 47.6278 9 42.9512 9.00282C40.9379 9.00423 38.9246 9.00423 36.9113 9.00564H28.4783C20.0452 9.00564 11.6136 9.00564 3.18053 9.01129C1.59775 9.01129 0.251331 10.1908 0.0501418 11.7555C-0.148233 13.3005 0.864746 14.789 2.35608 15.1446C2.89633 15.273 3.47739 15.28 4.09221 15.2871C4.22305 15.2885 4.3539 15.2899 4.48333 15.2927C4.9448 15.3026 5.44988 15.4113 5.69609 16.1463C7.14662 20.4525 7.12411 24.8038 5.63138 29.0775C5.49209 29.4768 5.01515 29.7886 4.65779 29.8309C4.29762 29.8718 3.94167 29.8662 3.59838 29.8605C3.39297 29.8563 3.19741 29.8535 3.00466 29.8605C1.4444 29.9113 0.110639 31.2433 0.0332588 32.8305C-0.0469354 34.4785 1.14613 35.9007 2.75001 36.0686C3.26072 36.1222 3.77988 36.1406 4.32857 36.1603C4.58744 36.1702 4.85194 36.1787 5.12207 36.1928C5.32326 36.2027 5.49772 36.3339 5.56384 36.5258C5.62997 36.7162 5.57229 36.9279 5.42034 37.0605C0.563666 41.2721 -1.03881 46.2626 0.653709 51.8893C2.28995 57.3228 6.19836 60.5637 12.272 61.5203C12.5112 61.5584 12.6885 61.7644 12.6885 62.0085L12.6871 64.4776C12.6857 65.8956 12.6857 67.315 12.6871 68.7344C12.6885 69.3256 12.8404 69.7418 13.1162 69.9069C13.3863 70.0677 13.8098 70.0085 14.312 69.739L14.9846 69.3778C16.2817 68.6808 17.6225 67.9612 18.931 67.236C19.1758 67.1005 19.4079 67.0328 19.6414 67.0328C19.8792 67.0328 20.117 67.1034 20.3688 67.243C21.9882 68.1418 23.6047 69.0138 25.1734 69.8363C25.5435 70.031 25.905 70.0536 26.1653 69.8984C26.4256 69.7432 26.5775 69.4116 26.5832 68.9898C26.5958 67.9796 26.593 66.951 26.5902 65.9549C26.5888 65.5133 26.5874 65.0716 26.5874 64.63V62.0396C26.5874 61.7658 26.8083 61.5457 27.0798 61.5457ZM67.243 56.9898C68.0872 56.9898 68.5852 57.1309 68.9046 57.4597C69.1353 57.6967 69.2479 58.0198 69.2394 58.4205C69.2085 59.7807 67.8494 59.7807 67.2683 59.7807C58.945 59.7807 50.6189 59.7807 42.2956 59.7807C39.8377 59.7807 37.3812 59.7807 34.9234 59.7807H27.1051C26.8336 59.7807 26.6127 59.5591 26.6127 59.2868V57.5218C26.6127 57.2593 26.8181 57.042 27.0798 57.0279C27.1586 57.0237 27.2374 57.0181 27.3148 57.0138C27.4878 57.0025 27.6665 56.9898 27.8494 56.9898C40.9815 56.9884 54.1123 56.9884 67.243 56.9898ZM3.61808 34.3685C3.57024 34.3685 3.521 34.3699 3.47176 34.3713C3.17068 34.3797 2.79644 34.3896 2.50662 34.1639C2.16192 33.8958 1.79894 33.3921 1.82004 32.9208C1.84537 32.3776 2.37437 31.9388 2.60088 31.7752C2.8893 31.5678 3.24806 31.572 3.53507 31.5748L3.63356 31.5762C9.39488 31.5734 15.1562 31.5734 20.9175 31.572C26.2807 31.572 31.6452 31.5706 37.0084 31.5692C38.7319 31.5678 40.4554 31.5692 42.1788 31.5706C47.2311 31.5748 52.4549 31.5776 57.5902 31.5297C61.6773 31.4902 65.5224 27.8641 65.9881 23.6116C66.4566 19.3322 63.7693 15.1968 59.7385 13.9919C58.7706 13.7026 57.721 13.5488 56.7038 13.546C42.2309 13.5234 27.5145 13.5263 13.2822 13.5277L3.64622 13.5291C3.59979 13.5291 3.55477 13.5291 3.50975 13.5291C2.90055 13.522 2.4419 13.3626 2.14504 13.055C1.90868 12.8109 1.78909 12.4836 1.79612 12.1083C1.80597 11.5905 2.04656 10.7242 3.54492 10.7227C9.02626 10.7171 14.5062 10.7171 19.9861 10.7171C23.903 10.7171 27.8184 10.7171 31.7353 10.7171C39.9292 10.7185 48.4002 10.7185 56.7334 10.7129C56.7376 10.7129 56.7418 10.7129 56.746 10.7129C62.0163 10.7129 65.8249 12.9718 68.0661 17.4275C69.7417 20.7558 69.6981 24.602 67.9479 27.977C66.1991 31.3491 62.9505 33.6842 59.2546 34.2231C58.5722 34.3233 57.8392 34.3699 56.9486 34.3699C51.9133 34.3755 46.816 34.3769 41.7919 34.3769C39.9686 34.3769 38.155 34.3769 36.357 34.3769H30.8813C30.8602 34.3769 30.8391 34.3755 30.818 34.3727H27.4737C19.5204 34.3727 11.57 34.3727 3.61808 34.3685ZM22.9407 24.1675C22.7198 24.0983 22.4482 24.0884 22.1894 24.087C18.9028 24.0828 15.6163 24.0828 12.3297 24.0828H9.01501C8.74347 24.0828 8.52259 23.8613 8.52259 23.589V21.5996C8.52259 21.3414 8.72237 21.1255 8.97984 21.1072C9.05722 21.1015 9.13459 21.0945 9.21057 21.0874C9.38784 21.0705 9.57074 21.055 9.76067 21.0535C10.9143 21.0507 12.0694 21.0507 13.2231 21.0521H14.8199C14.8833 21.0535 14.9452 21.0521 15.0071 21.0535C15.1998 21.055 15.3799 21.0564 15.5558 21.0437C16.0594 21.007 16.5955 20.7601 16.587 20.1788C16.5786 19.6596 16.1438 19.3082 15.5023 19.304C14.0883 19.2927 12.6505 19.2955 11.259 19.2969C10.6836 19.2984 10.1082 19.2984 9.53275 19.2984H8.71674C8.49023 19.2984 8.29326 19.1432 8.23839 18.923L7.50117 15.9474C7.46599 15.8049 7.49554 15.6539 7.58277 15.5354C7.67 15.4169 7.80365 15.3435 7.94997 15.3351C8.02454 15.3308 8.09488 15.3252 8.16382 15.321C8.31999 15.3097 8.46631 15.2984 8.62248 15.2984C24.6669 15.297 40.7128 15.2956 56.7573 15.2956C60.3998 15.2956 63.3529 17.5417 64.107 20.8842C64.6022 23.0853 64.1084 25.3343 62.7507 27.0584C61.3776 28.8009 59.2714 29.8154 56.9739 29.8408C55.2842 29.8591 53.5791 29.8648 51.8851 29.8648C50.7075 29.8648 49.537 29.862 48.3819 29.8591C47.1917 29.8563 45.9972 29.8577 44.8112 29.8535C36.5469 29.8535 28.2827 29.8535 20.0185 29.8535H7.96545C7.8135 29.8535 7.6714 29.7829 7.57714 29.6644C7.48288 29.5459 7.45052 29.3893 7.4871 29.2412L8.2398 26.1809C8.29467 25.9607 8.49164 25.8055 8.71815 25.8055H10.4515C11.7008 25.8055 12.9487 25.8055 14.1953 25.8055L17.1765 25.8084C18.8536 25.8098 20.5306 25.8098 22.2062 25.8112C22.3906 25.8112 22.5847 25.807 22.7648 25.7801C23.1981 25.7152 23.4232 25.4867 23.4922 25.0394C23.5555 24.6486 23.3276 24.2902 22.9407 24.1675ZM12.6575 59.2205C12.6575 59.3658 12.5942 59.5041 12.4831 59.5972C12.393 59.6734 12.2805 59.7143 12.1651 59.7143C12.1384 59.7143 12.1102 59.7115 12.0835 59.7073C7.42801 58.9214 4.24556 56.4339 2.62761 52.3126C1.3445 49.0463 1.53022 45.4358 3.13691 42.4065C4.75205 39.3631 7.6503 37.1818 11.0888 36.4199C12.3058 36.1505 13.5776 36.1505 14.8045 36.1505H15.0352C28.3094 36.1406 41.8074 36.1434 54.8594 36.1476L64.2913 36.1505C64.6262 36.1476 64.9652 36.149 65.3015 36.1462C66.1259 36.1406 66.9771 36.1364 67.8199 36.1632C68.3967 36.1829 68.899 36.482 69.1311 36.9462C69.3365 37.3568 69.2985 37.8365 69.027 38.2288C68.7414 38.6422 68.1519 38.8792 67.7186 38.9004C66.7858 38.9455 65.8431 38.9399 64.9286 38.9356C64.6571 38.9342 64.3842 38.9328 64.1126 38.9328H60.1353C45.1122 38.93 30.0892 38.9286 15.0662 38.9215C15.0633 38.9215 15.0605 38.9215 15.0577 38.9215C12.7841 38.9215 11.1029 39.2771 9.60732 40.0757C6.94684 41.4951 5.24025 44.2322 5.04188 47.3998C4.84491 50.5447 6.1857 53.4527 8.62811 55.1796C9.24011 55.6128 9.80569 55.9472 10.3572 56.2011C10.7638 56.3888 11.2042 56.5271 11.6699 56.6724C11.8851 56.7401 12.1032 56.8078 12.3213 56.8826C12.521 56.9503 12.6561 57.138 12.6561 57.351V59.2205H12.6575ZM24.8133 66.8395C24.8133 67.0131 24.7218 67.1739 24.5741 67.2628C24.4967 67.3094 24.4095 67.3333 24.3208 67.3333C24.2406 67.3333 24.1605 67.3136 24.0873 67.2741C23.7145 67.0737 23.3473 66.879 22.9857 66.6871C22.1303 66.2342 21.3213 65.8053 20.5151 65.3369C19.8905 64.9729 19.3868 64.9715 18.779 65.3298C17.9883 65.7954 17.1892 66.2187 16.345 66.666C15.9835 66.8579 15.6163 67.0512 15.242 67.2529C15.0901 67.3348 14.9044 67.3305 14.7566 67.2416C14.6075 67.1527 14.5175 66.9919 14.5175 66.8184V51.792C14.5175 51.5197 14.7383 51.2982 15.0099 51.2982H24.3222C24.5938 51.2982 24.8147 51.5197 24.8147 51.792V66.8395H24.8133ZM14.1165 49.4611C12.9755 49.4626 12.6955 49.7377 12.6927 50.8636C12.6899 51.6678 12.6913 52.4706 12.6913 53.3059V54.4728C12.6913 54.6265 12.6195 54.7719 12.4971 54.865C12.3747 54.9581 12.2157 54.9892 12.068 54.9482C10.4276 54.4953 9.17258 53.6516 8.23276 52.3676C6.49663 49.9959 6.24057 47.3716 7.49273 44.7769C8.75191 42.1681 10.9945 40.7275 13.8056 40.7205C26.1625 40.6908 38.7277 40.6936 50.8778 40.6965C54.7749 40.6979 58.6721 40.7007 62.5707 40.6979C62.6776 40.6979 62.7817 40.7049 62.8928 40.712C62.9463 40.7148 63.0026 40.719 63.0645 40.7219C63.2108 40.7289 63.3459 40.8023 63.4345 40.9194C63.5231 41.0365 63.5527 41.1889 63.5175 41.3314L62.7958 44.3014C62.7423 44.5229 62.5439 44.6781 62.3174 44.6781C61.7828 44.6781 61.2482 44.6781 60.7149 44.6767C59.3263 44.6753 57.8899 44.6739 56.4815 44.6823C55.9567 44.6852 55.4854 44.695 55.0437 44.7839C54.5555 44.8813 54.457 45.2721 54.4612 45.5811C54.4654 45.8661 54.5695 46.2315 55.0423 46.3557C55.2828 46.4178 55.5516 46.4516 55.8189 46.4545C57.1794 46.4615 58.5624 46.4615 59.9017 46.4601H62.0177C62.2893 46.4601 62.5102 46.6816 62.5102 46.9539V48.9603C62.5102 49.2326 62.2893 49.4541 62.0177 49.4541H49.0727C48.977 49.4541 48.8828 49.4527 48.7871 49.4555C48.3158 49.4626 47.5279 49.591 47.5392 50.3684C47.549 51.0809 48.2075 51.2333 48.7576 51.2333C51.8908 51.2389 55.0774 51.2389 58.1586 51.2375H62.3005C62.5256 51.2375 62.7226 51.3899 62.7775 51.6086L63.5288 54.563C63.5668 54.7112 63.5344 54.8678 63.4401 54.9877C63.3459 55.1077 63.2038 55.1782 63.0518 55.1782H27.1065C26.835 55.1782 26.6141 54.9567 26.6141 54.6844V51.7356C26.6141 51.4632 26.835 51.2417 27.1065 51.2417C27.4526 51.2417 27.7959 51.2417 28.1392 51.2431C28.9974 51.2446 29.8852 51.246 30.7504 51.2375C31.0375 51.2347 31.4103 51.2206 31.755 51.1401C32.1545 51.047 32.3417 50.8185 32.3628 50.3994C32.3853 49.9564 32.208 49.6954 31.7916 49.5557C31.6101 49.495 31.385 49.464 31.1205 49.464C25.6785 49.4569 20.117 49.4569 14.1165 49.4611Z" fill="white"/>
<path d="M28.5664 24.6231C28.5678 24.6231 28.5692 24.6231 28.5692 24.6231C29.0349 24.6217 29.4189 24.2478 29.4274 23.7907C29.4344 23.3561 29.025 22.9343 28.5846 22.9216C28.5776 22.9216 28.572 22.9216 28.5649 22.9216C28.3567 22.9216 28.1429 23.0161 27.9755 23.1826C27.801 23.3561 27.7039 23.5791 27.7081 23.7963C27.718 24.2535 28.1021 24.6231 28.5664 24.6231Z" fill="white"/>
</g>
<defs>
<clipPath id="clip0">
<rect width="71" height="61" fill="white" transform="translate(0 9)"/>
</clipPath>
</defs>
</svg>
