<svg width="200" height="348" viewBox="0 0 200 348" fill="none" xmlns="http://www.w3.org/2000/svg">
<g clip-path="url(#clip0)">
<path d="M19.5882 345.825C20.1557 345.825 20.7181 345.825 21.3463 345.825C21.4781 345.502 21.62 345.219 21.7112 344.92C22.9272 340.925 23.6264 336.823 24.1381 332.686C24.4573 330.117 24.7867 327.552 25.1261 324.988C25.724 320.447 25.8254 315.88 25.871 311.308C25.9267 305.486 25.9824 299.66 26.1344 293.839C26.1952 291.421 26.5043 289.014 26.712 286.49C26.5246 286.419 26.2358 286.298 25.9419 286.192C24.7107 285.762 23.5352 285.221 22.5725 284.315C21.1842 283.011 20.6674 281.417 21.169 279.577C21.397 278.732 21.8176 277.933 22.1722 277.119C22.3141 276.795 22.5168 276.491 22.7194 276.132C22.4256 276.046 22.1976 275.981 21.9746 275.91C19.6034 275.136 18.2404 272.88 18.6407 270.407C18.9042 268.779 19.3754 267.843 20.9309 265.941C20.5357 265.815 20.1658 265.724 19.8162 265.577C19.1474 265.294 18.4431 265.061 17.8452 264.662C16.8876 264.025 16.4671 263.079 16.7761 261.926C16.9433 261.304 17.1409 260.682 17.4196 260.1C18.2556 258.345 18.7319 256.499 18.5292 254.577C18.2708 252.124 19.3703 250.4 21.1183 248.887C23.5453 246.788 26.4486 245.873 29.5444 245.468C30.9022 245.291 32.2753 245.266 33.7143 245.165C33.7194 244.781 33.3292 244.573 33.0911 244.3C29.3771 240.123 25.9115 235.743 22.6941 231.171C18.8991 225.779 15.8895 219.973 13.5587 213.828C10.3667 205.403 7.23037 196.951 4.14978 188.485C2.29535 183.382 0.998262 178.117 0.395318 172.716C-0.172158 167.628 -0.212692 162.54 0.881727 157.508C2.61962 149.512 7.22024 143.554 14.0857 139.24C18.3671 136.549 22.993 134.617 27.7913 133.1C33.1519 131.406 38.5733 129.893 43.939 128.204C46.599 127.365 49.2388 126.424 51.7975 125.326C55.5368 123.723 58.7339 121.366 61.2268 118.084C62.2249 116.769 63.3801 115.555 64.581 114.422C66.2327 112.875 68.1936 112.541 70.3317 113.37C70.5901 113.471 70.8536 113.547 71.1272 113.638C71.1576 113.532 71.2133 113.451 71.1931 113.416C69.5109 110.847 68.9232 107.928 68.3912 104.965C67.92 102.345 67.3373 99.7402 66.6887 97.1558C66.2631 95.4666 65.4626 93.9038 64.4492 92.4725C64.3124 92.2803 64.1402 92.1185 63.9578 91.9162C63.7348 92.0021 63.5473 92.0578 63.37 92.1387C61.5257 92.9782 59.6763 92.8872 57.827 92.1539C56.4133 91.5925 55.172 90.7529 54.0826 89.7161C50.4396 86.2466 48.0076 82.0742 46.8879 77.1683C46.4926 75.4488 46.4926 73.7241 47.0297 72.0198C47.5668 70.3204 48.418 68.8234 49.862 67.736C50.7437 67.0684 50.9514 66.2339 50.5562 65.278C49.8114 63.4877 49.0615 61.6973 48.2001 59.9626C46.9436 57.4287 45.4438 54.9859 44.6787 52.2498C42.9561 46.0846 41.7046 39.8386 41.6488 33.3952C41.583 25.7735 44.2886 19.2695 49.4719 13.7315C53.6418 9.27578 58.6681 6.08447 64.2922 3.81363C69.7288 1.61865 75.3377 0.126671 81.2556 -0.00988263C90.6393 -0.227357 98.1634 3.42925 103.919 10.7678C105.014 12.1636 106.073 13.6202 106.929 15.1729C110.04 20.7969 113.166 26.4411 114.529 32.8086C115.74 38.4578 116.834 44.1324 117.985 49.7918C118.137 50.5353 118.283 51.2787 118.451 52.1082C118.927 51.9312 119.292 51.7845 119.662 51.6631C121.4 51.0764 122.889 51.6075 123.837 53.1804C124.541 54.3436 124.916 55.6383 125.007 56.9735C125.154 59.1483 125.326 61.3382 125.22 63.5079C124.997 68.0395 124.308 72.5103 123.061 76.8851C122.884 77.5021 122.671 78.1192 122.393 78.7008C122.038 79.4442 121.557 79.596 120.797 79.3178C120.417 79.1813 120.052 79.0194 119.672 78.8778C119.606 78.8525 119.515 78.8879 119.348 78.9081C119.236 79.9955 119.206 81.1183 118.998 82.2057C118.618 84.2287 118.116 86.2264 117.711 88.2444C117.584 88.8614 117.493 89.5189 117.564 90.141C117.863 92.8316 118.289 95.507 118.542 98.2027C118.679 99.6441 118.593 101.106 118.552 102.557C118.532 103.194 118.669 103.64 119.145 104.14C119.945 104.98 120.66 105.951 121.182 106.978C121.481 107.569 121.349 108.389 121.359 109.102C121.364 109.415 121.253 109.739 121.182 110.053C121.05 110.629 121.166 111.15 121.734 111.378C123.639 112.151 124.283 113.724 124.521 115.585C124.546 115.783 124.597 115.985 124.683 116.162C126.061 119.035 126.725 122.115 127.277 125.225C127.348 125.615 127.454 126.004 127.581 126.57C128.067 126.055 128.458 125.625 128.868 125.215C129.689 124.391 130.048 124.325 130.976 124.952C140.299 131.254 150.518 135.725 161.027 139.599C164.295 140.802 167.537 142.062 170.841 143.159C179.095 145.9 184.531 151.509 187.744 159.44C189.502 163.774 190.485 168.305 191.154 172.918C191.873 177.889 191.984 182.907 192.405 187.898C192.765 192.121 193.271 196.344 193.981 200.527C195.237 207.936 196.727 215.305 198.06 222.699C199.504 230.721 200.299 238.803 199.873 246.96C199.742 249.499 199.402 252.033 199.103 254.562C198.668 258.254 198.206 261.946 197.715 265.633C196.828 272.334 195.673 278.975 193.14 285.297C192.719 286.349 192.268 287.385 191.762 288.397C190.15 291.619 187.637 293.955 184.516 295.69C181.506 297.359 178.249 298.284 174.91 299.008C174.519 299.094 174.124 299.205 173.775 299.387C172.199 300.211 170.704 301.228 169.063 301.875C165.536 303.266 164.087 305.942 163.915 309.507C163.717 313.629 163.565 317.751 163.403 321.873C163.18 327.532 162.942 333.187 162.759 338.846C162.689 341.107 162.749 343.367 162.749 345.704C163.079 345.739 163.393 345.785 163.702 345.795C164.188 345.81 164.675 345.8 165.161 345.8L163.231 347.965C162.785 347.965 162.339 347.98 161.893 347.96C160.788 347.914 160.53 347.661 160.484 346.589C160.474 346.306 160.474 346.023 160.479 345.739C160.647 339.473 160.778 333.207 160.996 326.941C161.199 321.038 161.473 315.141 161.761 309.244C161.812 308.243 162.025 307.241 162.273 306.265C162.891 303.787 164.285 301.88 166.59 300.687C166.828 300.56 167.046 300.393 167.466 300.115C163.793 300.363 160.403 300.651 157.009 300.813C152.438 301.031 147.863 301.223 143.283 301.299C137.329 301.4 131.371 301.425 125.417 301.41C117.316 301.385 109.209 301.334 101.107 301.208C96.6383 301.137 92.2252 300.439 87.8931 299.392C81.7218 297.895 75.5809 296.256 69.4298 294.673C69.2322 294.623 69.0448 294.547 68.8522 294.491C66.8357 293.91 65.0876 292.974 64.2618 290.84C64.0844 290.916 63.9628 290.936 63.902 291.007C62.2553 292.878 60.1171 293.252 57.8067 292.923C51.4834 292.028 45.5452 290.041 40.0072 286.819C38.9635 286.212 37.641 286.081 36.4402 285.752C36.0146 285.635 35.5535 285.625 35.1279 285.514C33.2178 285.018 31.4393 285.534 29.7217 286.278C29.3569 286.435 29.0275 286.981 28.9414 287.401C28.7134 288.503 28.5462 289.636 28.5057 290.759C28.3182 296.216 28.1662 301.673 28.0294 307.125C27.9129 311.692 27.8977 316.264 27.7153 320.831C27.6291 323.006 27.2795 325.17 27.0008 327.335C26.5448 330.86 26.175 334.405 25.5416 337.9C25.0045 340.874 24.1736 343.797 23.4237 346.731C23.145 347.813 22.917 347.924 21.7922 347.955C21.549 347.96 21.3058 347.955 21.0626 347.955L19.5882 345.825ZM64.3783 199.779C64.4948 199.637 64.5658 199.581 64.5911 199.51C64.662 199.323 64.7178 199.126 64.7735 198.934C66.4253 193.184 68.8522 187.787 72.171 182.79C73.0424 181.48 73.8531 180.12 74.5979 178.734C75.7025 176.681 76.3662 174.481 76.4473 172.134C76.5233 169.914 76.5132 167.688 76.6196 165.468C76.6956 163.774 76.8121 162.08 77.0553 160.406C77.3441 158.423 78.3017 156.663 79.1935 154.888C79.842 153.588 80.5007 152.288 81.0884 150.958C81.9853 148.93 81.9802 146.866 81.1239 144.828C80.5919 143.564 79.994 142.325 79.3759 141.096C78.4284 139.204 77.7038 137.252 77.3289 135.158C76.8222 132.336 76.2801 129.519 75.6974 126.712C75.1603 124.138 74.4713 121.604 73.2552 119.242C72.6219 118.008 71.8467 116.875 70.6965 116.056C68.8674 114.751 67.4082 114.771 65.7716 116.299C64.7127 117.29 63.7399 118.392 62.8633 119.551C60.2793 122.964 56.9251 125.367 53.1098 127.182C49.8063 128.75 46.3153 129.797 42.8344 130.864C37.2661 132.569 31.6623 134.182 26.1294 136.003C21.5794 137.5 17.2524 139.533 13.351 142.365C7.76238 146.421 4.24605 151.798 2.9135 158.59C2.00655 163.207 2.05215 167.84 2.57909 172.478C3.1567 177.556 4.33725 182.512 6.08022 187.312C9.2672 196.087 12.5201 204.831 15.8287 213.56C17.7844 218.714 20.2722 223.615 23.3477 228.207C27.5886 234.549 32.3919 240.436 37.6309 245.974C37.9552 246.313 38.3909 246.561 38.8013 246.809C40.3264 247.729 41.9731 248.478 43.3614 249.565C45.839 251.512 48.2153 253.601 50.5359 255.735C53.1301 258.117 55.5875 260.641 58.1614 263.048C61.4244 266.103 65.1839 268.374 69.4146 269.831C76.0876 272.132 82.0055 270.913 87.1331 266.022C89.1699 264.08 90.847 261.86 92.3265 259.478C94.7889 255.508 96.7396 251.285 98.285 246.895C102.921 233.765 106.686 220.398 108.925 206.637C109.69 201.928 110.248 197.184 110.192 192.4C110.146 188.116 110.035 183.827 109.984 179.543C109.928 174.435 110.167 169.347 111.469 164.381C112.214 161.528 113.151 158.726 113.967 155.894C114.762 153.133 115.421 150.341 115.325 147.428C115.314 147.129 115.249 146.831 115.193 146.442C114.904 146.588 114.722 146.659 114.559 146.765C112.816 147.868 110.932 148.161 108.966 147.61C107.689 147.251 106.417 146.796 105.211 146.239C102.739 145.096 100.19 144.211 97.5807 143.458C95.7212 142.922 93.882 142.264 92.1137 141.475C89.9958 140.529 88.3339 138.997 87.1787 136.959C87.0875 136.797 86.9507 136.66 86.7835 136.443C86.2109 137.277 86.0032 138.122 85.8563 138.997C85.4965 141.141 85.7093 143.286 85.9779 145.405C86.5099 149.587 86.3477 153.74 85.4611 157.826C83.86 165.205 82.1626 172.569 80.374 179.907C79.1682 184.859 77.5012 189.679 75.2059 194.251C74.223 196.203 73.1691 198.12 71.7403 199.794C70.3013 201.478 68.6293 202.742 66.2885 202.808C66.2226 202.808 66.1618 202.894 65.9895 203.015C65.3207 206.743 64.5759 210.556 64.7684 214.461C64.89 216.964 65.1636 219.457 65.3562 221.956C65.6754 226.068 65.9844 230.19 65.645 234.312C65.5234 235.824 65.1079 237.326 64.6975 238.798C64.4239 239.784 63.7905 240.598 62.8684 241.134C61.6625 241.837 60.9734 241.579 60.6289 240.239C59.0835 234.246 58.6782 228.182 59.7929 222.087C60.5428 218.001 61.551 213.955 62.4428 209.894C62.5543 209.398 62.6657 208.902 62.8076 208.285C61.2926 208.639 60.411 209.545 59.8993 210.708C59.2203 212.256 58.6529 213.859 58.1614 215.477C57.4571 217.794 56.8947 220.155 56.2056 222.477C55.8256 223.761 55.2075 224.955 54.3208 225.982C53.3125 227.15 52.0559 227.772 50.4802 227.722C49.3503 227.686 49.1122 227.539 48.6967 226.457C48.0937 224.904 48.0532 223.296 48.3167 221.678C48.7778 218.881 49.9532 216.342 51.453 213.975C53.0541 211.446 54.7515 208.983 56.4944 206.546C58.5211 203.708 58.7137 203.197 57.295 200.001C55.7699 196.567 54.1181 193.189 52.4055 189.846C50.5461 186.209 48.4636 182.689 46.6446 179.032C45.3729 176.468 44.3443 173.783 43.2753 171.122C42.8193 169.99 42.6774 168.766 42.8648 167.542C43.0979 166.004 44.3443 165.23 45.7985 165.802C46.4977 166.075 47.1969 166.49 47.734 167.011C48.5953 167.85 49.401 168.781 50.09 169.767C51.6303 171.962 52.8362 174.354 53.7584 176.863C55.0453 180.347 56.2107 183.878 57.4115 187.398C58.5515 190.736 59.8182 194.008 61.7892 196.961C62.4985 198.013 63.2737 198.995 64.3783 199.779ZM53.0288 65.3033C52.973 65.3185 52.9224 65.3337 52.8666 65.3488C52.8666 65.4854 52.8464 65.627 52.8717 65.7636C53.1301 67.2303 52.5778 68.353 51.4429 69.2735C49.0463 71.2156 48.3724 73.7848 49.021 76.6828C50.0191 81.1385 52.213 84.957 55.5368 88.1028C56.5147 89.0283 57.6192 89.7718 58.8961 90.2371C60.3148 90.758 61.6676 90.6669 62.9748 89.878C64.3074 89.0738 64.5303 89.1143 65.5082 90.2775C67.2866 92.3966 68.4368 94.8546 69.0752 97.5048C69.7592 100.327 70.2912 103.189 70.7928 106.052C71.3501 109.243 72.4496 112.156 74.9323 114.351C75.9558 115.257 77.1212 116.01 78.2815 116.744C79.9535 117.806 81.6813 118.782 83.3837 119.793C83.6117 119.925 83.8448 120.046 84.164 120.223C84.6858 118.463 85.2989 116.825 85.6485 115.135C86.1147 112.885 86.2971 110.573 86.748 108.323C87.3104 105.496 86.5909 103.22 84.2552 101.475C83.8346 101.161 83.4496 100.792 83.105 100.398C82.7047 99.9475 82.3095 99.4721 82.0106 98.9512C80.3943 96.1645 81.6255 93.4284 84.772 92.7759C87.0165 92.3107 89.1344 92.7102 91.0649 93.9088C92.1593 94.5916 93.1777 95.4059 94.1961 96.205C95.5338 97.2519 95.8479 97.2367 96.9525 95.9015C97.0842 95.7447 97.2109 95.5879 97.3375 95.4312C98.1381 94.4753 99.1616 93.9999 100.413 93.9594C102.009 93.9038 103.468 94.2983 104.755 95.239C105.541 95.8105 106.27 96.4578 107.05 97.0294C107.724 97.525 108.403 98.0459 109.336 98.1117C109.077 94.9102 109.695 91.8757 110.83 88.9575C111.697 86.7372 112.766 84.6029 113.703 82.408C113.916 81.9073 114.088 81.3256 114.048 80.7997C113.703 76.3187 113.774 71.8326 113.779 67.3415C113.789 61.6113 114.428 55.8963 113.683 50.1458C113.131 45.9228 112.67 41.7453 110.927 37.7852C108.591 32.4849 106.189 27.225 102.769 22.5215C101.73 21.0953 100.474 19.8107 99.2173 18.5564C98.1887 17.5297 96.8308 16.9835 95.397 16.852C94.1556 16.7407 92.8788 16.761 91.6476 16.9228C89.3878 17.2161 87.2243 17.9394 85.1672 18.9003C81.8637 20.4327 78.55 21.9601 75.3427 23.6746C72.1254 25.3942 68.7205 26.1882 65.1332 26.522C62.8785 26.7294 60.6289 27.0531 58.4046 27.4577C56.5197 27.8016 55.5976 29.1671 55.8763 31.0839C56.0232 32.1157 56.312 33.1373 56.611 34.1387C57.0366 35.57 57.5838 36.9659 57.979 38.4073C58.7593 41.2344 58.3641 43.9352 56.8998 46.4741C56.616 46.9646 56.3222 47.4451 56.0232 47.9256C55.1821 49.2759 54.868 50.7376 54.9491 52.3256C55.0504 54.3133 55.8307 56.0834 56.54 57.889C57.067 59.2393 57.6243 60.5947 57.9891 61.9957C58.5161 64.0086 58.3134 66.0063 57.452 67.9181C56.8795 69.1875 56.0992 69.3494 55.1467 68.3176C54.5488 67.6703 54.0826 66.9015 53.5658 66.1783C53.3682 65.9052 53.2061 65.5967 53.0288 65.3033ZM146.637 254.076C147.661 254.992 148.821 255.477 150.001 255.867C152.19 256.585 154.409 257.212 156.624 257.854C159.071 258.568 161.513 259.296 163.798 260.464C166.256 261.718 168.353 263.402 169.939 265.673C170.572 266.579 171.049 267.555 171.054 268.698C171.064 270.195 170.152 271.262 168.652 271.378C167.978 271.434 167.238 271.439 166.615 271.227C165.207 270.746 163.768 270.256 162.491 269.512C160.327 268.253 158.235 266.852 156.188 265.4C152.616 262.871 148.684 261.106 144.575 259.695C143.85 259.447 143.1 259.245 142.346 259.129C138.981 258.603 135.338 259.665 133.783 263.666C133.372 264.717 132.926 265.769 132.384 266.756C130.682 269.846 128.078 271.055 124.647 270.23C123.046 269.846 121.47 269.269 119.966 268.597C117.458 267.474 115.036 266.144 112.528 265.016C110.835 264.257 109.082 263.61 107.309 263.079C106.448 262.821 105.454 262.821 104.553 262.932C102.723 263.15 101.573 264.667 101.705 266.493C101.735 266.897 101.811 267.297 101.842 267.696C101.979 269.588 102.156 271.484 102.217 273.376C102.242 274.125 102.1 274.919 101.847 275.627C101.462 276.699 100.408 277.063 99.3541 276.603C99.0248 276.456 98.7106 276.254 98.437 276.016C96.9119 274.681 95.7719 273.123 95.3716 271.065C94.7737 268.025 94.7129 264.965 94.8801 261.89C94.9004 261.486 94.9156 261.081 94.946 260.676C94.9714 260.322 95.0119 259.968 95.0473 259.609C94.7281 259.802 94.566 260.029 94.4191 260.262C92.97 262.608 91.3638 264.834 89.4435 266.826C84.0576 272.4 77.6532 274.398 70.0835 272.344C69.7896 272.263 69.4906 272.218 69.1461 272.147C69.2525 273.25 69.4146 274.241 69.4298 275.237C69.5109 279.536 68.3861 283.572 66.3797 287.33C65.7058 288.594 65.9084 289.585 66.6026 290.567C67.0029 291.133 67.6311 291.598 68.2442 291.942C68.8674 292.291 69.5971 292.483 70.2963 292.665C75.9305 294.137 81.5597 295.649 87.2192 297.03C92.063 298.214 96.9829 299.038 101.984 299.094C111.585 299.205 121.187 299.261 130.783 299.281C142.209 299.306 153.629 299.109 165.019 298.112C167.477 297.895 169.919 297.526 172.376 297.248C172.969 297.182 173.44 296.944 173.876 296.55C177.24 293.505 179.085 289.712 179.551 285.221C179.951 281.367 179.338 277.64 178.051 274.018C176.506 269.679 174.22 265.825 170.491 262.957C168.191 261.192 165.648 259.872 162.972 258.8C160.231 257.703 157.444 256.722 154.708 255.599C153.031 254.911 151.359 254.157 149.799 253.242C148.958 252.751 148.355 252.696 147.64 253.267C147.321 253.525 147.012 253.778 146.637 254.076ZM164.335 143.245C164.31 143.306 164.29 143.367 164.264 143.427C164.609 143.614 164.958 143.791 165.303 143.984C167.112 144.98 168.961 145.906 170.714 146.988C174.565 149.375 177.985 152.263 180.655 155.97C183.244 159.571 184.754 163.561 184.962 168.012C185.114 171.279 184.582 174.455 183.736 177.591C182.383 182.593 180.133 187.2 177.413 191.575C175.082 195.318 172.655 199 170.192 202.656C166.337 208.381 163.058 214.405 160.408 220.772C158.103 226.3 156.076 231.919 154.82 237.791C154.602 238.803 154.617 239.758 154.906 240.76C155.418 242.545 155.874 244.346 156.264 246.161C156.482 247.178 156.512 248.23 156.639 249.363C157.161 249.332 157.642 249.337 158.118 249.272C160.003 249.014 161.883 248.715 163.768 248.473C166.185 248.164 168.601 247.952 171.028 248.377C174.074 248.908 176.46 250.389 178.021 253.1C178.775 254.415 178.674 254.83 177.352 255.644C175.938 256.519 174.378 256.883 172.726 256.924C170.517 256.979 168.368 256.595 166.266 255.963C163.479 255.123 160.718 254.183 157.921 253.363C156.304 252.888 154.648 252.569 153.006 252.18C152.976 252.266 152.95 252.347 152.92 252.433C153.269 252.605 153.614 252.807 153.979 252.949C155.484 253.545 157.004 254.107 158.498 254.719C161.457 255.927 164.462 257.035 167.345 258.411C172.665 260.945 176.49 264.996 178.927 270.362C180.635 274.125 181.689 278.039 181.816 282.176C181.962 286.966 180.868 291.396 177.975 295.3C177.823 295.508 177.701 295.735 177.463 296.12C179.51 295.609 181.263 294.921 182.95 294.051C186.431 292.266 189.026 289.651 190.495 285.99C190.809 285.201 191.159 284.427 191.452 283.633C193.687 277.69 194.746 271.479 195.572 265.223C196.053 261.577 196.524 257.93 196.935 254.274C197.259 251.421 197.604 248.569 197.73 245.706C198.039 238.691 197.386 231.722 196.195 224.818C194.979 217.773 193.586 210.758 192.289 203.723C191.148 197.558 190.297 191.348 190.014 185.081C189.791 180.15 189.395 175.239 188.519 170.374C187.718 165.944 186.523 161.634 184.445 157.604C181.42 151.727 176.87 147.595 170.583 145.425C168.86 144.833 167.157 144.181 165.445 143.569C165.085 143.448 164.705 143.357 164.335 143.245ZM153.295 233.922C153.462 233.705 153.533 233.649 153.558 233.578C153.639 233.351 153.705 233.118 153.776 232.885C157.151 221.85 161.706 211.36 168.156 201.731C171.104 197.331 174.008 192.89 176.739 188.354C179.677 183.468 181.75 178.218 182.555 172.523C183.26 167.532 182.424 162.869 179.743 158.565C177.97 155.707 175.654 153.35 173.025 151.282C169.529 148.535 165.653 146.437 161.564 144.732C153.462 141.359 145.016 139.402 136.276 138.704C134.761 138.582 133.235 138.521 131.604 138.759C131.812 139.26 131.979 139.659 132.141 140.059C133.018 142.234 133.97 144.378 134.761 146.583C137.76 154.984 139.179 163.713 139.822 172.564C140.314 179.336 140.532 186.133 140.932 192.91C141.094 195.652 141.271 198.408 141.692 201.119C142.574 206.788 143.643 212.427 144.59 218.087C145.168 221.516 145.715 224.95 145.72 228.44C145.725 231.919 145.639 235.399 145.705 238.873C145.735 240.563 145.933 242.262 146.211 243.931C146.556 245.989 147.377 247.881 148.75 249.494C149.054 249.853 149.338 250.329 149.829 250.061C149.307 248.928 148.654 247.851 148.299 246.682C147.742 244.846 147.823 242.919 148.01 241.023C148.324 237.832 149.155 234.746 150.047 231.682C150.24 231.014 150.3 230.382 150.158 229.669C148.664 222.209 147.569 214.693 147.387 207.072C147.265 202.014 147.26 196.961 148.167 191.955C148.588 189.638 149.175 187.372 150.412 185.329C151.42 183.66 152.869 182.558 154.759 182.052C156.239 181.657 157.515 182.123 158.336 183.412C158.676 183.948 158.919 184.565 159.096 185.182C159.699 187.276 159.719 189.441 159.471 191.565C158.985 195.697 158.407 199.819 157.713 203.921C156.852 209.019 155.818 214.086 154.891 219.174C154.222 222.831 153.852 226.538 152.773 230.114C152.672 230.442 152.677 230.837 152.732 231.181C152.874 232.056 153.082 232.916 153.295 233.922ZM119.327 138.83C119.19 139.23 119.074 139.609 118.927 139.978C118.461 141.141 118.03 142.315 117.493 143.442C117.235 143.989 117.159 144.489 117.27 145.066C117.716 147.403 117.645 149.759 117.113 152.05C116.414 155.075 115.603 158.084 114.691 161.053C113.556 164.74 112.588 168.457 112.426 172.311C112.254 176.468 112.284 180.636 112.269 184.793C112.259 188.389 112.447 191.995 112.3 195.586C112.046 201.812 111.048 207.962 109.817 214.066C108.343 221.4 106.341 228.596 104.244 235.768C102.222 242.677 99.9722 249.499 96.7701 255.973C96.7042 256.11 96.6788 256.266 96.6028 256.509C97.3629 256.469 98.0367 256.418 98.7106 256.398C102.09 256.302 105.409 256.823 108.712 257.46C113.12 258.315 117.473 259.453 121.957 259.888C124.921 260.176 127.855 260.105 130.753 259.301C134.391 258.294 136.671 255.953 137.694 252.357C138.272 250.319 138.535 248.22 138.393 246.116C138.196 243.218 137.892 240.32 137.527 237.437C137.112 234.15 136.666 230.867 136.078 227.61C135.181 222.629 133.651 217.809 131.954 213.05C127.941 201.802 125.453 190.22 124.136 178.37C123.472 172.382 123.051 166.373 123.046 160.345C123.041 153.836 122.915 147.327 123.583 140.833C123.629 140.367 123.629 139.892 123.654 139.437C122.17 139.24 120.776 139.042 119.327 138.83ZM40.1389 284.214C40.5189 284.361 40.7672 284.487 41.0307 284.553C43.0675 285.079 45.0942 285.656 47.1513 286.096C48.3268 286.349 49.558 286.5 50.7589 286.47C53.3226 286.404 55.2227 285.17 56.3374 282.834C56.5958 282.287 56.8086 281.711 56.9656 281.129C57.599 278.788 57.5635 276.421 57.2494 274.034C56.6667 269.578 55.0352 265.603 51.8837 262.34C50.3687 260.773 48.798 259.24 47.1564 257.804C43.8123 254.865 40.3213 252.094 37.2661 248.837C36.952 248.503 36.4757 248.275 36.0349 248.124C32.4729 246.91 29.0073 247.486 25.5872 248.741C24.1584 249.267 22.9525 250.147 21.8784 251.214C21.093 251.993 20.6573 252.868 20.6978 254.021C20.7383 255.149 20.6522 256.282 20.5509 257.404C20.4141 258.962 19.6895 260.338 19.1119 261.759C18.742 262.669 18.8383 262.836 19.7351 263.241C21.0373 263.832 22.3648 264.004 23.7379 263.463C24.8677 263.018 26.0027 262.588 27.1376 262.158C28.1358 261.779 29.1643 261.592 30.2334 261.688C31.1049 261.764 31.5204 262.042 31.6369 262.598C31.7585 263.18 31.5052 263.58 30.7097 263.974C30.2385 264.207 29.7521 264.409 29.2657 264.606C28.0294 265.107 26.7678 265.557 25.5518 266.098C24.5941 266.523 23.6517 267.003 22.7549 267.545C21.4223 268.344 20.8853 269.659 20.8093 271.125C20.6978 273.159 22.3344 274.352 24.2851 273.715C24.7411 273.563 25.1717 273.33 25.6075 273.118C26.1142 272.875 26.56 272.982 26.9299 273.371C27.3048 273.765 27.2897 274.312 26.8944 274.807C26.6462 275.121 26.3371 275.389 26.0584 275.687C25.0653 276.759 24.1381 277.882 23.5656 279.248C23.2514 280.001 23.069 280.76 23.3122 281.6C23.7632 283.178 27.016 284.639 28.3689 284.265C28.5969 284.204 28.7894 284.022 29.0174 283.941C29.6204 283.719 30.2385 283.527 30.8465 283.319C31.4545 283.107 32.0828 282.95 32.6553 282.667C34.0335 281.984 35.3407 281.149 36.7493 280.548C37.8488 280.072 39.0445 279.784 40.2251 279.541C41.3499 279.309 41.9731 280.391 41.4462 281.321C40.9395 282.181 40.6051 283.147 40.1389 284.214ZM87.8627 130.252C88.3744 130.085 88.7443 129.929 89.1345 129.838C90.7862 129.448 92.4228 128.973 94.0948 128.73C98.0013 128.164 101.842 128.791 105.672 129.534C108.788 130.136 111.606 131.39 114.169 133.241C115.056 133.879 115.978 134.465 116.895 135.062C117.154 135.229 117.442 135.34 117.792 135.517C117.888 135.199 117.969 134.976 118.02 134.749C118.638 131.856 119.54 129.054 120.634 126.308C120.979 125.443 121.278 124.563 121.562 123.678C122.17 121.781 122.605 119.854 122.534 117.846C122.519 117.371 122.494 116.835 122.276 116.435C121.405 114.822 120.371 113.269 118.76 112.339C117.569 111.651 117.027 110.7 116.819 109.451C116.591 108.06 116.383 106.664 116.161 105.223C116.115 105.202 116.009 105.152 115.897 105.121C114.716 104.798 114.666 104.732 114.575 103.589C114.544 103.23 114.494 102.866 114.433 102.512C114.245 101.465 113.607 100.878 112.553 100.752C111.95 100.681 111.347 100.565 110.744 100.56C108.662 100.534 106.883 99.7806 105.308 98.4606C104.781 98.0206 104.269 97.5452 103.691 97.176C103.119 96.8119 102.501 96.4477 101.857 96.2758C100.611 95.9369 99.4402 96.0583 98.6498 97.2974C98.437 97.6312 98.1431 97.9296 97.8442 98.1976C96.4762 99.4317 94.6724 99.4317 93.2486 98.2684C92.3113 97.4997 91.3284 96.7815 90.3657 96.0381C89.2966 95.2187 88.0552 94.8495 86.7429 94.804C86.0336 94.7787 85.2786 94.8951 84.6098 95.1378C83.556 95.5171 83.1912 96.3971 83.708 97.3783C84.1133 98.1471 84.7213 98.8197 85.3141 99.4721C85.9627 100.19 86.7328 100.802 87.3814 101.52C88.6379 102.901 89.2814 104.56 89.0787 106.421C88.7595 109.35 88.4352 112.288 87.883 115.181C87.4827 117.275 86.7277 119.298 86.0893 121.341C85.9171 121.887 86.0083 122.302 86.2312 122.823C86.6872 123.89 87.0976 125.003 87.3357 126.136C87.6144 127.425 87.6854 128.765 87.8627 130.252ZM126.031 139.265C125.949 139.756 125.838 140.185 125.808 140.62C125.64 142.836 125.397 145.056 125.352 147.276C125.154 156.375 125.068 165.473 125.965 174.551C126.476 179.746 127.171 184.904 128.067 190.043C129.364 197.508 131.442 204.76 133.899 211.917C135.642 217 137.314 222.113 138.282 227.418C138.789 230.2 139.133 233.012 139.533 235.809C140.081 239.612 140.679 243.41 140.577 247.269C140.491 250.582 139.989 253.793 138.181 256.671C138.12 256.767 138.115 256.898 138.079 257.015C142.128 256.737 143.283 256.848 146.186 257.915C150.381 259.458 154.389 261.359 158.022 264.004C159.719 265.243 161.478 266.417 163.297 267.469C164.507 268.172 165.865 268.637 167.183 269.143C167.694 269.34 168.282 269.411 168.819 268.981C168.9 267.954 168.343 267.191 167.781 266.467C166.311 264.581 164.482 263.099 162.273 262.194C160.256 261.364 158.179 260.687 156.102 260.014C153.756 259.255 151.369 258.608 149.023 257.844C147.514 257.354 146.115 256.61 144.874 255.609C143.749 254.698 143.663 254.173 144.626 253.095C145.32 252.316 146.135 251.654 146.921 250.915C146.885 250.845 146.855 250.723 146.789 250.637C144.914 248.225 143.987 245.438 143.774 242.444C143.577 239.667 143.556 236.876 143.541 234.089C143.526 230.655 143.744 227.206 143.212 223.792C142.437 218.84 141.53 213.914 140.749 208.963C140.096 204.816 139.361 200.664 138.991 196.486C138.551 191.535 138.439 186.553 138.226 181.587C137.927 174.673 137.405 167.784 136.235 160.957C134.994 153.709 132.937 146.715 129.729 140.074C129.557 139.715 129.364 139.366 129.162 138.982C128.098 139.073 127.095 139.164 126.031 139.265ZM112.219 35.1704C112.279 35.1502 112.345 35.1249 112.406 35.1047C112.376 34.872 112.366 34.6343 112.305 34.4118C111.261 30.6338 110.085 26.8912 108.53 23.2903C108.165 22.4456 107.684 21.6364 107.157 20.8778C105.931 19.1228 104.274 17.823 102.435 16.7559C101.072 15.9619 99.6936 15.1881 98.2951 14.4648C96.4356 13.5039 94.8346 12.2294 93.4209 10.702C92.6255 9.84223 91.7996 9.00267 91.0142 8.13277C88.643 5.51802 85.5877 4.43065 82.1575 4.1626C77.2529 3.78328 72.5712 4.73916 68.0264 6.51942C64.5658 7.87484 61.3838 9.69556 58.6377 12.2243C56.0891 14.571 54.3411 17.3527 53.9306 20.8727C53.7128 22.7592 53.5354 24.6608 53.1098 26.5069C52.6184 28.626 51.8989 30.6945 51.2402 32.7732C50.4143 35.3829 49.9178 38.033 50.2015 40.7742C50.7893 46.4437 51.4834 52.1031 52.8666 57.6411C53.429 59.9069 54.2904 62.0968 55.0504 64.307C55.1923 64.7217 55.3645 65.1971 55.9016 65.4854C55.9523 65.2325 55.9979 65.0858 56.0131 64.9392C56.1955 63.3258 55.7901 61.8086 55.1973 60.3318C54.64 58.946 54.0218 57.5804 53.5253 56.1694C52.2789 52.6139 52.3903 49.1849 54.6299 45.9936C54.7464 45.8267 54.8477 45.6497 54.9491 45.4777C56.2056 43.3434 56.5147 41.0827 55.8003 38.7107C55.4507 37.5525 54.9997 36.4247 54.6653 35.2564C54.3005 33.9769 53.9154 32.6922 53.7229 31.3823C53.272 28.3175 54.8984 25.9404 57.9486 25.3284C60.2033 24.8783 62.5036 24.5951 64.7988 24.3726C68.1784 24.0489 71.416 23.3661 74.4257 21.687C76.6854 20.4277 79.0313 19.315 81.3671 18.1922C84.544 16.6649 87.7968 15.3145 91.3081 14.7481C95.554 14.0602 99.2882 14.9756 102.207 18.3086C103.19 19.4313 104.152 20.5895 105.009 21.8084C107.699 25.6268 109.781 29.7791 111.697 34.0224C111.854 34.4118 112.041 34.7911 112.219 35.1704ZM151.506 224.925C151.582 224.91 151.653 224.889 151.729 224.874C152.205 222.012 152.651 219.139 153.163 216.281C154.354 209.605 155.641 202.945 156.75 196.258C157.161 193.801 157.242 191.277 157.343 188.778C157.384 187.706 157.186 186.599 156.917 185.552C156.522 184.024 155.828 183.792 154.394 184.52C153.503 184.97 152.753 185.597 152.302 186.477C151.825 187.408 151.364 188.364 151.055 189.355C150.012 192.698 149.707 196.162 149.591 199.637C149.343 206.763 149.778 213.849 150.842 220.899C151.04 222.244 151.278 223.584 151.506 224.925ZM57.827 9.87763C56.1347 10.6868 54.7261 11.8197 53.3632 13.0133C46.4774 19.0824 43.1993 26.6434 43.8782 35.8532C44.1721 39.8537 44.9068 43.7784 45.7326 47.698C46.4014 50.8893 47.4807 53.9087 49.021 56.7813C49.6898 58.0306 50.313 59.3 50.9615 60.5543C51.1085 60.8426 51.2807 61.1157 51.5847 61.6417C51.1389 59.826 50.7437 58.3087 50.394 56.7813C49.3807 52.3256 48.8031 47.7941 48.2508 43.2625C47.9519 40.8096 47.7137 38.3365 48.2407 35.8987C48.6562 33.9667 49.1578 32.0449 49.7962 30.1786C50.769 27.3312 51.3973 24.4333 51.6506 21.4341C51.9647 17.6764 53.4189 14.4092 56.0587 11.6933C56.6464 11.0864 57.2392 10.4845 57.827 9.87763ZM88.7088 134.865C88.8051 135.143 88.8507 135.34 88.9368 135.517C89.7729 137.267 91.1105 138.557 92.8332 139.371C94.2873 140.059 95.8074 140.656 97.3578 141.101C100.514 142.011 103.62 143.023 106.589 144.444C107.603 144.929 108.707 145.243 109.797 145.536C111.418 145.966 112.816 145.42 114.083 144.403C114.58 144.004 114.646 143.625 114.372 143.048C113.44 141.091 112.072 139.508 110.207 138.43C104.943 135.396 99.2477 133.869 93.1676 133.874C91.6729 133.874 90.1782 134.086 88.7088 134.865ZM132.562 261.132C132.126 261.223 131.898 261.263 131.675 261.314C130.727 261.526 129.795 261.799 128.838 261.946C125.235 262.502 121.648 262.234 118.091 261.577C113.997 260.823 109.923 259.948 105.829 259.179C103.478 258.739 101.102 258.492 98.7056 258.588C97.449 258.638 97.4287 258.643 97.2615 259.837C96.8207 262.897 96.8562 265.962 97.221 269.021C97.3173 269.821 97.4794 270.62 97.7023 271.388C98.0621 272.617 99.0653 273.776 100.084 274.175C100.018 272.794 99.9824 271.469 99.8861 270.144C99.7797 268.733 99.6226 267.332 99.4808 265.926C99.3997 265.092 99.6125 264.338 100.053 263.625C101.401 261.445 103.367 260.53 105.89 260.661C108.028 260.773 110.02 261.455 111.935 262.335C114.615 263.569 117.23 264.955 119.92 266.159C121.648 266.933 123.431 267.621 125.25 268.126C127.404 268.723 129.091 268.015 130.211 266.073C131.087 264.556 131.731 262.902 132.562 261.132ZM84.2248 149.183C84.1437 149.168 84.0576 149.152 83.9765 149.137C83.9056 149.309 83.8194 149.476 83.7586 149.653C83.3279 150.867 82.9783 152.116 82.4615 153.295C81.8637 154.66 81.1391 155.975 80.4551 157.3C79.3404 159.465 78.8489 161.776 78.8236 164.194C78.8033 165.933 78.8236 167.668 78.8084 169.408C78.7831 173.171 78.2612 176.827 76.351 180.15C75.5049 181.622 74.6233 183.073 73.6961 184.495C70.7117 189.067 68.5229 193.993 66.9826 199.212C66.861 199.622 66.7749 200.036 66.6482 200.552C67.7983 200.431 68.6141 199.961 69.2069 199.253C70.2152 198.054 71.2184 196.82 72.0291 195.485C74.0457 192.152 75.5049 188.551 76.6449 184.839C79.5887 175.26 81.8181 165.498 83.6168 155.646C84.0018 153.527 84.0322 151.337 84.2248 149.183ZM63.9273 202.171C61.3585 200.583 59.8081 198.226 58.4857 195.702C57.9232 194.63 57.376 193.538 56.9606 192.405C55.8712 189.411 54.8325 186.391 53.8242 183.367C52.517 179.452 51.1287 175.568 48.9399 172.043C48.2001 170.849 47.2577 169.777 46.3558 168.695C46.067 168.351 45.611 168.144 44.9828 167.704C45.0537 168.548 45.0284 169.11 45.1652 169.625C45.4337 170.637 45.7428 171.643 46.1278 172.619C47.6175 176.382 49.5631 179.928 51.4581 183.498C53.7685 187.853 56.0739 192.212 58.2577 196.628C59.0937 198.317 59.6611 200.153 60.2134 201.958C60.6188 203.278 60.4009 204.614 59.6459 205.802C59.1494 206.586 58.6022 207.34 58.0803 208.108C56.3677 210.657 54.6045 213.176 52.973 215.776C51.7874 217.662 50.8957 219.71 50.5055 221.931C50.2978 223.129 50.2167 224.328 50.7741 225.506C51.7925 225.471 52.5069 224.94 52.973 224.161C53.4848 223.301 53.9661 222.386 54.26 221.435C54.9085 219.316 55.4355 217.156 56.0029 215.007C56.5248 213.055 57.0822 211.113 58.1158 209.352C59.1697 207.552 60.6036 206.288 62.7772 206.055C62.9241 206.04 63.066 205.939 63.2231 205.873C63.4561 204.664 63.6791 203.476 63.9273 202.171ZM50.1914 288.766C50.3282 288.882 50.3991 288.994 50.5005 289.029C53.125 289.879 55.7851 290.546 58.5313 290.86C60.487 291.082 61.8905 290.278 63.0052 288.756C63.3143 288.331 63.4156 287.932 63.3244 287.411C63.0761 285.939 62.8431 284.457 62.686 282.97C62.2553 278.975 62.2199 274.984 63.0609 271.024C63.1623 270.559 63.2636 270.089 63.3751 269.578C62.7519 269.193 62.1641 268.844 61.5916 268.475C61.0494 268.126 60.5073 267.767 59.9854 267.388C59.4281 266.983 58.891 266.553 58.3539 266.123C57.8523 265.724 57.3608 265.314 56.8592 264.91C56.7731 265.173 56.7934 265.289 56.844 265.39C58.9923 269.552 59.8131 273.998 59.6003 278.646C59.5091 280.598 59.0683 282.49 58.1158 284.224C56.8795 286.48 55.02 287.932 52.4816 288.448C51.7469 288.589 50.997 288.655 50.1914 288.766ZM74.9273 117.315C76.0572 119.718 76.9084 122.186 77.4911 124.745C77.9927 126.945 78.3727 129.175 78.8439 131.38C79.31 133.545 79.6242 135.775 80.369 137.844C81.2354 140.251 82.497 142.512 83.708 145.091C83.6725 144.403 83.6573 143.984 83.632 143.559C83.5863 142.755 83.4901 141.945 83.5104 141.141C83.561 138.602 83.8701 136.144 85.7499 134.172C85.9525 133.96 85.8917 133.494 85.9627 133.115C84.2298 132.928 83.4445 131.967 83.1506 130.515C83.0949 130.237 82.9986 129.959 83.0037 129.686C83.0544 127.794 82.9632 125.878 83.257 124.021C83.4445 122.833 83.1303 122.196 82.2031 121.649C81.8535 121.442 81.5445 121.179 81.1948 120.977C79.1124 119.748 77.0198 118.534 74.9273 117.315ZM130.114 127.036C129.598 127.82 129.187 128.462 128.762 129.094C128.326 129.742 128.235 130.414 128.488 131.163C128.863 132.27 129.172 133.403 129.562 134.506C129.81 135.214 130.15 135.892 130.454 136.59C134.74 136.2 138.844 136.64 142.933 137.232C146.992 137.818 150.974 138.795 154.962 139.791C146.353 136.286 138.008 132.301 130.114 127.036ZM116.47 54.6015C116.743 55.5372 116.895 56.225 117.143 56.8774C117.924 58.9156 118.76 60.9285 119.535 62.9667C120.33 65.0656 120.807 67.2302 120.634 69.491C120.498 71.3521 120.072 73.1628 119.464 74.9278C119.327 75.3324 119.231 75.7522 119.089 76.2529C119.707 76.4805 120.209 76.6676 120.776 76.8801C120.944 76.3591 121.08 75.9849 121.187 75.6005C122.023 72.5508 122.499 69.4353 122.808 66.2946C123.107 63.2753 123.345 60.2458 122.869 57.2214C122.742 56.4273 122.565 55.6232 122.266 54.8848C121.739 53.585 120.984 53.3473 119.768 54.0149C119.413 54.2071 119.069 54.4296 118.765 54.6976C118.101 55.2894 117.427 55.4209 116.47 54.6015ZM89.8691 131.992C91.1155 131.876 92.2758 131.694 93.4412 131.674C94.6521 131.658 95.8682 131.739 97.069 131.886C101.933 132.478 106.554 133.869 110.851 136.256C112.756 137.318 114.321 138.754 115.527 140.575C115.669 140.787 115.841 140.979 116.135 141.349C116.556 140.054 116.91 138.961 117.25 137.915C115.684 136.878 114.21 135.957 112.796 134.961C110.552 133.378 108.125 132.265 105.419 131.719C101.756 130.981 98.0874 130.419 94.3431 130.874C92.8281 131.051 91.3284 131.274 89.8691 131.992ZM123.872 137.121C124.561 134.698 125.205 132.452 125.823 130.207C125.894 129.949 125.868 129.651 125.823 129.382C125.433 127.324 125.032 125.266 124.627 123.212C124.581 122.97 124.485 122.742 124.374 122.388C122.479 126.505 120.006 134.622 120.037 136.595C121.293 137.03 122.595 137.181 123.872 137.121ZM159.572 251.31C159.567 251.416 159.567 251.527 159.562 251.634C162.537 252.514 165.501 253.419 168.485 254.274C170.091 254.734 171.753 254.855 173.415 254.698C174.276 254.618 175.143 254.481 175.852 253.839C174.874 252.261 173.501 251.285 171.814 250.835C170.729 250.546 169.589 250.379 168.47 250.349C165.465 250.263 162.526 250.875 159.572 251.31ZM104.132 15.1527C101.872 9.61969 91.3132 2.06877 87.1432 2.88809C89.9654 4.22329 91.0396 4.92123 92.7622 6.78241C97.7581 12.1636 96.9423 11.1521 102.267 14.1159C102.85 14.4345 103.428 14.7582 104.132 15.1527ZM62.7975 218.77C61.0849 225.233 61.0444 234.888 62.6252 238.16C62.7924 237.69 62.9849 237.336 63.0407 236.962C63.2332 235.728 63.4713 234.489 63.5271 233.244C63.7247 228.672 63.3599 224.115 62.9748 219.564C62.9495 219.291 62.8583 219.033 62.7975 218.77ZM116.206 61.1056C116.069 66.4059 115.725 71.691 116.15 76.9711C118.912 71.686 119.358 66.3958 116.206 61.1056ZM65.2548 271.297C64.277 275.738 64.5202 280.082 65.0876 284.675C65.3156 284.356 65.4271 284.255 65.4778 284.123C66.5367 281.438 67.2511 278.666 67.2714 275.773C67.2765 274.782 67.0789 273.77 66.8407 272.799C66.6634 272.096 66.253 271.464 65.2548 271.297ZM151.456 235.839C151.288 235.965 151.182 235.996 151.167 236.056C150.437 238.838 149.91 241.65 150.138 244.543C150.219 245.59 150.386 246.632 150.974 247.547C151.263 247.992 151.552 248.457 152.134 248.579C152.023 247.087 151.83 245.681 151.846 244.28C151.866 242.833 152.094 241.387 152.221 239.941C152.246 239.622 152.266 239.288 152.195 238.985C151.982 237.963 151.724 236.946 151.456 235.839ZM116.348 100.848C116.444 98.2887 116.231 95.8509 115.684 93.4081C114.519 95.2845 113.257 97.0192 111.18 98.3443C113.364 98.5871 115.259 98.8602 116.348 100.848ZM111.768 94.8141C113.359 93.1502 114.301 91.1626 115.046 89.0738C115.243 88.5124 114.818 86.717 114.407 86.0646C113.12 88.9019 111.955 91.7037 111.768 94.8141ZM128.113 136.868C127.723 135.881 127.429 135.123 127.13 134.369C127.039 134.379 126.943 134.384 126.851 134.395C126.689 135.219 126.522 136.043 126.335 136.999C126.988 136.954 127.449 136.918 128.113 136.868ZM38.5378 282.444C37.56 282.52 36.7949 282.793 36.0957 283.466C36.7189 283.587 37.2205 283.688 37.7981 283.805C38.0565 283.329 38.2946 282.889 38.5378 282.444ZM85.608 130.232C85.5219 129.281 85.4307 128.336 85.3445 127.385C85.1013 128.371 84.9848 129.347 85.608 130.232ZM116.931 81.2801C116.292 81.882 116.338 82.3877 116.703 83.116C116.789 82.4333 116.85 81.9427 116.931 81.2801ZM119.049 107.488C118.932 107.504 118.81 107.519 118.694 107.534C118.79 107.969 118.891 108.409 118.988 108.844C119.074 108.829 119.16 108.808 119.251 108.793C119.18 108.358 119.114 107.923 119.049 107.488Z" fill="black"/>
</g>
<defs>
<clipPath id="clip0">
<rect width="200" height="348" fill="white"/>
</clipPath>
</defs>
</svg>
