<svg width="83" height="83" viewBox="0 0 83 83" fill="none" xmlns="http://www.w3.org/2000/svg">
<path d="M82.7123 41.4845C82.7123 62.5795 65.6288 77 44.5553 77C23.4817 77 29.7124 59.9691 14.7123 41.4845C-0.287781 23 23.4817 0 44.5553 0C65.6288 0 82.7123 20.3895 82.7123 41.4845Z" fill="#2EC2F1"/>
<g clip-path="url(#clip0)">
<circle cx="38.5" cy="59.5" r="17.5" fill="#FDB614"/>
<path d="M19.9639 20.448C30.0157 20.448 39.9773 20.448 50.0629 20.448C50.0629 19.6416 50.0554 18.8727 50.0648 18.1019C50.0949 15.1655 52.2391 12.9773 55.0541 12.9999C57.8729 13.0224 59.9494 15.1448 59.9851 18.0455C59.9945 18.82 59.987 19.5927 59.987 20.4706C60.3966 20.4706 60.6992 20.4706 61.0017 20.4706C63.3789 20.4706 65.7561 20.4612 68.1314 20.4725C69.7024 20.48 69.9974 20.7808 69.9974 22.3373C70.0012 31.3477 69.9993 40.3581 69.9993 49.3666C69.9993 59.909 69.9993 70.4515 69.9993 80.9959C69.9993 82.7931 69.7907 82.998 68.0111 82.998C46.0264 82.9961 24.0417 82.9961 2.05704 82.998C0.236103 82.998 0.0030825 82.7874 0.0030825 80.9433C-0.00255509 61.5164 -0.000675891 42.0895 -0.000675891 22.6607C-0.000675891 22.5986 0.0012033 22.5347 0.0030825 22.4727C0.027512 20.7469 0.269928 20.5026 1.95745 20.5044C4.24067 20.5063 6.52389 20.5101 8.80523 20.5101C10.0474 20.5101 10.0474 20.5101 10.0455 19.2223C10.0455 18.7524 10.0399 18.2843 10.0511 17.8143C10.1244 15.1204 12.2178 13.0563 14.9295 13.0017C17.5848 12.9472 19.8192 15.0114 19.9564 17.6789C20.0015 18.5794 19.9639 19.4836 19.9639 20.448ZM2.47986 37.9856C2.47986 52.1958 2.47986 66.3251 2.47986 80.4883C24.177 80.4883 45.8291 80.4883 67.5207 80.4883C67.5207 66.2969 67.5207 52.1695 67.5207 37.9856C45.8479 37.9856 24.2203 37.9856 2.47986 37.9856ZM67.5019 35.4402C67.5019 31.2537 67.5019 27.1198 67.5019 22.9859C64.9781 22.9859 62.5258 22.9859 59.987 22.9859C59.987 23.8055 59.9926 24.5519 59.9851 25.2982C59.9569 28.2722 57.8936 30.4078 55.0391 30.4247C52.2297 30.4416 50.0949 28.2477 50.0629 25.3057C50.0554 24.5368 50.0611 23.7679 50.0611 22.9803C39.9642 22.9803 30.0044 22.9803 19.9676 22.9803C19.9676 23.8883 19.9883 24.7305 19.962 25.5708C19.9169 26.9807 19.3964 28.2026 18.3365 29.1369C16.7542 30.5299 14.9258 30.8251 13.009 29.9979C11.0866 29.1651 10.1131 27.6142 10.0455 25.5012C10.0192 24.6703 10.2541 23.5179 9.81436 23.1006C9.35771 22.6682 8.22644 22.9257 7.3902 22.9182C5.77409 22.9032 4.15798 22.9145 2.51369 22.9145C2.51369 27.1724 2.51369 31.3063 2.51369 35.4421C24.2165 35.4402 45.8442 35.4402 67.5019 35.4402ZM12.4678 21.6587C12.4678 22.9088 12.4509 24.159 12.4715 25.4091C12.496 26.8529 13.4487 27.8812 14.8055 27.9714C16.2224 28.0654 17.4458 27.1518 17.4984 25.6967C17.5942 23.0442 17.5923 20.3841 17.5003 17.7316C17.4495 16.2822 16.2243 15.3591 14.813 15.4494C13.4487 15.5359 12.4978 16.5548 12.4715 18.0023C12.4509 19.2205 12.4678 20.4405 12.4678 21.6587ZM57.5647 21.6869C57.5647 20.4368 57.5872 19.1866 57.5591 17.9365C57.5271 16.5172 56.5274 15.5077 55.1518 15.4475C53.78 15.3873 52.5867 16.301 52.5378 17.7071C52.4458 20.3597 52.4476 23.0197 52.5285 25.6723C52.5717 27.0803 53.7462 28.0222 55.1067 27.9789C56.518 27.9357 57.5309 26.9055 57.5609 25.4373C57.5854 24.1872 57.5647 22.937 57.5647 21.6869Z" fill="white"/>
<path d="M35.0537 43.0296C44.7033 43.039 52.4851 50.8519 52.4813 60.5259C52.4776 70.1961 44.6714 78.0127 35.0255 78.0089C25.3232 78.0052 17.5377 70.1791 17.5528 60.4488C17.5697 50.8011 25.3871 43.0183 35.0537 43.0296ZM35.0518 45.4791C26.727 45.4641 19.9901 52.1415 19.975 60.4168C19.96 68.7899 26.6725 75.5782 34.9748 75.5876C43.3015 75.597 50.0478 68.8482 50.0572 60.4995C50.0666 52.2035 43.3635 45.4923 35.0518 45.4791Z" fill="white"/>
<path d="M30.4538 62.12C30.1682 62.2629 29.875 62.3701 29.58 62.4377C29.2831 62.5073 28.9843 62.5411 28.678 62.5411C27.4509 62.5411 26.4418 62.1294 25.6506 61.3079C24.8595 60.4845 24.4648 59.4299 24.4648 58.1384C24.4648 56.7304 24.9083 55.5968 25.7953 54.7358C26.6823 53.8767 27.8549 53.4462 29.3132 53.4462C30.6718 53.4462 31.7655 53.8654 32.598 54.7038C33.4305 55.5423 33.8458 56.6439 33.8458 58.0087C33.8458 59.4731 32.846 61.6068 30.8466 64.4116L30.6136 64.7481L28.2026 68.132L26.5207 67.2728L30.4538 62.12ZM31.7054 57.9899C31.7054 57.174 31.4818 56.516 31.0326 56.0179C30.5835 55.5197 29.9953 55.2697 29.2662 55.2697C28.4506 55.2697 27.8079 55.5122 27.3363 55.9991C26.8665 56.486 26.6316 57.1496 26.6316 57.9899C26.6316 58.849 26.8627 59.5239 27.3231 60.0127C27.7835 60.5014 28.4187 60.7458 29.2286 60.7458C29.9577 60.7458 30.5516 60.4883 31.0138 59.9751C31.4761 59.4619 31.7054 58.8001 31.7054 57.9899Z" fill="white"/>
<path d="M45.7486 60.6819C45.7486 62.857 45.3107 64.5601 44.435 65.7896C43.5593 67.0209 42.3566 67.6357 40.8232 67.6357C39.2729 67.6357 38.0645 67.0134 37.202 65.7708C36.3394 64.5282 35.9072 62.7818 35.9072 60.5315C35.9072 58.3001 36.3432 56.563 37.2151 55.3148C38.0871 54.0684 39.2992 53.4462 40.8495 53.4462C42.4186 53.4462 43.6269 54.0703 44.4745 55.3204C45.3257 56.5706 45.7486 58.3565 45.7486 60.6819ZM40.7875 65.72C41.697 65.72 42.381 65.2858 42.8377 64.4154C43.2943 63.545 43.5236 62.246 43.5236 60.5127C43.5236 58.8302 43.2981 57.5481 42.8471 56.6664C42.3961 55.7848 41.7365 55.343 40.8702 55.343C39.9663 55.343 39.2841 55.7829 38.8237 56.6608C38.3633 57.5387 38.1322 58.8358 38.1322 60.5484C38.1322 62.2121 38.3615 63.4905 38.8181 64.3797C39.2785 65.2745 39.9343 65.72 40.7875 65.72Z" fill="white"/>
</g>
<defs>
<clipPath id="clip0">
<rect width="70" height="70" fill="white" transform="translate(0 13)"/>
</clipPath>
</defs>
</svg>
