<svg width="508" height="18" viewBox="0 0 508 18" fill="none" xmlns="http://www.w3.org/2000/svg">
<path d="M0 2C10.58 2 10.58 15.54 21.15 15.54C31.73 15.54 31.73 2 42.3 2C52.88 2 52.88 15.54 63.45 15.54C74.03 15.54 74.03 2 84.6 2C95.18 2 95.18 15.54 105.75 15.54C116.33 15.54 116.33 2 126.9 2C137.48 2 137.48 15.54 148.06 15.54C158.64 15.54 158.64 2 169.22 2" stroke="white" stroke-width="2.9781" stroke-miterlimit="10"/>
<path d="M338.46 2C349.04 2 349.04 15.54 359.61 15.54C370.19 15.54 370.19 2 380.76 2C391.34 2 391.34 15.54 401.91 15.54C412.49 15.54 412.49 2 423.06 2C433.64 2 433.64 15.54 444.21 15.54C454.79 15.54 454.79 2 465.36 2C475.94 2 475.94 15.54 486.52 15.54C497.1 15.54 497.1 2 507.68 2" stroke="white" stroke-width="2.9781" stroke-miterlimit="10"/>
<path d="M169.23 2C179.81 2 179.81 15.54 190.38 15.54C200.96 15.54 200.96 2 211.53 2C222.11 2 222.11 15.54 232.68 15.54C243.26 15.54 243.26 2 253.83 2C264.41 2 264.41 15.54 274.98 15.54C285.56 15.54 285.56 2 296.13 2C306.71 2 306.71 15.54 317.29 15.54C327.87 15.54 327.87 2 338.45 2" stroke="white" stroke-width="2.9781" stroke-miterlimit="10"/>
</svg>
