<svg width="189" height="519" viewBox="0 0 189 519" fill="none" xmlns="http://www.w3.org/2000/svg">
<path d="M126.108 312.14L81.0584 319.841L50.4794 140.939L95.5292 133.239L126.108 312.14ZM141.667 403.167L96.6173 410.867L89.2023 367.486L134.252 359.786L141.667 403.167Z" fill="#CFA409"/>
<path d="M111.09 337.127L113.489 365.567C114.349 375.772 122.445 383.868 132.649 384.728L161.09 387.127L132.649 389.526C122.445 390.386 114.349 398.482 113.489 408.686L111.09 437.127L108.691 408.686C107.83 398.482 99.7348 390.386 89.5303 389.526L61.0898 387.127L89.5303 384.728C99.7348 383.868 107.83 375.772 108.691 365.567L111.09 337.127Z" fill="#FFE99B"/>
</svg>
