<svg width="40" height="42" viewBox="0 0 40 42" fill="none" xmlns="http://www.w3.org/2000/svg">
<path d="M13.3334 21.0171H26.6667V24.4685H13.3334V21.0171ZM16.6667 34.8224H10.0001V7.21182H21.6667V15.8401H30.0001V21.1897L33.3334 17.7384V14.1145L23.3334 3.7605H10.0001C9.11603 3.7605 8.26818 4.12412 7.64306 4.77137C7.01794 5.41862 6.66675 6.29648 6.66675 7.21182V34.8224C6.66675 35.7378 7.01794 36.6156 7.64306 37.2629C8.26818 37.9101 9.11603 38.2738 10.0001 38.2738H16.6667V34.8224ZM13.3334 31.3711H20.1667L21.6667 29.818V27.9198H13.3334V31.3711ZM33.6667 22.7428C33.8334 22.7428 34.1667 22.9154 34.3334 23.0879L36.5001 25.3313C36.8334 25.6764 36.8334 26.3667 36.5001 26.7118L34.8334 28.4375L31.3334 24.8136L33.0001 23.0879C33.1667 22.9154 33.3334 22.7428 33.6667 22.7428ZM33.6667 29.4729L23.5001 39.9994H20.0001V36.3755L30.1667 25.849L33.6667 29.4729Z" fill="white"/>
</svg>
