<svg width="57" height="57" viewBox="0 0 57 57" fill="none" xmlns="http://www.w3.org/2000/svg">
<circle cx="28.5" cy="28.5" r="28.5" fill="#E0BB61"/>
<path d="M25.2475 18.6333H23.7596C22.277 18.6333 20.8834 19.2106 19.8356 20.259L12.647 27.4473C12.5313 27.563 12.4663 27.7198 12.4663 27.8833C12.4663 28.0468 12.5313 28.2037 12.647 28.3193L15.7303 31.4027C15.9712 31.6436 16.3614 31.6436 16.6023 31.4027L22.333 25.672V32.0958L17.434 46.1807C17.3683 46.3692 17.3978 46.5778 17.5135 46.7407C17.6297 46.9033 17.817 47 18.0163 47H23.5663C23.8289 47 24.0625 46.8338 24.1486 46.586L28.534 33.9792L33.4751 46.608C33.5679 46.8443 33.7955 47 34.0496 47H39.5996C39.8032 47 39.9941 46.8994 40.1091 46.7311C40.2241 46.5625 40.2482 46.3484 40.1741 46.1587L34.6663 32.0838V25.672L40.397 31.4027C40.6378 31.6436 41.0281 31.6436 41.269 31.4027L44.3523 28.3193C44.4679 28.2037 44.533 28.0468 44.533 27.8833C44.533 27.7198 44.4679 27.563 44.3523 27.4473L37.1637 20.259C36.1158 19.2106 34.7223 18.6333 33.2397 18.6333H31.7518C32.7798 17.7285 33.433 16.4072 33.433 14.9333C33.433 12.2131 31.2198 10 28.4996 10C25.7794 10 23.5663 12.2131 23.5663 14.9333C23.5663 16.4072 24.2194 17.7285 25.2475 18.6333ZM33.2397 19.8667C34.3929 19.8667 35.4763 20.3156 36.2917 21.131L43.0443 27.8833L40.833 30.0947L34.4856 23.7473C34.3092 23.5709 34.0442 23.5188 33.8136 23.6136C33.5829 23.7091 33.433 23.934 33.433 24.1833V32.2C33.433 32.2768 33.4474 32.353 33.4751 32.4246L38.6963 45.7667H34.4706L29.0742 31.9754C28.9814 31.7387 28.7532 31.5833 28.4996 31.5833C28.496 31.5833 28.4918 31.5833 28.4876 31.5833C28.2298 31.5885 28.0022 31.7535 27.9173 31.9974L23.1279 45.7667H18.8835L23.532 32.4026C23.5549 32.3373 23.5663 32.269 23.5663 32.2V24.1833C23.5663 23.934 23.4164 23.7091 23.1857 23.6136C22.9551 23.5185 22.6901 23.5709 22.5136 23.7473L16.1663 30.0947L13.955 27.8833L20.7076 21.131C21.523 20.3156 22.6064 19.8667 23.7596 19.8667H33.2397ZM28.4996 11.2333C30.5399 11.2333 32.1996 12.893 32.1996 14.9333C32.1996 16.9736 30.5399 18.6333 28.4996 18.6333C26.4593 18.6333 24.7996 16.9736 24.7996 14.9333C24.7996 12.893 26.4593 11.2333 28.4996 11.2333Z" fill="white"/>
<path d="M28.0752 28.948C28.1945 29.0609 28.3468 29.1172 28.4998 29.1172C28.6528 29.1172 28.8051 29.0609 28.9244 28.948L31.5687 26.4383C31.9758 26.0526 32.1998 25.5371 32.1998 24.9869C32.1998 24.4368 31.9758 23.9213 31.5693 23.5356C30.7521 22.7612 29.4218 22.76 28.6046 23.5356C28.604 23.5356 28.604 23.5356 28.604 23.5359L28.4998 23.6347L28.395 23.5356C27.579 22.7606 26.2481 22.76 25.4309 23.5356C25.0238 23.9213 24.7998 24.4368 24.7998 24.9869C24.7998 25.5371 25.0238 26.0526 25.4303 26.4383L28.0752 28.948ZM26.2794 24.4305C26.4541 24.2646 26.6835 24.1818 26.913 24.1818C27.1424 24.1818 27.3719 24.2646 27.5465 24.4302L28.0752 24.9321C28.3137 25.158 28.6859 25.158 28.9244 24.9321L29.4531 24.4302C29.8024 24.099 30.3703 24.0993 30.7208 24.4305C30.8792 24.581 30.9665 24.7786 30.9665 24.9869C30.9665 25.1953 30.8792 25.3928 30.7202 25.5434L28.4998 27.6505L26.2788 25.5434C26.1205 25.3928 26.0331 25.1953 26.0331 24.9869C26.0331 24.7786 26.1205 24.581 26.2794 24.4305Z" fill="white"/>
<path d="M41.2832 15.9985C40.9815 15.6902 40.6672 15.3915 40.3498 15.1108L39.5332 16.0352C39.8283 16.296 40.121 16.5742 40.4028 16.8615L41.2832 15.9985Z" fill="white"/>
<path d="M41.9519 18.6919L42.9479 17.9639C42.6944 17.6176 42.4264 17.2773 42.1506 16.9521L41.21 17.7495C41.4665 18.0524 41.7164 18.3695 41.9519 18.6919Z" fill="white"/>
<path d="M37.2044 12.8796C36.8298 12.6704 36.4438 12.4728 36.0572 12.2925L35.5356 13.4102C35.8952 13.5779 36.2547 13.7616 36.6034 13.9564L37.2044 12.8796Z" fill="white"/>
<path d="M43.2242 20.7227L44.3142 20.1452C44.1131 19.7661 43.8969 19.3906 43.6704 19.0293L42.625 19.6839C42.8358 20.0202 43.0375 20.3698 43.2242 20.7227Z" fill="white"/>
<path d="M45.126 27.6042L46.3581 27.5386C46.3347 27.1086 46.2967 26.6771 46.2437 26.2559L45.02 26.4094C45.0694 26.8015 45.1049 27.2034 45.126 27.6042Z" fill="white"/>
<path d="M44.1898 22.917L45.3521 22.5027C45.2082 22.0998 45.048 21.6969 44.8751 21.3052L43.7466 21.8032C43.9074 22.1672 44.0567 22.5421 44.1898 22.917Z" fill="white"/>
<path d="M44.6028 36.2844L43.4935 35.7466C43.3207 36.1025 43.1316 36.459 42.9316 36.8062L44 37.4222C44.215 37.0495 44.4179 36.6668 44.6028 36.2844Z" fill="white"/>
<path d="M45.5539 33.8931L44.3784 33.5215C44.2573 33.9033 44.1224 34.283 43.9761 34.6494L45.1215 35.1065C45.2787 34.7118 45.4244 34.3035 45.5539 33.8931Z" fill="white"/>
<path d="M43.3164 38.5126L42.295 37.8213C42.0734 38.1489 41.8355 38.4744 41.5874 38.789L42.5558 39.5527C42.8225 39.2145 43.0785 38.8646 43.3164 38.5126Z" fill="white"/>
<path d="M39.9727 40.5617L40.823 41.4553C41.1319 41.1615 41.4348 40.8519 41.7239 40.5352L40.8121 39.7041C40.5436 39.9992 40.2611 40.2876 39.9727 40.5617Z" fill="white"/>
<path d="M44.8288 25.2255L46.038 24.9846C45.9543 24.5624 45.8537 24.1406 45.7405 23.7305L44.5518 24.0599C44.6571 24.4408 44.7505 24.8328 44.8288 25.2255Z" fill="white"/>
<path d="M46.1507 31.389L44.933 31.1909C44.8692 31.5839 44.7903 31.9792 44.6987 32.3661L45.8983 32.651C45.9971 32.2355 46.082 31.8109 46.1507 31.389Z" fill="white"/>
<path d="M46.3807 28.8253L45.1473 28.8042C45.1407 29.2023 45.119 29.6048 45.0835 30.0008L46.312 30.111C46.3499 29.6855 46.3734 29.2532 46.3807 28.8253Z" fill="white"/>
<path d="M39.3561 14.2934C39.0188 14.035 38.6653 13.7842 38.3058 13.5479L37.6289 14.5788C37.9637 14.7986 38.2925 15.0323 38.6069 15.2726L39.3561 14.2934Z" fill="white"/>
<path d="M11.9151 29.9806C11.8802 29.5868 11.8591 29.1836 11.8525 28.7822L10.6191 28.8033C10.627 29.2339 10.6493 29.6663 10.6866 30.089L11.9151 29.9806Z" fill="white"/>
<path d="M11.9829 26.3883L10.7592 26.2329C10.7062 26.6539 10.667 27.0853 10.6436 27.5153L11.8745 27.5828C11.8968 27.182 11.9329 26.78 11.9829 26.3883Z" fill="white"/>
<path d="M12.4549 24.0389L11.2661 23.7095C11.1529 24.1184 11.0523 24.5396 10.9668 24.9618L12.176 25.2057C12.2555 24.8121 12.3489 24.4198 12.4549 24.0389Z" fill="white"/>
<path d="M21.4836 13.4025L20.9632 12.2842C20.5742 12.4648 20.1882 12.6618 19.8154 12.8695L20.4152 13.9469C20.7621 13.7539 21.1216 13.5708 21.4836 13.4025Z" fill="white"/>
<path d="M14.3866 19.6655L13.3411 19.0103C13.1141 19.3731 12.8967 19.748 12.6968 20.125L13.7856 20.7037C13.9723 20.3529 14.1746 20.0036 14.3866 19.6655Z" fill="white"/>
<path d="M13.2618 21.7829L12.1332 21.2852C11.9586 21.6817 11.7978 22.0843 11.6562 22.4818L12.8173 22.8961C12.9492 22.5269 13.0986 22.1523 13.2618 21.7829Z" fill="white"/>
<path d="M17.4826 16.0206L16.666 15.0962C16.3432 15.3813 16.0294 15.6794 15.7319 15.9826L16.6124 16.8462C16.8894 16.5641 17.1821 16.2862 17.4826 16.0206Z" fill="white"/>
<path d="M17.0178 40.5543C16.7252 40.2748 16.4433 39.9861 16.1796 39.6958L15.2666 40.5251C15.5502 40.837 15.8526 41.1468 16.1663 41.4461L17.0178 40.5543Z" fill="white"/>
<path d="M15.8034 17.7327L14.864 16.9336C14.5863 17.2597 14.3178 17.5999 14.0654 17.9447L15.0603 18.6734C15.2951 18.3527 15.5451 18.0362 15.8034 17.7327Z" fill="white"/>
<path d="M13.0179 34.6352C12.8709 34.2646 12.7354 33.8843 12.6162 33.5049L11.4395 33.8758C11.5683 34.2832 11.7135 34.6918 11.8712 35.0899L13.0179 34.6352Z" fill="white"/>
<path d="M19.3893 14.5678L18.7136 13.5356C18.3583 13.7681 18.0048 14.0186 17.6621 14.2794L18.4101 15.2604C18.7286 15.0171 19.058 14.784 19.3893 14.5678Z" fill="white"/>
<path d="M10.8457 31.3681C10.9132 31.7887 10.9981 32.2142 11.0974 32.6327L12.297 32.3485C12.2049 31.9589 12.126 31.5632 12.0634 31.1724L10.8457 31.3681Z" fill="white"/>
<path d="M14.0613 36.7927C13.8638 36.4495 13.6753 36.0927 13.5006 35.7319L12.3901 36.2697C12.578 36.6566 12.7804 37.0396 12.993 37.4082L14.0613 36.7927Z" fill="white"/>
<path d="M15.4036 38.7781C15.1591 38.4677 14.9213 38.1422 14.6966 37.8101L13.6753 38.5008C13.9162 38.8576 14.1721 39.2078 14.4353 39.5417L15.4036 38.7781Z" fill="white"/>
<path d="M29.1427 46.3712C29.5721 46.3556 30.0045 46.3242 30.4284 46.2779L30.2935 45.0518C29.8997 45.0951 29.4974 45.124 29.0981 45.1385L29.1427 46.3712Z" fill="white"/>
<path d="M27.8534 46.3715L27.8991 45.1388C27.5023 45.1243 27.0994 45.0951 26.7025 45.0518L26.5688 46.2779C26.9952 46.3242 27.4276 46.3558 27.8534 46.3715Z" fill="white"/>
</svg>
