<svg width="57" height="57" viewBox="0 0 57 57" fill="none" xmlns="http://www.w3.org/2000/svg">
<circle cx="28.5" cy="28.5" r="28.5" fill="#C70136"/>
<path d="M46.9886 26.3519V26.3516C46.9282 25.7752 46.6295 25.2439 46.1694 24.8919L44.0635 23.2524L44.855 20.6407C45.0238 20.0834 44.9538 19.4745 44.6628 18.9698C44.3715 18.4654 43.8792 18.1004 43.312 17.9677L40.6628 17.3492L40.3246 14.6499C40.252 14.0718 39.9404 13.5439 39.4695 13.2024C38.9981 12.8594 38.3994 12.7259 37.8277 12.836L35.1559 13.3483L33.7487 11.0197C33.1886 10.093 32.0126 9.74292 31.0139 10.2047C30.9436 10.2372 30.8758 10.2762 30.8168 10.3179L28.4978 11.9332L26.2652 10.3781C25.7873 10.0455 25.1869 9.92443 24.6172 10.0453C24.0475 10.1661 23.5479 10.5218 23.2467 11.0203L21.84 13.3486L19.1679 12.836C18.5957 12.7264 17.9975 12.86 17.527 13.2021C17.0555 13.5445 16.7439 14.0724 16.6716 14.6499L16.3334 17.3495L13.5314 18.0035L13.3999 18.0464L13.3513 18.0676C12.3334 18.5128 11.8242 19.5951 12.1409 20.6407L12.9322 23.2524L10.7359 24.9608L10.6086 25.0715L10.5728 25.1107C9.83573 25.9158 9.80693 27.1336 10.5042 27.9477L12.2236 30.0039L10.8299 32.5329L10.7743 32.6594L10.7582 32.7065C10.4107 33.7451 10.8841 34.8737 11.8592 35.3312L14.3219 36.4869L14.0912 39.1975C14.0418 39.7781 14.2372 40.3594 14.6267 40.7918C15.0163 41.2246 15.5738 41.4795 16.1565 41.4913L18.8763 41.5455L19.7683 44.1152C19.9592 44.6657 20.3738 45.1173 20.9057 45.3539C21.4375 45.5907 22.0504 45.597 22.5878 45.3708L25.0948 44.3142L27.0627 46.4142L27.1657 46.5059L27.2055 46.5356C27.5942 46.8227 28.0484 46.9632 28.4984 46.9632C29.0678 46.9632 29.6301 46.738 30.0414 46.299L31.9017 44.3142L34.4089 45.3711C34.9453 45.597 35.5579 45.5907 36.0897 45.3542C36.6221 45.1173 37.0368 44.6657 37.2276 44.1155L38.1199 41.5455L40.997 41.4882L41.1336 41.4733L41.1827 41.4634C42.2554 41.2446 42.9959 40.2705 42.9047 39.1978L42.6744 36.4869L45.1373 35.3312C45.6644 35.084 46.07 34.6244 46.2501 34.0703C46.4299 33.5164 46.3721 32.9061 46.0909 32.396L44.7726 30.0039L46.4923 27.9477C46.868 27.5087 47.049 26.9278 46.9886 26.3519ZM42.7218 29.074C42.3811 29.4763 42.3229 30.0547 42.5778 30.5168L44.1623 33.3922L41.1901 34.787C40.7082 35.0134 40.4149 35.5218 40.4598 36.0522L40.7379 39.3234L37.4554 39.3889C36.9233 39.3996 36.4482 39.7445 36.2737 40.2476L35.1971 43.3491L32.1721 42.074C31.6815 41.8674 31.1073 41.989 30.7429 42.3777L28.4978 44.7732L26.2528 42.3775C26.0069 42.1149 25.6651 41.9743 25.3178 41.9743C25.151 41.9743 24.983 42.0068 24.8241 42.074L21.7986 43.3491L20.7222 40.2484C20.548 39.7451 20.0729 39.3996 19.5402 39.3889L16.2575 39.3234L16.5356 36.0522C16.5807 35.5218 16.2871 35.0134 15.8053 34.787L12.8334 33.3922L14.4178 30.5171C14.673 30.0544 14.6146 29.4763 14.2736 29.0738L12.188 26.5797L14.7433 24.5919C15.1617 24.2692 15.3395 23.7148 15.1859 23.2095L14.2341 20.0676L17.4315 19.3207C17.9495 19.1996 18.3422 18.7637 18.4088 18.2353L18.817 14.9777L22.0419 15.5962C22.5647 15.6961 23.1005 15.4573 23.376 15.002L25.0737 12.1921L27.7675 14.0681C28.2045 14.3725 28.7917 14.3727 29.2284 14.0681L31.9223 12.1918L33.6202 15.0011C33.8952 15.457 34.4321 15.6961 34.9549 15.5959L38.1792 14.9774L38.5874 18.2347C38.6534 18.7629 39.0461 19.1993 39.5649 19.3207L42.7621 20.0673L41.81 23.2092C41.6567 23.7156 41.8348 24.2698 42.2532 24.5921L44.8073 26.5809L42.7218 29.074Z" fill="white"/>
<path d="M28.6125 19.2695C23.5322 19.2695 19.3989 23.4025 19.3989 28.4831C19.3989 33.5635 23.5322 37.6968 28.6125 37.6968C33.6932 37.6968 37.8264 33.5635 37.8264 28.4831C37.8264 23.4025 33.6929 19.2695 28.6125 19.2695ZM28.6125 35.5271C24.7285 35.5271 21.5683 32.3672 21.5683 28.4831C21.5683 24.5989 24.7285 21.4389 28.6125 21.4389C32.4968 21.4389 35.6568 24.5989 35.6568 28.4831C35.6568 32.3672 32.4968 35.5271 28.6125 35.5271Z" fill="white"/>
<path d="M31.2616 25.6222L26.9818 29.9017L25.8205 28.7401C25.3968 28.3167 24.71 28.3167 24.2865 28.7401C23.8628 29.1638 23.8628 29.8506 24.2865 30.2743L26.2148 32.2027C26.4266 32.4147 26.7043 32.5205 26.9818 32.5205C27.2593 32.5205 27.5371 32.4147 27.7488 32.2027L32.7956 27.1562C33.219 26.7325 33.219 26.0457 32.7956 25.6222C32.3718 25.1985 31.685 25.1985 31.2616 25.6222Z" fill="white"/>
</svg>
