<svg width="57" height="57" viewBox="0 0 57 57" fill="none" xmlns="http://www.w3.org/2000/svg">
<circle cx="28.5" cy="28.5" r="28.5" fill="#E09E61"/>
<path d="M35.2064 26.2641C35.1511 26.1661 35.0702 26.0852 34.9722 26.0299L25.1055 20.4799C24.8096 20.3113 24.433 20.4145 24.2645 20.7104C24.2113 20.8039 24.1834 20.9095 24.1836 21.017V32.117C24.1843 32.3366 24.3017 32.5393 24.4919 32.6492C24.6811 32.7597 24.9147 32.7616 25.1055 32.6541L34.9722 27.1041C35.2688 26.9368 35.3736 26.5607 35.2064 26.2641ZM25.4169 31.0625V22.0715L33.4089 26.567L25.4169 31.0625Z" fill="white"/>
<path d="M22.3335 38.9001V37.6667H21.1001V38.9001H12.4668V40.1334H21.1001V41.3667H22.3335V40.1334H44.5335V38.9001H22.3335Z" fill="white"/>
<path d="M28.5 16.7004C23.0508 16.7004 18.6333 21.1179 18.6333 26.5671C18.6398 32.0137 23.0534 36.4273 28.5 36.4338C33.9491 36.4338 38.3666 32.0163 38.3666 26.5671C38.3666 21.1179 33.9491 16.7004 28.5 16.7004ZM28.5 35.2004C23.7319 35.2004 19.8666 31.3352 19.8666 26.5671C19.8717 21.8012 23.7341 17.9389 28.5 17.9338C33.268 17.9338 37.1333 21.799 37.1333 26.5671C37.1333 31.3352 33.268 35.2004 28.5 35.2004Z" fill="white"/>
<path d="M45.15 13.0002H11.85C10.8283 13.0002 10 13.8285 10 14.8502V41.9836C10 43.0053 10.8283 43.8336 11.85 43.8336H45.15C46.1717 43.8336 47 43.0053 47 41.9836V14.8502C47 13.8285 46.1717 13.0002 45.15 13.0002ZM45.7667 41.9836C45.7667 42.3241 45.4906 42.6002 45.15 42.6002H11.85C11.5094 42.6002 11.2333 42.3241 11.2333 41.9836V14.8502C11.2333 14.5097 11.5094 14.2336 11.85 14.2336H45.15C45.4906 14.2336 45.7667 14.5097 45.7667 14.8502V41.9836Z" fill="white"/>
<path d="M13.7001 15.4666H12.4668V16.6999H13.7001V15.4666Z" fill="white"/>
<path d="M16.1669 15.4666H14.9336V16.6999H16.1669V15.4666Z" fill="white"/>
<path d="M18.6332 15.4666H17.3999V16.6999H18.6332V15.4666Z" fill="white"/>
</svg>
