<svg width="57" height="57" viewBox="0 0 57 57" fill="none" xmlns="http://www.w3.org/2000/svg">
<circle cx="28.5" cy="28.5" r="28.5" fill="#C70136"/>
<path d="M35.7304 35.2596L40.0471 36.493C40.1854 36.5324 40.3331 36.5223 40.4648 36.4644C40.5964 36.4064 40.7037 36.3044 40.7681 36.1758L41.3847 34.9424C41.4426 34.8267 41.4626 34.6956 41.4419 34.5679C41.4212 34.4401 41.3607 34.3221 41.2692 34.2306L38.8921 31.8535L35.978 24.5684C35.6412 23.7264 34.9954 23.0449 34.1728 22.6634C33.3501 22.2818 32.4127 22.229 31.5524 22.5158L27.2665 23.9444V23.5667C27.7387 23.5679 28.2064 23.4756 28.6427 23.2949C29.0789 23.1142 29.475 22.8488 29.808 22.514L32.4191 19.9028C32.5964 19.7255 32.7346 19.5131 32.8248 19.2792C32.915 19.0454 32.9552 18.7952 32.9428 18.5448C32.9304 18.2944 32.8658 18.0494 32.753 17.8255C32.6402 17.6017 32.4818 17.4039 32.2879 17.245C32.094 17.086 31.8691 16.9695 31.6274 16.9028C31.3858 16.8361 31.1328 16.8207 30.8849 16.8577C30.637 16.8947 30.3995 16.9832 30.1878 17.1175C29.9762 17.2518 29.795 17.4289 29.6559 17.6375L29.3109 18.155L27.4366 19.0921L25.8823 17.1492C26.2971 16.9463 26.6468 16.6311 26.8915 16.2394C27.1362 15.8477 27.2661 15.3952 27.2665 14.9333V13.0833C27.2668 12.6484 27.152 12.2212 26.9338 11.8449C26.7156 11.4687 26.4018 11.1569 26.0241 10.9412C25.6464 10.7255 25.2184 10.6136 24.7835 10.6167C24.3486 10.6199 23.9223 10.7381 23.5478 10.9593L23.1523 10.5638C22.8832 10.2946 22.5402 10.1113 22.1668 10.037C21.7934 9.96272 21.4064 10.0008 21.0547 10.1465C20.703 10.2922 20.4024 10.5389 20.1909 10.8555C19.9794 11.172 19.8665 11.5441 19.8665 11.9248V13.9433C19.8671 14.5258 19.7236 15.0994 19.4487 15.6131C19.1739 16.1267 18.7762 16.5643 18.2911 16.8869C18.1637 16.9724 18.0729 17.1024 18.0365 17.2515C17.349 17.6717 16.8443 18.3347 16.6225 19.1093L15.743 22.1876C15.6149 22.636 15.5499 23.1 15.5498 23.5663V23.5926C15.5491 23.8327 15.5962 24.0704 15.6883 24.2921C15.7804 24.5137 15.9158 24.7148 16.0864 24.8836C16.2569 25.0535 16.4593 25.1881 16.6819 25.2796C16.9046 25.3711 17.1431 25.4176 17.3838 25.4167H17.4368C17.675 25.4167 17.9108 25.3697 18.1308 25.2786C18.3508 25.1875 18.5507 25.0539 18.7191 24.8855C18.8874 24.7171 19.021 24.5171 19.1121 24.2971C19.2032 24.0771 19.25 23.8413 19.25 23.6031L19.2499 23.0687L20.2391 20.5955L21.7165 20.9648V42.5377L21.165 43.6409C21.1071 43.7566 21.0871 43.8877 21.1078 44.0154C21.1285 44.1432 21.189 44.2612 21.2805 44.3527L23.7471 46.8194C23.8044 46.8766 23.8724 46.9221 23.9472 46.9531C24.022 46.9841 24.1022 47 24.1832 47H25.4165C25.5061 47 25.5946 46.9805 25.6758 46.9428C25.7571 46.9052 25.8291 46.8503 25.887 46.7819C25.9449 46.7136 25.9872 46.6335 26.011 46.5471C26.0348 46.4608 26.0395 46.3703 26.0248 46.282L25.4235 42.6741L27.2123 29.5558L32.4988 27.4413L35.2832 33.5669V34.6667C35.2832 34.8007 35.3268 34.931 35.4075 35.038C35.4882 35.145 35.6016 35.2228 35.7304 35.2596ZM40.0829 34.7884L39.8938 35.1665L36.5165 34.2015V33.8144L38.2448 32.9503L40.0829 34.7884ZM26.0332 24.2652L22.9499 24.7056V20.7388L24.725 22.514C25.0947 22.8849 25.5413 23.1703 26.0332 23.35V24.2652ZM27.5423 20.4182L30.009 19.1849C30.105 19.1369 30.1868 19.0647 30.2463 18.9754L30.6821 18.3216C30.7256 18.2563 30.7824 18.2009 30.8486 18.1588C30.9149 18.1168 30.9892 18.0891 31.0668 18.0775C31.1444 18.0659 31.2236 18.0708 31.2992 18.0916C31.3749 18.1125 31.4453 18.149 31.506 18.1987C31.5666 18.2485 31.6162 18.3104 31.6515 18.3805C31.6868 18.4505 31.7071 18.5272 31.711 18.6056C31.7148 18.684 31.7022 18.7623 31.674 18.8355C31.6458 18.9087 31.6025 18.9752 31.547 19.0307L28.9359 21.6418C28.4931 22.0846 27.8926 22.3333 27.2665 22.3333C26.6404 22.3333 26.0399 22.0846 25.5971 21.6419L23.3354 19.3802C23.2128 19.2582 23.1156 19.1131 23.0494 18.9533C22.9832 18.7936 22.9494 18.6222 22.9498 18.4493C22.9498 18.2319 23.0174 18.0198 23.1431 17.8424C23.2689 17.665 23.4466 17.5311 23.6518 17.4591C23.857 17.3872 24.0794 17.3807 24.2884 17.4407C24.4974 17.5006 24.6827 17.624 24.8185 17.7938L26.785 20.2519C26.8731 20.3621 26.9964 20.4387 27.1342 20.469C27.272 20.4992 27.4161 20.4813 27.5423 20.4182ZM26.0332 14.9333C26.0332 15.2604 25.9032 15.5741 25.6719 15.8054C25.4407 16.0367 25.127 16.1667 24.7998 16.1667C24.4727 16.1667 24.159 16.0367 23.9278 15.8054C23.6965 15.5741 23.5665 15.2604 23.5665 14.9333V14.9333H23.5666C23.7301 14.9332 23.8869 14.8683 24.0026 14.7527L25.0553 13.7H26.0332L26.0332 14.9333ZM25.8663 12.4667H24.7998C24.6363 12.4667 24.4795 12.5316 24.3638 12.6473L23.5665 13.4445V13.0833C23.5663 12.8119 23.6557 12.548 23.8208 12.3326C23.9859 12.1172 24.2175 11.9623 24.4797 11.892C24.7418 11.8218 25.0198 11.84 25.2706 11.9439C25.5213 12.0478 25.7307 12.2316 25.8663 12.4667ZM21.0999 13.9433V11.9248C21.0998 11.7881 21.1404 11.6544 21.2164 11.5406C21.2923 11.4269 21.4003 11.3383 21.5267 11.286C21.6531 11.2336 21.7921 11.2199 21.9262 11.2466C22.0604 11.2733 22.1836 11.3392 22.2803 11.4359L22.6758 11.8314C22.4511 12.2103 22.3328 12.6428 22.3332 13.0833V14.9333C22.3326 15.4238 22.1375 15.8941 21.7907 16.2409C21.4439 16.5877 20.9737 16.7828 20.4832 16.7833H20.1638C20.7727 15.9617 21.1009 14.9659 21.0999 13.9433ZM20.0161 19.2684C19.8714 19.2322 19.7185 19.2496 19.5857 19.3175C19.4529 19.3854 19.3493 19.4991 19.2939 19.6376L18.0606 22.721C18.0315 22.7938 18.0165 22.8716 18.0165 22.9501L18.0166 23.6034C18.0166 23.6795 18.0017 23.755 17.9725 23.8253C17.9434 23.8957 17.9007 23.9596 17.8469 24.0135C17.793 24.0673 17.7291 24.11 17.6588 24.1392C17.5884 24.1683 17.513 24.1833 17.4368 24.1833H17.3838C17.3045 24.1839 17.2259 24.1688 17.1526 24.1389C17.0792 24.109 17.0124 24.0649 16.9561 24.0091C16.9011 23.9546 16.8574 23.8898 16.8277 23.8183C16.7981 23.7468 16.7829 23.6701 16.7831 23.5927V23.5663C16.7832 23.2146 16.8322 22.8646 16.9289 22.5265L17.8083 19.4482C17.9262 19.0358 18.1751 18.673 18.5176 18.4147C18.86 18.1564 19.2772 18.0167 19.7061 18.0167H21.7582C21.7306 18.1592 21.7166 18.3041 21.7165 18.4493V19.6935L20.0161 19.2684ZM24.4386 45.7667L22.4668 43.7949L22.7143 43.3H24.2775L24.6886 45.7667H24.4386ZM24.2616 42.0667H22.9499V31.5833H25.6911L24.2616 42.0667ZM26.4208 28.5441C26.3196 28.5846 26.2309 28.6512 26.1638 28.7372C26.0967 28.8231 26.0536 28.9253 26.0388 29.0333L25.8593 30.35H22.9499V25.9515L26.7371 25.4105L26.7369 25.4094C26.7735 25.4045 26.8097 25.3964 26.8449 25.385L28.1432 24.9522L29.1442 27.4547L26.4208 28.5441ZM33.3779 26.3948C33.3123 26.2504 33.1935 26.1368 33.0463 26.0777C32.8991 26.0186 32.7348 26.0185 32.5875 26.0774L30.2894 26.9967L29.3153 24.5615L31.9424 23.6858C32.5043 23.4985 33.1165 23.533 33.6538 23.7822C34.1912 24.0314 34.6129 24.4765 34.8329 25.0265L37.5832 31.9022L36.1964 32.5956L33.3779 26.3948Z" fill="white"/>
</svg>
