<svg width="57" height="57" viewBox="0 0 57 57" fill="none" xmlns="http://www.w3.org/2000/svg">
<circle cx="28.5" cy="28.5" r="28.5" fill="#E09E61"/>
<path d="M46.7863 36.021L45.0224 34.2714C44.7389 33.9902 44.2813 33.9922 44.0002 34.2756C43.719 34.559 43.7209 35.0167 44.0044 35.2978L45.7682 37.0474C45.9091 37.1872 46.0932 37.257 46.2772 37.257C46.4631 37.257 46.6491 37.1857 46.7903 37.0432C47.0716 36.7597 47.0697 36.3021 46.7863 36.021Z" fill="white"/>
<path d="M43.225 32.4815C42.9428 32.1992 42.4853 32.1992 42.2028 32.4815L42.2016 32.4827C41.9193 32.765 41.92 33.2221 42.2023 33.5043C42.3432 33.6453 42.5281 33.7158 42.713 33.7158C42.8983 33.7158 43.0837 33.645 43.225 33.5037C43.5072 33.2215 43.5072 32.7638 43.225 32.4815Z" fill="white"/>
<path d="M37.063 35.8143L44.0748 28.8026C45.1368 27.7406 45.1368 26.0125 44.0748 24.9505C43.7003 24.576 43.2429 24.3342 42.7612 24.2239C42.9264 23.8688 43.0138 23.479 43.0138 23.0757C43.0138 22.3482 42.7305 21.6642 42.2161 21.1498C41.8126 20.7462 41.3047 20.4857 40.7534 20.3918C41.0637 19.4461 40.8443 18.3631 40.0937 17.6125C39.681 17.1999 39.1677 16.9484 38.632 16.8565C38.7218 16.5841 38.7691 16.2965 38.7691 16.0014C38.7691 15.2738 38.4857 14.5898 37.9713 14.0754C37.4569 13.561 36.7729 13.2777 36.0454 13.2777C35.5834 13.2777 35.1392 13.3923 34.7445 13.6075L34.6748 13.5325C33.7684 12.5585 32.4855 12 31.1552 12H25.4794C25.0803 12 24.7566 12.3237 24.7566 12.7228V13.6706C24.7566 14.05 24.8208 14.4192 24.9435 14.7665C24.6166 14.6307 24.2628 14.5594 23.8982 14.5594C23.1706 14.5594 22.4866 14.8427 21.9722 15.3571C21.2212 16.1081 21.002 17.1919 21.3131 18.1379C20.7769 18.2296 20.2629 18.4812 19.8499 18.8942C19.3355 19.4087 19.0521 20.0927 19.0521 20.8202C19.0521 21.1147 19.0993 21.4019 19.1887 21.6737C18.638 21.7679 18.1306 22.0283 17.7275 22.4315C16.8981 23.2609 16.7165 24.4966 17.1827 25.5039C16.689 25.6167 16.2356 25.8653 15.8687 26.2322C14.8067 27.2942 14.8067 29.0222 15.8687 30.0842L17.3107 31.5261L10.2117 38.6249C9.92943 38.9072 9.92943 39.3649 10.2117 39.6472C10.3528 39.7883 10.5378 39.8589 10.7228 39.8589C10.9077 39.8589 11.0927 39.7883 11.2338 39.6472L18.4013 32.4797C18.8071 32.7113 19.2675 32.8351 19.7475 32.8351C20.475 32.8351 21.1589 32.5518 21.6734 32.0373C22.2323 31.4785 22.4967 30.7351 22.4672 30.0015C22.5039 30.003 22.5405 30.0041 22.5772 30.0041C23.2745 30.004 23.9722 29.7385 24.5031 29.2076C25.0175 28.6932 25.3009 28.0092 25.3009 27.2817C25.3009 27.2449 25.2996 27.2083 25.2982 27.1718C25.3344 27.1732 25.3706 27.1744 25.4069 27.1744C26.1043 27.1744 26.8019 26.9088 27.3328 26.3779C27.8472 25.8635 28.1306 25.1795 28.1306 24.452C28.1306 24.4152 28.1293 24.3786 28.1279 24.342C28.1641 24.3435 28.2003 24.3446 28.2366 24.3446C28.9341 24.3446 29.6316 24.0791 30.1625 23.5482C31.1604 22.5504 31.2204 20.9646 30.3432 19.8958L35.1412 15.0977C35.3826 14.8562 35.7035 14.7233 36.045 14.7233C36.3864 14.7233 36.7073 14.8562 36.9488 15.0977C37.1902 15.3392 37.3231 15.66 37.3231 16.0015C37.3231 16.3429 37.1902 16.6639 36.9487 16.9053L36.2413 17.6127L33.6746 20.1794C33.3923 20.4617 33.3923 20.9193 33.6746 21.2017C33.8157 21.3427 34.0007 21.4134 34.1856 21.4134C34.3706 21.4134 34.5556 21.3428 34.6967 21.2017L37.2634 18.6349C37.7617 18.1366 38.5726 18.1365 39.071 18.6349C39.5694 19.1333 39.5694 19.9441 39.071 20.4425L38.3635 21.15L36.5043 23.0092C36.222 23.2915 36.222 23.7492 36.5043 24.0315C36.6454 24.1726 36.8304 24.2433 37.0153 24.2433C37.2003 24.2433 37.3853 24.1727 37.5264 24.0315L39.3857 22.1723C39.6271 21.9308 39.948 21.7979 40.2894 21.7979C40.6309 21.7979 40.9518 21.9308 41.1932 22.1723C41.4347 22.4137 41.5676 22.7346 41.5676 23.076C41.5676 23.4174 41.4347 23.7384 41.1932 23.9798L40.2221 24.9508L39.3339 25.839C39.0516 26.1213 39.0516 26.579 39.3339 26.8613C39.475 27.0024 39.66 27.073 39.845 27.073C40.0299 27.073 40.2149 27.0024 40.356 26.8613L41.2449 25.9724C41.7433 25.4749 42.5537 25.475 43.0518 25.9731C43.5503 26.4714 43.5503 27.2823 43.0518 27.7807L36.04 34.7925C34.2794 36.5532 31.9393 37.5725 29.451 37.6629C29.2681 37.6695 29.0944 37.7453 28.9652 37.8751L22.4878 44.3764C22.2061 44.6592 22.2069 45.1168 22.4897 45.3986C22.6307 45.5391 22.8153 45.6094 22.9998 45.6094C23.1852 45.6094 23.3707 45.5385 23.5118 45.3967L28.2761 40.6149C29.4863 41.3913 30.9095 41.7604 32.3566 41.6647L36.0854 45.3936C36.2265 45.5346 36.4115 45.6053 36.5964 45.6053C36.7814 45.6053 36.9663 45.5347 37.1075 45.3936C37.3897 45.1113 37.3897 44.6536 37.1075 44.3713L33.143 40.4063C32.9929 40.2563 32.7843 40.1797 32.5728 40.197L32.3437 40.2158C31.2859 40.3025 30.2404 40.0708 29.3275 39.5592L29.792 39.0931C32.5393 38.9236 35.1114 37.766 37.063 35.8143ZM20.6513 31.0152C20.4098 31.2567 20.0888 31.3896 19.7475 31.3896C19.4061 31.3896 19.0851 31.2567 18.8438 31.0152L16.8907 29.0622C16.3924 28.5639 16.3924 27.753 16.8907 27.2546C17.1322 27.0131 17.4532 26.8802 17.7945 26.8802C18.1359 26.8802 18.4569 27.0131 18.6983 27.2546L20.6514 29.2075C21.1496 29.7059 21.1496 30.5168 20.6513 31.0152ZM23.4811 28.1854C22.9827 28.6837 22.1717 28.6837 21.6735 28.1854L19.7204 26.2323L18.7493 25.2612C18.251 24.7628 18.251 23.952 18.7493 23.4536C18.9908 23.2121 19.3118 23.0792 19.6531 23.0792C19.9945 23.0792 20.3155 23.2121 20.5568 23.4536L23.4809 26.3777C23.4809 26.3777 23.4809 26.3777 23.481 26.3777C23.7225 26.6192 23.8554 26.9401 23.8554 27.2815C23.8554 27.6229 23.7225 27.9439 23.4811 28.1854ZM26.3108 25.3556C25.8124 25.8538 25.0015 25.8539 24.5032 25.3556L20.8716 21.724C20.6302 21.4826 20.4973 21.1617 20.4973 20.8202C20.4973 20.4789 20.6302 20.1579 20.8717 19.9165C21.1209 19.6673 21.4482 19.5427 21.7754 19.5427C22.1025 19.5427 22.4295 19.6672 22.6786 19.9159L24.3338 21.5711L26.3107 23.548H26.3108C26.5521 23.7894 26.685 24.1103 26.685 24.4517C26.6852 24.7932 26.5523 25.1142 26.3108 25.3556ZM29.1406 22.5258C28.6423 23.0241 27.8314 23.0241 27.333 22.5258L23.7015 18.8942C23.7011 18.8939 23.7007 18.8935 23.7002 18.8931L22.994 18.1868C22.4956 17.6884 22.4956 16.8776 22.994 16.3792C23.2432 16.1299 23.5705 16.0053 23.8978 16.0053C24.2251 16.0053 24.5525 16.1299 24.8016 16.3792L29.1405 20.7181C29.382 20.9595 29.5149 21.2804 29.5149 21.6218C29.515 21.9633 29.3821 22.2844 29.1406 22.5258ZM29.3307 18.8639L27.3454 16.8787C27.5705 16.9267 27.802 16.9522 28.0376 16.9522C28.0428 16.9522 28.0482 16.9522 28.0535 16.9522L30.0371 16.9428C30.4362 16.941 30.7584 16.6158 30.7565 16.2166C30.7546 15.8186 30.4314 15.4972 30.0338 15.4972C30.0326 15.4972 30.0314 15.4972 30.0303 15.4972L28.0467 15.5065C28.0437 15.5065 28.0408 15.5065 28.0378 15.5065C27.549 15.5065 27.0894 15.3169 26.7428 14.9719C26.394 14.6248 26.202 14.1627 26.202 13.6706V13.4455H31.155C32.0854 13.4455 32.9826 13.8361 33.6165 14.5173L33.6459 14.5489L29.3307 18.8639Z" fill="white"/>
</svg>
