<svg width="57" height="57" viewBox="0 0 57 57" fill="none" xmlns="http://www.w3.org/2000/svg">
<circle cx="28.5" cy="28.5" r="28.5" fill="#EF6A8D"/>
<path d="M20.8128 23.3198H23.2855C23.7762 23.3198 24.1754 22.9207 24.1754 22.4301V19.9597C24.1754 19.4691 23.7762 19.0701 23.2855 19.0701H20.8128C20.322 19.0701 19.9229 19.4691 19.9229 19.9597V22.4301C19.9229 22.9207 20.3221 23.3198 20.8128 23.3198ZM21.0154 20.1624H23.0829V22.2276H21.0154V20.1624Z" fill="white"/>
<path d="M20.8128 28.9726H23.2855C23.7762 28.9726 24.1754 28.5735 24.1754 28.0829V25.6104C24.1754 25.1198 23.7762 24.7207 23.2855 24.7207H20.8128C20.322 24.7207 19.9229 25.1198 19.9229 25.6104V28.0828C19.9229 28.5734 20.3221 28.9726 20.8128 28.9726ZM21.0154 25.8129H23.0829V27.8802H21.0154V25.8129Z" fill="white"/>
<path d="M20.8128 34.6219H23.2855C23.7762 34.6219 24.1754 34.2228 24.1754 33.7321V31.2618C24.1754 30.7712 23.7762 30.3721 23.2855 30.3721H20.8128C20.322 30.3721 19.9229 30.7712 19.9229 31.2618V33.7321C19.9229 34.2228 20.3221 34.6219 20.8128 34.6219ZM21.0154 31.4644H23.0829V33.5297H21.0154V31.4644Z" fill="white"/>
<path d="M29.974 20.6559H33.3414C33.6431 20.6559 33.8877 20.4115 33.8877 20.1098C33.8877 19.8082 33.6431 19.5637 33.3414 19.5637H29.974C29.6723 19.5637 29.4277 19.8082 29.4277 20.1098C29.4277 20.4115 29.6723 20.6559 29.974 20.6559Z" fill="white"/>
<path d="M26.3705 20.6559H27.8061C28.1078 20.6559 28.3524 20.4115 28.3524 20.1098C28.3524 19.8082 28.1078 19.5637 27.8061 19.5637H26.3705C26.0688 19.5637 25.8242 19.8082 25.8242 20.1098C25.8242 20.4115 26.0688 20.6559 26.3705 20.6559Z" fill="white"/>
<path d="M26.3705 22.8239H33.3412C33.6429 22.8239 33.8875 22.5794 33.8875 22.2778C33.8875 21.9762 33.6429 21.7317 33.3412 21.7317H26.3705C26.0688 21.7317 25.8242 21.9762 25.8242 22.2778C25.8242 22.5794 26.0688 22.8239 26.3705 22.8239Z" fill="white"/>
<path d="M26.3705 26.3088H33.3412C33.6429 26.3088 33.8875 26.0643 33.8875 25.7627C33.8875 25.461 33.6429 25.2166 33.3412 25.2166H26.3705C26.0688 25.2166 25.8242 25.461 25.8242 25.7627C25.8242 26.0642 26.0688 26.3088 26.3705 26.3088Z" fill="white"/>
<path d="M26.3705 37.6105H28.5646C28.8662 37.6105 29.1109 37.3661 29.1109 37.0644C29.1109 36.7628 28.8662 36.5183 28.5646 36.5183H26.3705C26.0688 36.5183 25.8242 36.7628 25.8242 37.0644C25.8242 37.3661 26.0688 37.6105 26.3705 37.6105Z" fill="white"/>
<path d="M26.3705 39.7785H27.7248C28.0265 39.7785 28.2711 39.534 28.2711 39.2324C28.2711 38.9308 28.0265 38.6863 27.7248 38.6863H26.3705C26.0688 38.6863 25.8242 38.9308 25.8242 39.2324C25.8242 39.534 26.0688 39.7785 26.3705 39.7785Z" fill="white"/>
<path d="M26.3705 28.476H29.7379C30.0396 28.476 30.2842 28.2315 30.2842 27.9299C30.2842 27.6283 30.0396 27.3838 29.7379 27.3838H26.3705C26.0688 27.3838 25.8242 27.6283 25.8242 27.9299C25.8242 28.2315 26.0688 28.476 26.3705 28.476Z" fill="white"/>
<path d="M33.3408 27.3838H31.9051C31.6034 27.3838 31.3589 27.6283 31.3589 27.9299C31.3589 28.2315 31.6034 28.476 31.9051 28.476H33.3408C33.6425 28.476 33.887 28.2315 33.887 27.9299C33.887 27.6283 33.6425 27.3838 33.3408 27.3838Z" fill="white"/>
<path d="M26.3705 31.9584H33.3412C33.6429 31.9584 33.8875 31.714 33.8875 31.4123C33.8875 31.1107 33.6429 30.8662 33.3412 30.8662H26.3705C26.0688 30.8662 25.8242 31.1107 25.8242 31.4123C25.8242 31.714 26.0688 31.9584 26.3705 31.9584Z" fill="white"/>
<path d="M26.3705 34.1288H29.7379C30.0396 34.1288 30.2842 33.8844 30.2842 33.5827C30.2842 33.2811 30.0396 33.0366 29.7379 33.0366H26.3705C26.0688 33.0366 25.8242 33.2811 25.8242 33.5827C25.8242 33.8844 26.0688 34.1288 26.3705 34.1288Z" fill="white"/>
<path d="M33.3408 33.0366H31.9051C31.6034 33.0366 31.3589 33.2811 31.3589 33.5827C31.3589 33.8844 31.6034 34.1288 31.9051 34.1288H33.3408C33.6425 34.1288 33.887 33.8844 33.887 33.5827C33.887 33.2811 33.6425 33.0366 33.3408 33.0366Z" fill="white"/>
<path d="M41.8904 37.0648C41.504 36.4999 40.8167 35.8893 39.6154 35.6853C40.1392 34.6053 40.2744 33.3627 39.9907 32.1133C39.9294 31.8428 39.6753 31.664 39.4023 31.6917V25.7586C39.4023 25.4569 39.1578 25.2125 38.8561 25.2125C38.5544 25.2125 38.3098 25.4569 38.3098 25.7586V31.9632C37.7579 32.1599 37.251 32.4378 36.8034 32.7879V17.1662C36.8034 16.661 36.3915 16.25 35.8851 16.25H32.9744V14.7947H38.3098V23.274C38.3098 23.5756 38.5544 23.8201 38.8561 23.8201C39.1578 23.8201 39.4023 23.5756 39.4023 23.274V14.6023C39.4023 14.1061 38.9986 13.7024 38.5023 13.7024H32.8454C32.6938 13.4576 32.4236 13.2938 32.1151 13.2938H29.5602V12.5631C29.5602 11.1497 28.4103 10 26.9968 10C25.5833 10 24.4333 11.1497 24.4333 12.5631V13.2939H21.6975C21.3883 13.2939 21.1174 13.4578 20.9655 13.7025H15.3083C14.812 13.7025 14.4082 14.1061 14.4082 14.6024V44.6225C14.4082 45.1188 14.812 45.5225 15.3083 45.5225H31.676C31.9924 45.9678 32.366 46.373 32.8229 46.6456C33.2189 46.882 33.648 47 34.1075 47C34.6219 47 35.1746 46.8519 35.7607 46.556C36.183 46.3433 36.183 46.3432 36.6051 46.5558C37.7162 47.1162 38.7051 47.1463 39.5441 46.6456C40.3359 46.1729 40.8786 45.3018 41.3052 44.512C42.3125 42.6469 43.2996 39.1245 41.8904 37.0648ZM36.6256 34.5565C37.1827 33.738 38.0187 33.157 39.0151 32.8858C39.1248 33.8705 38.9122 34.8234 38.4005 35.6236C38.2268 35.6325 38.0464 35.6477 37.8574 35.6713C37.0746 35.7687 36.6398 36.0141 36.3521 36.1764C36.2943 36.2089 36.2253 36.2479 36.1842 36.2662C36.143 36.2479 36.074 36.209 36.0163 36.1765C36.0061 36.1707 35.9951 36.1645 35.9844 36.1585C36.0829 35.5775 36.2967 35.0395 36.6256 34.5565ZM25.5259 12.5631C25.5259 11.7521 26.1857 11.0923 26.9968 11.0923C27.8079 11.0923 28.4677 11.7521 28.4677 12.5631V13.2939H25.5259V12.5631ZM21.9286 14.3861H31.8821V16.6588H21.9286V14.3861ZM15.5007 44.4302V14.7947H20.8361V16.25H17.9255C17.4191 16.25 17.0071 16.661 17.0071 17.1662V23.274C17.0071 23.5756 17.2516 23.8201 17.5534 23.8201C17.8551 23.8201 18.0996 23.5756 18.0996 23.274V17.3423H20.9655C21.1174 17.5871 21.3884 17.751 21.6976 17.751H32.1151C32.4236 17.751 32.6939 17.5871 32.8455 17.3423H35.7111V33.9591C35.3422 34.5056 35.0871 35.1052 34.9491 35.7484C34.8158 35.7179 34.6702 35.6913 34.5091 35.6713C32.1653 35.3785 31.0234 36.2669 30.478 37.0637C29.596 38.3522 29.6522 40.2142 30.0644 41.8847H23.7954V37.3986C23.7954 36.8923 23.3834 36.4804 22.877 36.4804H18.0996V25.7586C18.0996 25.4569 17.8551 25.2125 17.5534 25.2125C17.2516 25.2125 17.0071 25.4569 17.0071 25.7586V37.0266C17.0071 37.1764 17.0687 37.3196 17.1774 37.4228L22.8731 42.827C22.9746 42.9233 23.1092 42.977 23.2491 42.977H30.3914C30.5813 43.5169 30.7982 44.0118 31.0181 44.4302H15.5007ZM22.7029 37.5727V41.1596L18.9225 37.5727H22.7029ZM40.3439 43.993C39.3076 45.9118 38.5187 46.2977 37.0968 45.5803C36.3539 45.2065 36.0123 45.2064 35.2689 45.5807C33.8478 46.2982 33.0588 45.9124 32.0225 43.9933C31.7399 43.4695 31.4953 42.8825 31.3048 42.2763C31.3032 42.271 31.3016 42.2657 31.2998 42.2604C30.7698 40.5638 30.6688 38.7189 31.3795 37.6807C31.8234 37.0322 32.5763 36.7057 33.6233 36.7057C34.2421 36.7057 34.8614 36.7852 35.4085 37.0881C35.6856 37.2416 35.9581 37.3947 36.2873 37.3599C36.5778 37.3292 36.8156 37.1597 37.0683 37.0297C37.3577 36.8808 37.67 36.7954 37.9924 36.7552C39.4369 36.5749 40.4449 36.8867 40.9887 37.6815C41.9556 39.0947 41.4201 42.0003 40.3439 43.993Z" fill="white"/>
</svg>
