<svg width="731" height="33" viewBox="0 0 731 33" fill="none" xmlns="http://www.w3.org/2000/svg">
<path d="M18.2072 16.2917L7.69345 3.41806L0.306546 19.0844L16.9277 19.0052L18.2072 16.2917ZM517.542 11.2512L517.309 12.7331L517.542 11.2512ZM714.455 25.2202L730.432 29.801L727.568 12.7191L713.958 22.2615L714.455 25.2202ZM15.6934 18.4166C42.8342 28.3672 109.323 42.0906 205.684 22.7307L205.093 19.7894C109.249 39.0457 43.323 25.3511 16.726 15.5999L15.6934 18.4166ZM205.684 22.7307C323.831 -1.00622 430.904 -0.827461 517.309 12.7331L517.774 9.76936C431.01 -3.84755 323.579 -4.01562 205.093 19.7894L205.684 22.7307ZM517.309 12.7331C596.417 25.1484 666.702 31.6235 715.893 24.9782L715.492 22.0052C666.776 28.5862 596.877 22.1839 517.774 9.76936L517.309 12.7331Z" fill="#7B61FF"/>
</svg>
