<svg width="1323" height="54" viewBox="0 0 1323 54" fill="none" xmlns="http://www.w3.org/2000/svg">
<path d="M0 5C34.3811 5 34.3811 49 68.7297 49C103.111 49 103.111 5 137.459 5C171.84 5 171.84 49 206.189 49C240.57 49 240.57 5 274.919 5C309.3 5 309.3 49 343.648 49C378.03 49 378.03 5 412.378 5C446.759 5 446.759 49 481.14 49C515.521 49 515.521 5 549.902 5" stroke="#E5E5E5" stroke-opacity="0.5" stroke-width="10" stroke-miterlimit="10"/>
<path d="M1099.87 5C1134.25 5 1134.25 49 1168.6 49C1202.98 49 1202.98 5 1237.33 5C1271.71 5 1271.71 49 1306.06 49C1340.44 49 1340.44 5 1374.79 5C1409.17 5 1409.17 49 1443.52 49C1477.9 49 1477.9 5 1512.25 5C1546.63 5 1546.63 49 1581.01 49C1615.39 49 1615.39 5 1649.77 5" stroke="#E5E5E5" stroke-opacity="0.5" stroke-width="10" stroke-miterlimit="10"/>
<path d="M549.935 5C584.316 5 584.316 49 618.664 49C653.045 49 653.045 5 687.394 5C721.775 5 721.775 49 756.124 49C790.505 49 790.505 5 824.853 5C859.234 5 859.234 49 893.583 49C927.964 49 927.964 5 962.313 5C996.694 5 996.694 49 1031.07 49C1065.46 49 1065.46 5 1099.84 5" stroke="#E5E5E5" stroke-opacity="0.5" stroke-width="10" stroke-miterlimit="10"/>
</svg>
