<svg width="67" height="64" viewBox="0 0 67 64" fill="none" xmlns="http://www.w3.org/2000/svg">
<path d="M28.7447 3.63526C30.2415 -0.971297 36.7585 -0.971296 38.2553 3.63526L42.5928 16.9848C43.2622 19.0449 45.182 20.4397 47.3481 20.4397L61.3847 20.4397C66.2283 20.4397 68.2421 26.6378 64.3236 29.4848L52.9678 37.7353C51.2153 39.0085 50.482 41.2654 51.1514 43.3255L55.4889 56.675C56.9857 61.2816 51.7133 65.1122 47.7947 62.2652L36.4389 54.0147C34.6865 52.7415 32.3135 52.7415 30.5611 54.0147L19.2053 62.2652C15.2867 65.1122 10.0143 61.2816 11.5111 56.675L15.8486 43.3255C16.518 41.2654 15.7847 39.0085 14.0322 37.7353L2.67642 29.4848C-1.24215 26.6378 0.771727 20.4397 5.61534 20.4397L19.6519 20.4397C21.818 20.4397 23.7378 19.0449 24.4072 16.9848L28.7447 3.63526Z" fill="#FEC344"/>
</svg>
