<svg width="530" height="33" viewBox="0 0 530 33" fill="none" xmlns="http://www.w3.org/2000/svg">
<path d="M18.5675 17.8219L9.53159 3.8712L0.468407 18.6312L16.9977 20.3784L18.5675 17.8219ZM375.458 11.2512L375.139 12.7169L375.458 11.2512ZM513.655 25.8949L529.829 29.7249L526.171 12.7952L513.022 22.9627L513.655 25.8949ZM15.8768 19.6781C37.0931 29.5036 84.0356 41.2662 150.68 22.7051L149.875 19.8151C83.918 38.1848 37.7077 26.4821 17.1375 16.9559L15.8768 19.6781ZM150.68 22.7051C235.803 -1.00253 312.925 -0.818244 375.139 12.7169L375.777 9.78551C313.071 -3.85676 235.454 -4.01931 149.875 19.8151L150.68 22.7051ZM375.139 12.7169C430.303 24.7182 479.628 31.1967 515.039 25.5935L514.57 22.6303C479.763 28.1379 430.925 21.7834 375.777 9.78551L375.139 12.7169Z" fill="#FFE99B"/>
</svg>
