<svg width="40" height="40" viewBox="0 0 40 40" fill="none" xmlns="http://www.w3.org/2000/svg">
<path d="M13.3334 20H26.6667V23.3334H13.3334V20ZM16.6667 33.3334H10V6.66671H21.6667V15H30V20.1667L33.3334 16.8334V13.3334L23.3334 3.33337H10C9.11597 3.33337 8.26812 3.68456 7.643 4.30968C7.01788 4.93481 6.66669 5.78265 6.66669 6.66671V33.3334C6.66669 34.2174 7.01788 35.0653 7.643 35.6904C8.26812 36.3155 9.11597 36.6667 10 36.6667H16.6667V33.3334ZM13.3334 30H20.1667L21.6667 28.5V26.6667H13.3334V30ZM33.6667 21.6667C33.8334 21.6667 34.1667 21.8334 34.3334 22L36.5 24.1667C36.8334 24.5 36.8334 25.1667 36.5 25.5L34.8334 27.1667L31.3334 23.6667L33 22C33.1667 21.8334 33.3334 21.6667 33.6667 21.6667ZM33.6667 28.1667L23.5 38.3334H20V34.8334L30.1667 24.6667L33.6667 28.1667Z" fill="#C70136"/>
</svg>
