<svg width="89" height="57" viewBox="0 0 89 57" fill="none" xmlns="http://www.w3.org/2000/svg">
<path d="M1.09076 8.58811C0.586791 8.81402 0.36139 9.40571 0.587302 9.90967C0.813221 10.4136 1.4049 10.639 1.90887 10.4131L1.09076 8.58811ZM74.035 52.7374C73.8897 53.2702 74.2038 53.82 74.7366 53.9653L83.4195 56.3333C83.9524 56.4786 84.5021 56.1644 84.6474 55.6316C84.7927 55.0988 84.4786 54.549 83.9458 54.4037L76.2276 52.2988L78.3325 44.5807C78.4778 44.0479 78.1637 43.4982 77.6309 43.3529C77.098 43.2075 76.5483 43.5217 76.403 44.0545L74.035 52.7374ZM1.90887 10.4131C30.5977 -2.44738 58.2192 2.90382 73.8563 14.0644C81.6899 19.6554 86.3934 26.6065 86.9167 33.3435C87.4333 39.9928 83.8959 46.7652 74.5036 52.1323L75.4959 53.8687C85.3535 48.2357 89.5036 40.8205 88.9107 33.1886C88.3247 25.6444 83.1221 18.2205 75.0182 12.4365C58.7804 0.847195 30.4021 -4.55146 1.09076 8.58811L1.90887 10.4131Z" fill="#E0BB61"/>
</svg>
