<svg width="34" height="360" viewBox="0 0 34 360" fill="none" xmlns="http://www.w3.org/2000/svg">
<path d="M13.9636 -5.5271L29.0758 -12.4474L15.7838 -23.5526L11.6613 -7.45057L13.9636 -5.5271ZM22.4298 247.625L20.9986 247.176L22.4298 247.625ZM6.56024 342.97L3.74074 359.351L20.4109 354.649L9.44759 342.156L6.56024 342.97ZM12.4937 -8.42118C2.579 7.8327 -7.75422 40.8394 10.684 86.7259L13.4677 85.6074C-4.59831 40.6473 5.60582 8.6315 15.0548 -6.85892L12.4937 -8.42118ZM10.684 86.7259C35.1518 147.618 34.9472 202.737 20.9986 247.176L23.8609 248.074C38.027 202.943 38.1812 147.111 13.4677 85.6074L10.684 86.7259ZM20.9986 247.176C9.15064 284.922 2.45408 318.998 6.93501 344.272L9.88894 343.748C5.54605 319.253 12.0215 285.793 23.8609 248.074L20.9986 247.176Z" fill="#C4C4C4"/>
</svg>
