<svg width="100" height="130" viewBox="0 0 100 130" fill="none" xmlns="http://www.w3.org/2000/svg">
<path d="M0.750905 116.41C0.148539 117.652 0.667378 119.148 1.90977 119.75L22.1556 129.566C23.398 130.168 24.8935 129.65 25.4958 128.407C26.0982 127.165 25.5794 125.669 24.337 125.067L6.34065 116.342L15.0661 98.3453C15.6684 97.1029 15.1496 95.6074 13.9072 95.005C12.6648 94.4027 11.1693 94.9215 10.567 96.1639L0.750905 116.41ZM88.7363 2.56255C97.0344 20.241 95.871 35.9044 89.5358 49.5824C83.1471 63.3759 71.429 75.2805 58.4336 85.0657C45.4631 94.8323 31.3948 102.358 20.5404 107.448C15.1197 109.99 10.5159 111.918 7.27261 113.208C5.65127 113.853 4.37084 114.338 3.49935 114.661C3.06363 114.822 2.73023 114.943 2.50765 115.023C2.39636 115.063 2.31278 115.092 2.25799 115.112C2.23058 115.121 2.21038 115.128 2.19751 115.133C2.19107 115.135 2.18647 115.137 2.18371 115.138C2.18233 115.138 2.18166 115.138 2.18096 115.139C2.18075 115.139 2.181 115.139 3.00044 117.5C3.81988 119.862 3.82107 119.862 3.82272 119.861C3.82389 119.861 3.82601 119.86 3.82835 119.859C3.83304 119.858 3.83959 119.855 3.84797 119.853C3.86473 119.847 3.88886 119.838 3.92021 119.827C3.98291 119.805 4.0745 119.773 4.19395 119.73C4.43281 119.644 4.78306 119.517 5.23613 119.35C6.14222 119.014 7.4599 118.514 9.12076 117.854C12.4418 116.533 17.1387 114.566 22.6633 111.975C33.6994 106.799 48.0995 99.106 61.4412 89.06C74.7581 79.0327 87.196 66.531 94.0728 51.6838C101.003 36.7212 102.214 19.5096 93.2625 0.438014L88.7363 2.56255Z" fill="#EAC4AB"/>
</svg>
