<svg width="169" height="217" viewBox="0 0 169 217" fill="none" xmlns="http://www.w3.org/2000/svg">
<circle cx="92" cy="120" r="77" fill="#2EC2F1"/>
<g clip-path="url(#clip0)">
<path d="M3.79688 167.986C5.36362 166.617 6.93036 165.247 8.4971 163.878C9.10851 163.355 9.81546 162.931 10.2931 162.234C11.7643 160.093 13.312 158.275 15.8532 158.175C16.1206 160.964 14.5921 162.408 13.2547 162.956C11.3249 163.753 10.4078 165.621 9.24226 167.314C8.05765 169.082 6.08967 169.754 3.79688 167.986Z" fill="white"/>
<path d="M25.5029 51.2011C27.1843 49.8814 28.4262 48.9351 29.6491 47.9391C30.8528 46.968 31.9801 45.8723 33.2029 44.9759C34.5977 43.955 36.0689 43.1083 37.884 41.9629C37.2153 46.5446 28.7511 52.9442 25.5029 51.2011Z" fill="white"/>
<path d="M77.1478 70.2751C77.3007 71.2462 77.4727 71.794 77.4536 72.3667C77.4536 72.8149 77.3198 73.4873 77.0714 73.6367C76.823 73.811 76.3072 73.6367 76.0206 73.3877C74.8742 72.3667 73.5749 67.0628 74.129 64.3486C75.2563 66.0917 76.1543 67.4861 76.8803 68.6316C79.2114 68.8557 81.5232 69.0798 83.816 69.3039C81.9818 72.4165 79.8801 72.5161 77.1478 70.2751Z" fill="white"/>
<path d="M12.9121 104.563C13.4089 103.891 13.8483 102.746 14.3833 102.671C16.9245 102.248 19.4848 102.048 22.0451 101.999C22.5036 101.999 22.9622 103.119 23.4207 103.742C22.9813 104.289 22.5418 105.285 22.0833 105.31C19.1409 105.46 16.1984 105.385 13.2369 105.385C13.1414 105.111 13.0267 104.837 12.9121 104.563Z" fill="white"/>
<path d="M27.2983 38.352C26.9544 39.0492 26.6487 39.8211 26.2474 40.4686C24.4323 43.2575 21.4517 44.8511 21.1651 49.2586C21.1078 50.1052 19.8658 50.8273 19.178 51.6242C19.006 51.4748 18.8341 51.3503 18.6621 51.2008C18.7194 50.5036 18.6048 49.657 18.8723 49.1341C20.8212 45.4238 22.7891 41.7136 24.8909 38.1528C25.2539 37.5552 26.3239 37.6548 27.069 37.4307C27.1455 37.7295 27.2219 38.0283 27.2983 38.352Z" fill="white"/>
<path d="M43.7111 39.7715C45.6217 42.0126 45.7746 44.6023 45.6217 47.2168C46.9592 48.4868 48.3349 49.7069 49.615 51.0765C49.9016 51.4002 49.8443 52.2717 49.9398 52.8693C49.5195 52.944 49.08 53.1432 48.6979 53.0187C46.8446 52.3962 45.3542 51.201 44.8957 48.5366C44.8384 48.1382 44.7237 47.6651 44.5135 47.441C42.5647 45.2995 42.9086 42.7845 43.7111 39.7715Z" fill="white"/>
<path d="M63.5446 195.277C63.4491 190.845 65.2642 187.384 68.4932 185.641C69.5823 189.351 66.487 195.551 63.5446 195.277Z" fill="white"/>
<path d="M56.016 161.114C55.1371 158.35 55.9586 152.398 57.5063 150.381C58.3088 149.311 59.0348 149.435 59.4552 150.805C60.1621 153.121 57.8884 159.844 56.016 161.114Z" fill="white"/>
<path d="M95.3754 171.821C93.159 169.804 91.9553 166.891 91.0191 163.778C90.8471 163.205 91.5159 162.209 91.7834 161.413C92.261 161.711 92.9298 161.811 93.1972 162.309C94.7258 165.098 95.6238 168.186 95.3754 171.821Z" fill="white"/>
<path d="M30.3369 150.307C31.9801 152.473 33.4322 154.191 34.6932 156.133C35.0372 156.656 35.1327 158.15 34.827 158.549C34.4258 159.047 33.4704 159.196 32.859 158.997C31.063 158.375 29.4962 153.818 30.3369 150.307Z" fill="white"/>
<path d="M36.0684 87.3573C38.1128 85.7139 42.45 86.2119 43.9021 88.1043C44.1887 88.4779 44.5326 89.3992 44.418 89.5486C44.0549 90.0466 43.4817 90.6442 43.0232 90.5944C40.5584 90.3952 38.2274 89.5237 36.0684 87.3573Z" fill="white"/>
<path d="M34.4255 128.294C36.2024 132.03 36.3553 135.665 35.3809 139.525C32.5722 136.761 31.999 131.357 34.4255 128.294Z" fill="white"/>
<path d="M82.0206 95.649C82.269 95.2008 82.4983 94.404 82.7849 94.3542C84.8102 94.155 88.0965 100.48 87.275 103.468C85.0013 101.277 82.7849 99.2846 81.9824 95.5495L82.0206 95.649Z" fill="white"/>
<path d="M80.4341 107.178C81.3321 107.651 82.3638 107.776 82.8415 108.498C83.9497 110.216 84.8095 112.183 85.6884 114.126C85.8412 114.474 85.6502 115.271 85.4209 115.694C85.2871 115.918 84.7139 115.918 84.4273 115.769C82.7459 114.972 80.3958 110.141 80.4341 107.178Z" fill="white"/>
<path d="M77.2242 140.272C75.3708 137.458 74.4728 134.47 74.3964 131.108C74.3773 130.535 74.683 129.788 75.0269 129.465C75.2753 129.241 75.9249 129.44 76.2306 129.763C77.4917 131.008 78.2177 137.856 77.2242 140.272Z" fill="white"/>
<path d="M49.7109 155.959C50.1504 152.124 51.6598 149.784 53.5323 147.816C53.9717 147.368 54.6787 147.393 55.271 147.194C55.3474 147.991 55.6531 148.937 55.4429 149.584C54.3538 152.697 52.3094 154.415 49.7109 155.959Z" fill="white"/>
<path d="M35.2855 84.2695C32.9545 86.2117 29.3051 86.3362 27.4326 84.5683C27.0887 84.2446 26.7639 83.7216 26.6875 83.2236C26.6493 82.9497 27.1843 82.2525 27.4326 82.2774C30.0311 82.5015 32.878 81.3062 35.2855 84.2695Z" fill="white"/>
<path d="M51.4117 132.652C53.7236 134.818 54.0484 137.881 54.3923 141.193C52.5963 141.218 51.2397 140.446 50.4372 138.553C49.4819 136.412 50.1124 134.544 51.4117 132.652Z" fill="white"/>
<path d="M103.343 98.6622C101.108 100.106 96.8851 98.3883 96.1209 95.5994C95.7196 94.1053 96.5412 93.3334 97.4775 93.8563C99.5601 95.0018 101.547 96.446 103.592 97.7907C103.515 98.0646 103.439 98.3634 103.343 98.6622Z" fill="white"/>
<path d="M70.8613 29.5123C72.1797 26.2005 74.3579 24.3329 76.8417 23.0381C77.0519 22.9385 77.8544 23.7104 77.8353 24.0341C77.7015 26.1507 73.2688 30.4337 71.6447 30.11C71.4154 30.0601 71.2052 29.7862 70.8613 29.5123Z" fill="white"/>
<path d="M73.6702 34.8163C71.664 37.6301 67.1931 38.5763 65.0723 36.7586C66.1422 34.2187 71.2437 33.0234 73.6702 34.8163Z" fill="white"/>
<path d="M7.98178 131.979C7.96267 128.792 8.76515 126.626 10.1981 124.957C10.6758 124.385 11.5547 124.335 12.2426 124.061C12.4145 124.982 12.8731 125.978 12.7202 126.8C12.2043 129.863 10.0835 130.56 7.98178 131.979Z" fill="white"/>
<path d="M54.125 179.839C57.1247 178.893 59.7423 176.702 62.6083 179.366C61.118 182.454 56.6662 182.877 54.125 179.839Z" fill="white"/>
<path d="M91.8405 37.7793C92.2417 41.116 89.9489 46.1211 87.8472 46.6938C87.5415 46.7685 86.7199 45.7227 86.7581 45.5733C87.8854 42.4358 89.3184 39.622 91.8405 37.7793Z" fill="white"/>
<path d="M45.4312 29.6865C45.9661 33.1228 43.1193 37.3809 40.8265 36.858C40.5208 36.7833 40.0049 35.2892 40.1768 34.9655C41.457 32.5999 43.0428 30.6826 45.4312 29.6865Z" fill="white"/>
<path d="M29.5723 72.6407C31.3874 69.7771 33.5847 68.308 36.2405 68.2084C36.5653 68.1835 37.3104 69.4534 37.1958 69.7522C36.6799 71.2463 31.4829 73.7613 30.241 73.2633C30.0881 73.1886 29.9544 72.9893 29.5723 72.6407Z" fill="white"/>
<path d="M19.8093 202.623C18.1279 201.304 16.7331 200.507 15.6822 199.237C15.1281 198.564 15.1472 197.07 14.918 195.95C15.8542 195.825 16.9815 195.228 17.7266 195.676C19.7902 196.871 19.5227 199.561 19.8093 202.623Z" fill="white"/>
<path d="M69.5436 126.501C71.3969 128.294 72.0084 133.524 70.7664 137.01C68.3208 134.246 67.7667 129.514 69.5436 126.501Z" fill="white"/>
<path d="M79.097 36.9828C76.4985 33.3223 78.0079 27.5702 81.6191 26.2505C80.7211 30.0354 79.8995 33.4966 79.097 36.9828Z" fill="white"/>
<path d="M59.5695 56.5048C57.2193 54.189 55.7481 51.5993 55.5762 47.9638C58.4804 47.2915 60.4293 51.2756 59.5695 56.5048Z" fill="white"/>
<path d="M26.9355 15.9414C26.8591 12.8288 31.2919 9.29283 33.8713 10.2142C33.4891 12.8039 29.9162 15.8169 26.9355 15.9414Z" fill="white"/>
<path d="M83.9687 80.8081C85.7838 81.5551 88.2294 87.3819 87.7327 89.5234C87.6562 89.872 87.3123 90.4448 87.1786 90.395C86.7582 90.2705 86.3188 90.0214 86.0322 89.623C84.5801 87.631 83.7012 83.846 83.9687 80.8081Z" fill="white"/>
<path d="M-3.27148 78.9158C-0.577451 74.4336 1.3141 73.1886 3.72154 74.9566C2.05926 76.7245 0.568947 78.4427 -1.0169 79.9616C-2.02955 80.9328 -2.83203 80.4347 -3.27148 78.9158Z" fill="white"/>
<path d="M100.114 89.9716C97.898 90.0214 95.6625 90.2206 93.4653 89.9965C92.701 89.9218 91.9176 88.7265 92.9112 87.5562C94.3059 85.8878 98.9297 86.859 100.172 89.0004C100.153 89.349 100.133 89.6479 100.114 89.9716Z" fill="white"/>
<path d="M18.6055 110.664C21.032 108.623 23.1528 106.008 26.4392 106.556C24.9107 110.714 20.5735 113.08 18.6055 110.664Z" fill="white"/>
<path d="M64.1933 79.1151C63.238 82.2526 61.6139 84.419 59.2638 85.4897C58.767 85.7138 58.0792 85.2407 57.4678 85.1162C57.6971 84.4439 57.7926 83.5226 58.1938 83.0993C59.9134 81.2068 61.5566 79.0653 64.1933 79.1151Z" fill="white"/>
<path d="M73.5181 121.422C72.0851 119.33 71.703 116.168 72.4099 114.026C72.9258 112.458 73.7283 112.682 74.3397 113.603C75.467 115.296 76.2695 116.915 74.8747 118.957C74.3779 119.704 73.9767 120.575 73.5181 121.422Z" fill="white"/>
<path d="M37.2535 21.8179C35.553 18.8796 36.9478 12.6793 38.8585 12.0319C39.1642 11.9323 40.0813 13.1026 40.0049 13.3267C39.2406 16.0409 38.3235 18.6555 37.2535 21.8179Z" fill="white"/>
<path d="M49.2706 161.661C51.3723 164.151 51.7927 168.658 50.3406 171.846C48.4108 169.729 47.7803 164.226 49.2706 161.661Z" fill="white"/>
<path d="M0.988281 199.884C4.10266 199.087 7.389 200.258 8.00041 203.943C5.59298 204.914 2.21111 203.047 0.988281 199.884Z" fill="white"/>
<path d="M97 152.174C99.3119 153.145 100.898 155.088 101.968 157.877C102.503 159.296 102.063 159.819 101.012 159.694C99.1208 159.47 96.6178 154.864 97 152.174Z" fill="white"/>
<path d="M32.4004 124.036C34.5977 121.421 36.7567 120.176 39.3361 120.376C39.6418 120.401 40.1195 120.824 40.1768 121.148C40.2341 121.521 39.9857 122.119 39.7182 122.393C37.712 124.484 35.4383 125.032 32.4004 124.036Z" fill="white"/>
<path d="M7.25586 66.4155C9.37669 63.7013 11.765 63.3527 14.268 63.6515C14.5737 63.6764 15.0514 64.1993 15.0705 64.523C15.0896 65.021 14.8412 65.8179 14.5546 65.9673C12.2618 67.1127 9.93079 67.8597 7.25586 66.4155Z" fill="white"/>
<path d="M39.7371 1.67334C41.8961 2.99309 43.3291 7.84876 42.5075 10.6626C39.8899 9.56692 38.839 6.28 39.7371 1.67334Z" fill="white"/>
<path d="M0.816906 147.841C-1.99177 149.435 -5.90863 147.443 -6.36719 144.33C-4.30367 143.484 -0.673411 145.202 0.816906 147.841Z" fill="white"/>
<path d="M102.12 74.06C101.68 74.4833 101.203 75.33 100.821 75.2553C98.4896 74.8817 96.2923 73.9355 94.2861 71.4454C97.668 69.6277 99.8844 72.0431 102.158 74.1098C102.139 74.1098 102.12 74.06 102.12 74.06Z" fill="white"/>
<path d="M52.0793 183.873C50.0731 181.209 50.0349 177.15 51.8882 174.112C53.646 176.154 53.7798 180.711 52.0793 183.873Z" fill="white"/>
<path d="M43.043 110.54C45.0683 108.697 48.6412 108.598 50.3608 110.216C50.5901 110.44 50.934 111.013 50.8767 111.137C50.6474 111.561 50.3226 112.059 49.9596 112.208C47.5521 113.154 45.4122 112.009 43.043 110.54Z" fill="white"/>
<path d="M57.2004 128.892C55.2516 126.8 54.5255 121.82 55.7292 118.957C58.0411 120.799 58.5379 124.111 57.2004 128.892Z" fill="white"/>
<path d="M85.0771 186.487C82.4977 187.459 79.3451 185.392 78.0459 181.881C81.1412 181.408 84.5613 183.649 85.0771 186.487Z" fill="white"/>
<path d="M88.5547 131.257C88.612 128.095 90.8093 127.348 92.4524 126.153C93.1785 125.63 94.1911 125.754 95.0892 125.605C95.2038 126.028 95.3184 126.452 95.4331 126.875C93.3505 128.643 91.2487 130.436 89.1661 132.204C88.9559 131.88 88.7649 131.581 88.5547 131.257Z" fill="white"/>
<path d="M28.1388 120.924C25.5785 120.525 23.4767 117.064 23.8398 114.698C23.9162 114.15 24.3556 113.403 24.7187 113.279C25.1008 113.154 25.8651 113.553 26.0179 114.001C26.7631 116.143 27.3745 118.359 28.1388 120.924Z" fill="white"/>
<path d="M0.28125 203.371C2.45941 204.914 4.63756 205.811 5.84128 208.55C6.43359 209.87 6.14699 210.691 4.96238 210.691C3.52938 210.691 0.28125 205.935 0.28125 203.371Z" fill="white"/>
<path d="M63.3909 157.603C65.2825 160.217 65.5691 164.899 64.0979 167.687C62.321 165.397 61.8624 159.669 63.3909 157.603Z" fill="white"/>
<path d="M46.0417 97.1436C44.3221 101.7 42.507 103.294 39.832 102.647C40.176 99.5589 42.5643 97.4424 46.0417 97.1436Z" fill="white"/>
<path d="M28.3875 23.0381C30.451 25.1547 30.6039 31.1309 28.7888 33.2225C27.3749 31.6289 27.1265 26.3001 28.3875 23.0381Z" fill="white"/>
<path d="M35.5911 209.023C35.2472 211.936 31.808 216.269 30.2031 216.17C29.9547 216.145 29.4388 214.875 29.5726 214.576C30.91 211.762 32.878 210.069 35.5911 209.023Z" fill="white"/>
<path d="M93.1397 75.3051C90.2355 73.9605 88.0955 69.6527 88.8407 66.9385C91.8977 68.9554 93.2352 71.5202 93.1397 75.3051Z" fill="white"/>
<path d="M100.955 134.719C104.127 135.939 106.343 138.902 106.42 141.84C103.917 141.99 101.758 139.226 100.955 134.719Z" fill="white"/>
<path d="M65.5693 100.405C68.015 99.1103 71.1676 100.256 72.7534 102.87C70.3651 104.838 67.5755 103.916 65.5693 100.405Z" fill="white"/>
<path d="M43.3475 143.459C42.0292 146.596 39.0486 147.692 36.4883 146.098C37.9404 143.26 40.7873 142.114 43.3475 143.459Z" fill="white"/>
<path d="M12.7775 182.703C12.4145 186.811 10.6758 189.276 8.34477 191.443C7.80978 187.633 9.73955 183.748 12.7775 182.703Z" fill="white"/>
<path d="M26.0571 0.154297C26.8405 3.0428 26.0953 6.50402 24.6241 7.74906C24.2802 8.04788 23.3249 8.04788 23.3058 7.92337C23.0574 6.87753 22.5606 5.48309 22.9045 4.76096C23.6497 3.1424 24.8152 1.87246 26.0571 0.154297Z" fill="white"/>
<path d="M89.6436 50.6783C91.3058 48.736 93.121 47.217 95.5093 47.7898C95.9487 47.8894 96.3309 48.3874 96.7321 48.7111C96.4264 49.1842 96.1971 49.8814 95.815 50.0807C94.554 50.753 93.2738 51.4004 91.9555 51.7739C91.2485 51.9731 90.4269 51.6494 89.6627 51.5498C89.6627 51.251 89.6627 50.9522 89.6436 50.6783Z" fill="white"/>
<path d="M49.5394 116.79C49.6349 120.575 48.3548 123.015 45.2786 125.107C44.7436 122.094 46.6734 118.234 49.5394 116.79Z" fill="white"/>
<path d="M22.2548 215.373C20.6116 213.231 20.6689 208.301 22.3885 205.911C24.1081 208.575 24.0508 213.107 22.2548 215.373Z" fill="white"/>
<path d="M8.44043 14.3728C9.52951 11.4345 13.4273 9.41749 15.2615 10.7372C13.7139 13.8996 10.9816 15.4186 8.44043 14.3728Z" fill="white"/>
<path d="M36.4132 97.691C35.7445 100.953 33.0887 102.596 30.2227 101.7C30.7194 98.8364 33.5472 96.944 36.4132 97.691Z" fill="white"/>
<path d="M0.797852 103.02C2.30728 100.48 4.27526 99.5087 6.37699 98.9609C6.60627 98.9111 7.37053 100.206 7.275 100.604C6.62537 102.895 2.80405 104.439 0.797852 103.02Z" fill="white"/>
<path d="M57.2773 113.653C58.2709 110.49 59.9141 109.22 63.6016 108.772C63.6207 111.81 60.4108 114.3 57.2773 113.653Z" fill="white"/>
<path d="M74.1859 165.123C73.2305 161.412 74.205 157.677 76.5551 156.208C77.5869 159.694 76.8035 162.707 74.1859 165.123Z" fill="white"/>
<path d="M5.02045 91.1919C2.97604 89.6231 2.13535 85.5394 3.16711 82.1279C5.36437 83.7216 6.20506 87.8053 5.02045 91.1919Z" fill="white"/>
<path d="M50.6283 35.887C49.9214 32.9985 50.5137 30.4337 51.7556 28.093C52.2715 27.1219 53.074 26.848 53.5134 28.2922C54.1248 30.2096 52.3479 34.9158 50.6283 35.887Z" fill="white"/>
<path d="M43.8644 76.899C43.7307 73.2883 44.6478 70.9726 46.1954 69.0303C46.4629 68.7066 47.0744 68.4825 47.3801 68.6817C47.6667 68.856 47.9724 69.6777 47.8959 70.0761C47.3227 72.8152 46.1763 75.0314 43.8644 76.899Z" fill="white"/>
<path d="M9.93066 87.7555C11.8986 85.8132 13.9048 85.1907 16.1021 85.5891C16.4651 85.6638 16.8855 86.112 17.0574 86.5353C17.1339 86.7345 16.7708 87.3819 16.5034 87.6559C14.7264 89.4487 12.0897 89.5483 9.93066 87.7555Z" fill="white"/>
<path d="M101.547 67.6606C99.7893 66.1167 99.8275 60.8626 101.509 58.0239C103.076 60.5638 103.133 64.4235 101.547 67.6606Z" fill="white"/>
<path d="M14.6504 139.947C17.1534 137.532 19.7136 137.258 21.739 139.051C20.5161 141.74 17.44 142.189 14.6504 139.947Z" fill="white"/>
<path d="M91.1347 157.902C88.861 157.179 87.0459 153.743 86.9121 150.207C88.8992 150.083 91.4022 154.515 91.1347 157.902Z" fill="white"/>
<path d="M16.8477 29.114C19.064 27.6449 22.4077 28.7903 23.7451 31.4049C21.8536 32.9737 19.0831 32.1021 16.8477 29.114Z" fill="white"/>
<path d="M-6.73047 29.5623C-4.34214 28.5912 -2.39327 29.0145 -0.578139 30.4588C-0.215113 30.7327 -0.100471 31.5295 0.147915 32.1022C-0.291537 32.3761 -0.750097 32.899 -1.17044 32.8492C-3.15753 32.5504 -5.18283 32.2267 -6.73047 29.5623Z" fill="white"/>
<path d="M98.0121 66.2911C97.3243 64.5729 96.5027 62.9294 95.9868 61.1117C95.7958 60.4642 96.3307 59.4682 96.5409 58.6216C97.2861 59.1196 98.4898 59.4433 98.6618 60.1405C99.063 61.9832 99.0057 63.9753 99.1203 65.9175C98.7382 66.042 98.3752 66.1666 98.0121 66.2911Z" fill="white"/>
<path d="M106.457 149.833C104.126 152.049 101.432 151.651 98.7002 148.862C101.413 147.468 103.84 147.816 106.457 149.833Z" fill="white"/>
<path d="M83.186 42.1372C84.9629 46.2708 83.8738 49.5079 80.2627 50.4043C81.027 47.4162 81.1798 44.3036 83.186 42.1372Z" fill="white"/>
<path d="M92.2232 152.05C92.0895 148.614 93.5607 145.924 96.2739 144.43C97.2292 146.721 95.9873 149.136 92.2232 152.05Z" fill="white"/>
<path d="M73.4221 82.7256C71.0146 85.5145 67.6137 84.6927 66.6201 81.2066C69.0276 80.5094 71.1866 80.9576 73.4221 82.7256Z" fill="white"/>
<path d="M4.50391 179.341C6.37636 176.253 8.45898 175.655 11.0384 177.374C9.81555 180.038 7.10241 180.91 4.50391 179.341Z" fill="white"/>
<path d="M32.1899 187.185C29.152 187.857 26.9929 185.94 26.6299 182.429C28.98 182.006 31.12 183.798 32.1899 187.185Z" fill="white"/>
<path d="M56.1875 6.60352C57.0664 10.4881 56.9518 13.7252 55.8245 17.0868C53.9138 15.2441 54.0285 11.509 56.1875 6.60352Z" fill="white"/>
<path d="M82.3071 56.5546C82.0396 56.7539 81.6193 57.3017 81.1799 57.3515C79.6704 57.476 77.4158 55.3096 77.626 53.8903C77.7406 53.1432 78.4667 52.1721 79.0399 52.0227C80.1481 51.699 82.3454 54.6373 82.3071 56.5546Z" fill="white"/>
<path d="M38.553 34.9904C35.9927 33.845 34.6361 31.6786 34.082 28.0182C36.6805 27.9186 38.5339 30.7324 38.553 34.9904Z" fill="white"/>
<path d="M71.4351 64.8467C68.9703 66.0171 66.9068 68.0092 64.251 67.1127C64.9579 63.9254 69.3524 62.4064 71.4351 64.8467Z" fill="white"/>
<path d="M81.9823 95.5495C81.8867 96.5206 81.7912 97.4668 81.6957 98.438C79.3264 96.9688 78.4093 94.1301 78.9061 89.8472C80.8932 90.9179 81.2944 93.408 82.0205 95.6242C82.0205 95.6491 81.9823 95.5495 81.9823 95.5495Z" fill="white"/>
<path d="M37.6921 117.363C35.9152 114.923 35.533 112.482 36.4502 110.067C36.603 109.668 37.0425 109.071 37.2526 109.121C37.6157 109.22 38.0742 109.693 38.208 110.142C38.9913 112.557 38.9149 114.947 37.6921 117.363Z" fill="white"/>
<path d="M37.998 208.351C40.4628 208.6 41.6474 210.094 42.469 213.754C40.3673 214.924 38.2464 212.434 37.998 208.351Z" fill="white"/>
<path d="M27.0887 145.999C25.8467 148.14 22.5986 149.659 21.1656 148.912C20.2676 148.439 20.0765 147.468 20.9554 146.87C22.8088 145.601 24.7768 144.829 27.0887 145.999Z" fill="white"/>
<path d="M71.1669 153.743C71.0332 152.672 70.5937 151.502 70.8803 150.829C71.6637 148.962 72.6381 147.069 74.587 146.87C74.8927 149.933 73.8801 152.074 71.1669 153.743Z" fill="white"/>
<path d="M1.77246 136.536C3.95062 134.992 5.68932 135.864 7.29428 137.557C7.59999 137.881 7.67641 138.553 7.86748 139.076C7.48534 139.3 7.10321 139.698 6.72108 139.748C4.65756 139.997 3.12903 138.752 1.77246 136.536Z" fill="white"/>
<path d="M28.6932 125.182C29.0371 128.892 27.1838 131.581 24.2031 131.93C24.5853 128.444 26.2666 126.601 28.6932 125.182Z" fill="white"/>
<path d="M41.4567 201.702C40.4059 198.888 40.3485 196.572 41.3803 194.331C41.6096 193.833 42.2019 193.26 42.5649 193.36C42.8897 193.435 43.3292 194.306 43.3483 194.829C43.3865 197.22 42.9279 199.436 41.4567 201.702Z" fill="white"/>
<path d="M91.9746 106.033C94.1337 104.564 95.8915 105.137 97.42 106.68C97.783 107.054 97.7448 108.125 97.8976 108.872C97.3818 108.996 96.7512 109.444 96.3691 109.22C94.8597 108.249 93.4267 107.104 91.9746 106.033Z" fill="white"/>
<path d="M76.9568 184.172C76.7848 188.604 74.8359 191.144 72.1992 190.696C72.5814 187.185 74.664 185.766 76.9568 184.172Z" fill="white"/>
<path d="M47.514 135.242C46.0046 132.079 46.253 129.614 48.2974 127.124C49.7304 130.311 49.5011 133.075 47.514 135.242Z" fill="white"/>
<path d="M0.626312 122.094C-0.290806 119.977 0.0149012 116.391 1.31415 114.748C1.54343 114.449 2.17395 114.15 2.25038 114.25C2.55608 114.723 2.99554 115.445 2.9 115.893C2.46055 118.06 1.86824 120.201 1.33326 122.343C1.10398 122.268 0.855592 122.193 0.626312 122.094Z" fill="white"/>
<path d="M81.9814 120.027C81.4464 123.314 80.128 125.456 78.0072 126.925C77.1474 123.762 79.2873 119.878 81.9814 120.027Z" fill="white"/>
<path d="M17.6687 40.5434C16.0446 42.9837 13.2933 44.0793 11.1533 43.1331C12.2615 40.2944 15.223 39.124 17.6687 40.5434Z" fill="white"/>
<path d="M12.3383 32.0024C11.1728 35.887 9.66338 37.132 6.64453 36.8581C7.19862 34.0692 9.47231 32.0771 12.3383 32.0024Z" fill="white"/>
<path d="M89.9299 59.4185C88.7835 62.6556 87.79 65.3947 86.6627 68.5322C85.1915 64.8468 86.8347 60.2153 89.9299 59.4185Z" fill="white"/>
<path d="M59.666 99.5089C60.5449 95.3007 62.9333 93.3584 65.3598 94.5038C64.4045 97.8157 62.1308 98.4133 59.666 99.5089Z" fill="white"/>
<path d="M55.6342 76.2764C55.6533 79.5384 55.3285 82.3024 52.7491 83.6221C51.8893 79.9866 53.0166 77.0732 55.6342 76.2764Z" fill="white"/>
<path d="M41.2654 166.841C41.4756 171.024 39.7369 173.116 36.7754 172.817C37.425 169.68 38.9535 167.862 41.2654 166.841Z" fill="white"/>
<path d="M110.928 90.9926C108.425 92.5365 105.961 91.6899 104.279 88.7765C106.801 87.8302 108.999 88.1788 110.928 90.9926Z" fill="white"/>
<path d="M40.2912 49.8315C41.514 52.2967 40.7879 53.3924 39.7944 54.1394C38.7053 54.9362 37.5016 55.4592 36.3361 56.0817C36.2979 55.509 36.0304 54.6872 36.2214 54.4382C37.5016 52.8944 38.8391 51.4501 40.2912 49.8315Z" fill="white"/>
<path d="M45.7178 10.9363C46.4247 8.32167 49.2525 5.83158 50.8957 6.13039C51.1632 6.1802 51.6217 6.50391 51.6217 6.72802C51.6408 7.17623 51.5071 7.74895 51.2778 8.07266C49.8257 10.0398 47.9724 10.762 45.7178 10.9363Z" fill="white"/>
<path d="M85.1348 126.203C86.1092 123.09 87.5231 121.571 89.5102 120.974C89.8923 120.849 90.5229 120.998 90.6948 121.347C90.8668 121.646 90.6757 122.468 90.4655 122.891C89.3 125.281 87.332 125.356 85.1348 126.203Z" fill="white"/>
<path d="M78.0657 194.73C77.0339 192.04 78.4287 188.405 79.9954 187.882C80.3776 187.757 80.9126 187.882 81.2374 188.181C81.4093 188.33 81.4093 189.227 81.2374 189.525C80.2056 191.293 79.1356 193.011 78.0657 194.73Z" fill="white"/>
<path d="M82.9559 149.883C81.2554 147.742 81.0452 146.422 81.6566 141.84C83.7392 142.488 84.5226 146.845 82.9559 149.883Z" fill="white"/>
<path d="M55.3662 139.599C57.3342 137.507 59.6843 137.557 61.4039 139.574C60.1047 142.014 57.4106 142.064 55.3662 139.599Z" fill="white"/>
<path d="M6.83507 130.859C4.71423 132.95 1.75271 132.577 0.205078 130.186C1.84825 128.468 4.5996 128.717 6.83507 130.859Z" fill="white"/>
<path d="M6.14746 77.7952C7.29386 74.6577 9.35738 74.3091 11.5737 73.9604C11.0961 77.4466 8.70775 79.1398 6.14746 77.7952Z" fill="white"/>
<path d="M30.7954 92.3872C31.0056 95.4002 30.9865 98.3385 29.4198 100.953C27.7193 98.1642 28.5791 93.0346 30.7954 92.3872Z" fill="white"/>
<path d="M12.2043 195.178C11.5165 198.564 10.0262 199.286 8.383 199.486C7.92444 199.535 7.12196 199.037 7.02643 198.589C6.91179 198.066 7.27481 196.921 7.63784 196.746C8.95619 196.099 10.3701 195.75 12.2043 195.178Z" fill="white"/>
<path d="M83.5679 173.34C83.3577 168.933 83.759 168.36 87.3128 167.613C87.6185 169.779 86.1282 172.12 83.5679 173.34Z" fill="white"/>
<path d="M106.763 77.5215C107.012 81.1072 105.942 83.1491 103.401 84.1949C102.885 81.3064 104.031 78.9657 106.763 77.5215Z" fill="white"/>
<path d="M65.0721 123.513C64.7282 120.102 65.7599 117.587 67.3267 114.823C68.1292 119.878 67.5177 122.218 65.0721 123.513Z" fill="white"/>
<path d="M6.24359 144.231C9.16691 144.281 9.83563 146.895 10.3324 149.734C7.90586 149.908 6.07163 147.543 6.24359 144.231Z" fill="white"/>
<path d="M97.8022 139.126C96.7896 136.735 97.038 134.196 97.4201 131.656C97.4774 131.207 97.9933 130.884 98.299 130.485C98.5665 130.884 99.0824 131.307 99.0824 131.681C99.006 134.196 98.834 136.686 98.6811 139.201C98.3945 139.176 98.1079 139.151 97.8022 139.126Z" fill="white"/>
<path d="M57.22 42.2868C55.9399 41.2409 54.5833 40.3445 53.456 39.0995C53.0166 38.6014 53.0548 37.3564 52.8828 36.46C53.5707 36.5596 54.4878 36.3355 54.889 36.8335C55.9781 38.203 56.857 39.8465 57.8123 41.3903C57.6022 41.6891 57.4111 41.988 57.22 42.2868Z" fill="white"/>
<path d="M99.8848 111.86C100.553 109.669 101.681 108.075 103.553 107.477C103.974 107.353 104.489 107.726 104.948 107.851C104.814 108.548 104.852 109.594 104.528 109.843C103.152 110.914 101.681 111.735 100.248 112.632C100.152 112.383 100.019 112.109 99.8848 111.86Z" fill="white"/>
<path d="M58.2325 207.902C55.9397 210.816 53.3412 210.343 52.042 207.081C54.2393 205.188 55.9971 207.379 58.2325 207.902Z" fill="white"/>
<path d="M105.77 99.9573C106.84 96.5708 109.228 97.4922 111.234 96.9443C110.814 100.132 108.062 101.626 105.77 99.9573Z" fill="white"/>
<path d="M82.2874 85.2158C79.364 86.0375 77.5871 84.9917 76.498 81.9289C78.5998 81.132 80.6442 82.2277 82.2874 85.2158Z" fill="white"/>
<path d="M100.305 123.713C100.267 120.973 101.968 118.409 104.432 117.487C104.719 120.152 102.789 123.09 100.305 123.713Z" fill="white"/>
<path d="M49.4629 90.7437C53.0358 92.5614 53.5708 94.0804 52.2142 97.9151C49.7495 96.6202 50.1507 93.6073 49.4629 90.7437Z" fill="white"/>
<path d="M64.2889 19.0043C61.9006 20.9714 59.3976 20.1248 58.5569 17.7592C58.4232 17.3608 58.4232 16.7881 58.5378 16.3897C58.6143 16.1905 59.1492 16.066 59.3976 16.1905C60.907 17.0122 62.3974 17.9086 64.2889 19.0043Z" fill="white"/>
<path d="M64.3086 23.4117C66.9644 23.1129 69.0088 24.6816 69.7349 27.4456C67.614 28.0931 65.092 26.2753 64.3086 23.4117Z" fill="white"/>
<path d="M10.1598 7.32572C7.96255 8.79487 7.48488 8.62056 4.25586 5.38345C5.76528 3.73999 8.72682 4.63642 10.1598 7.32572Z" fill="white"/>
<path d="M18.5289 132.901C17.0768 129.714 17.115 127.149 18.6436 125.007C20.4396 127.174 20.4205 129.589 18.5289 132.901Z" fill="white"/>
<path d="M93.9236 139.948C91.7645 140.77 90.064 139.773 88.7266 136.86C90.8092 135.491 93.293 136.96 93.9236 139.948Z" fill="white"/>
<path d="M16.4849 204.267C17.9944 206.582 17.8988 209.147 16.2748 211.737C14.5361 209.919 14.5743 207.23 16.4849 204.267Z" fill="white"/>
<path d="M6.64487 54.1394C4.90616 55.4592 2.15481 54.1643 1.12305 51.5248C3.03371 50.2549 5.0208 51.2011 6.64487 54.1394Z" fill="white"/>
<path d="M57.3533 94.1302C57.0858 91.3164 58.8819 89.673 62.1109 89.8224C61.1938 92.8354 59.6843 94.2298 57.3533 94.1302Z" fill="white"/>
<path d="M48.4492 105.286C48.5256 103.592 48.4683 101.849 48.7167 100.206C48.8314 99.4589 49.5383 98.8364 49.9777 98.1641C50.379 99.2099 51.2388 100.405 51.0668 101.277C50.7611 102.796 49.8249 104.09 49.1562 105.485C48.9269 105.435 48.6785 105.36 48.4492 105.286Z" fill="white"/>
<path d="M40.8065 177.847C40.5963 179.715 40.4626 181.607 40.0996 183.4C39.9849 183.998 39.2206 184.371 38.7621 184.844C38.4946 184.172 37.8832 183.375 38.0169 182.852C38.4755 180.96 39.1633 179.192 39.7747 177.374C40.0996 177.548 40.4626 177.698 40.8065 177.847Z" fill="white"/>
<path d="M31.7689 198.091C34.0235 199.386 35.1317 202.698 34.3101 205.362C32.1702 203.669 31.3868 201.528 31.7689 198.091Z" fill="white"/>
<path d="M54.965 22.1918C53.341 23.1878 51.736 24.2337 50.0929 25.1301C49.8445 25.2795 49.042 24.7068 49.042 24.4578C49.042 23.8851 49.2522 22.9388 49.577 22.7894C51.201 21.9677 52.8633 21.3701 54.5256 20.6729C54.6593 21.1958 54.8122 21.6938 54.965 22.1918Z" fill="white"/>
<path d="M70.3459 178.619C69.8873 176.104 70.8235 174.162 73.2883 172.494C74.5302 174.785 73.1928 177.573 70.3459 178.619Z" fill="white"/>
<path d="M24.0511 173.738C22.8474 170.974 23.4588 167.364 25.3121 165.621C26.1911 168.285 25.6943 171.696 24.0511 173.738Z" fill="white"/>
<path d="M72.6583 199.486C71.1107 200.656 69.6394 200.059 68.2447 199.088C67.939 198.863 67.6333 198.092 67.6906 197.668C67.7479 197.245 68.2256 196.722 68.5886 196.597C70.1362 196.025 71.9322 197.32 72.6583 199.486Z" fill="white"/>
<path d="M68.5117 14.8954C68.6455 14.6713 68.9703 14.1733 69.2951 13.6504C70.2313 15.0199 71.1675 16.3895 72.0273 17.8337C72.0846 17.9084 71.5306 18.9543 71.2057 19.0041C70.002 19.278 68.5308 17.2112 68.5117 14.8954Z" fill="white"/>
<path d="M8.24948 107.054C9.85443 108.896 10.0264 112.009 8.66982 114.673C6.85469 113.229 6.70184 110.59 8.24948 107.054Z" fill="white"/>
<path d="M22.9237 76.2514C20.3635 75.2304 19.1406 73.338 19.1406 70.574C21.1659 69.8518 22.1977 71.3459 22.9237 76.2514Z" fill="white"/>
<path d="M57.0672 192.24C57.6977 193.983 58.4237 195.676 58.9205 197.494C59.0734 198.017 58.6148 198.814 58.4428 199.486C57.9461 199.187 57.1436 199.038 57.029 198.589C56.5513 196.697 56.3029 194.705 55.959 192.738C56.3411 192.563 56.7041 192.414 57.0672 192.24Z" fill="white"/>
<path d="M86.739 30.7822C87.3313 35.0652 86.9109 36.7584 84.9048 38.4268C84.045 34.9905 84.6373 32.2514 86.739 30.7822Z" fill="white"/>
<path d="M1.86752 187.01C-0.46349 188.305 -2.12577 187.932 -3.6543 185.84C-2.14487 183.649 0.338989 184.097 1.86752 187.01Z" fill="white"/>
<path d="M13.9245 91.9639C15.7778 93.7318 15.816 95.948 15.4912 98.2389C15.4339 98.6373 15.09 99.21 14.8034 99.2847C14.5359 99.3594 14.0391 98.961 13.9054 98.6124C13.1602 96.5207 12.7207 94.4041 13.9245 91.9639Z" fill="white"/>
<path d="M24.8342 82.875C22.4268 81.879 22.3503 79.7624 24.5094 75.2305C26.0952 77.7704 25.1017 80.3102 24.8342 82.875Z" fill="white"/>
<path d="M46.8447 147.493C45.6601 151.751 44.4946 152.473 41.5713 150.73C43.0616 148.887 44.4182 147.02 46.8447 147.493Z" fill="white"/>
<path d="M60.8495 124.559C63.2378 126.277 63.9448 128.867 62.8366 131.482C61.0214 130.112 60.1808 127.323 60.8495 124.559Z" fill="white"/>
<path d="M29.9358 69.2541C29.248 66.6395 30.4708 64.6474 33.2604 63.6514C33.7762 66.2411 32.8973 67.76 29.9358 69.2541Z" fill="white"/>
<path d="M62.2256 199.237C64.7286 199.536 66.1998 201.403 66.4672 204.416C64.3273 204.615 63.0281 203.096 62.2256 199.237Z" fill="white"/>
<path d="M-1.41895 39.1489C1.10313 39.2236 2.4597 41.8133 1.92471 45.2994C-0.272548 44.2536 -0.845747 41.8631 -1.41895 39.1489Z" fill="white"/>
<path d="M77.4346 169.306C78.1415 165.82 79.5936 164.699 81.9246 164.351C81.8673 165.347 82.0775 166.816 81.7336 167.065C80.5489 167.961 79.1542 168.459 77.4346 169.306Z" fill="white"/>
<path d="M43.5781 201.802C46.2531 204.889 45.6607 206.657 41.3809 208.898C42.1833 206.309 42.833 204.242 43.5781 201.802Z" fill="white"/>
<path d="M18.7576 17.3359C19.9804 19.7015 19.7129 21.594 18.7193 23.2872C18.4327 23.7604 17.7449 23.8102 17.2481 24.0592C17.1144 23.4615 16.7323 22.7145 16.8851 22.2663C17.401 20.573 18.1079 18.9794 18.7576 17.3359Z" fill="white"/>
<path d="M63.2769 37.2568C62.054 38.9003 61.156 40.2947 60.1052 41.4651C59.7804 41.8386 59.0925 41.6643 58.5575 41.7639C58.5766 40.9919 58.3856 39.9959 58.6722 39.4481C59.6466 37.7299 60.965 36.6841 63.2769 37.2568Z" fill="white"/>
<path d="M102.139 74.11C102.712 71.7693 103.152 69.329 105.254 67.9844C105.922 71.3958 104.623 73.3381 102.98 75.106C102.655 74.7325 102.388 74.3839 102.12 74.0602L102.139 74.11Z" fill="white"/>
<path d="M-4.11235 192.563C-2.85131 193.211 -1.53295 193.759 -0.348337 194.58C-0.0235243 194.805 -0.0426311 195.875 0.110222 196.573C-0.367444 196.697 -0.978857 197.12 -1.30367 196.871C-2.48828 196.025 -3.55825 194.979 -4.68555 193.983C-4.47537 193.51 -4.28431 193.037 -4.11235 192.563Z" fill="white"/>
<path d="M23.7835 83.9707C24.1657 85.664 24.6624 87.3323 24.8535 89.0754C24.9299 89.7228 24.2994 90.5197 23.9937 91.2418C23.5352 90.5446 22.7327 89.8722 22.6754 89.1252C22.5798 87.5066 22.8855 85.8383 23.0384 84.1699C23.2868 84.0952 23.5352 84.0454 23.7835 83.9707Z" fill="white"/>
<path d="M0.950241 161.462C-0.253477 163.205 -1.43809 164.948 -2.87109 167.04C-3.63535 163.255 -2.12593 160.814 0.37704 160.814C0.568106 161.014 0.759175 161.238 0.950241 161.462Z" fill="white"/>
<path d="M25.5982 66.4903C23.7067 66.1417 21.8151 65.818 19.5605 65.4196C22.0253 62.4813 23.8595 62.7054 25.6938 65.6437C25.6556 65.9425 25.6365 66.2164 25.5982 66.4903Z" fill="white"/>
<path d="M75.5628 112.158C72.5821 109.071 72.7541 107.552 76.0786 105.51C75.8876 107.975 75.7156 110.067 75.5628 112.158Z" fill="white"/>
<path d="M56.0928 62.3817C57.6404 60.0908 58.997 59.8916 61.4235 61.5848C60.2007 63.9255 58.2136 64.2741 56.0928 62.3817Z" fill="white"/>
<path d="M75.9249 55.6332C74.7212 57.5506 73.1353 57.0526 71.5877 56.6293C71.282 56.5546 70.8234 55.9569 70.8616 55.683C70.9189 55.2099 71.3011 54.438 71.5495 54.438C73.0016 54.3633 74.4537 54.4629 75.9058 54.5127C75.9058 54.8613 75.9058 55.2348 75.9249 55.6332Z" fill="white"/>
<path d="M109.553 127.945C109.687 130.635 108.215 132.726 105.712 133.623C105.617 131.033 107.088 128.767 109.553 127.945Z" fill="white"/>
<path d="M43.6733 159.122C42.7561 158.101 41.7626 157.179 40.9983 155.984C40.7308 155.586 41.0365 154.54 41.0748 153.793C41.7244 153.868 42.7561 153.619 42.9854 154.042C43.635 155.337 43.979 156.93 44.4375 158.399C44.17 158.624 43.9216 158.873 43.6733 159.122Z" fill="white"/>
<path d="M45.163 183.5C47.7233 184.097 48.2583 186.562 48.7933 189.052C46.3285 188.928 44.8573 186.687 45.163 183.5Z" fill="white"/>
<path d="M30.2796 196.747C28.4263 197.568 27.2035 196.498 26.1335 195.153C25.866 194.829 25.6749 193.983 25.8278 193.659C25.9997 193.286 26.6112 192.937 26.9551 193.012C28.4645 193.435 29.9166 194.107 30.2796 196.747Z" fill="white"/>
<path d="M85.8604 178.121C87.1978 175.755 89.2614 174.859 90.6944 175.755C91.0001 175.955 91.344 176.602 91.3249 177.025C91.3058 177.424 90.8472 178.071 90.5415 178.071C89.1085 178.171 87.6564 178.121 85.8604 178.121Z" fill="white"/>
<path d="M18.4137 61.5598C18.2608 58.4721 19.4263 56.9531 22.0248 56.6045C21.7382 59.5926 20.5918 61.2112 18.4137 61.5598Z" fill="white"/>
<path d="M-1.87695 63.4521C0.32031 61.8087 2.07812 62.7798 3.22452 66.0418C1.19921 66.4153 -0.463062 65.7679 -1.87695 63.4521Z" fill="white"/>
<path d="M14.6886 121.197C12.4913 123.189 11.0392 121.82 9.68262 119.828C11.0583 118.085 12.9881 118.608 14.6886 121.197Z" fill="white"/>
<path d="M111.329 115.844C108.826 115.918 107.317 114.375 106.094 112.009C108.024 111.013 110.278 112.656 111.329 115.844Z" fill="white"/>
<path d="M-1.80078 13.3019C-1.76257 10.264 -0.195823 8.91934 1.33271 7.32568C1.48556 11.4094 0.511125 13.3517 -1.80078 13.3019Z" fill="white"/>
<path d="M50.6662 196.075C52.8252 198.191 53.0736 200.906 51.3731 202.947C50.3796 200.806 49.8828 198.714 50.6662 196.075Z" fill="white"/>
<path d="M22.1398 11.7579C21.4328 14.2978 20.2291 14.8954 17.2676 14.2729C18.0509 11.8824 19.6941 11.0358 22.1398 11.7579Z" fill="white"/>
<path d="M4.54275 18.332C2.53655 20.1497 1.50479 20.0252 -0.0810547 17.9087C1.2182 15.9664 2.57477 16.066 4.54275 18.332Z" fill="white"/>
<path d="M47.5709 65.9923C46.3098 63.5022 46.4054 61.9833 47.9339 59.8169C49.3287 61.6596 49.1949 63.9255 47.5709 65.9923Z" fill="white"/>
<path d="M12.6628 55.0605C11.6119 58.223 10.9623 58.8206 8.65039 58.8206C8.80324 56.3803 10.007 55.2349 12.6628 55.0605Z" fill="white"/>
<path d="M81.0841 174.934C81.963 175.581 82.9375 176.104 83.6444 176.975C83.9883 177.399 83.7973 178.544 83.8546 179.341C83.2241 179.217 82.326 179.366 82.0012 178.868C81.3707 177.922 81.065 176.627 80.6064 175.457C80.7784 175.282 80.9313 175.108 81.0841 174.934Z" fill="white"/>
<path d="M21.9483 191.692C20.4006 191.567 18.8339 191.443 17.248 191.318C17.9932 188.206 18.9294 188.131 21.9292 190.87C21.9292 191.144 21.9483 191.418 21.9483 191.692Z" fill="white"/>
<path d="M5.65115 25.7774C4.21816 23.7605 4.31369 22.1917 5.91865 19.0044C6.87398 21.2953 6.87397 23.4119 5.65115 25.7774Z" fill="white"/>
<path d="M19.7519 180.262C21.1084 180.984 22.4841 181.682 24.2419 182.603C21.8727 184.371 20.5352 183.723 19.4844 181.059C19.5799 180.81 19.6754 180.536 19.7519 180.262Z" fill="white"/>
<path d="M19.9619 159.147C20.9746 157.279 23.5731 156.482 24.2227 157.478C24.3947 157.727 24.0316 159.072 23.8597 159.072C22.6751 159.221 21.4713 159.147 19.9619 159.147Z" fill="white"/>
<path d="M14.0391 168.086C16.1981 167.637 16.9815 169.306 17.8413 170.999C15.9688 171.746 15.1664 171.173 14.0391 168.086Z" fill="white"/>
</g>
<defs>
<clipPath id="clip0">
<rect width="165.33" height="216.015" fill="white" transform="translate(-54 0.154297)"/>
</clipPath>
</defs>
</svg>
