<svg width="258" height="18" viewBox="0 0 258 18" fill="none" xmlns="http://www.w3.org/2000/svg">
<path d="M0 2C10.58 2 10.58 15.54 21.15 15.54C31.73 15.54 31.73 2 42.3 2C52.88 2 52.88 15.54 63.45 15.54C74.03 15.54 74.03 2 84.6 2C95.18 2 95.18 15.54 105.75 15.54C116.33 15.54 116.33 2 126.9 2C137.48 2 137.48 15.54 148.06 15.54C158.64 15.54 158.64 2 169.22 2" stroke="#FEC344" stroke-width="2.9781" stroke-miterlimit="10"/>
<path d="M169.23 2C179.81 2 179.81 15.54 190.38 15.54C200.96 15.54 200.96 2 211.53 2C222.11 2 222.11 15.54 232.68 15.54C243.26 15.54 243.26 2 253.83 2C264.41 2 243.93 2 254.5 2M254.5 2C265.08 2 243.93 2 254.5 2ZM254.5 2C265.08 2 243.92 2 254.5 2Z" stroke="#FEC344" stroke-width="2.9781" stroke-miterlimit="10"/>
</svg>
