<svg width="1440" height="432" viewBox="0 0 1440 432" fill="none" xmlns="http://www.w3.org/2000/svg">
<path fill-rule="evenodd" clip-rule="evenodd" d="M151.744 1.33549C140.476 2.89998 130.969 8.47176 123.905 17.6519C116.022 27.8978 110.617 43.1089 109.204 59.0273L108.994 61.3964L99.4877 61.5308C84.9824 61.7354 84.4346 61.9878 80.0467 70.49C72.1845 85.7243 65.186 102.422 62.9146 111.363C60.916 119.232 60.5169 122.482 60.5365 130.747C60.5666 143.784 60.8878 151.668 61.4922 154.223C62.6274 159.021 65.4831 164.409 69.4458 169.231C71.2443 171.419 71.9828 172.003 73.8403 172.706C75.0679 173.171 76.9619 173.679 78.0488 173.837L80.0248 174.123L79.0108 174.677C76.8712 175.848 73.638 178.853 72.8594 180.396C71.0609 183.958 70.4863 188.732 70.9907 195.918C71.2844 200.105 71.2586 200.985 70.8049 202.229C70.5148 203.024 70.2727 203.936 70.2674 204.255C70.2601 204.671 70.1694 204.641 69.9482 204.149C69.3689 202.86 68.2476 195.369 68.0204 191.268C67.8453 188.109 67.6837 187.176 67.3118 187.176C66.5325 187.176 66.2338 190.172 66.41 196.221C66.6514 204.503 68.5066 215.602 71.8977 229.048C72.875 232.923 72.8866 233.069 72.4084 235.458C71.806 238.466 70.6261 241.987 67.8638 249.015C65.1387 255.949 63.7908 260.524 62.7328 266.434C62.0005 270.522 61.881 272.206 61.8618 278.71C61.8495 282.935 62.034 287.952 62.2817 290.125C62.7579 294.303 63.8445 301.384 64.3306 303.478C68.0234 319.384 71.3205 327.593 76.9089 334.798C82.7447 342.321 90.5072 347.242 97.5984 347.913C100.694 348.205 102.59 347.661 104.053 346.06C105.399 344.587 105.99 343.017 106.473 339.634L106.871 336.841L109.816 344.282C117.398 363.437 124.9 379.791 127.171 382.115C128.261 383.23 129.509 383.168 130.689 381.94L131.657 380.933L133.408 383.484C136.852 388.505 137.62 394.622 136.045 404.485C135.017 410.92 134.983 411.813 135.765 411.809C136.889 411.804 139.395 405.521 140.473 400.007C142.237 390.979 141.324 383.873 137.88 379.826C136.359 378.038 134.566 377.41 133.074 378.143C131.875 378.731 131.779 378.639 132.064 377.165C132.624 374.259 138.676 367.841 143.894 364.618C148.373 361.851 152.692 361.466 155.778 363.559C159.659 366.19 165.033 375.012 167.288 382.455C167.915 384.522 167.989 385.867 168.133 397.728C168.219 404.882 168.316 411.026 168.348 411.382C168.38 411.737 168.383 413.03 168.354 414.256C168.28 417.449 167.348 418.74 164.26 419.928C157.725 422.444 149.69 422.696 142.471 420.612C131.717 417.506 128.86 417.417 39.9483 417.409C-122.337 417.393 -111.863 417.348 -111.863 418.058C-111.863 418.631 -99.2669 418.705 -0.509056 418.712C60.7358 418.716 113.825 418.818 117.468 418.939C128.125 419.292 134.669 419.957 138.994 421.127C150.313 424.188 156.723 424.213 164.557 421.225C168.047 419.894 168.899 418.787 169.392 414.937L169.792 411.816L170.727 414.143C171.91 417.087 173.509 419.521 175.509 421.424C177.77 423.575 185.571 428.774 188.669 430.196L191.318 431.411L201.036 431.326C217.292 431.182 217.515 430.953 213.362 418.707C212.098 414.983 210.544 409.991 209.909 407.615C208.611 402.766 206.559 392.49 206.821 392.15C206.915 392.028 207.293 392.137 207.661 392.394C208.647 393.08 210.567 392.96 211.172 392.172C212.868 389.966 213.415 387.312 219.144 353.445C220.707 344.206 222.055 336.338 222.139 335.962C222.273 335.363 222.489 335.402 223.86 336.271C224.936 336.952 226.503 337.403 228.857 337.709C231.127 338.004 263.697 338.154 325.143 338.154C407.462 338.154 418 338.081 418 337.508C418 336.935 407.573 336.86 326.185 336.848C273.124 336.841 232.692 336.667 230.395 336.437C225.652 335.961 224.104 335.438 223.42 334.081C222.638 332.528 223.354 330.876 227.071 325.665C228.844 323.179 231.087 319.593 232.055 317.696C235.83 310.296 240.457 296.586 244.265 281.51C247.595 268.327 249.43 257.802 250.121 247.912C251.417 229.352 247.347 208.217 241.219 201.686C240.197 200.597 239.381 199.155 238.622 197.095C237.307 193.527 237.223 192.305 238.26 191.888C239.735 191.294 244.84 187.819 246.705 186.138C254.646 178.987 257.168 170.814 257.155 152.285C257.149 143.275 256.817 138.665 255.759 132.901C255.411 131.006 254.799 127.517 254.398 125.148C253.363 119.032 252.319 115.131 250.129 109.189C244.146 92.9644 234.241 73.3454 228.023 65.4045C225.037 61.5911 222.367 59.3637 219.301 58.1292C216.805 57.1233 202.131 55.6497 199.961 56.1865C197.187 56.8731 196.603 58.6374 195.104 70.8729C194.727 73.9528 194.054 78.2534 193.608 80.4296C192.06 88.0009 188.583 98.0029 184.977 105.259C183.29 108.655 180.177 112.903 179.97 112.094C179.894 111.799 181.4 108.121 183.316 103.922C191.214 86.6194 194.393 75.7154 195.773 61.1922C196.217 56.5237 196.218 47.7696 195.776 43.0783C194.779 32.5003 191.352 22.018 186.499 14.7026C181.228 6.75435 175.216 2.74578 166.481 1.3536C163.14 0.820756 155.516 0.811701 151.744 1.33549ZM169.075 3.21357C175.357 4.70483 180.29 8.20727 184.695 14.3041C192.717 25.4076 196.318 41.8132 194.776 60.2286C193.589 74.399 190.131 86.4872 182.629 102.691C180.86 106.513 179.158 110.61 178.848 111.794L178.284 113.948L172.879 114.059C169.433 114.129 164.893 114.596 160.354 115.347C155.018 116.23 151.782 116.526 147.439 116.529C141.933 116.533 141.497 116.47 138.711 115.282C133.388 113.013 128.246 107.619 123.349 99.1659C118.513 90.818 116.12 84.2404 113.961 73.3596C112.532 66.1588 112.125 64.8239 110.855 63.1715C110.068 62.148 110.05 61.9947 110.337 58.7387C111.077 50.3425 112.98 42.2047 116.032 34.3905C123.549 15.1411 134.603 5.48665 152.406 2.62345C155.973 2.04969 165.609 2.39084 169.075 3.21357ZM209.902 57.9478C217.892 58.6805 220.019 59.3383 223.293 62.0912C225.714 64.1265 228.908 68.1708 231.644 72.6635C236.191 80.1332 243.173 94.5591 247.487 105.399L249.861 111.363L246.586 107.239C238.357 96.8778 232.632 91.8992 226.952 90.1641C224.927 89.546 222.975 89.3952 216.983 89.3952C210.015 89.3952 209.382 89.4615 207.214 90.4165C204.522 91.6028 202.357 93.1104 198.438 96.5293C195.915 98.7304 193.687 100.966 185.992 109.023C183.492 111.64 181.198 113.733 180.829 113.733C180.7 113.733 181.391 112.753 182.364 111.556C184.692 108.693 186.76 104.615 189.651 97.1948C193.31 87.7993 195.038 80.7169 196.284 70.0114C197.372 60.6667 197.928 58.6 199.597 57.7113C200.562 57.1979 202.114 57.2336 209.902 57.9478ZM108.125 62.8691C108.896 63.2503 108.932 63.4567 109.11 68.5766C109.331 74.8935 109.947 79.0382 111.669 85.7859C113.156 91.6144 114.678 95.7083 117.253 100.81C119.396 105.056 124.328 111.882 126.689 113.868L128.32 115.24L119.698 115.604L111.077 115.967L108.146 114.377C102.98 111.576 102.529 111.443 97.9296 111.358C95.5617 111.314 92.7303 111.031 91.6374 110.729C87.632 109.622 82.0234 111.017 76.7877 114.423C69.7336 119.011 65.1251 125.846 62.4655 135.663L61.7171 138.425L61.4816 136.792C61.1187 134.276 61.5339 123.826 62.1499 119.979C63.9965 108.444 67.6817 98.7735 80.4236 72.0265C82.9669 66.6869 84.8128 64.5249 87.6635 63.5467C88.2099 63.3593 91.6374 63.0746 95.2802 62.9139C105.731 62.453 107.273 62.4479 108.125 62.8691ZM111.449 66.8945C111.737 67.8981 112.431 71.1012 112.99 74.0122C115.106 85.0231 118.009 92.7348 123.262 101.296C129.117 110.838 134.459 115.745 140.815 117.42C144.346 118.35 152.538 118.063 159.692 116.757C164.405 115.897 175.588 115.072 175.588 115.585C175.588 115.998 169.772 118.302 166.315 119.259C161.303 120.647 156.958 121.189 150.916 121.182C138.395 121.168 130.274 117.304 123.083 107.941C115.693 98.3199 110.824 83.5499 110.127 68.6399C109.932 64.4844 109.964 64.0399 110.416 64.5254C110.696 64.8247 111.16 65.8908 111.449 66.8945ZM227.3 91.701C231.593 93.1716 234.643 95.5532 240.827 102.264C247.435 109.433 250.401 114.174 251.689 119.622C253.006 125.194 253.026 124.927 251.431 123.053C250.653 122.138 249.034 120.793 247.835 120.062C242.914 117.067 234.262 118.335 224.815 123.434C224.234 123.748 224.229 123.697 224.717 122.468C225.071 121.579 225.568 121.084 226.295 120.894C228.538 120.311 230.892 115.36 230.892 111.226C230.892 110.266 231.057 108.935 231.259 108.269C231.744 106.668 231.651 102.656 231.071 100.15C229.567 93.6484 226.104 91.9926 218.97 94.3622C216.175 95.2905 215.103 95.4085 209.366 95.4167C201.459 95.4279 201.442 95.4356 196.123 101.921C191.579 107.462 189.767 109.257 186.35 111.608C183.071 113.864 183.282 113.584 190.665 105.908C199.951 96.2514 204.698 92.5009 209.39 91.1109C212.619 90.1546 223.869 90.5251 227.3 91.701ZM227.084 95.3232C228.966 96.5323 230.562 100.395 230.56 103.734L230.559 105.333L229.91 103.95C229.103 102.227 227.273 100.628 224.835 99.5131C221.078 97.7957 220.042 98.8989 223.027 101.439C224.709 102.871 225.374 103.588 228.512 107.349C229.981 109.112 229.982 109.114 229.812 111.562C229.718 112.908 229.333 114.796 228.956 115.756C228.315 117.392 226.337 120.012 226.037 119.622C225.963 119.525 226.052 118.597 226.236 117.559C227.036 113.047 226.27 107.873 224.332 104.701C223.312 103.031 220.924 101.241 219.718 101.241C218.394 101.241 218.506 102.378 220.076 104.886C221.935 107.854 222.787 110.788 223.084 115.24C223.211 117.136 223.508 119.195 223.745 119.817C224.232 121.093 224.025 121.853 222.672 123.748C221.806 124.961 220.507 125.511 221.247 124.351C221.451 124.031 221.763 122.771 221.941 121.551C222.765 115.902 220.075 108.607 214.73 101.995C213.356 100.295 212.459 99.5178 211.875 99.5178C210.473 99.5178 210.795 101.211 212.873 104.758C215.359 109.003 216.356 111.679 217.912 118.282C218.634 121.347 219.324 124.165 219.444 124.542C219.702 125.349 218.093 127.099 215.909 128.388C214.491 129.225 212.693 129.518 212.661 128.917C212.652 128.739 212.614 126.849 212.578 124.717C212.52 121.263 212.401 120.582 211.485 118.471C210.305 115.748 208.737 114.163 207.222 114.163C205.964 114.163 205.298 115.03 203.579 118.902C201.806 122.897 199.596 126.368 195.897 130.968C193.302 134.195 192.134 135.306 189.925 136.653C188.414 137.573 187.178 138.583 187.178 138.896C187.178 139.325 186.422 139.474 184.115 139.498C180.004 139.541 178.111 140.279 171.287 144.499C168.097 146.473 163.773 148.967 161.679 150.041C153.472 154.252 135.513 161.633 125.35 164.971C120.571 166.541 120.179 166.604 117.576 166.225C112.088 165.427 104.833 166.939 96.6049 170.594C92.6614 172.347 92.5836 172.362 86.4928 172.616C77.6815 172.983 73.7877 172.103 70.7095 169.049C69.7581 168.105 69.615 167.711 69.615 166.034C69.615 164.973 69.2219 161.445 68.7414 158.194C67.5088 149.856 67.4366 140.41 68.5698 135.716C71.7858 122.395 77.7004 116.43 90.5562 113.543C93.6797 112.841 93.842 112.873 96.1764 114.654C98.9151 116.741 100.744 117.193 108.196 117.618C112.021 117.837 116.566 118.139 118.296 118.289C122.495 118.653 128.569 117.907 129.1 116.963C129.456 116.33 129.678 116.385 131.429 117.531C136.875 121.095 142.508 122.529 151.081 122.535C161.08 122.541 169.699 120.557 176.084 116.779C178.018 115.636 178.653 115.452 179.91 115.676C183.265 116.272 189.686 111.675 195.428 104.568C198.346 100.956 201.285 97.8547 202.372 97.2409C202.921 96.9312 205.677 96.7438 209.863 96.7317C215.603 96.7149 216.84 96.5874 219.136 95.775C223.156 94.3523 225.376 94.2265 227.084 95.3232ZM227.48 102.658C228.484 103.546 230.369 107.134 229.65 106.789C229.463 106.698 228.253 105.323 226.959 103.731C224.62 100.85 224.865 100.344 227.48 102.658ZM216.201 105.952C219.058 110.33 220.723 114.706 220.899 118.295C221.037 121.114 220.807 123.209 220.358 123.209C220.218 123.209 219.534 120.707 218.839 117.649C217.349 111.102 216.289 108.209 214.018 104.496C213.099 102.994 212.347 101.642 212.347 101.493C212.347 100.775 214.289 103.023 216.201 105.952ZM221.829 103.79C224.718 106.081 226.296 112.362 225.234 117.338C225.038 118.255 224.765 118.836 224.625 118.63C224.487 118.424 224.212 116.38 224.016 114.088C223.619 109.446 222.901 106.927 221.302 104.557C220.107 102.788 220.269 102.552 221.829 103.79ZM90.1472 111.951C90.1472 112.156 89.5137 112.437 88.7397 112.577C86.3732 113.004 81.4988 114.996 79.0532 116.537C73.585 119.982 69.5763 126.494 67.5621 135.206C67.1018 137.198 66.8498 139.842 66.7349 143.885C66.5911 148.928 66.6895 150.586 67.4754 156.377C67.9738 160.049 68.449 163.732 68.5314 164.561L68.6815 166.069L68.084 165.003C66.415 162.026 63.974 153.654 62.6655 146.419L61.9942 142.707L62.8258 138.974C64.9585 129.402 68.5523 122.738 74.1841 117.912C77.6947 114.904 80.9286 113.292 86.3388 111.855C87.6085 111.517 90.1472 111.581 90.1472 111.951ZM101.445 112.873C103.469 113.363 107.696 115.492 107.698 116.021C107.699 116.357 104.028 116.126 101.241 115.615C99.7175 115.336 96.1082 113.365 96.1082 112.812C96.1082 112.307 99.2565 112.343 101.445 112.873ZM209.173 116.774C211.035 118.9 212.135 123.78 211.474 126.987C211.32 127.733 211.17 127.855 210.841 127.499C210.511 127.143 209.788 127.776 207.776 130.183C204.767 133.783 201.336 136.331 196.948 138.224C193.917 139.531 189.874 140.193 188.669 139.579C188.04 139.259 188.049 139.22 188.834 138.815C189.29 138.58 190.184 138.101 190.821 137.75C194.524 135.711 201.658 126.26 204.56 119.548C206.233 115.676 206.376 115.456 207.21 115.456C207.655 115.456 208.538 116.049 209.173 116.774ZM247.453 121.373C249.65 122.683 252.087 125.414 252.88 127.454C253.408 128.813 253.967 133.548 254.277 139.286C254.651 146.193 253.384 150.363 249.028 156.576L247.226 159.145L245.931 157.828C242.762 154.607 237.995 151.994 232.548 150.492C229.055 149.529 217.646 149.407 211.353 150.265C205.178 151.106 198.285 152.474 198.178 152.88C198.126 153.076 197.747 153.153 197.337 153.051C196.063 152.734 183.212 156.176 167.971 160.915C150.379 166.385 141.029 168.61 133.695 169.071L130.053 169.3L134.026 168.271C142.235 166.145 148.524 163.926 185.523 150.104C204.057 143.18 211.235 140.675 213.27 140.422C216.008 140.08 223.469 137.815 225.51 136.705C226.689 136.065 226.892 135.396 226.038 134.969C225.383 134.642 223.024 135.228 216.929 137.23C214.44 138.047 212.317 138.716 212.21 138.716C211.851 138.716 212.011 137.392 212.526 136.097C213.367 133.984 218.108 129.479 222.594 126.533C229.719 121.854 236.151 119.667 241.988 119.937C244.813 120.068 245.62 120.28 247.453 121.373ZM213.299 130.628C213.869 130.607 214.668 130.452 215.075 130.284C215.542 130.091 215.11 130.817 213.903 132.251C211.77 134.788 211.317 135.671 211.04 137.84C210.886 139.042 210.656 139.4 209.859 139.68C208.342 140.212 183.45 149.445 173.766 153.068C145.873 163.505 135.112 167.043 129.059 167.766C126.952 168.018 123.086 167.464 123.926 167.03C124.199 166.889 127.999 165.484 132.371 163.907C141.021 160.786 155.532 154.653 161.844 151.45C164.03 150.34 168.426 147.805 171.614 145.816C178.332 141.624 180.266 140.87 184.303 140.87C186.949 140.87 187.347 140.978 188.217 141.93C189.441 143.27 190.945 143.637 193.926 143.32C201.105 142.56 208.122 137.354 210.383 131.11C211.17 128.938 211.2 128.908 211.725 129.777C212.076 130.359 212.62 130.653 213.299 130.628ZM209.333 131.044C208.666 132.665 206.058 136.039 204.406 137.418C200.313 140.834 192.692 143.137 190.004 141.77C189.552 141.54 190.059 141.346 191.66 141.135C192.929 140.967 194.861 140.539 195.954 140.182C199.038 139.177 204.943 135.224 207.379 132.535C208.563 131.228 209.574 130.146 209.626 130.13C209.678 130.114 209.546 130.525 209.333 131.044ZM256.123 151.723C256.092 173.084 252.883 181.075 241.324 188.574C237.786 190.869 237.124 191.129 237.401 190.111C237.819 188.577 239.036 187.313 242.632 184.678C252.254 177.63 255.729 168.076 255.729 148.671C255.729 145.249 255.821 142.568 255.932 142.713C256.044 142.858 256.129 146.913 256.123 151.723ZM254.252 159.013C253.971 161.472 253.421 164.892 253.029 166.614L252.318 169.743L251.682 167.292C251.332 165.944 250.359 163.704 249.52 162.315L247.994 159.789L249.835 157.329C251.731 154.796 253.831 151.053 254.302 149.366C254.814 147.535 254.779 154.406 254.252 159.013ZM64.0958 157.579C64.9449 160.529 64.1478 159.261 63.1835 156.127C62.7023 154.564 62.2337 152.382 62.1423 151.277C61.9913 149.456 62.0496 149.569 62.7698 152.5C63.2066 154.277 63.8031 156.563 64.0958 157.579ZM233.045 152.056C237.971 153.516 240.636 154.972 244.72 158.434L246.46 159.91L245.46 161.551C243.485 164.796 243.004 167.857 243.989 170.923C245.024 174.146 247.175 175.839 249.116 174.959C252.187 173.566 246.997 179.931 242.315 183.299C238.21 186.252 236.644 188.042 236.344 190.128C236.138 191.553 236.059 191.614 232.767 192.919C223.527 196.582 216.351 197.63 196.948 198.149C175.132 198.733 170.322 198.965 164.99 199.695C162.349 200.056 159.965 200.364 159.692 200.377C158.838 200.421 153.065 201.6 149.26 202.508C143.831 203.804 135.054 206.737 125.665 210.394C114.141 214.882 111.768 215.467 105.731 215.305C101.046 215.179 100.835 215.212 99.1956 216.316C98.2637 216.943 96.4052 218.527 95.066 219.836C89.6428 225.136 86.1878 225.884 84.0922 222.212C82.8225 219.987 84.0968 217.767 89.4263 212.92C92.4478 210.173 92.5912 210.095 96.1698 209.29C101.138 208.17 104.056 206.179 104.056 203.908C104.056 201.199 100.263 202.466 94.2867 207.169C92.8333 208.313 91.5904 208.887 89.6581 209.306C86.5004 209.991 83.1894 211.489 80.357 213.514C76.3615 216.371 74.9236 216.294 74.3182 213.193C74.0642 211.89 74.0629 211.1 74.3139 210.467C74.859 209.092 75.6323 208.067 76.1244 208.067C76.3694 208.067 79.1406 206.593 82.2824 204.791C85.4241 202.989 89.9319 200.657 92.2998 199.608C95.5405 198.172 96.8301 197.383 97.5156 196.416C98.0167 195.709 98.4263 194.94 98.4263 194.707C98.4263 193.729 97.0609 192.56 95.9181 192.56C91.9405 192.56 79.1678 201.057 75.6011 206.076C75.1594 206.697 74.4649 207.206 74.0579 207.206C73.3999 207.206 73.2744 206.873 72.929 204.208C72.5511 201.295 72.5637 201.172 73.3757 199.793C74.547 197.804 74.4255 197.897 86.2239 189.935C89.0749 188.011 91.9434 185.862 92.5988 185.16C94.562 183.055 93.9304 181.305 91.5308 182.2C89.0139 183.139 81.681 188.853 76.987 193.532C75.818 194.697 74.7971 195.568 74.7186 195.465C74.1944 194.783 77.1208 187.562 79.5241 183.608C81.6008 180.191 82.8132 179.189 85.1668 178.947C88.9941 178.552 94.1212 175.998 94.1212 174.486C94.1212 173.837 94.4232 173.61 95.5286 173.43C96.3026 173.305 99.3205 172.793 102.235 172.294C110.841 170.82 114.509 170.502 120.2 170.739C127.138 171.029 136.629 170.41 142.569 169.281C148.142 168.222 152.662 166.989 166.812 162.67C184.915 157.145 195.095 154.4 202.081 153.162C204.175 152.791 206.783 152.275 207.876 152.017C214.002 150.569 228.104 150.591 233.045 152.056ZM250.13 165.944C252.256 171.321 249.014 176.157 245.953 172.176C244.019 169.66 244.109 165.931 246.183 162.665L247.251 160.984L248.375 162.665C248.993 163.589 249.783 165.065 250.13 165.944ZM113.825 168.473C112.186 168.923 108.759 169.587 106.209 169.948C103.659 170.31 101.088 170.721 100.496 170.862C98.4607 171.347 99.4234 170.685 102.152 169.724C106.326 168.253 109.51 167.665 113.329 167.66L116.806 167.656L113.825 168.473ZM123.264 168.629L126.079 169.214L121.442 169.215C117.09 169.215 116.897 169.181 118.296 168.653C120.19 167.94 119.954 167.941 123.264 168.629ZM92.2832 174.846C91.7507 175.485 88.4079 176.936 86.8356 177.21L85.3453 177.47L86.8356 176.543C87.6552 176.032 89.1454 175.377 90.1472 175.086C92.5034 174.401 92.6694 174.383 92.2832 174.846ZM80.9408 175.416C80.3924 176.129 80.4438 177.057 81.0822 177.975C81.5869 178.7 81.519 178.887 80.006 180.936C76.845 185.215 73.7883 192.285 73.743 195.421C73.7261 196.599 73.4856 197.594 73.076 198.183L72.4355 199.104L72.2173 198.093C72.0974 197.537 71.9845 194.84 71.9663 192.1C71.9047 182.822 73.1028 180.163 79.1357 176.188C81.2773 174.777 81.5074 174.679 80.9408 175.416ZM84.6032 176.307C83.003 177.358 82.4473 177.548 82.1416 177.15C81.5965 176.441 81.9052 176.16 83.9279 175.523C86.6713 174.659 86.8312 174.845 84.6032 176.307ZM91.456 184.542C89.8531 185.959 80.2596 192.346 80.8746 191.587C81.6737 190.601 87.8721 185.787 89.8359 184.628C92.1451 183.264 92.9499 183.222 91.456 184.542ZM237.073 195.833C237.643 198.076 237.692 198.605 237.309 198.414C235.607 197.565 232.926 196.788 230.682 196.495C229.249 196.308 228.301 196.05 228.574 195.921C229.598 195.44 235.707 193.086 236.025 193.049C236.207 193.029 236.679 194.281 237.073 195.833ZM96.5778 194.114C96.8659 194.258 97.1017 194.604 97.1017 194.882C97.1017 195.689 95.4501 196.75 91.2821 198.619C89.1471 199.577 85.2334 201.605 82.5844 203.127C79.9357 204.649 77.71 205.817 77.6385 205.724C77.3013 205.286 82.8414 200.79 87.0011 198.126C92.3259 194.716 95.2932 193.472 96.5778 194.114ZM232.724 198.199C235.775 198.932 238.685 200.605 239.132 201.882C241.299 208.069 239.681 224.722 232.838 266.649C230.823 279.001 228.346 293.821 227.908 296.156C227.729 297.103 226.159 306.214 224.417 316.401C219.228 346.749 218.977 348.205 218.638 350C218.459 350.947 217.199 358.313 215.839 366.368C212.202 387.914 211.381 391.216 209.592 391.489C208.447 391.663 206.51 390.13 206.279 388.867C206.182 388.338 206.003 385.87 205.881 383.383C205.53 376.185 204.539 374.285 199.574 371.29C195.868 369.054 191.185 367.209 185.454 365.726C180.176 364.361 178.633 363.558 177.031 361.345C174.424 357.744 173.693 353.489 174.428 346.199C175.251 338.028 175.715 335.686 176.714 334.665C177.799 333.554 178.405 332.052 179.649 327.385C180.857 322.854 181.486 318.805 183.366 303.478C185.568 285.519 186.037 281.423 187.488 267.511C188.895 254.011 189.85 247.533 192.472 233.689C196.146 214.291 199.298 206.039 204.374 202.519C206.538 201.019 211.666 199.338 216.953 198.396C220.923 197.689 230.125 197.574 232.724 198.199ZM69.6018 207.852C71.607 216.537 72.6336 222.212 72.7962 225.508L72.9452 228.528L71.7792 223.789C70.3684 218.058 68.8311 210.076 68.1387 204.888C67.5707 200.632 67.4743 197.571 68.0016 200.529C68.1705 201.477 68.8904 204.772 69.6018 207.852ZM204.124 201.19C201.035 203.201 199.431 205.323 197.42 210.063C195.84 213.786 192.973 224.886 191.483 233.051C190.9 236.249 190.31 239.447 190.173 240.158C190.036 240.869 189.936 237.767 189.95 233.266C189.969 226.868 189.868 224.806 189.487 223.821C188.148 220.357 187.458 222.642 186.366 234.155C184.305 255.887 183.723 261.699 182.166 276.126C178.938 306.045 176.115 328.201 175.456 328.787C174.307 329.808 171.234 330.494 166.253 330.842C160.5 331.244 158.84 331.746 157.98 333.344C157.56 334.122 157.343 334.176 156.098 333.813C155.323 333.586 154.145 333.065 153.479 332.654C152.372 331.972 152.191 331.594 151.374 328.247C149.316 319.82 144.435 295.516 141.685 280.002C139.305 266.579 137.943 257.341 136.511 244.896C134.885 230.777 134.511 228.904 132.814 226.397C130.752 223.351 128.784 223.554 127.508 226.947C125.309 232.788 127.685 251.665 134.563 283.018C138.547 301.173 141.982 314.075 144.959 322.059C146.736 326.827 147.409 328.16 149.237 330.538C151.405 333.358 151.407 333.362 153.182 340.171C156.325 352.229 158.139 356.782 159.522 356.092C160.226 355.741 160.148 354.347 159.024 347.2C158.484 343.764 158.041 339.875 158.039 338.557L158.036 336.159L166.314 336.187C170.867 336.203 174.593 336.273 174.593 336.343C174.594 336.414 174.305 338.643 173.952 341.297C172.655 351.047 172.765 354.731 174.486 359.156C176.188 363.53 178.276 365.164 184.217 366.767C195.233 369.74 201.582 373.042 203.81 376.955C204.272 377.765 204.531 379.312 204.772 382.691C204.953 385.235 205.055 387.492 204.999 387.705C204.942 387.918 203.562 386.623 201.932 384.827C196.158 378.466 192.103 375.261 187.555 373.464C184.323 372.187 180.255 372.402 177.575 373.99C174.332 375.911 171.08 380.501 169.928 384.783C169.417 386.684 168.966 386.884 168.96 385.213C168.95 382.09 164.736 372.512 161.159 367.482C154.873 358.639 148.726 358.478 138.688 366.894C133.776 371.012 130.757 375.371 130.936 378.085C131.037 379.622 129.862 381.66 128.874 381.66C126.903 381.66 118.631 364.031 109.773 340.954C107.087 333.955 106.774 332.886 106.56 329.97C106.215 325.283 105.193 319.003 103.913 313.706C101.847 305.157 100.542 301.184 94.6176 285.387C85.6745 261.544 80.9017 245.559 76.6125 225.085L74.9885 217.334L76.6897 216.873C77.6252 216.62 79.7321 215.532 81.3713 214.455C84.4038 212.462 86.7398 211.344 88.8225 210.89C89.8366 210.669 89.9031 210.706 89.3534 211.183C87.1134 213.128 83.8415 216.824 83.2411 218.088C82.0108 220.677 82.5576 223.158 84.7462 224.917C87.3876 227.04 90.6201 225.914 95.4545 221.183C99.9821 216.754 100.218 216.66 107.137 216.536C113.908 216.416 114.255 216.326 126.575 211.521C135.18 208.165 139.519 206.643 144.293 205.303C146.478 204.69 148.788 204.009 149.426 203.789C150.063 203.569 151.479 203.263 152.572 203.11C153.665 202.956 155.006 202.664 155.552 202.46C156.099 202.257 157.44 201.979 158.533 201.843C159.625 201.707 162.904 201.286 165.818 200.908C170.448 200.306 179.442 199.971 202.864 199.527L206.794 199.452L204.124 201.19ZM244.361 209.508C248.023 218.961 249.947 233.892 249.126 246.501C248.905 249.883 248.508 254.297 248.243 256.311C245.837 274.56 237.228 305.249 231.28 316.783C228.918 321.361 223.606 329.052 223.606 327.893C223.606 327.625 224.639 321.44 225.901 314.15C234.603 263.892 238.72 237.605 240.527 220.774C240.989 216.468 241.125 206.529 240.753 204.19L240.513 202.683L241.866 204.621C242.61 205.687 243.733 207.887 244.361 209.508ZM71.9332 204.862C71.9332 205.487 71.7898 205.849 71.602 205.698C71.4198 205.551 71.2708 205.056 71.2708 204.596C71.2708 204.136 71.4198 203.76 71.602 203.76C71.7841 203.76 71.9332 204.256 71.9332 204.862ZM103.063 204.172C103.063 204.92 100.278 206.725 98.0905 207.396C95.0902 208.316 95.017 208.24 97.2672 206.542C99.9944 204.485 103.063 203.23 103.063 204.172ZM72.7293 211.348C72.7942 212.785 73.024 214.391 73.2406 214.917C73.4568 215.443 74.3715 219.46 75.2736 223.844C78.3697 238.895 83.1974 256.709 87.7496 269.88C88.6503 272.486 91.5497 280.433 94.193 287.541C96.8361 294.648 99.5996 302.402 100.334 304.771C102.776 312.646 104.748 321.677 105.177 326.954C105.369 329.311 105.358 329.292 103.023 323.078C95.4187 302.842 83.9183 267.836 77.4086 245.112C74.0791 233.488 73.8198 232.373 74.0606 230.705C74.4914 227.716 73.4161 219.658 71.4457 211.114C70.3615 206.413 70.3793 206.022 71.6099 207.518C72.4726 208.566 72.6276 209.097 72.7293 211.348ZM188.793 237.789C188.356 247.51 187.673 255.432 186.678 262.342C184.592 276.807 183.125 289.353 181.715 304.771C181.26 309.746 180.58 315.658 180.204 317.909C179.828 320.159 179.437 322.618 179.336 323.371C179.158 324.688 177.46 327.828 177.165 327.385C177.086 327.267 177.436 324.262 177.943 320.708C180.013 306.201 183.677 273.307 186.341 245.327C187.356 234.666 188.285 225.652 188.405 225.297C188.875 223.907 189.096 231.039 188.793 237.789ZM131.618 226.573C133.349 228.346 133.862 230.836 135.511 245.496C137.224 260.711 139.473 274.753 143.836 297.448C145.48 306.004 149.769 326.529 150.586 329.754C151.108 331.814 147.719 326.226 146.35 322.77C143.879 316.527 140.267 303.504 136.998 289.048C130.061 258.371 126.987 238.291 127.972 230.102C128.478 225.898 129.752 224.665 131.618 226.573ZM74.3762 238.327C80.4467 260.777 91.7229 295.477 102.892 326.081L105.796 334.038L105.62 337.065C105.188 344.456 102.606 347.427 97.3202 346.616C88.6278 345.282 79.0327 337.718 73.7562 328.04C67.3419 316.276 62.8606 296.237 62.8682 279.356C62.8735 267.985 64.0816 262.092 69.0835 249.035C70.8089 244.531 72.4812 239.77 72.7995 238.456C73.1181 237.141 73.4655 236.066 73.5718 236.066C73.6777 236.066 74.04 237.083 74.3762 238.327ZM177.461 331.019C176.997 332.337 176.522 333.416 176.405 333.416C175.893 333.416 176.696 329.702 177.353 329.03C177.743 328.632 178.116 328.377 178.183 328.464C178.25 328.551 177.925 329.701 177.461 331.019ZM175.38 331.585C174.84 334.489 174.733 334.623 172.708 334.952C170.355 335.335 159.329 334.839 158.94 334.333C158.235 333.416 161.02 332.622 166.481 332.186C169.577 331.938 172.781 331.454 173.601 331.111C175.642 330.254 175.628 330.251 175.38 331.585ZM155.677 335.124L157.042 335.603L157.057 338.709C157.065 340.417 157.499 344.529 158.022 347.846C158.545 351.163 158.92 353.944 158.858 354.027C158.684 354.255 157.17 350.227 156.099 346.687C155.156 343.57 152.737 334.502 152.737 334.084C152.737 333.965 153.091 334.043 153.524 334.257C153.957 334.47 154.925 334.861 155.677 335.124ZM186.607 374.545C191.102 376.068 195.883 379.811 201.723 386.379L205.175 390.26L206.575 397.483C208.195 405.834 209.787 411.769 212.658 420.151C214.906 426.715 215.047 428.05 213.589 428.954C212.44 429.668 199.563 430.518 194.961 430.184C190.576 429.866 189.036 429.209 182.403 424.825C178.003 421.918 176.347 420.572 174.693 418.559C170.969 414.028 169.296 407.744 169.296 398.29C169.296 388.191 171.5 380.94 175.789 376.934C178.864 374.062 182.688 373.217 186.607 374.545ZM136.756 380.336C137.619 381.15 138.43 382.487 139.041 384.105C139.868 386.297 140.001 387.194 140.099 391.217C140.185 394.755 140.059 396.601 139.556 399.186C138.948 402.311 136.887 409 136.634 408.671C136.573 408.592 136.829 406.503 137.203 404.031C137.713 400.661 137.849 398.404 137.748 395.013C137.58 389.337 136.783 386.474 134.322 382.7C132.742 380.278 132.608 379.925 133.119 379.538C134.135 378.768 135.382 379.042 136.756 380.336Z" fill="#1C1B1B"/>
<path d="M-179 313C-179 313 27.3199 313 159.52 313H163" stroke="#2EC2F1" stroke-width="2" stroke-linecap="round" stroke-linejoin="round"/>
<path d="M401 236C401 236 1027.8 236 1429.43 236H1440" stroke="#2EC2F1" stroke-width="2" stroke-linecap="round" stroke-linejoin="round"/>
</svg>
