<svg width="74" height="77" viewBox="0 0 74 77" fill="none" xmlns="http://www.w3.org/2000/svg">
<path d="M37 1.20312C16.5605 1.20312 0 17.8965 0 38.5C0 59.1035 16.5605 75.7969 37 75.7969C57.4395 75.7969 74 59.1035 74 38.5C74 17.8965 57.4395 1.20312 37 1.20312ZM55.1718 26.7545L49.0996 55.5994C48.652 57.6447 47.4436 58.141 45.7577 57.1785L36.5077 50.3057L32.0468 54.6369C31.5544 55.1332 31.1367 55.5543 30.1819 55.5543L30.8383 46.0646L47.9806 30.4541C48.7266 29.7924 47.8165 29.4164 46.8319 30.0781L25.6464 43.523L16.5157 40.6506C14.5315 40.0189 14.4867 38.6504 16.9335 37.6879L52.6056 23.8219C54.2617 23.2203 55.7089 24.2279 55.1718 26.7545Z" fill="#EAC4AB"/>
</svg>
