<svg width="74" height="77" viewBox="0 0 74 77" fill="none" xmlns="http://www.w3.org/2000/svg">
<path d="M37 77C57.4345 77 74 59.763 74 38.5C74 17.237 57.4345 0 37 0C16.5655 0 0 17.237 0 38.5C0 59.763 16.5655 77 37 77Z" fill="#EAC4AB"/>
<path fill-rule="evenodd" clip-rule="evenodd" d="M35.6022 55.3853H38.5063C38.5063 55.3853 39.3835 55.2851 39.8313 54.7827C40.2435 54.3215 40.2304 53.4554 40.2304 53.4554C40.2304 53.4554 40.1736 49.4007 41.9821 48.8036C43.7649 48.2155 46.0543 52.7224 48.4808 54.4553C50.3157 55.7668 51.71 55.4793 51.71 55.4793L58.1981 55.3853C58.1981 55.3853 61.5922 55.1677 59.9829 52.3909C59.8509 52.1638 59.0456 50.3368 55.1588 46.5828C51.0907 42.6537 51.6355 43.2892 56.536 36.4928C59.5205 32.3538 60.7137 29.8268 60.341 28.7445C59.9855 27.7137 57.7905 27.9861 57.7905 27.9861L50.4852 28.0335C50.4852 28.0335 49.9437 27.9566 49.542 28.2064C49.1496 28.4515 48.897 29.0225 48.897 29.0225C48.897 29.0225 47.7408 32.2254 46.1987 34.9493C42.9458 40.6971 41.6451 41.0004 41.1135 40.6436C39.8768 39.8118 40.1855 37.302 40.1855 35.519C40.1855 29.949 40.9974 27.6265 38.6045 27.0253C37.8104 26.8256 37.2261 26.6938 35.1953 26.6726C32.5887 26.6444 30.3825 26.6808 29.1333 27.3177C28.3022 27.7411 27.6611 28.6848 28.0516 28.739C28.5344 28.8063 29.6279 29.0458 30.2077 29.8673C30.9563 30.9269 30.9299 33.307 30.9299 33.307C30.9299 33.307 31.3599 39.8639 29.9254 40.6786C28.9407 41.2372 27.5899 40.0966 24.6898 34.8821C23.2038 32.211 22.0819 29.2585 22.0819 29.2585C22.0819 29.2585 21.8656 28.7068 21.4797 28.4116C21.0114 28.0541 20.3572 27.9402 20.3572 27.9402L13.4153 27.9875C13.4153 27.9875 12.3732 28.0177 11.9906 28.4892C11.6503 28.9085 11.9636 29.776 11.9636 29.776C11.9636 29.776 17.3984 43.0065 23.5521 49.6739C29.1946 55.7867 35.6022 55.3853 35.6022 55.3853Z" fill="#F4F4F4"/>
</svg>
