<svg width="1188" height="23" viewBox="0 0 1188 23" fill="none" xmlns="http://www.w3.org/2000/svg">
<path d="M0.666016 2C15.5124 2 15.5124 21 30.3447 21C45.1911 21 45.1911 2 60.0235 2C74.8698 2 74.8699 21 89.7022 21C104.549 21 104.549 2 119.381 2C134.227 2 134.227 21 149.06 21C163.906 21 163.906 2 178.738 2C193.585 2 193.585 21 208.431 21C223.278 21 223.278 2 238.124 2" stroke="#E5E5E5" stroke-width="3" stroke-miterlimit="10"/>
<path d="M475.609 2C490.456 2 490.456 21 505.288 21C520.134 21 520.135 2 534.967 2C549.813 2 549.813 21 564.646 21C579.492 21 579.492 2 594.324 2C609.171 2 609.171 21 624.003 21C638.849 21 638.849 2 653.682 2C668.528 2 668.528 21 683.374 21C698.221 21 698.221 2 713.067 2" stroke="#E5E5E5" stroke-width="3" stroke-miterlimit="10"/>
<path d="M238.138 2C252.984 2 252.984 21 267.816 21C282.663 21 282.663 2 297.495 2C312.342 2 312.342 21 327.174 21C342.02 21 342.02 2 356.853 2C371.699 2 371.699 21 386.531 21C401.378 21 401.378 2 416.21 2C431.056 2 431.056 21 445.903 21C460.749 21 460.749 2 475.596 2" stroke="#E5E5E5" stroke-width="3" stroke-miterlimit="10"/>
<path d="M713.067 2C727.914 2 727.914 21 742.746 21C757.592 21 757.592 2 772.425 2C787.271 2 787.271 21 802.104 21C816.95 21 816.95 2 831.782 2C846.629 2 846.629 21 861.461 21C876.307 21 876.307 2 891.14 2C905.986 2 905.986 21 920.833 21C935.679 21 935.679 2 950.525 2" stroke="#E5E5E5" stroke-width="3" stroke-miterlimit="10"/>
<path d="M950.539 2C965.385 2 965.385 21 980.218 21C995.064 21 995.064 2 1009.9 2C1024.74 2 1024.74 21 1039.58 21C1054.42 21 1054.42 2 1069.25 2C1084.1 2 1084.1 21 1098.93 21C1113.78 21 1113.78 2 1128.61 2C1143.46 2 1143.46 21 1158.3 21C1173.15 21 1173.15 2 1188 2" stroke="#E5E5E5" stroke-width="3" stroke-miterlimit="10"/>
</svg>
