<svg width="515" height="12" viewBox="0 0 515 12" fill="none" xmlns="http://www.w3.org/2000/svg">
<path d="M0 2C6.43953 2 6.43953 10.2411 12.873 10.2411C19.3125 10.2411 19.3125 2 25.7459 2C32.1855 2 32.1855 10.2411 38.6189 10.2411C45.0584 10.2411 45.0584 2 51.4919 2C57.9314 2 57.9314 10.2411 64.3649 10.2411C70.8044 10.2411 70.8044 2 77.2378 2C83.6774 2 83.6774 10.2411 90.1169 10.2411C96.5564 10.2411 96.5564 2 102.996 2" stroke="#EAC4AB" stroke-width="3" stroke-miterlimit="10"/>
<path d="M206.004 2C212.443 2 212.443 10.2411 218.877 10.2411C225.316 10.2411 225.316 2 231.75 2C238.189 2 238.189 10.2411 244.623 10.2411C251.062 10.2411 251.062 2 257.496 2C263.935 2 263.935 10.2411 270.369 10.2411C276.808 10.2411 276.808 2 283.242 2C289.681 2 289.681 10.2411 296.121 10.2411C302.56 10.2411 302.56 2 309 2" stroke="#EAC4AB" stroke-width="3" stroke-miterlimit="10"/>
<path d="M103.002 2C109.441 2 109.441 10.2411 115.875 10.2411C122.314 10.2411 122.314 2 128.748 2C135.187 2 135.187 10.2411 141.621 10.2411C148.06 10.2411 148.06 2 154.494 2C160.933 2 160.933 10.2411 167.367 10.2411C173.806 10.2411 173.806 2 180.24 2C186.679 2 186.679 10.2411 193.119 10.2411C199.558 10.2411 199.558 2 205.998 2" stroke="#EAC4AB" stroke-width="3" stroke-miterlimit="10"/>
<path d="M309 2C315.44 2 315.44 10.2411 321.873 10.2411C328.312 10.2411 328.312 2 334.746 2C341.185 2 341.185 10.2411 347.619 10.2411C354.058 10.2411 354.058 2 360.492 2C366.931 2 366.931 10.2411 373.365 10.2411C379.804 10.2411 379.804 2 386.238 2C392.677 2 392.677 10.2411 399.117 10.2411C405.556 10.2411 405.556 2 411.996 2" stroke="#EAC4AB" stroke-width="3" stroke-miterlimit="10"/>
<path d="M412.002 2C418.441 2 418.441 10.2411 424.875 10.2411C431.314 10.2411 431.314 2 437.748 2C444.187 2 444.187 10.2411 450.621 10.2411C457.06 10.2411 457.06 2 463.494 2C469.933 2 469.933 10.2411 476.367 10.2411C482.806 10.2411 482.806 2 489.24 2C495.679 2 495.679 10.2411 502.119 10.2411C508.558 10.2411 508.558 2 514.998 2" stroke="#EAC4AB" stroke-width="3" stroke-miterlimit="10"/>
</svg>
