<svg width="427" height="18" viewBox="0 0 427 18" fill="none" xmlns="http://www.w3.org/2000/svg">
<path d="M169 2C179.58 2 179.58 15.54 190.15 15.54C200.73 15.54 200.73 2 211.3 2C221.88 2 221.88 15.54 232.45 15.54C243.03 15.54 243.03 2 253.6 2C264.18 2 264.18 15.54 274.75 15.54C285.33 15.54 285.33 2 295.9 2C306.48 2 306.48 15.54 317.06 15.54C327.64 15.54 327.64 2 338.22 2" stroke="#FEC344" stroke-width="2.9781" stroke-miterlimit="10"/>
<path d="M0 2C10.58 2 10.58 15.54 21.15 15.54C31.73 15.54 31.73 2 42.3 2C52.88 2 52.88 15.54 63.45 15.54C74.03 15.54 74.03 2 84.6 2C95.18 2 95.18 15.54 105.75 15.54C116.33 15.54 116.33 2 126.9 2C137.48 2 137.48 15.54 148.06 15.54C158.64 15.54 158.64 2 169.22 2" stroke="#FEC344" stroke-width="2.9781" stroke-miterlimit="10"/>
<path d="M338.23 2C348.81 2 348.81 15.54 359.38 15.54C369.96 15.54 369.96 2 380.53 2C391.11 2 391.11 15.54 401.68 15.54C412.26 15.54 412.26 2 422.83 2C433.41 2 412.93 2 423.5 2M423.5 2C434.08 2 412.93 2 423.5 2ZM423.5 2C434.08 2 412.92 2 423.5 2Z" stroke="#FEC344" stroke-width="2.9781" stroke-miterlimit="10"/>
</svg>
