<svg width="502" height="539" viewBox="0 0 502 539" fill="none" xmlns="http://www.w3.org/2000/svg">
<g clip-path="url(#clip0_101:36)">
<path d="M339.528 314.141C342.11 312.949 344.611 311.554 347.277 310.651C348.704 310.177 350.384 310.572 351.956 310.54C351.658 312.094 351.795 314.006 350.922 315.141C348.671 317.993 346.288 320.955 343.393 323.063C337.668 327.223 331.591 330.936 325.509 334.562C321.873 336.727 319.807 335.575 320.138 331.426C321.152 319.323 326.675 309.434 335.836 301.632C337.027 300.635 339.362 300.978 341.163 300.709C341.335 302.636 341.927 304.661 341.557 306.479C341.043 308.823 339.723 310.985 338.738 313.25C338.944 313.55 339.236 313.846 339.528 314.141Z" fill="#E5E5E5"/>
<path d="M250.577 328.862C247.609 325.719 245.177 323.566 243.24 320.956C241.605 318.813 240.209 316.312 239.519 313.738C239.131 312.307 239.875 309.726 241.01 308.956C242.027 308.263 244.564 308.819 245.887 309.647C247.711 310.777 249.445 312.5 250.529 314.361C254.065 320.361 257.417 326.492 260.551 332.738C262.371 336.392 261.347 338.262 257.348 338.164C249.245 337.922 241.128 337.422 233.105 336.415C228.248 335.775 225.095 332.088 225.628 329.121C226.131 326.225 231.516 323.811 236.003 324.626C238.307 325.039 240.609 325.746 242.84 326.422C245.072 327.099 247.273 327.846 250.577 328.862Z" fill="#E5E5E5"/>
<path d="M409.256 246.27C406.555 252.672 400.06 254.056 395.049 258.317C398.431 258.188 401.352 257.859 404.215 258.052C406.576 258.238 409.643 258.057 409.933 261.55C410.159 264.806 407.527 266.018 405.047 266.202C397.878 266.619 390.644 266.797 383.432 266.733C379.955 266.694 376.477 265.98 372.947 265.581C374.694 255.565 399.863 241.931 409.256 246.27Z" fill="#E5E5E5"/>
<path d="M277.65 423.186C274.205 425.686 271.648 427.983 268.705 429.523C267.277 430.291 265.081 429.63 263.266 429.641C263.331 427.943 263.148 426.138 263.512 424.528C263.812 423.354 264.716 422.147 265.674 421.301C273.084 414.717 280.621 408.23 288.102 401.676C288.699 401.852 289.297 402.028 289.858 402.188C289.924 403.101 290.127 403.989 290.072 404.891C289.01 416.426 288.161 428.053 280.244 437.448C278.943 438.987 276.739 439.796 274.948 440.911C274.703 438.573 273.9 436.161 274.317 433.943C274.878 430.525 276.31 427.233 277.65 423.186Z" fill="#E5E5E5"/>
<path d="M251.852 228.977C253.38 231.368 254.904 233.378 256.007 235.584C256.529 236.61 256.706 238.624 256.094 239.158C255.219 239.913 253.204 240.384 252.243 239.882C248.422 237.925 244.724 235.684 241.159 233.333C238.437 231.56 235.955 229.428 233.376 227.422C232.422 226.712 231.35 226.077 230.646 225.182C228.069 221.913 229.273 218.565 233.315 218.176C242.996 217.21 252.464 218.088 261.557 221.665C262.175 221.892 262.995 222.038 263.332 222.522C264.786 224.501 266.057 226.612 267.409 228.631C265.216 229.319 262.984 230.579 260.754 230.577C257.829 230.525 254.89 229.541 251.852 228.977Z" fill="#E5E5E5"/>
<path d="M267.544 183.523C264.217 182.076 261.839 181.252 259.717 180.034C258.701 179.466 257.507 178.147 257.487 177.128C257.477 176.281 259.001 174.713 259.913 174.647C264.669 174.359 269.573 173.924 274.258 174.573C279.413 175.301 284.467 177.037 289.477 178.585C290.848 179.013 291.951 180.251 293.173 181.119C292.205 182.087 291.397 183.461 290.233 184.007C282.434 187.518 274.574 190.876 266.695 194.183C265.648 194.654 264.186 195.112 263.266 194.711C261.481 193.977 259.692 192.862 258.474 191.406C258.177 191.024 259.741 188.59 260.897 187.577C262.572 186.243 264.63 185.286 267.544 183.523Z" fill="#E5E5E5"/>
<path d="M124.998 306.051C127.395 302.379 133.887 300.615 139.224 302.474C145.532 304.713 151.799 307.145 158.004 309.718C161.751 311.264 161.94 312.862 158.461 315.053C153.36 318.264 148.117 321.413 142.69 324.019C140.515 325.051 137.498 325.212 135.119 324.682C131.672 323.898 131.081 320.61 133.569 317.988C134.568 316.95 135.769 316.125 136.99 315.351C138.195 314.613 139.535 314.143 140.899 313.137C134.335 313.228 129.174 310.772 124.998 306.051Z" fill="#E5E5E5"/>
<path d="M120.093 240.692C118.639 239.68 117.216 238.598 115.664 237.713C114.29 236.904 112.68 236.541 111.439 235.622C109.495 234.187 106.437 232.604 108.054 229.855C109.005 228.249 112.17 226.974 114.186 227.177C123.933 228.092 130.22 234.153 135.248 242.528C126.971 247.136 118.789 251.237 109.457 252.271C108.427 252.412 107.23 252.649 106.345 252.264C104.681 251.54 103.152 250.412 101.596 249.44C102.663 248.052 103.435 245.989 104.806 245.449C108.428 243.994 112.254 243.133 116.056 242.135C117.284 241.827 118.602 241.895 119.874 241.775C119.922 241.375 119.99 241.026 120.093 240.692Z" fill="#E5E5E5"/>
<path d="M206.898 467C205.85 465.828 205.562 465.619 205.533 465.396C203.933 456.786 202.297 448.16 200.748 439.53C200.605 438.794 200.605 437.826 200.953 437.22C202.054 435.173 203.055 431.904 204.694 431.523C207.678 430.759 208.395 434.143 209.107 436.474C209.485 437.733 209.437 439.101 209.628 440.405C210.16 440.342 210.744 440.259 211.276 440.196C212.848 438.228 214.183 436.03 216.047 434.358C217.102 433.385 219.107 432.742 220.403 433.053C221.157 433.255 222.146 435.917 221.735 436.958C219.128 443.822 216.344 450.609 213.206 457.242C211.621 460.593 209.218 463.505 206.898 467Z" fill="#E5E5E5"/>
<path d="M301.301 263.16C300.883 261.799 300.277 260.483 299.995 259.098C298.845 253.42 297.437 247.756 296.804 242.05C296.383 238.373 297.043 234.535 297.605 230.823C297.743 229.83 299.47 228.182 300.118 228.337C301.449 228.664 302.923 229.726 303.662 230.932C304.782 232.808 305.297 235.011 306.275 237.794C308.025 235.608 309.049 233.739 310.592 232.515C312.134 231.292 314.211 230.68 316.065 229.803C316.363 231.827 317.511 234.221 316.838 235.864C313.982 242.914 310.72 249.83 307.353 256.7C306.102 259.187 304.124 261.315 302.465 263.582C302.111 263.428 301.706 263.294 301.301 263.16Z" fill="#E5E5E5"/>
<path d="M349.483 206.499C355.807 204.831 361.544 203.159 367.349 201.812C370.287 201.154 373.326 200.75 376.316 200.746C377.958 200.745 379.625 201.849 381.264 202.435C380.489 204.119 379.786 205.833 378.92 207.435C378.557 208.077 377.855 208.529 376.704 209.628C378.961 211.115 381.134 212.313 382.945 213.859C384.03 214.752 385.233 216.244 385.231 217.506C385.262 218.403 383.536 219.757 382.364 220.131C380.424 220.718 378.135 221.238 376.212 220.822C367.145 218.73 358.972 214.585 351.547 208.913C351.007 208.51 350.59 207.823 349.483 206.499Z" fill="#E5E5E5"/>
<path d="M276.033 363.719C266.346 366.829 257.688 369.798 248.356 369.863C246.836 369.875 245.306 368.747 243.789 368.171C244.435 366.684 244.663 364.805 245.733 363.797C248.235 361.434 248.086 359.938 244.91 358.724C244.803 358.678 244.677 358.581 244.586 358.499C242.594 356.79 238.403 355.683 239.904 352.716C240.842 350.851 245.509 349.219 247.725 349.93C255.072 352.201 262.145 355.488 269.178 358.674C271.443 359.66 273.313 361.652 276.033 363.719Z" fill="#E5E5E5"/>
<path d="M130.424 398.368C131.571 400.761 132.758 402.582 133.294 404.542C133.617 405.735 133.369 407.563 132.604 408.451C132.068 409.102 129.909 409.131 129.05 408.589C125.626 406.299 122.178 403.873 119.193 401.059C115.224 397.312 111.597 393.166 108.006 389.036C107.381 388.343 106.991 386.532 107.414 386.042C108.113 385.21 109.683 384.504 110.696 384.692C116.261 385.639 121.78 386.693 127.231 388.097C130.648 388.952 134.078 390.065 137.176 391.75C138.742 392.6 139.556 394.89 140.682 396.559C138.869 397.243 137.116 398.08 135.253 398.491C133.864 398.686 132.345 398.404 130.424 398.368Z" fill="#E5E5E5"/>
<path d="M259.972 257.725C262.902 258.537 265.773 259.196 268.504 260.174C269.455 260.504 270.154 261.608 270.991 262.393C270.206 263.23 269.576 264.387 268.616 264.853C262.806 267.756 256.846 266.847 250.888 265.349C248.575 264.764 246.354 263.966 244.088 263.275C241.821 262.583 241.227 260.852 242.953 259.498C249.829 254.238 256.816 249.112 263.918 244.204C266.086 242.705 269.096 242.752 270.659 245.158C272.429 247.864 270.606 250.312 268.518 252.014C266.034 254.048 263.162 255.619 259.972 257.725Z" fill="#E5E5E5"/>
<path d="M235.419 189.247C234.083 186.898 232.578 184.939 231.891 182.745C231.388 181.095 231.906 179.131 231.946 177.297C233.942 177.45 236.489 176.916 237.822 177.917C240.144 179.643 242.3 182.138 243.563 184.75C245.854 189.451 247.453 194.483 249.607 200.176C247.202 200.477 245.608 201.046 244.058 200.835C238.851 200.128 233.583 199.562 228.532 198.206C225.673 197.425 222.988 195.373 220.621 193.459C219.662 192.663 219.132 190.496 219.498 189.267C219.731 188.442 221.96 187.77 223.226 187.858C227.179 188.062 231.068 188.701 235.419 189.247Z" fill="#E5E5E5"/>
<path d="M122.052 215.192C125.686 206.839 128.89 199.183 132.363 191.685C133.014 190.285 134.663 189.108 136.091 188.34C137.199 187.728 139.077 187.282 140.022 187.819C140.805 188.244 141.083 190.217 140.995 191.484C140.772 194.417 140.234 197.298 139.744 200.747C142.45 199.946 144.528 199.04 146.673 198.753C147.824 198.622 149.671 199.215 150.183 200.07C150.736 201.025 150.621 203.417 149.904 203.905C141.941 209.533 133.861 215.237 122.052 215.192Z" fill="#E5E5E5"/>
<path d="M409.43 366.819C408.104 367.253 407.723 367.55 407.409 367.498C397.871 365.327 388.484 362.716 381.596 355.131C380.624 354.077 380.823 351.975 380.512 350.366C382.216 350.223 384.014 349.574 385.557 349.993C388.189 350.717 390.665 352.089 393.709 353.414C393.134 351.059 392.334 349.027 392.189 346.943C392.081 345.254 392.785 343.54 393.144 341.844C394.92 342.406 397.378 342.465 398.359 343.692C400.912 346.823 403.189 350.297 404.872 353.976C406.801 358.057 407.938 362.508 409.43 366.819Z" fill="#E5E5E5"/>
<path d="M174.282 440.181C171.424 439.106 169.339 438.578 167.54 437.585C166.418 436.97 164.965 435.665 165.001 434.712C165.012 433.622 166.348 432.099 167.445 431.608C173.125 429.196 179.017 429.781 184.786 431.323C187.418 432.047 189.956 433.277 192.361 434.618C194.908 436.021 195.332 438.142 192.617 439.739C186.515 443.314 180.283 446.707 173.99 449.946C172.73 450.619 170.833 450.72 169.431 450.362C166.698 449.679 166.396 446.6 168.769 444.434C170.338 443.054 172.057 441.907 174.282 440.181Z" fill="#E5E5E5"/>
<path d="M176.183 171.559C172.867 171.926 170.395 172.576 168.014 172.34C166.256 172.123 164.647 170.791 163.029 169.961C164.092 168.487 164.828 166.408 166.272 165.605C171.899 162.539 177.928 163.099 183.931 164.49C184.807 164.703 185.749 164.86 186.583 165.265C188.069 165.911 189.479 166.735 190.935 167.453C190.087 168.725 189.495 170.278 188.37 171.22C183.476 175.405 178.507 179.473 173.357 183.378C171.529 184.772 169.233 185.794 166.975 186.243C165.813 186.495 163.771 185.48 163.178 184.423C162.661 183.482 163.105 181.107 163.95 180.423C167.56 177.447 171.502 174.868 176.183 171.559Z" fill="#E5E5E5"/>
<path d="M215.382 153.252C216.049 150.848 216.308 148.898 217.113 147.144C217.637 145.94 218.776 144.289 219.775 144.218C220.789 144.112 222.348 145.464 222.976 146.537C226.733 152.802 227.476 159.608 226.074 166.701C225.689 168.554 224.939 170.375 224.238 172.469C218.227 167.708 212.58 163.272 207.034 158.797C206.348 158.246 205.44 157.43 205.399 156.654C205.224 154.347 204.545 151.358 205.659 149.864C207.384 147.541 209.908 149.481 211.847 150.83C212.958 151.566 214.089 152.353 215.382 153.252Z" fill="#E5E5E5"/>
<path d="M282.89 308.19C280.192 307.521 277.801 307.407 275.982 306.363C274.43 305.478 273.478 303.506 272.239 301.999C273.679 301.11 275.255 299.228 276.511 299.437C282.405 300.402 288.263 301.645 294.006 303.344C296.693 304.135 297.621 306.937 295.238 308.932C290.574 312.88 285.577 316.431 280.636 320.048C279.72 320.702 278.364 321.207 277.285 321.074C274.97 320.783 272.699 320.005 270.421 319.435C271.487 317.373 272.129 314.832 273.748 313.432C276.162 311.367 279.296 310.162 282.89 308.19Z" fill="#E5E5E5"/>
<path d="M323.247 171.302C325.672 170.084 327.696 168.817 329.889 168.13C331.062 167.756 333.054 167.823 333.749 168.546C334.465 169.321 334.464 171.257 334.113 172.451C333.669 173.858 332.738 175.515 331.568 176.269C327.001 179.123 322.414 181.926 317.521 184.175C314.365 185.623 312.953 184.419 313.407 180.954C314.181 174.724 315.32 168.527 316.424 162.314C316.622 161.179 317.177 159.905 318.002 159.17C319.418 157.849 321.162 156.84 322.78 155.734C323.788 157.772 325.606 159.784 325.59 161.756C325.457 164.771 324.133 167.815 323.247 171.302Z" fill="#E5E5E5"/>
<path d="M217.619 342.306C211.277 347.208 205.601 351.643 199.886 355.975C199.188 356.514 198.126 357.02 197.326 356.924C195.376 356.665 193.474 356.006 191.546 355.504C192.117 353.901 192.668 352.246 193.31 350.673C193.583 349.95 194.053 349.354 194.687 348.283C193.2 347.637 191.829 347.208 190.632 346.477C189.399 345.73 187.253 344.376 187.393 343.763C187.792 342.169 188.97 339.945 190.299 339.597C193.776 338.669 197.495 338.055 201.067 338.262C205.592 338.505 210.077 339.614 214.547 340.465C215.368 340.611 216.063 341.335 217.619 342.306Z" fill="#E5E5E5"/>
<path d="M364.279 285.213C366.852 283.554 369.148 281.859 371.634 280.499C374.069 279.159 375.795 280.415 375.528 282.867C375.282 285.369 374.678 288.306 373.097 290.101C370.001 293.638 366.179 296.521 362.629 299.649C360.301 301.709 358.938 300.779 358.055 298.164C355.806 291.335 354.45 284.389 355.797 277.229C356.125 275.604 357.765 274.255 358.776 272.8C360.477 274.214 362.974 275.342 363.659 277.156C364.634 279.558 364.132 282.455 364.279 285.213Z" fill="#E5E5E5"/>
<path d="M230.032 410.048C227.984 408.273 226.14 407.092 224.897 405.499C224.026 404.404 223.408 402.536 223.775 401.306C224.023 400.446 226.053 399.94 227.387 399.678C228.362 399.471 229.679 399.539 230.416 400.07C234.54 403.169 238.73 406.213 242.462 409.731C244.227 411.382 244.02 413.986 241.483 415.366C233.889 419.471 225.89 419.569 217.818 417.32C215.52 416.7 215.042 414.219 217.139 412.689C218.935 411.366 221.276 410.532 223.499 410.068C225.432 409.688 227.559 410.024 230.032 410.048Z" fill="#E5E5E5"/>
<path d="M161.936 244.077C163.809 241.609 165.103 239.604 166.688 237.894C169.141 235.257 170.846 235.788 172.029 239.165C173.78 244.137 171.351 248.173 168.963 252.018C166.764 255.523 163.884 258.564 161.164 262.011C160.22 261.179 159.386 260.774 159.111 260.149C156.633 254.525 154.104 248.921 151.981 243.156C151.492 241.765 152.184 239.498 153.113 238.134C154.636 235.892 156.731 235.625 158.379 238.32C159.494 240.111 160.574 241.885 161.936 244.077Z" fill="#E5E5E5"/>
<path d="M291.749 452.221C291.485 449.538 291.021 447.316 291.094 445.116C291.196 442.172 292.918 441.406 295.327 443.127C296.387 443.883 297.456 444.811 298.033 445.904C301.315 452.005 304.479 458.18 307.719 464.473C296.931 465.757 280.676 458.516 277.144 450.96C282.239 446.989 286.883 451.409 291.749 452.221Z" fill="#E5E5E5"/>
<path d="M136.79 427.952C139.135 421.016 143.537 415.733 148.354 410.757C149.878 409.189 151.726 407.846 153.617 406.69C154.304 406.273 155.829 406.348 156.46 406.833C157.056 407.302 157.326 408.809 157.003 409.552C156.088 411.848 154.819 413.991 153.318 416.958C156.25 416.507 158.554 415.952 160.917 415.843C162.21 415.774 163.559 416.446 164.89 416.772C164.518 418.21 164.483 419.837 163.697 420.968C162.864 422.205 161.483 423.541 160.118 423.873C153.018 425.583 145.797 426.988 138.617 428.494C138.191 428.603 137.671 428.251 136.79 427.952Z" fill="#E5E5E5"/>
<path d="M292.048 156.128C292.175 158.835 292.37 161.193 292.392 163.56C292.406 165.755 291.114 166.498 289.326 165.384C287.699 164.381 285.887 163.13 285.008 161.569C281.776 155.743 278.93 149.706 275.465 142.768C286.023 145.593 296.365 146.009 304.084 153.619C305.087 154.603 305.448 156.191 306.141 157.503C304.714 157.976 303.178 158.992 301.871 158.802C299.187 158.392 296.603 157.268 294.002 156.473C293.456 156.278 292.919 156.254 292.048 156.128Z" fill="#E5E5E5"/>
<path d="M248.748 465.337C247.503 464.038 246.438 463.195 245.759 462.143C244.95 460.907 244.441 459.464 243.764 458.117C245.308 457.568 246.952 456.305 248.365 456.541C253.145 457.358 257.888 458.453 262.482 459.989C265.386 460.957 267.956 462.791 270.695 464.235C270.698 464.615 270.65 465.016 270.653 465.396C263.759 468.374 256.85 471.387 249.92 474.35C249.447 474.565 248.833 474.719 248.393 474.57C246.066 473.726 243.735 472.796 241.388 471.901C242.846 470.388 244.284 468.825 245.832 467.394C246.591 466.714 247.532 466.197 248.748 465.337Z" fill="#E5E5E5"/>
<path d="M326.878 218.302C325.148 218.602 323.538 219.206 322.044 219.061C320.342 218.91 318.144 218.543 317.218 217.383C316.422 216.405 316.366 213.729 317.157 212.684C319.992 208.781 323.22 205.134 326.524 201.604C328.191 199.804 330.102 200.636 331.004 202.627C334.429 210.137 336.51 218.03 336.227 226.326C336.206 227.243 334.91 228.868 334.388 228.81C333.117 228.635 331.423 227.982 330.815 226.96C329.278 224.397 328.26 221.513 326.878 218.302Z" fill="#E5E5E5"/>
<path d="M292.763 207.123C294.32 205.865 295.728 204.372 297.43 203.555C298.507 203.014 300.347 203.14 301.347 203.744C301.973 204.143 302.165 206.12 301.805 207.142C299.539 213.607 295.109 218.373 289.367 221.895C286.27 223.789 284.622 223.029 284.221 219.403C283.564 213.561 283.282 207.629 283.106 201.744C283.063 200.294 283.752 198.615 284.655 197.408C286.381 195.086 289.151 195.492 290.176 198.168C291.21 201.017 291.868 203.956 292.763 207.123Z" fill="#E5E5E5"/>
<path d="M346.567 436.037C342.55 441.109 339.056 446.239 334.814 450.666C332.653 452.925 329.253 454.645 326.158 455.277C323.062 455.909 321.844 453.484 323.83 450.854C326.27 447.664 329.235 444.913 332.263 441.726C329.53 442.011 327.013 442.473 324.484 442.383C323.395 442.372 322.082 441.423 321.342 440.511C321.03 440.165 321.758 438.587 322.36 437.881C326.576 433.317 340.712 431.595 345.853 434.968C346.125 435.213 346.285 435.619 346.567 436.037Z" fill="#E5E5E5"/>
<path d="M377.864 417.702C369.568 419.355 362.205 420.992 354.737 422.29C353.042 422.605 351.059 422.036 349.4 421.399C348.307 421.008 346.914 419.855 346.793 418.876C346.696 418.034 347.971 416.652 348.942 416.064C350.971 414.884 353.16 414.111 355.238 413.205C355.281 412.718 355.369 412.42 355.253 412.201C354.276 410.092 352.355 407.446 354.811 405.863C356.434 404.843 359.538 405.352 361.637 406.138C367.641 408.498 372.963 412.034 377.864 417.702Z" fill="#E5E5E5"/>
<path d="M99.0579 256.628C102.355 263.661 105.365 270.191 108.391 276.685C108.506 276.903 108.662 277.223 108.605 277.451C108.106 279.76 107.556 282.088 107.006 284.417C105.299 283.211 103.379 282.207 101.866 280.749C100.464 279.424 99.5211 277.625 98.0271 275.543C96.8646 277.732 95.9777 279.577 94.8938 281.294C93.4311 283.689 91.5058 283.567 90.4643 281.219C89.6183 279.294 88.9432 276.685 89.5869 274.818C91.5028 269.253 94.0358 263.915 96.4626 258.53C96.7751 257.908 97.7094 257.599 99.0579 256.628Z" fill="#E5E5E5"/>
<path d="M101.668 332.777C101.604 332.539 101.621 332.209 101.475 332.061C99.8837 330.106 97.731 327.991 100.177 325.562C102.511 323.293 104.936 324.685 107.223 326.396C112.175 330.108 115.016 335.09 116.737 341.101C115.792 341.532 115.115 342.121 114.405 342.107C107.62 341.933 100.814 341.708 94.0188 341.362C93.1523 341.322 92.0597 340.931 91.5103 340.355C90.3363 339.086 89.4578 337.525 88.447 336.075C89.8 335.191 91.0901 333.774 92.5615 333.488C95.5044 332.916 98.5502 332.978 101.668 332.777Z" fill="#E5E5E5"/>
<path d="M171.772 397.666C169.279 393.719 166.965 390.523 165.175 387.092C163.173 383.275 161.406 379.307 160.064 375.229C159.611 373.853 160.701 371.928 161.095 370.247C162.551 370.965 164.302 371.39 165.346 372.476C167.397 374.631 169.035 377.154 171.189 379.943C171.928 378.244 172.378 376.63 173.293 375.302C174.059 374.12 175.326 373.24 176.381 372.267C177.323 373.392 178.934 374.43 179.104 375.683C179.47 378.326 179.626 381.256 178.913 383.766C177.843 387.678 176.053 391.404 174.35 395.125C173.904 396.152 172.628 396.859 171.772 397.666Z" fill="#E5E5E5"/>
<path d="M172.861 226.899C166.897 226.577 161.504 224.652 156.851 221.028C155.408 219.895 154.74 217.752 153.7 216.079C155.487 215.552 157.254 214.973 159.096 214.512C159.711 214.358 160.363 214.6 161.528 214.728C161.11 212.399 160.701 210.243 160.363 208.118C160.172 206.814 159.628 205.356 160.019 204.264C160.61 202.711 161.722 200.542 162.955 200.321C164.188 200.1 166.653 201.593 167.102 202.883C168.883 208.078 170.121 213.457 171.41 218.817C172.049 221.41 172.349 224.108 172.861 226.899Z" fill="#E5E5E5"/>
<path d="M384.521 323.444C387.661 323 391.098 321.97 392.361 325.55C393.544 328.927 391.067 331.428 388.327 332.887C384.881 334.714 381.213 336.275 377.451 337.375C373.994 338.354 372.349 337.007 373.204 333.591C374.629 327.896 376.631 322.327 378.881 316.865C379.369 315.646 381.799 315.188 383.278 314.4C383.894 315.889 384.834 317.308 385.089 318.85C385.299 320.205 384.79 321.667 384.521 323.444Z" fill="#E5E5E5"/>
<path d="M262.302 154.932C254.746 155.56 247.24 156.462 239.677 156.623C237.675 156.678 234.172 154.86 233.906 153.439C233.385 150.476 236.291 149.215 239.061 148.652C239.934 148.485 240.838 148.246 241.178 148.142C241.646 145.904 241.547 142.746 242.461 142.386C244.411 141.677 247.371 141.744 249.053 142.812C253.871 145.961 258.275 149.771 262.822 153.349C262.713 153.891 262.497 154.386 262.302 154.932Z" fill="#E5E5E5"/>
<path d="M272.181 393.571C271.605 396.057 271.655 398.941 270.659 399.392C268.936 400.158 266.231 399.991 264.492 399.15C261.848 397.874 259.574 395.748 257.309 393.794C255.134 391.922 253.138 389.833 250.476 387.244C252.998 386.867 255.088 386.514 257.152 386.317C262.38 385.813 267.605 384.93 272.815 385.049C275.151 385.098 279.1 386.858 279.371 388.364C279.975 391.911 276.221 392.509 273.48 393.294C272.901 393.464 272.282 393.531 272.181 393.571Z" fill="#E5E5E5"/>
<path d="M352.416 337.638C354.044 344.829 357.877 351.211 356.94 358.591C356.681 360.541 355.033 363.36 353.368 363.898C350.529 364.81 349.674 361.744 348.881 359.505C348.641 358.895 348.604 358.206 348.356 357.13C346.702 357.547 345.514 357.956 344.276 358.091C342.765 358.275 341.275 358.217 339.739 358.264C339.808 356.652 339.413 354.755 340.105 353.456C341.549 350.717 343.453 348.178 345.362 345.725C347.373 343.232 349.631 340.847 352.416 337.638Z" fill="#E5E5E5"/>
<path d="M192.287 281.906C185.236 285.826 178.691 287.904 171.747 288.966C170.752 289.122 169.536 289.014 168.698 288.523C167.43 287.761 166.433 286.57 165.308 285.575C166.378 284.567 167.277 283.275 168.522 282.638C170.22 281.735 172.204 281.335 174.804 280.487C173.276 279.065 172.105 278.177 171.214 277.031C170.529 276.186 169.66 274.798 169.912 274.024C170.18 273.214 171.679 272.477 172.725 272.301C178.35 271.465 182.845 274.388 187.3 277.21C188.911 278.248 190.23 279.958 192.287 281.906Z" fill="#E5E5E5"/>
<path d="M337.1 253.057C339.673 247.82 344.865 248.269 348.751 245.918C346.462 244.501 344.188 243.343 342.22 241.772C341.261 240.976 340.9 239.387 340.298 238.157C341.446 237.647 342.602 236.634 343.712 236.696C350.441 237.098 356.423 239.7 361.866 243.541C363.804 244.89 363.067 246.295 361.582 247.291C355.975 251.082 350.003 254.166 343.048 254.382C341.238 254.478 339.377 253.627 337.1 253.057Z" fill="#E5E5E5"/>
<path d="M120.735 287.4C122.397 280.967 124.075 274.499 125.808 268.097C126.056 267.237 126.451 266.23 127.078 265.661C128.102 264.759 129.436 263.53 130.581 263.607C131.397 263.667 132.106 265.617 132.774 266.792C133.155 267.463 133.318 268.249 133.678 269.164C135.064 268.882 136.318 268.418 137.545 268.404C138.878 268.437 140.834 268.488 141.377 269.272C141.905 270.09 141.498 272.187 140.737 273.161C135.694 279.722 129.115 284.395 121.897 288.116C121.503 287.861 121.145 287.621 120.735 287.4Z" fill="#E5E5E5"/>
<path d="M385.598 401.957C384.363 396.958 386.787 393.129 389.49 389.043C385.867 389.824 382.7 390.719 379.489 391.133C378.322 391.299 376.031 390.47 375.928 389.836C375.728 388.36 376.184 386.538 376.997 385.25C377.605 384.336 379.18 383.716 380.397 383.53C385.181 382.791 390.015 382.031 394.842 381.774C396.084 381.725 398.315 383.369 398.587 384.582C399.69 389.692 392.551 400.393 387.494 401.856C387.002 402.02 386.445 401.946 385.598 401.957Z" fill="#E5E5E5"/>
<path d="M191.251 200.593C194.138 199.954 197.149 199.033 200.227 198.731C201.551 198.591 203.034 199.826 204.414 200.426C203.701 201.968 203.396 204.024 202.2 204.935C200.739 206.068 198.583 206.477 196.681 206.786C193.185 207.37 189.641 207.68 186.116 208.041C182.439 208.461 180.891 206.988 181.423 203.347C182.354 197.143 185.963 192.525 190.667 188.678C191.446 188.049 192.869 188.163 193.996 187.896C194.197 189.078 194.874 190.425 194.549 191.462C193.645 194.604 192.367 197.542 191.251 200.593Z" fill="#E5E5E5"/>
<path d="M232.847 455.345C234.349 448.505 235.674 441.589 237.51 434.853C237.944 433.274 240.236 432.166 241.688 430.861C242.275 432.801 243.035 434.731 243.349 436.72C243.535 437.937 243.036 439.278 242.746 441.298C245.23 440.232 247.147 439.214 249.223 438.602C250.33 438.283 251.646 438.645 252.841 438.703C252.693 439.817 252.864 441.07 252.397 442.045C248.428 449.621 241.646 453.406 234.139 456.244C233.69 455.922 233.276 455.616 232.847 455.345Z" fill="#E5E5E5"/>
<path d="M325.456 404.543C326.486 404.402 327.1 404.248 327.723 404.267C329.178 404.31 330.637 404.44 332.076 404.519C331.834 406.139 332.152 408.214 331.275 409.264C326.408 414.934 320.162 418.068 311.631 419.197C312.653 415.685 313.216 412.941 314.254 410.362C315.98 406.103 317.883 401.922 320.019 397.884C320.567 396.818 322.182 396.299 323.281 395.515C323.964 396.654 324.921 397.744 325.228 398.972C325.559 400.631 325.392 402.369 325.456 404.543Z" fill="#E5E5E5"/>
<path d="M199.162 234.175C198.206 233.759 196.935 233.585 196.326 232.857C194.886 231.136 193.746 229.208 192.504 227.321C194.297 226.586 196.078 225.298 197.888 225.202C200.235 225.128 200.292 223.932 200.55 222.276C201.143 218.493 203.4 217.37 205.726 220.151C209.231 224.285 212.278 228.894 214.781 233.687C216.301 236.58 214.797 238.198 211.976 237.813C211.575 237.765 211.221 237.611 210.852 237.493C206.925 236.458 203.017 235.473 199.074 234.473C199.105 234.403 199.116 234.281 199.162 234.175Z" fill="#E5E5E5"/>
<path d="M397.316 307.29C402.247 308.341 406.917 309.025 411.344 310.362C413.875 311.126 416.294 312.726 418.388 314.395C419.382 315.206 420.045 317.262 419.82 318.554C419.704 319.303 417.502 319.818 416.172 320.166C415.081 320.449 413.845 320.29 412.775 320.33C412.55 320.653 412.336 320.854 412.244 321.067C411.56 322.832 410.912 324.613 410.228 326.378C408.449 325.435 406.308 324.841 404.973 323.46C400.826 318.962 397.076 314.131 397.316 307.29Z" fill="#E5E5E5"/>
<path d="M230.478 295.912C227.885 299.162 225.645 301.892 223.247 304.889C219.926 301.298 220.45 298.158 222.245 295.193C224.721 291.05 227.445 287.015 230.082 282.985C231.232 281.212 232.525 281.143 233.731 283.015C237.144 288.33 239.18 294.099 239.293 300.42C239.302 301.561 237.982 302.755 237.302 303.932C236.175 303.232 234.733 302.773 233.953 301.76C232.675 300.151 231.809 298.175 230.478 295.912Z" fill="#E5E5E5"/>
<path d="M153.504 347.54C151.268 347.745 149.817 348.082 148.429 347.983C147.091 347.865 145.812 347.224 144.512 346.827C145.097 345.482 145.265 343.45 146.287 342.842C149.303 341.039 152.48 339.348 155.804 338.48C159.555 337.502 163.514 337.498 168.291 336.966C165.05 343.933 162.032 349.903 156.974 354.563C156.082 355.354 154.203 355.126 152.798 355.357C152.583 353.916 152.211 352.449 152.239 351.03C152.325 350.057 152.949 349.108 153.504 347.54Z" fill="#E5E5E5"/>
<path d="M336.576 386.144C343.064 383.326 348.539 378.384 355.824 377.217C357.092 377.011 359.419 377.855 359.799 378.82C360.359 380.243 359.669 382.216 359.432 383.922C359.262 385.28 358.443 386.776 358.801 387.984C359.801 391.492 358.164 394.189 354.728 393.284C348.699 391.755 342.811 389.615 336.866 387.702C336.717 387.174 336.639 386.677 336.576 386.144Z" fill="#E5E5E5"/>
<path d="M320.178 271.248C323.957 275.333 327.621 279.2 331.035 283.253C331.478 283.783 330.734 286.364 330.186 286.462C325.624 287.466 320.998 288.232 316.342 288.774C315.19 288.904 313.724 288.308 312.801 287.528C310.666 285.757 309.796 283.695 313.013 282.106C315.371 280.943 316.031 279.715 314.377 277.227C313.533 275.976 313.21 272.847 313.846 272.45C315.422 271.536 317.641 271.659 320.178 271.248Z" fill="#E5E5E5"/>
<path d="M408.878 285.842C410.732 283.323 412.173 281.172 413.831 279.199C414.433 278.493 415.837 277.588 416.317 277.839C417.206 278.31 418.299 279.67 418.152 280.49C417.733 283.002 417.202 285.675 415.973 287.919C413.956 291.587 411.332 294.908 409.012 298.403C407.653 300.463 406.319 299.757 405.339 298.236C401.951 293.058 399.817 287.415 399.866 281.206C399.893 280.081 400.872 278.992 401.4 277.874C402.608 278.484 404.162 278.782 404.973 279.724C406.464 281.425 407.477 283.549 408.878 285.842Z" fill="#E5E5E5"/>
<path d="M304.197 370.584C302.572 369.288 301.173 368.342 299.953 367.18C297.931 365.248 298.658 363.965 301.13 363.314C305.292 362.262 317.688 368.118 319.228 372.029C319.527 372.791 318.736 374.804 318.106 374.994C312.568 376.499 306.915 377.786 301.328 379.018C300.354 379.225 299.224 379.112 298.207 378.838C297.26 378.595 296.432 377.982 295.563 377.562C296.116 376.582 296.392 375.27 297.226 374.707C299.322 373.178 301.665 372.05 304.197 370.584Z" fill="#E5E5E5"/>
<path d="M294.041 264.465C297.304 272.156 297.893 279.316 295.619 286.577C295.175 287.984 293.183 288.885 291.915 290.059C291.169 288.388 289.784 286.733 289.763 285.04C289.727 281.446 290.364 277.851 290.887 273.069C288.338 275.833 286.795 278.024 284.765 279.498C283.533 280.393 281.553 280.205 279.909 280.5C280.065 278.884 279.625 276.799 280.467 275.734C284.01 271.171 288.248 267.332 294.041 264.465Z" fill="#E5E5E5"/>
<path d="M99.1614 305.546C101.919 305.398 104.019 305.217 106.097 305.279C106.892 305.289 108.04 305.746 108.331 306.336C108.622 306.925 108.295 308.256 107.786 308.75C102.482 313.683 96.0502 315.6 88.9413 315.201C86.4788 315.056 85.8127 313.587 87.2845 311.365C89.7479 307.638 92.0143 303.783 94.6238 300.204C95.8955 298.442 97.7073 297.083 99.4883 295.795C100.038 295.403 101.441 295.467 101.951 295.941C102.44 296.364 102.509 297.657 102.272 298.396C101.388 300.621 100.332 302.855 99.1614 305.546Z" fill="#E5E5E5"/>
<path d="M293.202 334.608C292.464 336.981 291.984 338.666 291.432 340.321C290.67 342.557 289.329 344.962 286.781 343.853C285.577 343.33 284.514 340.257 284.878 338.648C286.375 331.722 290.247 326.208 296.615 322.117C300.225 327.56 302.003 333.343 301.598 339.692C301.527 340.629 300.537 341.84 299.643 342.251C299.155 342.502 297.741 341.592 297.202 340.894C295.899 339.149 294.845 337.217 293.202 334.608Z" fill="#E5E5E5"/>
<path d="M191.332 405.922C189.761 407.597 188.227 409.286 186.636 410.91C185.097 412.513 183.157 414.069 181.288 412.077C180.572 411.302 181.064 408.527 181.917 407.341C185.293 402.58 190.105 399.453 195.922 396.049C197.276 404.257 200.425 411.436 196.623 418.917C196.013 420.125 194.499 420.897 193.409 421.854C192.586 420.359 191.16 418.897 191.148 417.376C191.076 413.767 191.729 410.137 192.053 406.489C191.821 406.346 191.569 406.152 191.332 405.922Z" fill="#E5E5E5"/>
<path d="M108.216 358.947C109.115 358.622 109.954 358.145 110.847 358.028C112.323 357.829 113.828 357.852 115.329 357.789C115.056 359.481 115.388 361.814 114.404 362.817C110.729 366.522 106.712 369.952 102.614 373.179C100.639 374.719 98.5413 373.638 98.8681 371.339C99.6497 365.575 100.741 359.777 102.378 354.176C103.137 351.559 105.521 352.175 106.746 354.392C107.489 355.683 107.713 357.296 108.216 358.947Z" fill="#E5E5E5"/>
<path d="M353.438 187.636C353.455 184.402 353.29 182.268 353.579 180.247C353.737 179.305 354.757 178.023 355.595 177.84C356.295 177.682 358.002 178.887 358.054 179.541C358.243 184.717 358.225 189.887 357.949 195.071C357.936 195.486 355.001 196.525 354.335 196.024C349.761 192.603 345.265 189.005 341.064 185.115C340.101 184.233 340.463 181.949 340.254 180.301C342.109 180.392 344.327 179.842 345.67 180.721C348.211 182.331 350.311 184.76 353.438 187.636Z" fill="#E5E5E5"/>
<path d="M209.461 379.924C208.5 378.747 206.861 377.193 205.842 375.276C205.476 374.57 206.243 372.42 207.036 372.049C210.984 370.231 222.854 374.006 226.453 378.602C222.157 381.027 218.078 383.63 213.739 385.573C212.169 386.279 209.862 385.486 207.921 385.399C208.366 383.699 208.862 381.978 209.461 379.924Z" fill="#E5E5E5"/>
<path d="M190.816 313.638C190.466 316.475 190.392 318.968 189.811 321.367C189.2 323.837 187.443 324.294 185.929 322.162C182.544 317.364 181.134 311.994 182.448 306.167C182.963 303.823 184.696 302.936 186.96 304.215C190.209 306.133 193.493 308.067 196.582 310.253C197.678 311.025 198.567 312.464 198.895 313.743C199.193 314.799 198.537 316.113 198.257 317.338C197.189 317.084 196.008 316.991 195.099 316.47C193.623 315.701 192.306 314.665 190.816 313.638Z" fill="#E5E5E5"/>
<path d="M208.342 274.031C209.731 268.322 210.916 262.986 212.399 257.738C212.72 256.614 214.528 254.876 215.11 255.087C216.395 255.519 217.538 256.859 218.312 258.079C218.88 259 218.847 260.333 219.064 261.479C221.642 260.875 224.271 260.251 227.088 259.582C226.218 265.644 215.254 274.302 208.342 274.031Z" fill="#E5E5E5"/>
<path d="M385.074 233.349C383.298 233.755 380.79 234.39 377.837 235.083C379.433 228.705 389.577 220.869 396.899 220.392C395.293 226.597 393.933 232.53 392.097 238.298C391.37 240.55 389.337 240.676 387.909 238.539C386.838 236.937 386.017 235.148 385.074 233.349Z" fill="#E5E5E5"/>
</g>
<path d="M75.0003 220.659C69.4768 314.912 141.406 395.796 235.658 401.32C329.911 406.843 410.795 334.914 416.319 240.662C421.842 146.409 349.913 65.5247 255.661 60.0012C161.408 54.4777 80.5238 126.407 75.0003 220.659Z" stroke="#1782A3" stroke-width="4" stroke-miterlimit="10"/>
<defs>
<clipPath id="clip0_101:36">
<rect width="331.613" height="331.034" fill="white" transform="matrix(0.398929 -0.916982 0.916979 0.398934 36.9998 393.083)"/>
</clipPath>
</defs>
</svg>
