<svg width="434" height="406" viewBox="0 0 434 406" fill="none" xmlns="http://www.w3.org/2000/svg">
<circle cx="199.146" cy="199.145" r="126" transform="rotate(166.369 199.146 199.145)" fill="#FCB514"/>
<g clip-path="url(#clip0_101:35)">
<path d="M320.46 224.842C321.243 223.56 321.931 222.213 322.836 221.034C323.323 220.407 324.177 220.086 324.857 219.61C325.183 220.38 325.805 221.179 325.755 221.934C325.605 223.847 325.429 225.847 324.777 227.623C323.486 231.131 321.909 234.546 320.304 237.924C319.344 239.942 318.098 240.044 317.025 238.125C313.915 232.514 313.435 226.551 315.164 220.435C315.395 219.648 316.52 219.112 317.232 218.465C317.873 219.261 318.728 219.976 319.1 220.882C319.562 222.062 319.618 223.399 319.851 224.683C320.03 224.754 320.245 224.798 320.46 224.842Z" fill="#E5E5E5"/>
<path d="M285.737 257.433C283.51 256.925 281.811 256.694 280.194 256.117C278.846 255.657 277.499 254.969 276.44 254.042C275.849 253.528 275.418 252.176 275.69 251.505C275.933 250.902 277.209 250.401 278.034 250.376C279.166 250.336 280.433 250.583 281.456 251.081C284.771 252.677 288.043 254.383 291.254 256.205C293.126 257.274 293.226 258.396 291.442 259.527C287.813 261.801 284.103 263.966 280.286 265.881C277.966 267.027 275.499 266.334 274.861 264.875C274.231 263.456 275.886 260.815 278.095 259.855C279.227 259.359 280.446 258.993 281.624 258.635C282.802 258.276 283.988 257.957 285.737 257.433Z" fill="#E5E5E5"/>
<path d="M331.132 174.566C331.826 178.17 329.382 180.685 328.434 184.027C329.88 182.978 331.066 181.975 332.379 181.219C333.47 180.607 334.763 179.626 335.917 181.075C336.972 182.438 336.173 183.743 335.139 184.552C332.114 186.841 328.991 189.044 325.806 191.134C324.268 192.138 322.532 192.847 320.865 193.709C318.69 188.799 325.733 175.421 331.132 174.566Z" fill="#E5E5E5"/>
<path d="M325.328 290.886C324.551 292.996 324.103 294.755 323.263 296.296C322.862 297.052 321.704 297.407 320.91 297.945C320.44 297.181 319.83 296.442 319.516 295.628C319.303 295.025 319.346 294.229 319.517 293.577C320.836 288.51 322.239 283.448 323.598 278.374C323.912 278.276 324.226 278.177 324.519 278.082C324.816 278.464 325.166 278.794 325.407 279.206C328.329 284.582 331.372 289.935 330.656 296.385C330.537 297.442 329.807 298.445 329.349 299.461C328.554 298.506 327.493 297.684 327.025 296.587C326.267 294.922 325.929 293.056 325.328 290.886Z" fill="#E5E5E5"/>
<path d="M256.956 213.213C258.329 213.813 259.589 214.248 260.721 214.892C261.252 215.19 261.921 216.022 261.809 216.435C261.647 217.024 260.9 217.823 260.331 217.885C258.079 218.148 255.798 218.251 253.542 218.266C251.826 218.287 250.11 218.08 248.389 217.957C247.762 217.926 247.105 217.962 246.533 217.776C244.441 217.098 243.986 215.274 245.646 213.917C249.612 210.649 254.026 208.253 259.069 207.152C259.407 207.07 259.81 206.894 260.1 207.007C261.319 207.449 262.497 208.002 263.684 208.491C262.923 209.437 262.313 210.646 261.334 211.3C260.035 212.136 258.456 212.568 256.956 213.213Z" fill="#E5E5E5"/>
<path d="M250.493 188.65C248.607 188.992 247.321 189.328 246.032 189.417C245.419 189.466 244.507 189.238 244.199 188.796C243.946 188.428 244.155 187.292 244.536 186.995C246.539 185.471 248.564 183.84 250.811 182.749C253.288 181.554 256.016 180.831 258.67 180.039C259.398 179.824 260.245 180.044 261.037 180.066C260.896 180.775 260.945 181.616 260.595 182.197C258.202 186.029 255.738 189.812 253.251 193.578C252.93 194.092 252.423 194.723 251.901 194.818C250.902 195.02 249.789 195.056 248.827 194.774C248.584 194.694 248.556 193.166 248.766 192.382C249.109 191.304 249.731 190.28 250.493 188.65Z" fill="#E5E5E5"/>
<path d="M223.91 284.308C223.884 281.992 226.216 279.311 229.105 278.559C232.532 277.689 235.997 276.915 239.477 276.222C241.576 275.8 242.128 276.446 241.244 278.43C239.948 281.338 238.572 284.26 236.955 286.998C236.303 288.09 235.026 289.047 233.826 289.513C232.083 290.182 230.858 288.912 231.18 287.03C231.313 286.281 231.598 285.566 231.906 284.868C232.219 284.19 232.669 283.59 232.972 282.748C230.118 284.716 227.13 285.154 223.91 284.308Z" fill="#E5E5E5"/>
<path d="M202.559 257.058C201.623 257.041 200.68 256.984 199.739 257.051C198.899 257.1 198.085 257.413 197.27 257.374C195.996 257.315 194.188 257.519 194.091 255.837C194.036 254.852 195.051 253.363 195.996 252.86C200.543 250.399 205.083 251.212 209.751 253.412C207.471 257.866 205.084 262.07 201.291 265.265C200.881 265.629 200.424 266.085 199.923 266.176C198.98 266.347 197.977 266.301 197.009 266.331C197.069 265.409 196.802 264.276 197.245 263.636C198.408 261.934 199.834 260.432 201.21 258.877C201.659 258.381 202.257 258.024 202.781 257.597C202.684 257.408 202.611 257.234 202.559 257.058Z" fill="#E5E5E5"/>
<path d="M307.139 330.902C306.335 330.695 306.148 330.688 306.069 330.599C302.838 327.289 299.586 323.983 296.371 320.65C296.092 320.369 295.808 319.944 295.782 319.576C295.664 318.354 295.144 316.625 295.751 315.976C296.837 314.764 298.145 316.039 299.143 316.853C299.678 317.295 300.059 317.909 300.526 318.426C300.741 318.242 300.973 318.034 301.188 317.85C301.3 316.524 301.24 315.167 301.567 313.885C301.745 313.149 302.436 312.277 303.096 312.033C303.487 311.901 304.703 312.778 304.828 313.356C305.7 317.135 306.471 320.932 307.042 324.766C307.331 326.702 307.131 328.686 307.139 330.902Z" fill="#E5E5E5"/>
<path d="M288.704 213.692C288.121 213.217 287.468 212.818 286.938 212.292C284.765 210.138 282.483 208.065 280.529 205.746C279.264 204.256 278.426 202.377 277.583 200.582C277.352 200.106 277.626 198.876 277.956 198.754C278.636 198.506 279.595 198.539 280.274 198.851C281.316 199.346 282.189 200.162 283.436 201.096C283.563 199.622 283.463 198.501 283.781 197.511C284.099 196.521 284.83 195.642 285.387 194.712C286.112 195.513 287.319 196.227 287.507 197.146C288.323 201.08 288.923 205.074 289.463 209.079C289.645 210.538 289.401 212.053 289.339 213.535C289.138 213.572 288.921 213.632 288.704 213.692Z" fill="#E5E5E5"/>
<path d="M293.211 174.667C295.497 172.076 297.524 169.658 299.677 167.361C300.773 166.209 301.988 165.139 303.3 164.259C304.02 163.776 305.076 163.771 305.968 163.547C306.123 164.514 306.317 165.473 306.408 166.43C306.437 166.819 306.262 167.224 306.079 168.044C307.507 168.034 308.812 167.921 310.062 168.068C310.8 168.141 311.766 168.443 312.136 168.997C312.413 169.382 312.054 170.483 311.648 170.992C310.97 171.819 310.118 172.72 309.151 173.102C304.557 174.847 299.751 175.428 294.826 175.12C294.47 175.101 294.086 174.922 293.211 174.667Z" fill="#E5E5E5"/>
<path d="M307.151 265.257C303.812 269.468 300.883 273.314 296.806 276.084C296.142 276.536 295.139 276.49 294.304 276.683C294.151 275.84 293.699 274.948 293.873 274.192C294.277 272.419 293.772 271.806 292.021 272.207C291.961 272.218 291.877 272.212 291.813 272.203C290.436 272.038 288.271 272.783 288.059 271.04C287.923 269.945 289.492 267.858 290.674 267.52C294.566 266.358 298.636 265.724 302.659 265.056C303.943 264.823 305.349 265.149 307.151 265.257Z" fill="#E5E5E5"/>
<path d="M253.41 323.239C254.617 323.952 255.673 324.403 256.484 325.106C256.976 325.534 257.404 326.41 257.329 327.024C257.285 327.468 256.346 328.115 255.809 328.129C253.634 328.13 251.407 328.078 249.27 327.719C246.428 327.24 243.618 326.485 240.828 325.727C240.35 325.607 239.647 324.926 239.689 324.587C239.751 324.016 240.233 323.245 240.733 323.03C243.454 321.812 246.186 320.653 248.991 319.668C250.742 319.04 252.575 318.521 254.43 318.35C255.367 318.263 256.397 319.03 257.382 319.431C256.787 320.264 256.263 321.147 255.566 321.874C255.013 322.368 254.264 322.69 253.41 323.239Z" fill="#E5E5E5"/>
<path d="M268.965 223.446C270.49 222.942 271.943 222.388 273.43 222.015C273.944 221.88 274.575 222.16 275.173 222.258C275.074 222.856 275.138 223.549 274.853 224.036C273.156 227.017 270.272 228.369 267.217 229.461C266.03 229.884 264.821 230.186 263.622 230.548C262.424 230.911 261.655 230.325 262.015 229.224C263.488 224.895 265.049 220.592 266.726 216.351C267.237 215.057 268.572 214.193 269.965 214.79C271.536 215.458 271.455 217.069 271.039 218.429C270.546 220.051 269.746 221.585 268.965 223.446Z" fill="#E5E5E5"/>
<path d="M238.072 200.599C236.796 199.96 235.56 199.542 234.614 198.781C233.908 198.204 233.559 197.19 233.037 196.373C233.959 195.854 234.92 194.871 235.799 194.919C237.325 194.995 239.005 195.457 240.326 196.233C242.713 197.623 244.893 199.362 247.511 201.229C246.544 202.067 246.011 202.786 245.268 203.148C242.775 204.367 240.296 205.666 237.681 206.555C236.196 207.052 234.415 206.94 232.814 206.795C232.159 206.727 231.29 205.931 231.089 205.284C230.949 204.854 231.73 203.904 232.312 203.57C234.107 202.499 236.002 201.637 238.072 200.599Z" fill="#E5E5E5"/>
<path d="M195.928 245.289C195.07 240.554 194.228 236.252 193.55 231.941C193.424 231.135 193.802 230.134 194.204 229.377C194.51 228.783 195.204 228.036 195.776 227.994C196.245 227.95 196.947 228.735 197.28 229.317C198.043 230.67 198.654 232.093 199.452 233.751C200.404 232.604 201.05 231.596 201.907 230.84C202.374 230.444 203.359 230.162 203.835 230.387C204.358 230.644 205.011 231.728 204.839 232.152C202.997 236.962 201.125 241.839 195.928 245.289Z" fill="#E5E5E5"/>
<path d="M366.618 227.434C366.164 228.013 366.084 228.256 365.93 228.325C361.106 230.174 356.218 231.785 350.967 230.479C350.231 230.302 349.7 229.32 349.092 228.705C349.798 228.142 350.396 227.329 351.197 227.06C352.565 226.605 354.055 226.479 355.78 226.167C354.836 225.302 353.888 224.645 353.212 223.773C352.668 223.063 352.474 222.104 352.133 221.254C353.078 220.979 354.174 220.283 354.965 220.533C357.006 221.158 359.026 222.014 360.845 223.135C362.891 224.359 364.697 225.979 366.618 227.434Z" fill="#E5E5E5"/>
<path d="M284.944 328.71C283.374 329.078 282.303 329.459 281.222 329.551C280.549 329.611 279.528 329.464 279.264 329.036C278.948 328.554 279.088 327.493 279.425 326.955C281.21 324.228 283.968 322.754 286.953 321.736C288.321 321.281 289.797 321.076 291.247 320.958C292.777 320.825 293.586 321.632 292.863 323.13C291.235 326.492 289.495 329.812 287.685 333.083C287.329 333.748 286.526 334.349 285.806 334.604C284.405 335.107 283.368 333.845 283.774 332.196C284.057 331.13 284.475 330.121 284.944 328.71Z" fill="#E5E5E5"/>
<path d="M206.873 210.234C205.525 211.37 204.631 212.381 203.517 212.977C202.681 213.398 201.584 213.286 200.63 213.397C200.663 212.438 200.376 211.309 200.773 210.532C202.343 207.533 205.154 206.008 208.198 204.855C208.645 204.691 209.105 204.484 209.59 204.416C210.432 204.264 211.293 204.211 212.143 204.099C212.144 204.906 212.341 205.762 212.123 206.506C211.205 209.78 210.218 213.026 209.104 216.253C208.712 217.402 208.004 218.525 207.144 219.385C206.708 219.837 205.514 219.991 204.943 219.701C204.44 219.44 203.937 218.267 204.107 217.719C204.818 215.352 205.791 213.062 206.873 210.234Z" fill="#E5E5E5"/>
<path d="M218.703 190.684C218.29 189.433 217.831 188.501 217.669 187.494C217.545 186.812 217.56 185.753 217.978 185.428C218.392 185.084 219.474 185.219 220.064 185.506C223.554 187.152 225.879 189.922 227.347 193.447C227.723 194.374 227.928 195.393 228.236 196.519C224.199 196.194 220.417 195.906 216.668 195.57C216.204 195.53 215.566 195.439 215.32 195.11C214.566 194.149 213.39 193.036 213.44 192.053C213.515 190.527 215.193 190.637 216.44 190.659C217.144 190.656 217.872 190.669 218.703 190.684Z" fill="#E5E5E5"/>
<path d="M293.849 238.867C292.469 239.366 291.385 240.018 290.28 240.095C289.339 240.162 288.342 239.576 287.355 239.278C287.726 238.465 287.865 237.176 288.478 236.899C291.349 235.591 294.285 234.416 297.306 233.475C298.717 233.032 299.948 233.99 299.487 235.566C298.6 238.669 297.449 241.695 296.343 244.735C296.133 245.291 295.686 245.911 295.173 246.169C294.072 246.721 292.846 247.047 291.679 247.466C291.541 246.248 291.076 244.944 291.376 243.853C291.829 242.238 292.851 240.789 293.849 238.867Z" fill="#E5E5E5"/>
<path d="M271.355 166.922C272.061 165.675 272.578 164.525 273.339 163.579C273.744 163.07 274.638 162.514 275.156 162.628C275.697 162.757 276.266 163.607 276.462 164.235C276.681 164.982 276.759 165.984 276.467 166.658C275.3 169.253 274.11 171.831 272.623 174.255C271.663 175.818 270.689 175.704 269.871 174.05C268.381 171.087 267.06 168.032 265.719 164.981C265.473 164.425 265.343 163.702 265.489 163.137C265.723 162.142 266.192 161.186 266.577 160.225C267.618 160.824 269.007 161.173 269.579 162.043C270.407 163.406 270.72 165.131 271.355 166.922Z" fill="#E5E5E5"/>
<path d="M275.218 273.016C273.874 277.031 272.685 280.644 271.449 284.225C271.301 284.666 270.984 285.201 270.604 285.394C269.672 285.853 268.644 286.122 267.649 286.468C267.429 285.596 267.185 284.708 267.005 283.829C266.912 283.432 266.944 283.032 266.907 282.376C266.065 282.529 265.337 282.743 264.597 282.774C263.836 282.808 262.496 282.844 262.378 282.534C262.084 281.717 261.948 280.395 262.43 279.852C263.683 278.423 265.136 277.061 266.765 276.103C268.822 274.88 271.117 274.05 273.329 273.11C273.732 272.933 274.25 273.046 275.218 273.016Z" fill="#E5E5E5"/>
<path d="M322.827 204.874C323.47 203.39 323.979 201.971 324.671 200.644C325.346 199.34 326.473 199.385 327.076 200.539C327.703 201.71 328.301 203.177 328.134 204.429C327.814 206.891 326.983 209.279 326.344 211.695C325.927 213.284 325.055 213.276 323.9 212.387C320.906 210.05 318.271 207.399 316.759 203.86C316.426 203.051 316.749 201.977 316.766 201.041C317.927 201.162 319.355 200.924 320.188 201.519C321.322 202.287 321.953 203.706 322.827 204.874Z" fill="#E5E5E5"/>
<path d="M300.566 299.107C299.146 298.929 297.989 298.952 296.976 298.618C296.272 298.393 295.452 297.755 295.251 297.107C295.107 296.657 295.85 295.838 296.359 295.332C296.726 294.954 297.324 294.597 297.804 294.614C300.524 294.763 303.258 294.868 305.929 295.316C307.189 295.523 307.863 296.727 307.155 298.078C305.027 302.11 301.545 304.503 297.341 305.887C296.15 306.289 295.211 305.341 295.682 304.053C296.082 302.945 296.865 301.891 297.704 301.035C298.441 300.3 299.473 299.823 300.566 299.107Z" fill="#E5E5E5"/>
<path d="M221.921 246.253C222.018 244.62 221.997 243.359 222.191 242.143C222.493 240.265 223.397 239.997 224.909 241.132C227.138 242.8 227.257 245.286 227.338 247.675C227.403 249.859 227.032 252.04 226.85 254.352C226.192 254.265 225.707 254.332 225.402 254.138C222.662 252.397 219.906 250.68 217.281 248.773C216.657 248.306 216.295 247.108 216.303 246.236C216.312 244.805 217.153 244.072 218.669 244.771C219.684 245.229 220.679 245.691 221.921 246.253Z" fill="#E5E5E5"/>
<path d="M340.046 299.49C339.142 298.39 338.285 297.551 337.671 296.564C336.851 295.242 337.383 294.399 338.945 294.448C339.633 294.468 340.375 294.561 340.949 294.872C344.182 296.586 347.385 298.367 350.655 300.177C346.297 303.91 337.034 305.507 333.264 303.227C334.335 299.987 337.671 300.563 340.046 299.49Z" fill="#E5E5E5"/>
<path d="M264.895 334.355C263.886 330.622 264.267 327.01 264.92 323.41C265.129 322.274 265.545 321.142 266.036 320.079C266.215 319.694 266.906 319.279 267.326 319.307C267.725 319.338 268.286 319.92 268.363 320.341C268.636 321.618 268.708 322.931 268.921 324.674C270.075 323.615 270.924 322.695 271.929 321.953C272.476 321.543 273.266 321.441 273.946 321.193C274.205 321.934 274.668 322.658 274.654 323.386C274.652 324.173 274.438 325.165 273.937 325.712C271.322 328.548 268.565 331.286 265.856 334.057C265.701 334.23 265.369 334.228 264.895 334.355Z" fill="#E5E5E5"/>
<path d="M253.202 169.427C254.053 170.578 254.832 171.556 255.537 172.588C256.187 173.548 255.839 174.253 254.726 174.289C253.718 174.327 252.554 174.31 251.71 173.883C248.58 172.275 245.557 170.461 241.999 168.433C247.463 166.572 252.125 163.717 257.749 164.79C258.478 164.927 259.103 165.518 259.793 165.89C259.305 166.518 258.929 167.415 258.3 167.715C257.001 168.324 255.537 168.589 254.162 169.004C253.864 169.079 253.622 169.226 253.202 169.427Z" fill="#E5E5E5"/>
<path d="M325.022 317.879C324.094 317.674 323.379 317.617 322.772 317.354C322.054 317.049 321.407 316.566 320.714 316.173C321.23 315.479 321.581 314.441 322.27 314.13C324.609 313.084 327.012 312.172 329.48 311.497C331.039 311.069 332.706 311.119 334.333 310.948C334.446 311.114 334.542 311.304 334.655 311.47C332.504 314.802 330.356 318.155 328.184 321.491C328.04 321.724 327.816 321.972 327.579 322.036C326.309 322.349 325.012 322.625 323.719 322.922C323.915 321.83 324.087 320.721 324.346 319.638C324.48 319.117 324.741 318.613 325.022 317.879Z" fill="#E5E5E5"/>
<path d="M286.755 186.488C286.084 187.127 285.554 187.866 284.856 188.241C284.064 188.675 282.992 189.159 282.244 188.922C281.608 188.726 280.797 187.568 280.837 186.877C280.935 184.331 281.281 181.782 281.694 179.262C281.897 177.982 282.981 177.786 283.961 178.395C287.671 180.685 290.903 183.539 293.215 187.264C293.476 187.672 293.384 188.767 293.138 188.894C292.529 189.191 291.593 189.402 291.026 189.132C289.599 188.458 288.305 187.491 286.755 186.488Z" fill="#E5E5E5"/>
<path d="M268.495 191.601C268.809 190.591 268.989 189.523 269.496 188.664C269.81 188.11 270.654 187.625 271.271 187.596C271.663 187.587 272.328 188.399 272.47 188.954C273.375 192.457 272.83 195.85 271.344 199.083C270.541 200.824 269.594 200.975 268.353 199.501C266.348 197.129 264.482 194.608 262.676 192.076C262.231 191.453 262.04 190.513 262.083 189.718C262.158 188.192 263.493 187.556 264.729 188.43C266.02 189.377 267.172 190.474 268.495 191.601Z" fill="#E5E5E5"/>
<path d="M359.356 276.283C359.082 279.69 359.055 282.968 358.494 286.158C358.209 287.784 357.221 289.538 356.048 290.724C354.875 291.911 353.628 291.205 353.727 289.467C353.862 287.35 354.355 285.271 354.748 282.983C353.632 283.91 352.663 284.853 351.526 285.556C351.045 285.871 350.19 285.84 349.597 285.657C349.358 285.597 349.215 284.691 349.271 284.204C349.782 280.962 355.481 276.054 358.729 276.024C358.92 276.052 359.11 276.183 359.356 276.283Z" fill="#E5E5E5"/>
<path d="M367.709 259.042C364.552 262.204 361.801 265.086 358.904 267.849C358.253 268.485 357.215 268.819 356.299 269.026C355.705 269.175 354.755 269.078 354.414 268.684C354.124 268.343 354.278 267.362 354.531 266.819C355.075 265.705 355.809 264.722 356.455 263.714C356.331 263.488 356.282 263.331 356.167 263.269C355.119 262.63 353.498 262.033 354.111 260.616C354.524 259.692 356.036 259.004 357.189 258.732C360.517 258.005 363.892 257.993 367.709 259.042Z" fill="#E5E5E5"/>
<path d="M198.006 270.233C201.519 272.352 204.759 274.334 207.995 276.296C208.11 276.358 208.272 276.452 208.314 276.569C208.773 277.729 209.215 278.913 209.658 280.097C208.555 280.069 207.417 280.192 206.324 279.997C205.32 279.826 204.377 279.314 203.11 278.839C203.243 280.141 203.395 281.211 203.424 282.284C203.485 283.765 202.604 284.277 201.457 283.552C200.52 282.955 199.458 282.008 199.192 281C198.398 277.994 197.942 274.907 197.426 271.83C197.38 271.465 197.7 271.055 198.006 270.233Z" fill="#E5E5E5"/>
<path d="M221.52 302.893C221.422 302.807 221.333 302.658 221.225 302.636C219.952 302.245 218.386 301.949 218.746 300.164C219.104 298.482 220.578 298.381 222.084 298.46C225.348 298.635 228.059 299.987 230.58 302.12C230.292 302.587 230.168 303.045 229.852 303.247C226.822 305.164 223.769 307.064 220.684 308.908C220.292 309.145 219.697 309.295 219.287 309.203C218.399 308.991 217.555 308.564 216.685 308.225C217.019 307.439 217.169 306.438 217.731 305.88C218.855 304.764 220.211 303.897 221.52 302.893Z" fill="#E5E5E5"/>
<path d="M271.354 310.785C269.101 309.785 267.146 309.061 265.352 308.081C263.353 306.994 261.411 305.771 259.625 304.375C259.021 303.904 258.934 302.739 258.614 301.885C259.464 301.773 260.357 301.445 261.134 301.615C262.667 301.958 264.128 302.585 265.893 303.176C265.718 302.213 265.441 301.373 265.453 300.521C265.442 299.777 265.74 299.018 265.917 298.282C266.661 298.499 267.673 298.481 268.116 298.981C269.053 300.034 269.982 301.274 270.406 302.586C271.086 304.617 271.395 306.779 271.74 308.912C271.845 309.494 271.493 310.18 271.354 310.785Z" fill="#E5E5E5"/>
<path d="M221.671 235.503C218.958 237.113 216.026 237.852 212.918 237.628C211.952 237.555 211.029 236.811 210.081 236.382C210.711 235.625 211.317 234.852 211.99 234.108C212.214 233.861 212.572 233.775 213.121 233.489C212.253 232.59 211.44 231.763 210.668 230.929C210.201 230.413 209.534 229.933 209.385 229.339C209.188 228.483 209.039 227.205 209.515 226.746C209.991 226.286 211.512 226.218 212.088 226.652C214.396 228.409 216.52 230.407 218.66 232.381C219.702 233.332 220.626 234.428 221.671 235.503Z" fill="#E5E5E5"/>
<path d="M342.943 215.709C344.191 214.592 345.397 213.13 347.003 214.331C348.514 215.466 348.162 217.291 347.388 218.737C346.411 220.551 345.26 222.314 343.931 223.901C342.702 225.347 341.584 225.239 340.956 223.488C339.908 220.57 339.151 217.537 338.534 214.478C338.391 213.8 339.323 212.885 339.741 212.105C340.448 212.577 341.278 212.924 341.843 213.526C342.333 214.059 342.539 214.85 342.943 215.709Z" fill="#E5E5E5"/>
<path d="M239.793 177.639C236.661 180.134 233.631 182.735 230.358 185.028C229.496 185.64 227.424 185.87 226.89 185.325C225.791 184.177 226.696 182.77 227.747 181.709C228.081 181.379 228.407 181.009 228.526 180.863C228.074 179.744 227.103 178.386 227.399 177.96C228.046 177.076 229.365 176.236 230.417 176.211C233.457 176.177 236.51 176.556 239.557 176.791C239.668 177.061 239.719 177.342 239.793 177.639Z" fill="#E5E5E5"/>
<path d="M314.228 279.493C314.706 280.753 315.575 282.005 315.27 282.495C314.739 283.337 313.502 284.059 312.492 284.201C310.956 284.417 309.334 284.152 307.765 283.96C306.261 283.777 304.771 283.446 302.842 283.091C303.838 282.185 304.652 281.416 305.5 280.724C307.647 278.967 309.682 277.044 312.004 275.566C313.043 274.901 315.294 274.514 315.855 275.095C317.162 276.475 315.69 277.84 314.717 278.99C314.513 279.234 314.261 279.446 314.228 279.493Z" fill="#E5E5E5"/>
<path d="M333.019 231.371C335.846 234.049 339.403 235.725 341.16 239.24C341.619 240.172 341.724 241.893 341.151 242.619C340.173 243.853 338.897 242.758 337.891 242.008C337.606 241.811 337.387 241.519 336.963 241.12C336.359 241.789 335.957 242.317 335.454 242.74C334.845 243.265 334.173 243.677 333.513 244.149C333.07 243.421 332.339 242.704 332.261 241.931C332.091 240.304 332.181 238.63 332.298 236.993C332.449 235.308 332.739 233.597 333.019 231.371Z" fill="#E5E5E5"/>
<path d="M246.357 253.944C244.413 257.736 242.15 260.57 239.414 263.076C239.023 263.437 238.458 263.747 237.945 263.778C237.165 263.816 236.377 263.586 235.591 263.479C235.765 262.723 235.78 261.891 236.139 261.246C236.619 260.351 237.373 259.592 238.265 258.457C237.177 258.281 236.402 258.235 235.674 257.994C235.125 257.824 234.336 257.47 234.219 257.056C234.099 256.622 234.541 255.858 234.948 255.474C237.172 253.454 240.004 253.417 242.788 253.347C243.8 253.33 244.882 253.693 246.357 253.944Z" fill="#E5E5E5"/>
<path d="M301.451 198.742C301.042 195.687 303.453 194.359 304.468 192.186C303.048 192.236 301.709 192.396 300.383 192.284C299.729 192.216 299.104 191.625 298.478 191.262C298.832 190.7 299.042 189.916 299.548 189.617C302.619 187.817 306.01 187.203 309.527 187.29C310.775 187.312 310.864 188.146 310.504 189.019C309.157 192.33 307.441 195.438 304.451 197.576C303.685 198.15 302.618 198.323 301.451 198.742Z" fill="#E5E5E5"/>
<path d="M216.561 277.374C215.401 274.061 214.238 270.729 213.118 267.41C212.974 266.959 212.852 266.401 212.96 265.967C213.144 265.271 213.369 264.339 213.894 264.037C214.27 263.823 215.154 264.471 215.792 264.791C216.157 264.973 216.459 265.271 216.886 265.566C217.411 265.036 217.826 264.463 218.36 264.097C218.955 263.72 219.829 263.168 220.297 263.352C220.769 263.557 221.207 264.596 221.159 265.247C220.872 269.609 219.357 273.593 217.282 277.347C217.034 277.35 216.806 277.35 216.561 277.374Z" fill="#E5E5E5"/>
<path d="M366.478 249.858C364.468 248.026 364.407 245.634 364.394 243.046C363.033 244.453 361.905 245.776 360.617 246.901C360.154 247.316 358.904 247.626 358.673 247.378C358.152 246.789 357.816 245.855 357.795 245.05C357.793 244.471 358.303 243.736 358.782 243.297C360.665 241.567 362.564 239.814 364.607 238.283C365.138 237.897 366.601 237.963 367.076 238.415C369.061 240.335 369.071 247.129 367.281 249.256C367.113 249.473 366.847 249.605 366.478 249.858Z" fill="#E5E5E5"/>
<path d="M222.016 218.554C223.096 217.426 224.147 216.137 225.41 215.1C225.95 214.65 226.964 214.756 227.746 214.614C227.886 215.5 228.356 216.493 228.098 217.244C227.79 218.17 226.963 218.983 226.219 219.677C224.856 220.961 223.391 222.138 221.95 223.332C220.46 224.597 219.347 224.405 218.511 222.65C217.098 219.653 217.325 216.566 218.26 213.495C218.417 212.99 219.076 212.622 219.492 212.174C219.927 212.634 220.62 213.026 220.782 213.577C221.309 215.222 221.61 216.887 222.016 218.554Z" fill="#E5E5E5"/>
<path d="M315.107 318.164C313.757 314.72 312.308 311.295 311.135 307.799C310.862 306.978 311.542 305.819 311.796 304.819C312.624 305.498 313.525 306.122 314.246 306.903C314.686 307.383 314.86 308.118 315.327 309.09C316.104 307.892 316.646 306.882 317.378 306.004C317.77 305.539 318.454 305.311 318.996 304.985C319.258 305.518 319.701 306.018 319.783 306.583C320.266 311.075 318.4 314.728 315.939 318.179C315.647 318.17 315.375 318.157 315.107 318.164Z" fill="#E5E5E5"/>
<path d="M340.838 268.66C341.248 268.295 341.472 268.047 341.752 267.872C342.403 267.464 343.081 267.093 343.736 266.704C344.106 267.487 344.855 268.304 344.778 269.023C344.308 272.941 342.486 276.152 339.073 279.153C338.49 277.311 337.931 275.942 337.629 274.505C337.136 272.128 336.743 269.734 336.494 267.334C336.422 266.705 336.978 266.003 337.23 265.335C337.865 265.635 338.605 265.832 339.101 266.281C339.733 266.912 340.171 267.724 340.838 268.66Z" fill="#E5E5E5"/>
<path d="M235.353 230.971C234.812 231.069 234.203 231.366 233.721 231.225C232.583 230.893 231.517 230.382 230.418 229.918C230.989 229.069 231.392 227.98 232.158 227.406C233.167 226.684 232.841 226.143 232.468 225.34C231.617 223.505 232.277 222.349 234.115 222.886C236.869 223.672 239.56 224.8 242.066 226.169C243.583 226.992 243.398 228.145 242.047 228.804C241.857 228.901 241.657 228.937 241.46 228.993C239.431 229.693 237.427 230.408 235.403 231.128C235.395 231.088 235.364 231.031 235.353 230.971Z" fill="#E5E5E5"/>
<path d="M343.815 204.86C346.288 203.873 348.539 202.801 350.875 202.088C352.21 201.68 353.742 201.671 355.151 201.789C355.826 201.853 356.721 202.561 357.002 203.194C357.171 203.557 356.356 204.43 355.874 204.973C355.478 205.418 354.889 205.711 354.431 206.043C354.427 206.251 354.392 206.402 354.414 206.522C354.633 207.498 354.871 208.47 355.089 209.446C354.032 209.555 352.917 209.923 351.925 209.709C348.784 208.952 345.719 207.933 343.815 204.86Z" fill="#E5E5E5"/>
<path d="M267.235 248.873C267.052 251.062 266.87 252.918 266.698 254.938C264.186 254.337 263.493 252.805 263.41 250.976C263.28 248.43 263.291 245.859 263.264 243.315C263.249 242.199 263.796 241.789 264.875 242.256C267.934 243.587 270.523 245.521 272.429 248.263C272.768 248.761 272.54 249.673 272.587 250.389C271.886 250.413 271.119 250.635 270.479 250.419C269.445 250.089 268.484 249.476 267.235 248.873Z" fill="#E5E5E5"/>
<path d="M248.611 294.147C247.69 294.894 247.152 295.468 246.514 295.833C245.892 296.174 245.142 296.268 244.454 296.476C244.316 295.713 243.793 294.772 244.063 294.205C244.858 292.528 245.756 290.852 246.96 289.494C248.319 287.963 250.056 286.799 251.997 285.162C252.62 289.172 253.049 292.679 252.197 296.211C252.039 296.82 251.147 297.272 250.597 297.786C250.08 297.217 249.486 296.682 249.081 296.051C248.833 295.599 248.828 294.999 248.611 294.147Z" fill="#E5E5E5"/>
<path d="M340.314 257.316C342.334 254.174 343.286 250.396 346.141 247.744C346.637 247.281 347.907 246.968 348.357 247.28C349.021 247.74 349.297 248.808 349.694 249.627C350.019 250.273 350.098 251.17 350.611 251.595C352.08 252.842 352.154 254.507 350.379 255.118C347.284 256.218 344.071 257.008 340.899 257.915C340.678 257.727 340.498 257.532 340.314 257.316Z" fill="#E5E5E5"/>
<path d="M299.366 211.697C302.225 212.38 304.969 213.002 307.659 213.778C308.009 213.88 308.44 215.232 308.228 215.436C306.521 217.217 304.715 218.912 302.83 220.517C302.363 220.913 301.544 221.082 300.91 221.011C299.453 220.86 298.465 220.211 299.41 218.568C300.104 217.365 300.033 216.632 298.576 216.026C297.838 215.725 296.777 214.446 296.939 214.085C297.363 213.221 298.373 212.623 299.366 211.697Z" fill="#E5E5E5"/>
<path d="M342.59 192.049C342.664 190.399 342.664 189.031 342.813 187.678C342.87 187.191 343.22 186.382 343.505 186.351C344.033 186.296 344.912 186.572 345.089 186.975C345.643 188.201 346.195 189.53 346.314 190.876C346.507 193.079 346.33 195.308 346.339 197.523C346.347 198.827 345.554 198.909 344.677 198.529C341.668 197.251 339.074 195.401 337.272 192.661C336.953 192.159 337.063 191.393 336.967 190.748C337.676 190.661 338.446 190.335 339.079 190.51C340.233 190.819 341.301 191.454 342.59 192.049Z" fill="#E5E5E5"/>
<path d="M321.53 259.997C320.436 259.906 319.544 259.902 318.667 259.75C317.212 259.496 317.154 258.719 318.048 257.707C319.566 256.023 326.728 254.952 328.553 256.217C328.908 256.463 329.152 257.579 328.931 257.847C326.942 260.135 324.839 262.361 322.748 264.542C322.381 264.92 321.852 265.202 321.325 265.381C320.838 265.552 320.295 265.526 319.79 265.597C319.744 265.004 319.48 264.348 319.681 263.855C320.152 262.568 320.849 261.385 321.53 259.997Z" fill="#E5E5E5"/>
<path d="M285.9 216.398C289.592 218.816 291.954 221.785 293.088 225.641C293.307 226.389 292.697 227.37 292.485 228.258C291.667 227.743 290.573 227.423 290.066 226.686C288.994 225.119 288.218 223.354 287.043 221.101C286.736 223.063 286.703 224.478 286.244 225.722C285.967 226.476 285.042 226.976 284.407 227.588C284.001 226.833 283.195 226.047 283.252 225.332C283.467 222.288 284.199 219.358 285.9 216.398Z" fill="#E5E5E5"/>
<path d="M212.421 291.675C213.588 290.801 214.456 290.104 215.387 289.521C215.739 289.292 216.377 289.155 216.678 289.329C216.979 289.502 217.226 290.182 217.148 290.549C216.269 294.272 214.008 297.003 210.77 298.916C209.647 299.575 208.923 299.127 208.916 297.719C208.903 295.359 208.765 293.001 208.86 290.663C208.9 289.516 209.297 288.388 209.7 287.299C209.826 286.966 210.461 286.581 210.824 286.64C211.163 286.682 211.573 287.229 211.686 287.623C211.951 288.859 212.144 290.151 212.421 291.675Z" fill="#E5E5E5"/>
<path d="M306.136 247.435C306.509 248.693 306.793 249.574 307.037 250.463C307.359 251.668 307.477 253.118 306.033 253.38C305.351 253.503 303.982 252.467 303.669 251.654C302.292 248.174 302.372 244.616 303.965 240.949C307.149 242.278 309.628 244.295 311.315 247.2C311.559 247.633 311.48 248.455 311.209 248.898C311.068 249.152 310.18 249.168 309.739 249.02C308.654 248.636 307.624 248.098 306.136 247.435Z" fill="#E5E5E5"/>
<path d="M282.366 308.664C282.169 309.86 281.991 311.053 281.77 312.232C281.565 313.388 281.171 314.641 279.765 314.316C279.223 314.186 278.624 312.824 278.65 312.052C278.733 308.97 279.927 306.185 281.481 302.981C284.486 306.187 287.977 308.413 288.506 312.814C288.593 313.523 288.155 314.307 287.958 315.047C287.157 314.633 286.102 314.41 285.65 313.746C284.558 312.183 283.778 310.397 282.849 308.701C282.705 308.706 282.537 308.695 282.366 308.664Z" fill="#E5E5E5"/>
<path d="M232.081 312.457C232.381 312.05 232.609 311.595 232.966 311.281C233.556 310.76 234.223 310.328 234.864 309.86C235.241 310.682 236.072 311.609 235.935 312.338C235.41 315.044 234.654 317.73 233.803 320.35C233.388 321.606 232.15 321.748 231.618 320.643C230.268 317.883 229.044 315.018 228.117 312.078C227.682 310.706 228.91 310.276 230.098 310.889C230.804 311.238 231.376 311.88 232.081 312.457Z" fill="#E5E5E5"/>
<path d="M289.406 165.224C288.464 163.799 287.764 162.911 287.297 161.939C287.09 161.479 287.161 160.617 287.475 160.29C287.736 160.015 288.839 160.043 289.054 160.315C290.658 162.531 292.169 164.806 293.57 167.163C293.686 167.349 292.703 168.667 292.263 168.643C289.251 168.484 286.22 168.226 283.234 167.752C282.552 167.648 282.04 166.539 281.464 165.877C282.305 165.372 283.117 164.479 283.964 164.47C285.553 164.431 287.188 164.88 289.406 165.224Z" fill="#E5E5E5"/>
<path d="M282.687 291.926C281.92 291.692 280.744 291.491 279.734 290.949C279.366 290.746 279.071 289.577 279.31 289.182C280.509 287.224 286.828 285.394 289.758 286.355C288.585 288.681 287.559 291.022 286.225 293.149C285.743 293.921 284.497 294.25 283.62 294.782C283.316 293.905 283.028 293.004 282.687 291.926Z" fill="#E5E5E5"/>
<path d="M255.032 268.305C255.711 269.653 256.411 270.769 256.861 271.993C257.318 273.257 256.681 273.973 255.39 273.482C252.495 272.37 250.299 270.427 249.164 267.483C248.701 266.303 249.201 265.404 250.571 265.301C252.561 265.189 254.57 265.073 256.569 265.125C257.276 265.142 258.089 265.513 258.609 265.978C259.05 266.354 259.148 267.123 259.385 267.743C258.841 267.946 258.296 268.252 257.743 268.29C256.87 268.386 255.987 268.318 255.032 268.305Z" fill="#E5E5E5"/>
<path d="M251.091 245.771C250.024 242.856 248.976 240.166 248.086 237.427C247.897 236.839 248.18 235.545 248.497 235.466C249.188 235.279 250.084 235.531 250.782 235.839C251.302 236.077 251.679 236.671 252.111 237.111C253.065 236.089 254.036 235.042 255.075 233.921C256.475 236.838 254.205 243.859 251.091 245.771Z" fill="#E5E5E5"/>
<path d="M316.721 175.998C316.061 176.698 315.146 177.713 314.054 178.885C312.881 175.617 315.032 169.197 318.106 166.837C319.224 170.033 320.37 173.036 321.258 176.108C321.6 177.31 320.745 177.962 319.49 177.444C318.55 177.055 317.664 176.511 316.721 175.998Z" fill="#E5E5E5"/>
</g>
<defs>
<clipPath id="clip0_101:35">
<rect width="175.154" height="174.848" fill="white" transform="translate(210.847 348.362) rotate(-100.278)"/>
</clipPath>
</defs>
</svg>
