<svg width="340" height="341" viewBox="0 0 340 341" fill="none" xmlns="http://www.w3.org/2000/svg">
<path d="M311.243 203.087C326.914 127.09 278.011 52.7783 202.014 37.107C126.016 21.4356 51.7045 70.3391 36.0331 146.336C20.3616 222.333 69.2652 296.645 145.262 312.316C221.259 327.988 295.571 279.084 311.243 203.087Z" stroke="#EAC4AB" stroke-width="4" stroke-miterlimit="10"/>
<g clip-path="url(#clip0_101:34)">
<path d="M128.196 85.6646C129.241 84.8871 130.231 84.026 131.342 83.3703C131.937 83.0236 132.727 83.0422 133.429 82.8799C133.442 83.6047 133.683 84.4489 133.398 85.0402C132.658 86.5304 131.868 88.0828 130.769 89.3004C128.594 91.7045 126.219 93.941 123.834 96.1393C122.408 97.452 121.373 97.1303 121.131 95.2389C120.446 89.7174 121.991 84.7641 125.363 80.4043C125.804 79.8451 126.883 79.7787 127.665 79.4886C127.923 80.3363 128.379 81.1887 128.384 82.0383C128.374 83.1376 127.986 84.2311 127.758 85.3395C127.879 85.4546 128.038 85.5596 128.196 85.6646Z" fill="#E5E5E5"/>
<path d="M89.7039 100.638C88.0772 99.5083 86.7846 98.7724 85.6704 97.7843C84.7354 96.9777 83.8744 95.9876 83.3225 94.8989C83.014 94.2937 83.1046 93.0666 83.5408 92.6149C83.9316 92.208 85.121 92.2186 85.7923 92.4653C86.7162 92.8003 87.6559 93.4093 88.3173 94.1415C90.4672 96.4986 92.5473 98.9316 94.5403 101.437C95.7002 102.904 95.4172 103.838 93.6154 104.171C89.9598 104.825 86.2737 105.365 82.582 105.669C80.3442 105.84 78.5837 104.484 78.5434 103.103C78.4959 101.757 80.6833 100.168 82.7713 100.111C83.843 100.08 84.9417 100.18 86.0058 100.273C87.0699 100.366 88.1268 100.494 89.7039 100.638Z" fill="#E5E5E5"/>
<path d="M153.067 48.6719C152.459 51.7963 149.677 53.0281 147.832 55.41C149.335 55.034 150.614 54.6116 151.916 54.4286C152.992 54.2894 154.35 53.9195 154.809 55.4585C155.216 56.8966 154.15 57.6879 153.056 58.0039C149.881 58.8658 146.655 59.6268 143.416 60.2768C141.853 60.5865 140.227 60.5941 138.606 60.7475C138.447 56.0926 148.447 47.6109 153.067 48.6719Z" fill="#E5E5E5"/>
<path d="M110.722 140.377C109.412 141.822 108.482 143.093 107.308 144.06C106.74 144.539 105.693 144.45 104.881 144.625C104.75 143.858 104.498 143.066 104.509 142.31C104.534 141.755 104.825 141.129 105.175 140.66C107.877 137.01 110.645 133.392 113.382 129.75C113.667 129.773 113.951 129.795 114.218 129.814C114.333 130.217 114.508 130.596 114.568 131.006C115.178 136.277 115.892 141.57 113.227 146.527C112.788 147.339 111.876 147.909 111.179 148.578C110.849 147.553 110.262 146.547 110.24 145.514C110.17 143.928 110.502 142.318 110.722 140.377Z" fill="#E5E5E5"/>
<path d="M80.872 55.7388C81.7819 56.6667 82.6548 57.4245 83.357 58.3095C83.6874 58.7207 83.9561 59.6066 83.7324 59.9035C83.4108 60.3246 82.5519 60.7253 82.0741 60.5906C80.1768 60.073 78.3081 59.4168 76.4882 58.6985C75.1008 58.1597 73.7874 57.4374 72.4423 56.7809C71.9477 56.5526 71.4078 56.369 71.0076 56.0337C69.5445 54.8112 69.7691 53.1965 71.5445 52.6419C75.7937 51.2974 80.1211 50.7996 84.5348 51.5472C84.8327 51.5906 85.2143 51.579 85.4108 51.764C86.2491 52.5146 87.0175 53.341 87.8139 54.1191C86.8953 54.6338 86.0133 55.4088 85.0133 55.6179C83.6975 55.8701 82.287 55.7057 80.872 55.7388Z" fill="#E5E5E5"/>
<path d="M83.6275 33.8833C81.9996 33.5476 80.8561 33.4021 79.79 33.0559C79.2812 32.8968 78.6217 32.4178 78.5169 31.9629C78.4325 31.5844 78.9681 30.7379 79.3711 30.6224C81.476 30.0454 83.6335 29.389 85.7949 29.2389C88.1748 29.0797 90.604 29.382 92.9955 29.6044C93.6505 29.6672 94.2617 30.1182 94.8912 30.3925C94.5482 30.9175 94.3152 31.6097 93.8449 31.9641C90.6788 34.2722 87.4715 36.5176 84.2505 38.7421C83.8256 39.0517 83.2132 39.3948 82.7629 39.3019C81.8934 39.1407 80.9868 38.8093 80.3034 38.2712C80.1343 38.128 80.6064 36.8893 81.0294 36.3266C81.6546 35.5708 82.4872 34.9481 83.6275 33.8833Z" fill="#E5E5E5"/>
<path d="M31.2571 102.235C31.9861 100.363 34.7306 98.9612 37.2984 99.2921C40.3372 99.7021 43.3756 100.202 46.3996 100.772C48.2252 101.112 48.4603 101.81 47.1069 103.12C45.1223 105.04 43.0683 106.945 40.8805 108.625C40.0026 109.292 38.6653 109.648 37.5488 109.635C35.9294 109.608 35.3553 108.189 36.2237 106.78C36.5739 106.22 37.0345 105.737 37.5089 105.275C37.9797 104.831 38.5366 104.494 39.0533 103.915C36.119 104.574 33.5738 103.958 31.2571 102.235Z" fill="#E5E5E5"/>
<path d="M22.9051 73.3948C22.1579 73.0783 21.4179 72.7271 20.6391 72.4762C19.9469 72.2432 19.191 72.2318 18.5477 71.9366C17.5413 71.4763 16.0215 71.0546 16.4875 69.6702C16.7628 68.8604 18.0615 67.9907 18.9845 67.8922C23.4403 67.3847 26.8296 69.5099 29.8722 72.7914C26.5954 75.6363 23.3131 78.2454 19.2269 79.5873C18.7786 79.7477 18.264 79.9665 17.8311 79.8772C17.0171 79.7094 16.2251 79.3475 15.4362 79.0584C15.7838 78.3357 15.9354 77.3378 16.4994 76.9667C17.9861 75.9733 19.6205 75.2271 21.2309 74.4217C21.7526 74.1682 22.3497 74.0747 22.909 73.9012C22.8928 73.7173 22.8903 73.5543 22.9051 73.3948Z" fill="#E5E5E5"/>
<path d="M83.1266 166.679C82.5466 166.253 82.3979 166.186 82.3638 166.088C80.8357 162.379 79.2904 158.666 77.7833 154.943C77.6499 154.627 77.5589 154.193 77.6578 153.888C77.9587 152.867 78.0997 151.307 78.7987 150.982C80.0648 150.358 80.7046 151.808 81.2432 152.786C81.5314 153.315 81.6387 153.933 81.8468 154.499C82.0796 154.421 82.3333 154.329 82.5662 154.25C83.0855 153.22 83.4771 152.109 84.1554 151.184C84.5366 150.649 85.3752 150.172 85.9854 150.189C86.3425 150.209 87.0365 151.309 86.9502 151.814C86.4275 155.137 85.8183 158.442 85.0359 161.711C84.6411 163.362 83.8378 164.894 83.1266 166.679Z" fill="#E5E5E5"/>
<path d="M106.259 66.4082C105.943 65.8376 105.548 65.3047 105.291 64.7101C104.241 62.2729 103.076 59.8662 102.256 57.3679C101.721 55.759 101.655 53.9762 101.558 52.259C101.526 51.801 102.145 50.8996 102.45 50.9084C103.078 50.9294 103.839 51.2669 104.283 51.7377C104.962 52.4735 105.4 53.4124 106.101 54.5679C106.68 53.4235 106.963 52.4889 107.539 51.7953C108.115 51.1017 108.989 50.6318 109.738 50.0641C110.062 50.9434 110.802 51.9084 110.655 52.7086C110.038 56.1381 109.227 59.5457 108.364 62.9425C108.037 64.1751 107.351 65.3154 106.82 66.4879C106.647 66.4521 106.453 66.4302 106.259 66.4082Z" fill="#E5E5E5"/>
<path d="M122.525 36.47C125.203 35.1266 127.618 33.837 130.094 32.6866C131.349 32.1149 132.673 31.6477 134.013 31.3644C134.75 31.2093 135.601 31.5473 136.391 31.656C136.202 32.4837 136.048 33.3186 135.811 34.1183C135.708 34.4402 135.436 34.709 135.023 35.31C136.175 35.7642 137.262 36.0967 138.22 36.6191C138.79 36.9173 139.47 37.4727 139.588 38.0387C139.686 38.4381 139.04 39.2076 138.55 39.4855C137.735 39.9315 136.758 40.38 135.857 40.3746C131.595 40.2902 127.541 39.2014 123.678 37.3577C123.398 37.2277 123.146 36.9592 122.525 36.47Z" fill="#E5E5E5"/>
<path d="M104.398 113.869C100.348 116.175 96.7457 118.321 92.5684 119.229C91.8878 119.378 91.0958 119.016 90.3613 118.9C90.5113 118.173 90.4367 117.309 90.8215 116.756C91.7204 115.461 91.5128 114.805 89.9745 114.56C89.9226 114.549 89.8569 114.517 89.8085 114.489C88.7542 113.911 86.7712 113.809 87.1649 112.337C87.4097 111.413 89.3483 110.242 90.4088 110.352C93.9164 110.678 97.3968 111.486 100.85 112.253C101.958 112.481 102.984 113.198 104.398 113.869Z" fill="#E5E5E5"/>
<path d="M42.381 143.111C43.1209 144.076 43.8241 144.781 44.2492 145.609C44.5063 146.113 44.5672 146.956 44.3077 147.426C44.1288 147.768 43.1635 147.985 42.7275 147.822C40.9769 147.118 39.2025 146.355 37.5992 145.375C35.4673 144.069 33.4511 142.551 31.4523 141.038C31.107 140.786 30.7613 140.011 30.9051 139.752C31.14 139.313 31.7774 138.848 32.2491 138.837C34.8333 138.738 37.4067 138.691 39.9827 138.807C41.5949 138.869 43.2376 139.045 44.785 139.508C45.5673 139.742 46.1477 140.692 46.8097 141.334C46.0613 141.812 45.3541 142.352 44.5578 142.711C43.9531 142.93 43.2455 142.946 42.381 143.111Z" fill="#E5E5E5"/>
<path d="M87.2188 67.8622C88.6088 67.9503 89.9577 67.9757 91.2744 68.1569C91.7318 68.2151 92.1489 68.6442 92.5981 68.9173C92.3249 69.3665 92.1515 69.9446 91.7648 70.244C89.4338 72.0924 86.6759 72.2458 83.8641 72.1354C82.772 72.0908 81.7013 71.9422 80.6199 71.8456C79.5385 71.749 79.1093 71.0286 79.7555 70.2591C82.3431 67.254 84.9928 64.2978 87.7149 61.4288C88.5455 60.5529 89.8995 60.2905 90.8268 61.2219C91.8748 62.2686 91.2881 63.5378 90.5125 64.4972C89.5901 65.6431 88.4503 66.6177 87.2188 67.8622Z" fill="#E5E5E5"/>
<path d="M69.7643 39.4742C68.9444 38.5468 68.0853 37.81 67.5706 36.8914C67.1898 36.199 67.237 35.2699 67.0824 34.4436C67.9917 34.3242 69.0835 33.8452 69.7751 34.1684C70.9786 34.7235 72.18 35.6393 72.9921 36.6914C74.4616 38.5832 75.6524 40.6884 77.1539 43.0382C76.1044 43.3995 75.4431 43.8048 74.7284 43.856C72.3276 44.0289 69.9125 44.2711 67.5205 44.139C66.165 44.0581 64.768 43.3908 63.5268 42.7557C63.0221 42.4892 62.5802 41.5675 62.6288 40.9818C62.6554 40.59 63.5913 40.0789 64.1674 39.9991C65.9585 39.7185 67.7623 39.6391 69.7643 39.4742Z" fill="#E5E5E5"/>
<path d="M21.3826 61.7788C22.2254 57.6918 22.9413 53.9576 23.7921 50.2694C23.9523 49.5803 24.5806 48.8974 25.1487 48.4187C25.5879 48.0399 26.3878 47.6632 26.862 47.8151C27.2531 47.9319 27.5636 48.7903 27.6434 49.3665C27.8192 50.7027 27.8493 52.0449 27.9543 53.6373C29.0919 53.0233 29.9382 52.4215 30.8731 52.0907C31.3769 51.9238 32.2607 52.0157 32.5708 52.3505C32.9084 52.7271 33.0822 53.8101 32.8066 54.0963C29.7665 57.3691 26.6811 60.6868 21.3826 61.7788Z" fill="#E5E5E5"/>
<path d="M164.494 102.7C163.94 103.02 163.797 103.189 163.651 103.195C159.171 103.119 154.717 102.833 150.915 100.081C150.38 99.6996 150.271 98.7384 149.981 98.0465C150.731 97.8221 151.476 97.3619 152.207 97.4044C153.455 97.4812 154.695 97.8631 156.184 98.1702C155.704 97.1686 155.154 96.3331 154.893 95.4125C154.686 94.6657 154.84 93.8309 154.841 93.0367C155.69 93.1215 156.798 92.9166 157.353 93.3742C158.793 94.5376 160.14 95.8808 161.241 97.3716C162.49 99.0193 163.419 100.908 164.494 102.7Z" fill="#E5E5E5"/>
<path d="M65.9795 157.727C64.5971 157.514 63.6125 157.474 62.7125 157.198C62.1517 157.028 61.3775 156.579 61.3038 156.149C61.2062 155.659 61.6618 154.851 62.1076 154.527C64.4269 152.911 67.1232 152.619 69.855 152.767C71.103 152.844 72.3565 153.156 73.561 153.531C74.8349 153.92 75.2248 154.831 74.1578 155.802C71.759 157.98 69.2842 160.087 66.7682 162.132C66.2663 162.552 65.4257 162.776 64.7636 162.748C63.4738 162.699 63.0484 161.347 63.9086 160.152C64.4819 159.386 65.1448 158.71 65.9795 157.727Z" fill="#E5E5E5"/>
<path d="M41.5428 37.1209C40.0904 37.5977 39.0434 38.1221 37.9538 38.2404C37.1454 38.3084 36.2984 37.863 35.4952 37.6432C35.8326 36.8823 35.9669 35.8808 36.5386 35.3849C38.7729 33.4805 41.5282 33.164 44.3507 33.2224C44.7633 33.2353 45.2004 33.2171 45.6125 33.3201C46.3398 33.4701 47.0493 33.7067 47.7695 33.8913C47.509 34.5417 47.3901 35.2935 46.9743 35.8217C45.1744 38.1587 43.3297 40.4503 41.3882 42.6859C40.7003 43.4829 39.7669 44.157 38.7969 44.5709C38.2996 44.7933 37.2886 44.5307 36.9235 44.1123C36.6032 43.7394 36.5786 42.633 36.893 42.2464C38.2312 40.5725 39.7558 39.0453 41.5428 37.1209Z" fill="#E5E5E5"/>
<path d="M57.3926 25.2235C57.4653 24.0831 57.3979 23.1845 57.5937 22.3221C57.7152 21.7333 58.0705 20.8858 58.5116 20.7601C58.9564 20.6171 59.7825 21.0764 60.1649 21.4983C62.439 23.9532 63.4131 26.9345 63.4523 30.2465C63.454 31.1135 63.2892 32.0003 63.1723 33.0053C60.0293 31.4364 57.0799 29.9796 54.1723 28.4954C53.8127 28.3129 53.3289 28.0326 53.2373 27.6887C52.9417 26.6709 52.3563 25.3947 52.7146 24.62C53.2697 23.4165 54.5837 24.0485 55.58 24.4706C56.1473 24.6959 56.7285 24.9422 57.3926 25.2235Z" fill="#E5E5E5"/>
<path d="M102.244 88.329C100.972 88.2833 99.8888 88.4572 98.9751 88.1604C98.1963 87.9096 97.5838 87.1152 96.8866 86.5562C97.4481 86.022 97.9777 85.0299 98.5604 85.0056C101.294 84.8832 104.037 84.8892 106.772 85.1101C108.051 85.2114 108.73 86.3806 107.85 87.499C106.13 89.7082 104.225 91.7706 102.35 93.8575C102.001 94.2368 101.441 94.5907 100.944 94.6328C99.8792 94.7201 98.7876 94.5853 97.7128 94.5442C97.9964 93.5194 98.0452 92.3198 98.6393 91.5396C99.5271 90.3866 100.819 89.5516 102.244 88.329Z" fill="#E5E5E5"/>
<path d="M107.45 23.1605C108.422 22.386 109.21 21.6278 110.129 21.1131C110.619 20.8351 111.519 20.6775 111.899 20.9364C112.292 21.2162 112.474 22.0842 112.429 22.6527C112.363 23.3251 112.101 24.1558 111.648 24.6039C109.869 26.3134 108.076 28.0019 106.094 29.4709C104.816 30.4169 104.069 30.0102 103.947 28.4143C103.708 25.5484 103.635 22.6627 103.544 19.7734C103.527 19.2462 103.655 18.6227 103.956 18.2153C104.467 17.4901 105.153 16.8734 105.775 16.2252C106.418 17.044 107.423 17.7747 107.602 18.6601C107.826 20.0243 107.519 21.5137 107.45 23.1605Z" fill="#E5E5E5"/>
<path d="M76.194 109.768C73.8122 112.563 71.6852 115.085 69.5308 117.566C69.2688 117.873 68.8403 118.2 68.4725 118.232C67.574 118.3 66.6591 118.183 65.7474 118.14C65.8525 117.367 65.944 116.573 66.0838 115.808C66.1379 115.458 66.2923 115.147 66.4759 114.607C65.7485 114.457 65.0935 114.394 64.4879 114.179C63.8649 113.96 62.775 113.555 62.7802 113.267C62.8089 112.514 63.1276 111.407 63.6911 111.126C65.1625 110.382 66.7718 109.757 68.3928 109.513C70.4442 109.196 72.5591 109.271 74.6436 109.232C75.0251 109.22 75.405 109.479 76.194 109.768Z" fill="#E5E5E5"/>
<path d="M136.569 70.3656C137.567 69.3798 138.436 68.4036 139.422 67.5598C140.388 66.7298 141.28 67.1305 141.391 68.2547C141.516 69.3999 141.522 70.7732 140.982 71.7271C139.927 73.6039 138.485 75.2564 137.188 76.993C136.339 78.1358 135.64 77.8473 134.998 76.758C133.347 73.9079 132.085 70.9215 132.015 67.585C132.009 66.8255 132.617 66.0662 132.934 65.319C133.829 65.7925 135.055 66.0634 135.532 66.8118C136.196 67.7972 136.243 69.143 136.569 70.3656Z" fill="#E5E5E5"/>
<path d="M88.1366 138.969C87.0513 138.367 86.1136 138.011 85.4062 137.413C84.9128 137.005 84.4597 136.225 84.5082 135.639C84.5384 135.23 85.4009 134.813 85.9746 134.57C86.3918 134.385 86.9889 134.291 87.3693 134.46C89.51 135.461 91.6751 136.431 93.6791 137.657C94.6259 138.231 94.7784 139.418 93.771 140.276C90.7526 142.831 87.1759 143.628 83.3454 143.38C82.2569 143.318 81.8089 142.25 82.6049 141.367C83.2857 140.605 84.2568 140.011 85.2094 139.594C86.0404 139.241 87.0255 139.192 88.1366 138.969Z" fill="#E5E5E5"/>
<path d="M41.9826 70.9737C42.5902 69.6907 42.9812 68.67 43.5311 67.7543C44.3822 66.341 45.1967 66.4187 46.0449 67.8213C47.2984 69.8852 46.5892 71.9236 45.8805 73.8718C45.2249 75.6504 44.2199 77.2847 43.3248 79.0861C42.8237 78.8022 42.4116 78.6992 42.2293 78.4449C40.5888 76.1568 38.9274 73.8823 37.4331 71.4979C37.0828 70.9202 37.1794 69.8388 37.4679 69.14C37.9395 67.9914 38.8534 67.6744 39.8459 68.7276C40.5145 69.4252 41.1658 70.1192 41.9826 70.9737Z" fill="#E5E5E5"/>
<path d="M119.776 152.066C119.405 150.888 118.987 149.936 118.813 148.943C118.582 147.613 119.282 147.107 120.523 147.652C121.07 147.891 121.637 148.207 121.998 148.643C124.044 151.068 126.044 153.539 128.089 156.055C123.373 157.646 115.404 155.931 113.109 152.876C115.02 150.616 117.518 152.16 119.776 152.066Z" fill="#E5E5E5"/>
<path d="M48.0205 155.775C48.4183 152.445 49.8949 149.662 51.5859 146.977C52.1216 146.131 52.8232 145.355 53.5626 144.659C53.8311 144.407 54.5219 144.297 54.8504 144.455C55.1616 144.609 55.4247 145.259 55.3497 145.623C55.1558 146.739 54.7887 147.818 54.395 149.29C55.6671 148.812 56.6478 148.346 57.6967 148.075C58.2698 147.922 58.9381 148.096 59.5656 148.117C59.5338 148.797 59.6717 149.529 59.4254 150.111C59.1685 150.744 58.6752 151.472 58.0944 151.75C55.0723 153.185 51.9676 154.495 48.8905 155.846C48.7096 155.935 48.4433 155.826 48.0205 155.775Z" fill="#E5E5E5"/>
<path d="M92.034 19.2957C92.3459 20.4975 92.6552 21.5362 92.8882 22.5953C93.1008 23.578 92.5918 24.0327 91.6852 23.7013C90.8616 23.4051 89.9311 23.0146 89.3903 22.3976C87.3927 20.0899 85.5485 17.6514 83.3422 14.8674C88.3412 15.14 93.0171 14.3529 97.1938 17.0377C97.7362 17.3843 98.0477 18.0623 98.4815 18.5851C97.8865 18.9318 97.2933 19.5317 96.6897 19.5697C95.4478 19.6386 94.1836 19.3779 92.9427 19.2665C92.6794 19.2302 92.4364 19.2704 92.034 19.2957Z" fill="#E5E5E5"/>
<path d="M101.732 161.994C101.052 161.529 100.495 161.252 100.092 160.843C99.6126 160.366 99.2486 159.767 98.8183 159.227C99.4587 158.835 100.077 158.114 100.732 158.087C102.952 158.003 105.182 158.048 107.386 158.303C108.779 158.464 110.104 159.044 111.468 159.434C111.505 159.604 111.521 159.788 111.558 159.958C108.748 161.942 105.934 163.944 103.106 165.925C102.915 166.066 102.654 166.192 102.442 166.167C101.32 166.008 100.187 165.81 99.0506 165.63C99.5618 164.815 100.059 163.978 100.619 163.191C100.895 162.815 101.268 162.494 101.732 161.994Z" fill="#E5E5E5"/>
<path d="M113.503 43.8894C112.755 44.1867 112.09 44.6093 111.407 44.6849C110.629 44.7774 109.609 44.8199 109.085 44.3867C108.636 44.0234 108.359 42.8288 108.615 42.2859C109.519 40.2695 110.623 38.3306 111.771 36.437C112.349 35.4729 113.285 35.6658 113.876 36.4739C116.119 39.5182 117.795 42.8608 118.449 46.6065C118.526 47.0197 118.098 47.8702 117.859 47.8931C117.272 47.9347 116.451 47.8014 116.082 47.4004C115.152 46.3961 114.424 45.1988 113.503 43.8894Z" fill="#E5E5E5"/>
<path d="M97.1554 42.0892C97.7353 41.3783 98.2255 40.5767 98.9119 40.0502C99.3439 39.706 100.18 39.5896 100.686 39.766C101.004 39.8858 101.276 40.7544 101.211 41.2464C100.804 44.3582 99.2663 46.9117 97.0238 49.0311C95.8136 50.1718 95.0032 49.9866 94.4821 48.3987C93.6373 45.8413 92.9525 43.2085 92.3197 40.5865C92.164 39.9406 92.3145 39.123 92.6061 38.4971C93.1612 37.2936 94.4413 37.2145 95.1526 38.3181C95.8842 39.4981 96.4559 40.7534 97.1554 42.0892Z" fill="#E5E5E5"/>
<path d="M142.828 139.649C141.505 142.301 140.421 144.93 138.936 147.314C138.18 148.531 136.817 149.622 135.489 150.196C134.161 150.771 133.387 149.799 134.029 148.433C134.823 146.773 135.893 145.261 136.951 143.547C135.752 143.932 134.667 144.376 133.525 144.574C133.036 144.671 132.358 144.369 131.94 144.03C131.768 143.904 131.946 143.129 132.149 142.755C133.61 140.312 139.785 138.209 142.407 139.238C142.552 139.322 142.662 139.489 142.828 139.649Z" fill="#E5E5E5"/>
<path d="M155.133 128.484C151.569 130.006 148.422 131.433 145.196 132.718C144.466 133.018 143.523 132.95 142.72 132.821C142.193 132.748 141.46 132.362 141.313 131.935C141.191 131.567 141.632 130.827 142.012 130.472C142.811 129.752 143.719 129.199 144.565 128.598C144.539 128.375 144.55 128.233 144.478 128.146C143.842 127.293 142.731 126.287 143.683 125.346C144.315 124.736 145.754 124.672 146.769 124.827C149.683 125.32 152.402 126.404 155.133 128.484Z" fill="#E5E5E5"/>
<path d="M14.9751 82.5201C17.1151 85.3626 19.0795 88.0065 21.0475 90.633C21.1198 90.7201 21.2196 90.849 21.2155 90.9565C21.209 92.0385 21.1817 93.1341 21.1543 94.2298C20.2758 93.8501 19.3202 93.5808 18.5049 93.0696C17.7516 92.6074 17.1594 91.8895 16.2937 91.0971C15.9786 92.1876 15.7547 93.0983 15.4304 93.9703C15.0001 95.1815 14.1255 95.308 13.4376 94.3537C12.877 93.5701 12.3287 92.4641 12.4416 91.5665C12.7766 88.8913 13.4096 86.2595 13.9906 83.617C14.0722 83.3088 14.4619 83.0823 14.9751 82.5201Z" fill="#E5E5E5"/>
<path d="M23.3144 116.413C23.263 116.312 23.2396 116.162 23.1602 116.11C22.2629 115.383 21.0987 114.638 21.9666 113.318C22.7993 112.082 24.0176 112.477 25.2038 113.029C27.7733 114.227 29.5163 116.193 30.8537 118.726C30.4705 119.008 30.2224 119.336 29.9029 119.396C26.8444 119.957 23.7721 120.497 20.6932 120.982C20.301 121.045 19.7743 120.973 19.4738 120.766C18.828 120.308 18.2873 119.691 17.6976 119.136C18.2209 118.612 18.6658 117.855 19.2986 117.589C20.564 117.055 21.9354 116.796 23.3144 116.413Z" fill="#E5E5E5"/>
<path d="M60.8519 138.904C59.3629 137.369 58.0246 136.155 56.8988 134.785C55.6421 133.262 54.4761 131.649 53.491 129.948C53.158 129.374 53.4655 128.408 53.4841 127.617C54.2043 127.802 55.0295 127.828 55.5994 128.216C56.7218 128.989 57.6939 129.966 58.9222 131.014C59.0936 130.182 59.1433 129.416 59.4283 128.735C59.6607 128.133 60.1458 127.619 60.527 127.084C61.0551 127.499 61.8751 127.813 62.0696 128.359C62.4823 129.509 62.8283 130.808 62.7449 132C62.6332 133.855 62.1819 135.694 61.7687 137.522C61.6651 138.025 61.1597 138.462 60.8519 138.904Z" fill="#E5E5E5"/>
<path d="M45.2631 62.2437C42.5592 62.661 39.9604 62.3057 37.533 61.119C36.7792 60.7469 36.2783 59.8492 35.6545 59.197C36.4059 58.7923 37.1437 58.3667 37.9262 57.9864C38.1871 57.8597 38.5024 57.9066 39.0367 57.8543C38.63 56.8497 38.2437 55.9215 37.892 55.0004C37.6838 54.4339 37.3025 53.8316 37.375 53.305C37.4939 52.5531 37.7882 51.4764 38.32 51.2611C38.8519 51.0458 40.0977 51.4832 40.4205 52.0192C41.7081 54.1804 42.7694 56.4756 43.8517 58.7569C44.3826 59.8594 44.7709 61.0408 45.2631 62.2437Z" fill="#E5E5E5"/>
<path d="M149.243 85.5994C150.609 85.1047 152.053 84.3192 152.956 85.8053C153.804 87.208 152.929 88.5621 151.838 89.4746C150.465 90.6178 148.968 91.6631 147.385 92.5102C145.927 93.2748 145.063 92.8258 145.125 91.2136C145.227 88.5266 145.601 85.8412 146.095 83.1808C146.199 82.5885 147.246 82.1543 147.835 81.6619C148.251 82.2712 148.806 82.819 149.065 83.4864C149.287 84.0738 149.196 84.7772 149.243 85.5994Z" fill="#E5E5E5"/>
<path d="M78.5858 21.5597C75.2577 22.5525 71.9774 23.6634 68.6019 24.4478C67.7094 24.661 65.968 24.1755 65.715 23.5637C65.2025 22.2844 66.3865 21.4453 67.5756 20.9322C67.9511 20.775 68.3337 20.583 68.4763 20.5041C68.4757 19.4568 68.1338 18.0503 68.5098 17.8028C69.3173 17.3014 70.6505 17.0527 71.5051 17.3734C73.9616 18.3313 76.2947 19.6248 78.6701 20.8007C78.6721 21.0539 78.6221 21.2964 78.5858 21.5597Z" fill="#E5E5E5"/>
<path d="M105.481 127.615C105.457 128.784 105.751 130.072 105.347 130.368C104.647 130.874 103.418 131.054 102.56 130.84C101.254 130.517 100.034 129.778 98.8349 129.115C97.6839 128.481 96.5925 127.732 95.1553 126.822C96.2501 126.416 97.1539 126.061 98.0607 125.778C100.357 125.06 102.617 124.172 104.964 123.735C106.016 123.537 107.952 123.954 108.215 124.604C108.819 126.137 107.193 126.759 106.038 127.369C105.794 127.499 105.523 127.588 105.481 127.615Z" fill="#E5E5E5"/>
<path d="M136.186 94.9852C137.593 98.0558 139.912 100.556 140.187 103.953C140.254 104.851 139.781 106.27 139.085 106.668C137.899 107.345 137.227 106.051 136.66 105.121C136.495 104.871 136.414 104.565 136.201 104.106C135.499 104.448 135.005 104.744 134.463 104.921C133.802 105.146 133.129 105.26 132.445 105.426C132.324 104.697 131.968 103.883 132.156 103.236C132.546 101.872 133.16 100.554 133.785 99.2746C134.452 97.9677 135.24 96.6858 136.186 94.9852Z" fill="#E5E5E5"/>
<path d="M59.1511 85.0758C56.3589 87.4971 53.6205 89.0447 50.6071 90.1746C50.1761 90.3385 49.6208 90.4045 49.1986 90.2633C48.5583 90.041 47.9992 89.6007 47.4013 89.2608C47.786 88.7082 48.0674 88.0441 48.5657 87.6413C49.2419 87.0766 50.0937 86.7106 51.1794 86.0859C50.3604 85.5921 49.7518 85.3041 49.2446 84.8745C48.8581 84.5601 48.3376 84.0195 48.378 83.6486C48.4219 83.2605 49.0247 82.789 49.4766 82.6114C51.9199 81.707 54.2103 82.5945 56.4733 83.4403C57.2933 83.7538 58.0454 84.3964 59.1511 85.0758Z" fill="#E5E5E5"/>
<path d="M121.357 58.5085C122.017 55.9185 124.388 55.6309 125.908 54.2112C124.749 53.7916 123.62 53.4867 122.59 52.9673C122.085 52.7007 121.774 52.0226 121.388 51.5279C121.855 51.1908 122.278 50.6281 122.781 50.5513C125.835 50.0979 128.762 50.7014 131.564 51.9111C132.56 52.3332 132.362 53.0325 131.79 53.6186C129.633 55.846 127.246 57.7911 124.148 58.5425C123.346 58.7562 122.432 58.5496 121.357 58.5085Z" fill="#E5E5E5"/>
<path d="M27.5905 94.2752C27.73 91.2347 27.8731 88.1769 28.0473 85.1435C28.0775 84.7345 28.1601 84.246 28.3874 83.9318C28.7615 83.4312 29.2441 82.7543 29.7647 82.6811C30.1361 82.6313 30.6375 83.4389 31.0475 83.9026C31.2817 84.1675 31.4288 84.5048 31.6762 84.8808C32.2708 84.6242 32.7894 84.2979 33.3381 84.1763C33.9387 84.0655 34.8205 83.9043 35.1378 84.2044C35.4514 84.5218 35.4664 85.4999 35.2172 86.0082C33.5738 89.4246 31.0642 92.1389 28.1788 94.4867C27.9781 94.4093 27.7948 94.3353 27.5905 94.2752Z" fill="#E5E5E5"/>
<path d="M157.118 120.696C156.093 118.571 156.819 116.626 157.647 114.54C156.096 115.232 154.76 115.931 153.36 116.419C152.852 116.603 151.747 116.447 151.641 116.172C151.413 115.53 151.445 114.67 151.689 114.016C151.875 113.549 152.523 113.123 153.051 112.925C155.126 112.143 157.222 111.347 159.362 110.777C159.914 110.639 161.069 111.166 161.305 111.684C162.28 113.871 160.087 119.341 157.958 120.472C157.753 120.592 157.496 120.612 157.118 120.696Z" fill="#E5E5E5"/>
<path d="M51.0311 48.7187C52.2656 48.1608 53.5285 47.4644 54.8801 47.039C55.4603 46.8517 56.2416 47.2656 56.917 47.4048C56.7426 48.1633 56.7993 49.1138 56.3489 49.6348C55.8005 50.28 54.8723 50.6663 54.0485 50.9839C52.5365 51.5748 50.9766 52.0476 49.4304 52.5412C47.8216 53.0761 46.9889 52.5613 46.8845 50.8788C46.7179 48.0098 47.9009 45.5998 49.6478 43.4324C49.9377 43.0769 50.5867 42.9941 51.0666 42.7681C51.2682 43.279 51.6984 43.8191 51.6504 44.3148C51.5409 45.8088 51.2445 47.2462 51.0311 48.7187Z" fill="#E5E5E5"/>
<path d="M93.6628 159.012C93.6923 155.805 93.6353 152.579 93.8243 149.386C93.8703 148.638 94.7936 147.925 95.3215 147.204C95.7675 148.018 96.2899 148.812 96.6177 149.674C96.8156 150.202 96.7182 150.85 96.7785 151.783C97.7919 151.071 98.5551 150.434 99.4284 149.964C99.8945 149.717 100.519 149.756 101.06 149.669C101.099 150.182 101.293 150.728 101.176 151.209C100.109 154.979 97.4252 157.315 94.327 159.294C94.0952 159.192 93.8808 159.093 93.6628 159.012Z" fill="#E5E5E5"/>
<path d="M130.399 127.517C130.847 127.357 131.108 127.23 131.389 127.18C132.045 127.063 132.711 126.983 133.364 126.883C133.408 127.632 133.746 128.533 133.451 129.086C131.804 132.086 129.298 134.079 125.58 135.388C125.708 133.718 125.701 132.435 125.924 131.181C126.297 129.109 126.757 127.055 127.334 125.044C127.479 124.514 128.154 124.13 128.573 123.675C128.987 124.121 129.518 124.519 129.772 125.041C130.076 125.754 130.165 126.548 130.399 127.517Z" fill="#E5E5E5"/>
<path d="M57.7394 63.0291C57.2718 62.9327 56.6855 62.9743 56.3438 62.7052C55.5361 62.0692 54.8436 61.3126 54.1093 60.5834C54.844 60.0849 55.5212 59.3399 56.3235 59.1262C57.3689 58.8724 57.2819 58.3309 57.2414 57.5642C57.1513 55.8124 58.0572 55.0965 59.362 56.1238C61.3226 57.6475 63.1222 59.4269 64.6957 61.3401C65.6494 62.4937 65.1275 63.361 63.8265 63.4538C63.6426 63.4701 63.4694 63.4344 63.2927 63.416C61.4344 63.3216 59.59 63.2482 57.7282 63.1712C57.7353 63.1366 57.7287 63.0811 57.7394 63.0291Z" fill="#E5E5E5"/>
<path d="M153.459 77.1525C155.768 77.1594 157.926 77.0266 160.037 77.2091C161.243 77.3134 162.478 77.8028 163.574 78.3538C164.096 78.624 164.587 79.4834 164.608 80.0835C164.626 80.4304 163.688 80.8687 163.124 81.1497C162.661 81.3793 162.092 81.4245 161.617 81.543C161.546 81.709 161.469 81.8195 161.448 81.9235C161.308 82.7792 161.185 83.6385 161.044 84.4942C160.158 84.2392 159.142 84.1742 158.413 83.6809C156.131 82.0547 153.995 80.2422 153.459 77.1525Z" fill="#E5E5E5"/>
<path d="M77.5911 87.7589C76.7348 89.46 75.9876 90.8947 75.1945 92.4644C73.3677 91.1669 73.3071 89.7101 73.8327 88.2116C74.5526 86.1213 75.3938 84.056 76.1967 82.0009C76.5454 81.0978 77.1185 80.9452 77.8355 81.6708C79.8658 83.7324 81.3219 86.127 81.9674 88.9503C82.0788 89.4607 81.5998 90.1202 81.4055 90.7121C80.8346 90.504 80.1449 90.434 79.6998 90.0534C78.9751 89.4526 78.4008 88.6481 77.5911 87.7589Z" fill="#E5E5E5"/>
<path d="M47.9432 118.152C46.96 118.454 46.341 118.742 45.7093 118.828C45.0986 118.901 44.4649 118.734 43.8445 118.678C43.9802 118.02 43.8644 117.094 44.2654 116.725C45.4475 115.633 46.7127 114.576 48.1213 113.873C49.7109 113.082 51.4852 112.707 53.577 112.019C52.7797 115.448 51.9887 118.408 50.1597 120.974C49.8346 121.412 48.9706 121.487 48.3623 121.722C48.1303 121.097 47.8253 120.474 47.7043 119.835C47.6515 119.391 47.8416 118.907 47.9432 118.152Z" fill="#E5E5E5"/>
<path d="M133.651 118.222C136.295 116.348 138.284 113.617 141.44 112.408C141.989 112.196 143.112 112.356 143.373 112.752C143.758 113.337 143.635 114.287 143.689 115.074C143.741 115.699 143.514 116.447 143.789 116.954C144.567 118.433 144.087 119.796 142.461 119.714C139.615 119.596 136.774 119.191 133.928 118.893C133.812 118.671 133.73 118.455 133.651 118.222Z" fill="#E5E5E5"/>
<path d="M115.483 68.2563C117.562 69.7322 119.569 71.1209 121.481 72.6166C121.729 72.8122 121.639 74.0393 121.402 74.135C119.452 75.0146 117.45 75.7934 115.413 76.4748C114.909 76.6417 114.196 76.5126 113.708 76.2496C112.585 75.6568 112 74.8141 113.293 73.7988C114.241 73.0554 114.421 72.4427 113.446 71.4832C112.949 71.0016 112.51 69.6292 112.758 69.3914C113.378 68.8333 114.385 68.6798 115.483 68.2563Z" fill="#E5E5E5"/>
<path d="M156.623 66.4487C157.217 65.1449 157.66 64.0447 158.218 63.0042C158.421 62.6309 158.965 62.0931 159.204 62.1605C159.647 62.288 160.265 62.7945 160.277 63.176C160.325 64.3415 160.339 65.59 159.999 66.7116C159.44 68.5462 158.577 70.282 157.866 72.0672C157.45 73.1189 156.785 72.9277 156.203 72.3381C154.196 70.3356 152.709 68.0067 152.146 65.2186C152.052 64.7118 152.389 64.1312 152.52 63.5806C153.119 63.7402 153.844 63.7272 154.296 64.0732C155.125 64.6954 155.779 65.5524 156.623 66.4487Z" fill="#E5E5E5"/>
<path d="M117.671 114.295C116.82 113.867 116.104 113.575 115.448 113.169C114.359 112.493 114.564 111.849 115.611 111.325C117.378 110.461 123.487 111.92 124.545 113.528C124.751 113.841 124.586 114.818 124.322 114.962C121.98 116.159 119.567 117.268 117.178 118.346C116.761 118.531 116.244 118.587 115.762 118.56C115.315 118.54 114.886 118.343 114.457 118.236C114.612 117.745 114.612 117.131 114.933 116.8C115.729 115.917 116.673 115.191 117.671 114.295Z" fill="#E5E5E5"/>
<path d="M103.127 67.6763C105.314 70.8174 106.252 73.9718 105.916 77.4412C105.849 78.1136 105.041 78.7052 104.583 79.351C104.091 78.6718 103.315 78.0603 103.146 77.3033C102.791 75.6955 102.739 74.0237 102.523 71.8307C101.64 73.3097 101.155 74.4373 100.384 75.2893C99.9158 75.8067 99.0101 75.9088 98.3009 76.1959C98.2186 75.4567 97.8252 74.5631 98.1024 74.0065C99.261 71.6275 100.8 69.5074 103.127 67.6763Z" fill="#E5E5E5"/>
<path d="M19.6267 104.441C20.8493 104.115 21.7735 103.836 22.7108 103.668C23.0684 103.598 23.6262 103.695 23.812 103.932C23.9979 104.168 23.9768 104.796 23.7948 105.065C21.8817 107.776 19.1785 109.241 15.9539 109.731C14.8362 109.898 14.3994 109.303 14.85 108.168C15.6035 106.265 16.2566 104.323 17.0896 102.473C17.4938 101.563 18.1781 100.784 18.8554 100.039C19.0648 99.8111 19.7 99.7074 19.973 99.872C20.2322 100.016 20.3849 100.589 20.3481 100.942C20.1613 102.023 19.8981 103.124 19.6267 104.441Z" fill="#E5E5E5"/>
<path d="M109.354 99.2017C109.247 100.335 109.19 101.136 109.099 101.929C108.968 103.004 108.593 104.208 107.346 103.951C106.757 103.83 105.991 102.552 106.003 101.796C106.022 98.5506 107.239 95.7142 109.709 93.2807C111.839 95.381 113.181 97.8061 113.597 100.69C113.654 101.117 113.324 101.753 112.962 102.022C112.766 102.18 112.047 101.905 111.74 101.643C110.991 100.984 110.337 100.217 109.354 99.2017Z" fill="#E5E5E5"/>
<path d="M70.3982 140.764C69.8519 141.663 69.3228 142.565 68.7627 143.442C68.2235 144.306 67.5004 145.186 66.4748 144.469C66.0811 144.189 66.0402 142.899 66.3109 142.287C67.3763 139.834 69.2392 137.98 71.5265 135.906C72.9063 139.458 74.9939 142.38 73.9938 146.092C73.8342 146.691 73.2279 147.179 72.8294 147.711C72.3197 147.119 71.5425 146.597 71.394 145.917C71.0221 144.305 70.9732 142.616 70.7751 140.95C70.6574 140.908 70.526 140.845 70.3982 140.764Z" fill="#E5E5E5"/>
<path d="M28.7135 127.528C29.086 127.298 29.4172 127.005 29.8064 126.869C30.4493 126.641 31.1263 126.509 31.7932 126.34C31.8301 127.124 32.1986 128.139 31.852 128.681C30.5535 130.688 29.0751 132.604 27.5418 134.436C26.8014 135.313 25.7593 135.026 25.6893 133.964C25.4971 131.306 25.4404 128.605 25.647 125.939C25.7411 124.695 26.8679 124.746 27.6256 125.625C28.0803 126.134 28.3327 126.836 28.7135 127.528Z" fill="#E5E5E5"/>
<path d="M122.522 27.6408C122.226 26.1895 121.951 25.248 121.89 24.3148C121.872 23.8778 122.209 23.207 122.567 23.0462C122.866 22.9092 123.745 23.289 123.83 23.5773C124.402 25.8799 124.881 28.1993 125.245 30.5493C125.278 30.7367 124.06 31.4785 123.714 31.3169C121.342 30.2139 118.987 29.0242 116.738 27.6757C116.223 27.3709 116.17 26.3129 115.921 25.5935C116.761 25.4598 117.704 25.0042 118.389 25.2719C119.68 25.7547 120.85 26.646 122.522 27.6408Z" fill="#E5E5E5"/>
<path d="M76.0784 127.402C75.5365 126.965 74.6555 126.422 74.0185 125.659C73.7878 125.377 73.9292 124.341 74.2497 124.1C75.8485 122.913 81.5255 123.488 83.5717 125.21C81.8739 126.701 80.2903 128.252 78.5279 129.532C77.8905 129.996 76.7816 129.858 75.9034 130.002C75.9428 129.197 76.0032 128.379 76.0784 127.402Z" fill="#E5E5E5"/>
<path d="M61.479 99.4397C61.5891 100.744 61.7905 101.869 61.756 102.999C61.7144 104.164 60.97 104.534 60.0906 103.721C58.1214 101.889 56.9836 99.614 57.0242 96.8781C57.0342 95.7788 57.7277 95.2177 58.863 95.5782C60.5 96.1324 62.1543 96.6902 63.7454 97.3794C64.3092 97.622 64.8434 98.1836 65.1106 98.7261C65.3438 99.1714 65.1735 99.8224 65.1631 100.398C64.6603 100.385 64.1224 100.454 63.6655 100.306C62.9316 100.1 62.2435 99.7598 61.479 99.4397Z" fill="#E5E5E5"/>
<path d="M65.6072 80.0338C65.6926 77.3432 65.7214 74.8396 65.8923 72.3472C65.9302 71.8134 66.5774 70.8636 66.858 70.9034C67.4749 70.9764 68.1135 71.4692 68.5754 71.9436C68.9165 72.3028 69.0274 72.9034 69.2325 73.3971C70.3314 72.8835 71.4512 72.3561 72.651 71.7911C72.832 74.5907 68.7314 79.5045 65.6072 80.0338Z" fill="#E5E5E5"/>
<path d="M141.009 45.1565C140.251 45.5057 139.187 46.0265 137.928 46.6155C138.043 43.606 141.853 39.1378 145.09 38.2347C144.955 41.1677 144.904 43.9556 144.624 46.7143C144.51 47.7922 143.61 48.04 142.769 47.2165C142.138 46.5989 141.601 45.8744 141.009 45.1565Z" fill="#E5E5E5"/>
</g>
<defs>
<clipPath id="clip0_101:34">
<rect width="151.91" height="151.645" fill="white" transform="translate(-6.10352e-05 149.538) rotate(-78.3483)"/>
</clipPath>
</defs>
</svg>
