<svg width="616" height="33" viewBox="0 0 616 33" fill="none" xmlns="http://www.w3.org/2000/svg">
<path d="M18.8979 17.0905L9.1324 3.64049L0.8676 18.862L17.4664 19.727L18.8979 17.0905ZM436.375 11.2512L436.099 12.7257L436.375 11.2512ZM599.554 25.5694L615.638 29.7641L612.362 12.756L598.987 22.6236L599.554 25.5694ZM16.2875 19.0777C40.1168 28.9808 95.3414 41.6558 174.516 22.7189L173.818 19.8012C95.2467 38.5938 40.6701 25.962 17.4388 16.3074L16.2875 19.0777ZM174.516 22.7189C273.702 -1.00448 363.581 -0.823284 436.099 12.7257L436.65 9.77674C363.707 -3.85173 273.402 -4.01736 173.818 19.8012L174.516 22.7189ZM436.099 12.7257C501.445 24.9346 559.684 31.4124 600.97 25.2955L600.53 22.3279C559.786 28.3645 501.986 21.9837 436.65 9.77674L436.099 12.7257Z" fill="#7B61FF"/>
</svg>
