<svg width="84" height="41" viewBox="0 0 84 41" fill="none" xmlns="http://www.w3.org/2000/svg">
<path d="M83.9927 1.53027H70.5373L69.8668 2.20377V28.8861L70.3499 32.3853H69.8199V32.7426H69.3704V32.2946H68.4773V32.6518H68.0205V32.1145H67.3104V32.5625H65.6911L62.7335 32.0252V30.6782H63.9883L64.4305 28.5259H68.4231C68.5552 28.5259 68.6818 28.4734 68.7751 28.3801C68.8685 28.2867 68.9209 28.1601 68.9209 28.0281V8.39411C68.9211 8.32882 68.9084 8.26414 68.8834 8.20382C68.8584 8.1435 68.8217 8.08874 68.7754 8.0427C68.7291 7.99667 68.6741 7.96029 68.6136 7.93566C68.5532 7.91103 68.4884 7.89865 68.4231 7.89923H43.4949C43.3637 7.89962 43.2381 7.95188 43.1454 8.04461C43.0526 8.13733 43.0004 8.26298 43 8.39411V28.031C43 28.3048 43.2225 28.5288 43.4978 28.5288H47.9122L48.205 30.6811H50.2665L45.2884 35.6591L44.2562 37.8553C44.2562 37.8553 48.5608 39.4702 54.0337 39.4702C59.5051 39.4702 68.2064 38.2155 69.3719 38.2155H76.4583V36.4205L76.2577 34.8582H78.8111C78.5183 35.0134 78.3426 35.2155 78.3426 35.438V36.87C78.3426 37.3678 79.2255 37.7675 80.3192 37.7675C81.407 37.7675 82.2958 37.3722 82.2958 36.8714V35.4366C82.2958 34.9417 81.41 34.5435 80.3192 34.5435C80.0454 34.5435 79.7877 34.5727 79.552 34.6167V34.3678H76.1991L76.1186 33.7338H84L83.9927 1.53027ZM44.7936 26.4644V9.69133H66.858V26.4644H44.795H44.7936Z" fill="#953427"/>
<path d="M5.625 14.75C5.625 13.7554 6.02009 12.8016 6.72335 12.0983C7.42661 11.3951 8.38044 11 9.375 11H20.625C21.6196 11 22.5734 11.3951 23.2766 12.0983C23.9799 12.8016 24.375 13.7554 24.375 14.75V37.25C24.375 38.2446 23.9799 39.1984 23.2766 39.9016C22.5734 40.6049 21.6196 41 20.625 41H9.375C8.38044 41 7.42661 40.6049 6.72335 39.9016C6.02009 39.1984 5.625 38.2446 5.625 37.25V14.75ZM16.875 35.375C16.875 34.8777 16.6775 34.4008 16.3258 34.0492C15.9742 33.6975 15.4973 33.5 15 33.5C14.5027 33.5 14.0258 33.6975 13.6742 34.0492C13.3225 34.4008 13.125 34.8777 13.125 35.375C13.125 35.8723 13.3225 36.3492 13.6742 36.7008C14.0258 37.0525 14.5027 37.25 15 37.25C15.4973 37.25 15.9742 37.0525 16.3258 36.7008C16.6775 36.3492 16.875 35.8723 16.875 35.375Z" fill="#953427"/>
</svg>
