<svg width="57" height="57" viewBox="0 0 57 57" fill="none" xmlns="http://www.w3.org/2000/svg">
<circle cx="28.4999" cy="28.5" r="28.5" fill="#C70136"/>
<path d="M19.1277 11.2552C19.1873 11.5122 19.4161 11.6859 19.669 11.6859C19.7106 11.6859 19.7528 11.6813 19.795 11.6715C20.0942 11.6021 20.2806 11.3035 20.2113 11.0042C20.125 10.6317 20.0238 10.2573 19.9102 9.89141C19.8191 9.59807 19.5081 9.43404 19.2142 9.52503C18.9209 9.61601 18.7568 9.92759 18.8479 10.2209C18.9534 10.5611 19.0476 10.909 19.1277 11.2552Z" fill="white"/>
<path d="M19.1294 19.844C19.187 19.8629 19.2454 19.8719 19.303 19.8719C19.5367 19.8719 19.7544 19.7233 19.8313 19.489C20.054 18.8105 20.2322 18.11 20.3609 17.4072C20.4162 17.1051 20.2161 16.8154 19.914 16.76C19.6119 16.7047 19.3222 16.9049 19.2668 17.2069C19.1472 17.8602 18.9816 18.5113 18.7745 19.1421C18.6787 19.434 18.8376 19.7482 19.1294 19.844Z" fill="white"/>
<path d="M17.4997 23.6593C17.5713 23.6901 17.6459 23.7047 17.7192 23.7047C17.9347 23.7047 18.1398 23.5787 18.2304 23.3682L19.0502 21.463C19.1716 21.1808 19.0413 20.8538 18.7591 20.7323C18.4769 20.6108 18.1498 20.7412 18.0284 21.0233L17.2086 22.9286C17.0873 23.2107 17.2176 23.5378 17.4997 23.6593Z" fill="white"/>
<path d="M19.9481 12.6223C19.6423 12.6503 19.4171 12.921 19.4451 13.2269C19.4857 13.6702 19.5064 14.1209 19.5064 14.5665C19.5064 14.7851 19.5015 15.0059 19.4917 15.2231C19.4778 15.5299 19.7155 15.7898 20.0222 15.8037C20.0307 15.804 20.0392 15.8042 20.0477 15.8042C20.3432 15.8042 20.5894 15.5713 20.6027 15.273C20.6133 15.0393 20.6186 14.8017 20.6186 14.5665C20.6186 14.0871 20.5964 13.6023 20.5527 13.1253C20.5246 12.8195 20.2532 12.5938 19.9481 12.6223Z" fill="white"/>
<path d="M18.661 44.0794C18.3663 43.5264 18.0852 42.9576 17.8256 42.3888C17.698 42.1094 17.3684 41.9862 17.0887 42.1138C16.8093 42.2413 16.6861 42.5712 16.8136 42.8506C17.0827 43.4402 17.374 44.0296 17.6795 44.6026C17.7796 44.7904 17.9719 44.8973 18.1708 44.8973C18.2589 44.8973 18.3485 44.8763 18.4318 44.8318C18.7029 44.6873 18.8055 44.3505 18.661 44.0794Z" fill="white"/>
<path d="M16.577 41.4052C16.6432 41.4052 16.7105 41.3932 16.776 41.3681C17.0628 41.2581 17.2061 40.9365 17.0961 40.6497C16.8719 40.0652 16.663 39.4661 16.4754 38.8691C16.3832 38.576 16.0709 38.4133 15.7781 38.5053C15.485 38.5974 15.3222 38.9096 15.4143 39.2026C15.6089 39.8214 15.8253 40.4423 16.0576 41.0481C16.1425 41.2693 16.3533 41.4052 16.577 41.4052Z" fill="white"/>
<path d="M19.5995 45.7157C19.4384 45.4541 19.0958 45.3726 18.8344 45.5337C18.5729 45.6946 18.4913 46.0373 18.6524 46.2987C18.8499 46.6197 19.0554 46.9404 19.263 47.2521C19.37 47.4129 19.5465 47.5001 19.7263 47.5001C19.8323 47.5001 19.9393 47.4698 20.0341 47.4067C20.2897 47.2365 20.3589 46.8912 20.1887 46.6356C19.9884 46.3349 19.7902 46.0254 19.5995 45.7157Z" fill="white"/>
<path d="M44.8518 18.7608C44.8172 18.4556 44.5412 18.2367 44.2364 18.271L43.4315 18.3625C43.2867 17.7531 43.0732 17.1542 42.79 16.5762L41.2653 13.4641C40.7485 12.4094 40.4754 11.2311 40.4754 10.0564C40.4754 9.74931 40.2265 9.50031 39.9193 9.50031C39.6121 9.50031 39.3631 9.74931 39.3631 10.0564C39.3631 11.3998 39.6755 12.7473 40.2665 13.9535L41.7912 17.0656C42.0174 17.5271 42.1922 18.0039 42.3168 18.4891L40.9336 18.6462L41.1048 18.418C41.2891 18.1723 41.2392 17.8237 40.9936 17.6394C40.7479 17.4551 40.3993 17.505 40.215 17.7506L39.2699 19.0108C39.093 19.2466 39.1308 19.5793 39.356 19.7694L40.5597 20.7854C40.6641 20.8735 40.7915 20.9166 40.9182 20.9166C41.0763 20.9166 41.2334 20.8495 41.3434 20.7191C41.5415 20.4844 41.5118 20.1335 41.2771 19.9354L41.0591 19.7514L42.5104 19.5866C42.6423 20.9242 42.4023 22.2858 41.7888 23.5355C41.5032 24.1175 41.1488 24.6503 40.7367 25.1257L40.6115 24.8349C40.4902 24.5528 40.1631 24.4222 39.8809 24.5438C39.5986 24.6652 39.4684 24.9924 39.5897 25.2745L39.8844 25.9594C38.9718 26.7163 37.8764 27.2475 36.6718 27.495C33.0688 28.2352 29.3794 28.4843 25.7062 28.2355C25.3996 28.2144 25.1345 28.4463 25.1138 28.7528C25.093 29.0592 25.3246 29.3245 25.6311 29.3452C26.5755 29.4092 27.5206 29.4411 28.4656 29.4411C31.2957 29.4411 34.121 29.1545 36.8956 28.5845C38.1712 28.3225 39.3402 27.7841 40.3372 27.0215C41.1143 28.8999 41.6551 30.8526 41.9577 32.8362L40.547 33.0128C39.0201 33.204 37.535 33.6306 36.133 34.2809C35.8545 34.4102 35.7333 34.7408 35.8626 35.0194C35.9568 35.2223 36.1577 35.3417 36.3675 35.3417C36.4459 35.3417 36.5255 35.325 36.6012 35.2899C37.8986 34.6881 39.2727 34.2933 40.6852 34.1164L42.1011 33.9391C42.1316 34.2231 42.1585 34.5074 42.1794 34.7921C42.1471 34.7796 42.1134 34.7697 42.0781 34.7633C41.7764 34.708 41.4862 34.9081 41.4309 35.2103C41.3182 35.8262 41.1849 36.4464 41.0343 37.0538C40.9606 37.352 41.1423 37.6535 41.4405 37.7273C41.4854 37.7384 41.5304 37.7438 41.5747 37.7438C41.8243 37.7438 42.0514 37.5744 42.1141 37.3212C42.1593 37.1386 42.2025 36.9547 42.2446 36.7704C42.2303 39.2754 41.8432 41.783 41.0759 44.2075L40.3736 46.4263C40.2809 46.7192 40.4431 47.0317 40.736 47.1244C40.7919 47.142 40.8484 47.1505 40.904 47.1505C41.14 47.1505 41.3591 46.999 41.434 46.762L42.1363 44.5432C44.0373 38.537 43.7129 32.0421 41.2228 26.2552L41.2178 26.2437C41.847 25.604 42.3785 24.8587 42.7873 24.0257C43.4964 22.5811 43.7721 21.0069 43.6164 19.461L44.362 19.3763C44.6671 19.3415 44.8864 19.0659 44.8518 18.7608Z" fill="white"/>
<path d="M15.9242 44.2078C15.9033 44.1413 15.8832 44.0747 15.8632 44.0081L15.8337 43.9097C15.7444 43.6158 15.4337 43.4499 15.1399 43.5392C14.846 43.6284 14.6802 43.939 14.7694 44.2328L14.7981 44.3279C14.8196 44.3996 14.8411 44.4713 14.8638 44.543L15.5661 46.7618C15.6412 46.9988 15.8601 47.1503 16.0961 47.1503C16.1518 47.1503 16.2083 47.1419 16.2641 47.1242C16.5569 47.0315 16.7192 46.719 16.6265 46.4261L15.9242 44.2078Z" fill="white"/>
<path d="M37.205 11.6714C37.2472 11.6812 37.2894 11.6859 37.331 11.6859C37.5839 11.6859 37.8127 11.5122 37.8723 11.2551C37.9524 10.9089 38.0466 10.561 38.152 10.221C38.2431 9.92762 38.0791 9.61604 37.7857 9.52506C37.4921 9.434 37.1808 9.59809 37.0897 9.89143C36.9762 10.2573 36.875 10.6317 36.7886 11.0042C36.7194 11.3033 36.9057 11.6021 37.205 11.6714Z" fill="white"/>
<path d="M37.9498 21.4629L38.7697 23.3682C38.8603 23.5787 39.0653 23.7047 39.2808 23.7047C39.3541 23.7047 39.4287 23.6901 39.5003 23.6592C39.7826 23.5378 39.9128 23.2107 39.7914 22.9285L38.9716 21.0233C38.8503 20.7412 38.5232 20.6108 38.241 20.7323C37.9587 20.8537 37.8285 21.1809 37.9498 21.4629Z" fill="white"/>
<path d="M36.9522 15.8042C36.9607 15.8042 36.9692 15.804 36.9777 15.8037C37.2845 15.7898 37.5221 15.5299 37.5082 15.2231C37.4984 15.006 37.4935 14.7851 37.4935 14.5665C37.4935 14.1209 37.5142 13.6702 37.5548 13.2269C37.5828 12.9211 37.3576 12.6504 37.0518 12.6223C36.7463 12.5938 36.4752 12.8195 36.4472 13.1253C36.4035 13.6023 36.3813 14.0872 36.3813 14.5665C36.3813 14.8017 36.3866 15.0393 36.3972 15.273C36.4106 15.5714 36.6566 15.8042 36.9522 15.8042Z" fill="white"/>
<path d="M37.086 16.7604C36.7839 16.8157 36.5838 17.1054 36.6391 17.4076C36.7677 18.1104 36.946 18.8107 37.1687 19.4894C37.2456 19.7236 37.4632 19.8722 37.697 19.8722C37.7544 19.8722 37.8129 19.8632 37.8706 19.8443C38.1624 19.7485 38.3213 19.4343 38.2255 19.1425C38.0184 18.5117 37.8528 17.8606 37.7332 17.2074C37.6779 16.9052 37.3883 16.7052 37.086 16.7604Z" fill="white"/>
<path d="M40.224 41.3681C40.2895 41.3932 40.3568 41.4052 40.423 41.4052C40.6467 41.4052 40.8575 41.2693 40.9424 41.0481C41.1747 40.4423 41.3912 39.8214 41.5858 39.2026C41.6779 38.9096 41.515 38.5974 41.222 38.5053C40.9292 38.4133 40.6168 38.576 40.5247 38.8691C40.3371 39.4661 40.1282 40.0652 39.9039 40.6497C39.7939 40.9365 39.9372 41.2581 40.224 41.3681Z" fill="white"/>
<path d="M39.9113 42.1138C39.6316 41.9862 39.3018 42.1094 39.1744 42.3888C38.9148 42.9576 38.6337 43.5265 38.3389 44.0794C38.1945 44.3505 38.297 44.6873 38.568 44.8318C38.6514 44.8762 38.7409 44.8972 38.8291 44.8972C39.028 44.8972 39.2203 44.7903 39.3204 44.6026C39.6259 44.0295 39.9171 43.44 40.1862 42.8505C40.3138 42.5712 40.1906 42.2413 39.9113 42.1138Z" fill="white"/>
<path d="M38.1655 45.5337C37.9042 45.3726 37.5615 45.454 37.4005 45.7157C37.2098 46.0254 37.0116 46.3349 36.8113 46.6356C36.6411 46.8913 36.7103 47.2366 36.9659 47.4067C37.0607 47.4699 37.1678 47.5001 37.2737 47.5001C37.4535 47.5001 37.6299 47.413 37.737 47.2521C37.9446 46.9404 38.15 46.6196 38.3476 46.2988C38.5086 46.0372 38.4271 45.6947 38.1655 45.5337Z" fill="white"/>
<path d="M33.854 35.59L29.1542 38.7787C28.7342 39.0636 28.1916 39.0636 27.7716 38.7787L22.887 35.4647C20.9509 34.1512 18.7004 33.3032 16.3788 33.0126L15.0354 32.8445C15.336 30.8743 15.8732 28.936 16.6445 27.0633C17.6292 27.8035 18.7783 28.3272 20.0302 28.5844C21.0798 28.8001 22.1533 28.9776 23.2208 29.1122C23.2444 29.1153 23.2679 29.1167 23.2911 29.1167C23.5672 29.1167 23.8067 28.9112 23.8422 28.6301C23.8806 28.3253 23.6647 28.0472 23.36 28.0088C22.3206 27.8777 21.2756 27.7048 20.2539 27.4949C19.0732 27.2524 17.9975 26.7373 17.0961 26.0043L17.4102 25.2744C17.5316 24.9923 17.4013 24.6652 17.1191 24.5437C16.837 24.4223 16.5098 24.5526 16.3884 24.8348L16.239 25.1818C15.8058 24.6922 15.434 24.1406 15.1369 23.5354C14.5222 22.2831 14.2824 20.9184 14.4162 19.5781L15.9408 19.7513L15.7228 19.9353C15.4881 20.1334 15.4585 20.4843 15.6565 20.719C15.7665 20.8494 15.9237 20.9165 16.0818 20.9165C16.2084 20.9165 16.3358 20.8734 16.4402 20.7853L17.6439 19.7693C17.8691 19.5792 17.9069 19.2464 17.7301 19.0107L16.7849 17.7505C16.6006 17.5047 16.2519 17.455 16.0064 17.6393C15.7607 17.8236 15.7109 18.1722 15.8951 18.4179L16.0663 18.6461L14.611 18.4808C14.7354 17.9984 14.9097 17.5244 15.1346 17.0654L16.6593 13.9533C17.2502 12.7471 17.5626 11.3996 17.5626 10.0563C17.5626 9.74914 17.3137 9.50014 17.0065 9.50014C16.6993 9.50014 16.4504 9.74914 16.4504 10.0563C16.4504 11.2309 16.1772 12.4092 15.6604 13.4639L14.1358 16.576C13.8538 17.1515 13.6411 17.7476 13.4963 18.3541L12.7635 18.2709C12.4581 18.2362 12.1828 18.4554 12.1481 18.7606C12.1134 19.0658 12.3328 19.3413 12.6379 19.376L13.3102 19.4524C13.1526 21.0009 13.4281 22.5783 14.1384 24.0253C14.5586 24.8813 15.1082 25.6443 15.7601 26.2957C13.6485 31.2255 13.0986 36.609 14.1709 41.8677C14.2247 42.1311 14.4565 42.3128 14.7152 42.3128C14.7521 42.3128 14.7895 42.3091 14.8269 42.3014C15.128 42.24 15.3222 41.9463 15.2608 41.6454C14.9294 40.02 14.7606 38.3823 14.7509 36.7506C14.7944 36.9415 14.8391 37.132 14.8859 37.321C14.9487 37.5743 15.1756 37.7436 15.4253 37.7436C15.4696 37.7436 15.5145 37.7383 15.5595 37.7271C15.8576 37.6533 16.0394 37.3518 15.9657 37.0536C15.8152 36.4463 15.6818 35.8259 15.5691 35.2101C15.5138 34.9079 15.2238 34.7079 14.9219 34.7631C14.8851 34.7699 14.8498 34.7802 14.8162 34.7935C14.8367 34.511 14.8618 34.2289 14.8919 33.9474L16.2405 34.1162C18.3886 34.3851 20.4709 35.1698 22.2623 36.3852L27.1469 39.699C27.3947 39.8672 27.665 39.983 27.9437 40.0468V41.3273C27.9437 43.1664 27.5826 44.9587 26.8707 46.6542C26.7517 46.9374 26.8849 47.2634 27.1681 47.3823C27.2384 47.4118 27.3114 47.4259 27.3832 47.4259C27.6004 47.4259 27.8068 47.2977 27.8962 47.0849C28.1337 46.5192 28.3348 45.9434 28.4998 45.3594C28.6647 45.9435 28.8659 46.5192 29.1035 47.0849C29.1928 47.2978 29.3992 47.4259 29.6165 47.4259C29.6882 47.4259 29.7612 47.4119 29.8315 47.3823C30.1147 47.2634 30.2479 46.9374 30.129 46.6542C29.417 44.9586 29.056 43.1664 29.056 41.3273V40.0271C29.3084 39.9604 29.5529 39.8521 29.7785 39.699L34.4784 36.5105C34.7326 36.338 34.7988 35.9922 34.6263 35.7381C34.4541 35.4839 34.1082 35.4176 33.854 35.59Z" fill="white"/>
<path d="M28.5 24.3386C28.8072 24.3386 29.0561 24.0896 29.0561 23.7825V23.2149C29.0561 22.9077 28.8072 22.6587 28.5 22.6587C28.1928 22.6587 27.9438 22.9077 27.9438 23.2149V23.7825C27.9438 24.0896 28.1928 24.3386 28.5 24.3386Z" fill="white"/>
</svg>
