<svg width="57" height="57" viewBox="0 0 57 57" fill="none" xmlns="http://www.w3.org/2000/svg">
<circle cx="28.5" cy="28.5" r="28.5" fill="#E09E61"/>
<path d="M35.2831 27.4384L33.4268 28.8307L35.2831 30.223C35.7691 30.5875 35.5081 31.3621 34.9029 31.3621C34.7708 31.3622 34.6376 31.3209 34.5238 31.2356L31.9923 29.337C31.6547 29.0837 31.6554 28.5772 31.9923 28.3244L34.5238 26.4258C34.8034 26.2162 35.2001 26.2728 35.4098 26.5524C35.6195 26.8321 35.5628 27.2287 35.2831 27.4384ZM42.6164 20.6565C42.2669 20.6565 41.9836 20.9399 41.9836 21.2894V46.8671C41.9836 47.2166 42.2669 47.5 42.6164 47.5C42.9659 47.5 43.2493 47.2166 43.2493 46.8671V21.2894C43.2493 20.9399 42.9659 20.6565 42.6164 20.6565ZM27.0852 10.7943H32.2796C33.8487 10.7943 35.3459 11.157 36.7296 11.8724C37.0399 12.0327 37.4218 11.9112 37.5824 11.6008C37.7429 11.2903 37.6213 10.9085 37.3108 10.748C35.7678 9.95022 34.0281 9.52858 32.2796 9.52858H27.0852C21.0365 9.52858 16.1155 14.4496 16.1155 20.4983V46.8671C16.1155 47.2166 16.3989 47.5 16.7484 47.5C17.0979 47.5 17.3813 47.2166 17.3813 46.8671V20.4983C17.3813 15.1475 21.7344 10.7943 27.0852 10.7943ZM46.1095 16.5356C46.4223 16.8484 46.3252 17.3786 45.9216 17.5602L39.1184 20.6207C38.533 20.8843 37.9705 20.2023 38.3424 19.6776L40.4995 16.6341L38.4113 14.5459C38.0985 14.2331 38.1956 13.7028 38.5992 13.5212L45.4024 10.4607C45.9878 10.1972 46.5503 10.8791 46.1784 11.4038L44.0213 14.4474L46.1095 16.5356ZM44.5661 16.7822L42.7486 14.9647C42.5305 14.7465 42.5014 14.4028 42.6798 14.1512L43.8013 12.5688L39.9547 14.2992L41.7722 16.1167C41.9903 16.3349 42.0194 16.6785 41.841 16.9302L40.7195 18.5125L44.5661 16.7822ZM40.1542 24.847C40.0246 24.7944 38.5449 24.4649 37.1153 23.1939C36.0015 22.2035 35.4054 21.0827 35.1014 20.3167C34.9024 19.8154 34.2027 19.7764 33.9519 20.2578C32.9732 22.1362 31.4511 23.724 29.4695 24.7835C29.4744 23.9379 29.2646 23.0879 28.8315 22.3178C28.6005 21.9073 28.0203 21.8866 27.7576 22.2706C26.3486 24.3301 24.2938 25.7035 21.7988 25.7596C21.4493 25.7675 21.1725 26.0571 21.1803 26.4066C21.188 26.7512 21.4698 27.0252 21.8128 27.0252C22.412 27.0252 23.33 26.9089 24.2428 26.595C24.0685 26.871 24.1323 27.239 24.3981 27.4384L26.2544 28.8306L24.3981 30.2229C23.9121 30.5875 24.1734 31.3623 24.7782 31.3621C24.9104 31.3621 25.0436 31.3209 25.1574 31.2355L27.6888 29.3369C28.0265 29.0836 28.0257 28.5771 27.6888 28.3243C24.9399 26.2625 25.1049 26.3631 24.9365 26.3195C26.3374 25.6852 27.3874 24.7285 28.103 23.895C28.2422 24.481 28.2387 25.0931 28.0831 25.6882C27.9511 26.1931 28.455 26.633 28.9375 26.433C31.2986 25.4551 33.1662 23.8612 34.4579 21.8933C35.5696 23.8468 37.3134 25.2181 39.2824 25.8968V31.1596C39.2824 36.4817 34.9525 40.8116 29.6304 40.8116C24.3083 40.8116 19.9783 36.4818 19.9783 31.1596V28.7572C19.9783 28.4077 19.695 28.1244 19.3455 28.1244C18.996 28.1244 18.7126 28.4077 18.7126 28.7572V31.1596C18.7126 35.5388 21.3047 39.3234 25.0347 41.0615V42.5366C25.0347 43.5257 24.6513 44.4549 23.9551 45.1531C22.722 46.3895 21.167 46.2341 21.3523 46.2341C21.0028 46.2341 20.7194 46.5175 20.7194 46.867C20.7194 47.2165 21.0028 47.4998 21.3523 47.4998C24.0877 47.4998 26.3005 45.2818 26.3005 42.5366V41.5574C33.4004 43.8364 40.5481 38.4437 40.5481 31.2228C40.5481 31.1779 40.5482 25.4716 40.5478 25.4269C40.5456 25.1745 40.393 24.9445 40.1542 24.847ZM37.8998 46.2343C36.6026 46.2344 35.4254 45.5695 34.7509 44.456C34.5698 44.157 34.1807 44.0615 33.8817 44.2425C33.5827 44.4236 33.4871 44.8128 33.6682 45.1117C34.5742 46.6073 36.1561 47.5001 37.8999 47.5C38.2494 47.5 38.5328 47.2166 38.5328 46.8671C38.5328 46.5176 38.2494 46.2343 37.8998 46.2343ZM16.3096 13.1302L14.9671 10.669C14.7637 10.2961 14.2602 10.2283 13.964 10.5245L12.8792 11.6093L11.8882 9.82563C11.7185 9.52012 11.3332 9.41 11.0277 9.57976C10.7222 9.74953 10.6121 10.1349 10.7818 10.4403L12.1803 12.9574C12.3844 13.3249 12.884 13.3945 13.181 13.0976L14.261 12.0175L15.1985 13.7363C15.3658 14.0429 15.75 14.1563 16.0572 13.9888C16.3639 13.8214 16.477 13.437 16.3096 13.1302ZM13.5603 21.4512L11.9135 22.3494C11.5425 22.5517 11.4708 23.0543 11.769 23.3525L12.2985 23.8821L11.3478 24.4103C11.0422 24.5801 10.9321 24.9653 11.1019 25.2708C11.2719 25.5768 11.6575 25.6862 11.9624 25.5167L13.6466 24.5811C14.0141 24.377 14.0836 23.8771 13.7868 23.5805L13.262 23.0556L14.1663 22.5624C14.4731 22.395 14.5862 22.0106 14.4188 21.7038C14.2515 21.397 13.8671 21.2838 13.5603 21.4512ZM30.2676 34.0259C30.0394 33.8494 29.7209 33.8494 29.4927 34.0259L28.6539 34.6753L27.8152 34.0259C27.587 33.8494 27.2685 33.8494 27.0403 34.0259L25.8142 34.9752C25.5378 35.1892 25.4872 35.5867 25.7012 35.8631C25.9152 36.1395 26.3127 36.1901 26.589 35.9762L27.4278 35.3268L28.2666 35.9762C28.4947 36.1527 28.8133 36.1527 29.0414 35.9762L29.8802 35.3268L30.719 35.9762C30.9471 36.1527 31.2657 36.1527 31.4938 35.9762L32.3326 35.3268L33.1714 35.9762C33.4478 36.1901 33.8453 36.1393 34.0592 35.8631C34.2732 35.5868 34.2225 35.1892 33.9462 34.9752L32.72 34.0259C32.4919 33.8494 32.1733 33.8494 31.9452 34.0259L31.1064 34.6753L30.2676 34.0259Z" fill="white"/>
</svg>
