<svg width="57" height="57" viewBox="0 0 57 57" fill="none" xmlns="http://www.w3.org/2000/svg">
<circle cx="28.4999" cy="28.5" r="28.5" fill="#E0BB61"/>
<path d="M38.6332 9.50008H18.3666C17.3191 9.50008 16.4666 10.3526 16.4666 11.4001C16.4666 12.4476 17.3191 13.3001 18.3666 13.3001H38.6333C39.6808 13.3001 40.5333 12.4476 40.5333 11.4001C40.5333 10.3526 39.6808 9.50008 38.6332 9.50008ZM38.6332 12.0334H18.3666C18.0176 12.0334 17.7333 11.7496 17.7333 11.4001C17.7333 11.0505 18.0176 10.7668 18.3666 10.7668H38.6333C38.9823 10.7668 39.2666 11.0505 39.2666 11.4001C39.2666 11.7496 38.9822 12.0334 38.6332 12.0334Z" fill="white"/>
<path d="M38.6332 43.6999H18.3666C17.3191 43.6999 16.4666 44.5524 16.4666 45.5999C16.4666 46.6474 17.3191 47.4999 18.3666 47.4999H38.6333C39.6808 47.4999 40.5333 46.6474 40.5333 45.5999C40.5333 44.5524 39.6808 43.6999 38.6332 43.6999ZM38.6332 46.2332H18.3666C18.0176 46.2332 17.7333 45.9495 17.7333 45.5999C17.7333 45.2504 18.0176 44.9666 18.3666 44.9666H38.6333C38.9823 44.9666 39.2666 45.2504 39.2666 45.5999C39.2666 45.9495 38.9822 46.2332 38.6332 46.2332Z" fill="white"/>
<path d="M33.0131 26.1491C36.2292 22.933 37.9999 18.6573 37.9999 14.11V12.6667C37.9999 12.3165 37.7162 12.0334 37.3666 12.0334H19.6332C19.2837 12.0334 18.9999 12.3165 18.9999 12.6667V14.11C18.9999 18.658 20.7707 22.933 23.9862 26.1491L24.6227 26.7856C25.0742 27.2371 25.3332 27.8616 25.3332 28.5C25.3332 29.1384 25.0742 29.7629 24.6233 30.2145L23.9868 30.851C20.7707 34.067 18.9999 38.342 18.9999 42.89V44.3333C18.9999 44.6836 19.2837 44.9666 19.6332 44.9666H37.3666C37.7161 44.9666 37.9999 44.6836 37.9999 44.3333V42.89C37.9999 38.3427 36.2291 34.067 33.013 30.851L32.3765 30.2145C31.9186 29.7565 31.6666 29.1479 31.6666 28.5C31.6666 27.8521 31.9186 27.2435 32.3765 26.7856L33.0131 26.1491ZM31.481 25.89C30.7837 26.5867 30.3999 27.5133 30.3999 28.5C30.3999 29.4867 30.7837 30.4133 31.481 31.11L32.1175 31.7465C35.0942 34.7232 36.7333 38.6808 36.7333 42.89V43.7H20.2666V42.89C20.2666 38.6802 21.9057 34.7232 24.8817 31.7465L25.5182 31.11C26.2162 30.4133 26.5999 29.4861 26.5999 28.5C26.5999 27.5139 26.2162 26.5867 25.5189 25.89L24.8824 25.2535C21.9057 22.2768 20.2666 18.3191 20.2666 14.11V13.3H36.7333V14.11C36.7333 18.3192 35.0943 22.2768 32.1176 25.2535L31.481 25.89Z" fill="white"/>
<path d="M33.8522 20.1698C33.7882 20.009 33.5704 19.6333 32.9332 19.6333C29.6425 19.6333 28.1763 18.9284 27.5948 18.5079C26.8696 17.9829 25.9393 17.8454 25.1039 18.1412C24.3066 18.423 23.7226 19.05 23.5029 19.8607C23.4459 20.0716 23.4357 20.2084 23.4357 20.2084C23.4262 20.3331 23.4534 20.4681 23.5149 20.5776C24.1083 21.6296 24.7929 22.7392 25.7784 23.7246L26.4142 24.3611C27.3509 25.2966 27.8665 26.5417 27.8665 27.8666C27.8665 28.2169 28.1502 28.4999 28.4998 28.4999C28.8494 28.4999 29.1331 28.2169 29.1331 27.8666C29.1331 26.5424 29.6486 25.2972 30.5847 24.3611L31.2218 23.724C31.3783 23.5682 31.5822 23.3757 31.8064 23.1654C33.4437 21.6258 34.1322 20.8766 33.8522 20.1698ZM30.9376 22.2427C30.7033 22.4637 30.4892 22.6652 30.3259 22.8285L29.6887 23.4657C29.1966 23.9572 28.7976 24.517 28.4993 25.1237C28.201 24.517 27.802 23.9572 27.3098 23.4657L26.6739 22.8292C25.8962 22.0509 25.3269 21.1939 24.7347 20.161C24.8911 19.6321 25.2964 19.4168 25.5264 19.335C25.9684 19.1786 26.4643 19.2527 26.8519 19.534C27.6587 20.1179 29.2497 20.8063 32.2973 20.8912C31.906 21.332 31.2917 21.9102 30.9376 22.2427Z" fill="white"/>
<path d="M35.4229 41.7506C35.2639 39.6973 34.4406 38.8448 33.4881 37.8568C33.3595 37.7232 33.2253 37.5845 33.0878 37.4376C32.2923 36.5876 31.1688 36.1 30.0041 36.1H26.9951C25.8311 36.1 24.7069 36.5877 23.9114 37.4376C23.7739 37.5845 23.6403 37.7226 23.5117 37.8562C22.5585 38.8442 21.7352 39.6973 21.5769 41.7512C21.563 41.9273 21.6238 42.1008 21.7435 42.2307C21.8638 42.3599 22.0317 42.4334 22.2083 42.4334H34.7913C34.9674 42.4334 35.1359 42.3599 35.2562 42.2301C35.376 42.1002 35.4362 41.926 35.4229 41.7506ZM22.9297 41.1667C23.1444 40.0609 23.6562 39.5314 24.4237 38.7359C24.5567 38.5979 24.6948 38.4541 24.8367 38.3027C25.3934 37.7074 26.18 37.3667 26.9951 37.3667H30.0041C30.8198 37.3667 31.6064 37.708 32.1631 38.3021C32.3056 38.4554 32.4437 38.5979 32.5773 38.7366C33.3443 39.5321 33.8554 40.0616 34.0708 41.1667H22.9297Z" fill="white"/>
<path d="M28.4809 29.7669C28.1313 29.7669 27.8476 30.05 27.8476 30.4002V31.0335C27.8476 31.3838 28.1313 31.6668 28.4809 31.6668C28.8305 31.6668 29.1142 31.3838 29.1142 31.0335V30.4002C29.1142 30.05 28.8305 29.7669 28.4809 29.7669Z" fill="white"/>
<path d="M28.4809 32.9335C28.1313 32.9335 27.8476 33.2165 27.8476 33.5668V34.2001C27.8476 34.5503 28.1313 34.8334 28.4809 34.8334C28.8305 34.8334 29.1142 34.5503 29.1142 34.2001V33.5668C29.1142 33.2166 28.8305 32.9335 28.4809 32.9335Z" fill="white"/>
</svg>
