<svg width="57" height="57" viewBox="0 0 57 57" fill="none" xmlns="http://www.w3.org/2000/svg">
<circle cx="28.5" cy="28.5" r="28.5" fill="#EF6A8D"/>
<path d="M20.7292 27.2847C20.7292 26.9768 20.4793 26.7269 20.1714 26.7269H19.5394V26.0949C19.5394 25.787 19.2895 25.5371 18.9816 25.5371C18.6734 25.5371 18.4238 25.787 18.4238 26.0949V26.7269H17.7917C17.4836 26.7269 17.2339 26.9768 17.2339 27.2847C17.2339 27.5926 17.4836 27.8425 17.7917 27.8425H18.4238V28.4745C18.4238 28.7824 18.6734 29.0323 18.9816 29.0323C19.2895 29.0323 19.5394 28.7824 19.5394 28.4745V27.8425H20.1714C20.4796 27.8425 20.7292 27.5926 20.7292 27.2847Z" fill="white"/>
<path d="M27.3103 27.8425H27.9423V28.4745C27.9423 28.7824 28.1922 29.0323 28.5001 29.0323C28.808 29.0323 29.0579 28.7824 29.0579 28.4745V27.8425H29.6899C29.9978 27.8425 30.2477 27.5926 30.2477 27.2847C30.2477 26.9768 29.9978 26.7269 29.6899 26.7269H29.0579V26.0949C29.0579 25.787 28.808 25.5371 28.5001 25.5371C28.1922 25.5371 27.9423 25.787 27.9423 26.0949V26.7269H27.3103C27.0024 26.7269 26.7525 26.9768 26.7525 27.2847C26.7525 27.5926 27.0024 27.8425 27.3103 27.8425Z" fill="white"/>
<path d="M47.1418 43.4563L43.0383 41.1445V17.1342H46.9423C47.2861 17.1342 47.554 16.8118 47.4905 16.4734L45.7058 6.95488C45.6565 6.69106 45.426 6.5 45.1576 6.5H38.0186C37.7502 6.5 37.52 6.69106 37.4704 6.95488L35.6857 16.4734C35.6225 16.8118 35.8901 17.1342 36.2339 17.1342H38.0558V18.9931H38.0186C37.7108 18.9931 37.4608 19.2427 37.4608 19.5509C37.4608 19.8588 37.7108 20.1087 38.0186 20.1087H38.0558V21.9305C38.0558 22.2384 38.3057 22.4883 38.6136 22.4883C38.9217 22.4883 39.1714 22.2384 39.1714 21.9305V20.1087H39.2085C39.5166 20.1087 39.7663 19.8588 39.7663 19.5509C39.7663 19.2427 39.5166 18.9931 39.2085 18.9931H39.1714V17.1342H40.1379V41.1735L37.9815 42.4422V33.2338C37.9815 31.2862 36.3969 29.7015 34.4492 29.7015C34.4367 29.7015 34.4245 29.7023 34.4121 29.7026V25.5C34.4121 23.2242 32.5607 21.3727 30.2848 21.3727H17.1968C14.921 21.3727 13.0695 23.2242 13.0695 25.5V29.7026C13.0571 29.7023 13.0449 29.7015 13.0324 29.7015C11.0848 29.7015 9.50009 31.2862 9.50009 33.2338V43.9422C9.50009 44.2504 9.74971 44.5 10.0579 44.5H46.8681C47.1148 44.5 47.3374 44.3313 47.4047 44.0938C47.4737 43.8491 47.3635 43.5813 47.1418 43.4563ZM10.6157 33.2338C10.6157 31.9014 11.6997 30.8171 13.0324 30.8171C14.3649 30.8171 15.4492 31.9014 15.4492 33.2338V43.3844H10.6157V33.2338ZM16.5648 38.5509H18.4113C18.7195 38.5509 18.9691 38.3013 18.9691 37.9931C18.9691 37.6852 18.7195 37.4353 18.4113 37.4353H16.5648V33.2338C16.5648 31.6897 15.5683 30.3747 14.1852 29.8957V25.5C14.1852 23.8394 15.5362 22.4883 17.1968 22.4883H30.2848C31.9455 22.4883 33.2965 23.8394 33.2965 25.5V29.8957C31.9133 30.3747 30.9168 31.6897 30.9168 33.2338V37.4353H21.0391C20.7309 37.4353 20.4813 37.6852 20.4813 37.9931C20.4813 38.3013 20.7309 38.5509 21.0391 38.5509H30.9171V43.3844H16.5648V38.5509ZM36.8659 43.3844H32.0324V33.2338C32.0324 31.9014 33.1167 30.8171 34.4492 30.8171C35.7819 30.8171 36.8659 31.9014 36.8659 33.2338V43.3844ZM38.4816 7.6156H44.6949L46.2703 16.0186H36.9059L38.4816 7.6156ZM41.9227 17.1342V41.0048H41.2535V17.1342H41.9227ZM38.5796 43.3844L40.7288 42.1204H42.4805C42.486 42.1204 42.4912 42.1198 42.4964 42.1195L44.7418 43.3844H38.5796Z" fill="white"/>
<path d="M16.6019 18.324H30.8797C31.1876 18.324 31.4375 18.0741 31.4375 17.7662V7.0578C31.4375 6.74962 31.1876 6.5 30.8797 6.5H16.6019C16.2937 6.5 16.0441 6.74962 16.0441 7.0578V17.7662C16.0441 18.0741 16.2937 18.324 16.6019 18.324ZM17.1597 7.6156H30.3219V17.2084H17.1597V7.6156Z" fill="white"/>
<path d="M29.095 8.28481H18.3866C18.0784 8.28481 17.8288 8.53442 17.8288 8.84261V15.9815C17.8288 16.2894 18.0784 16.5393 18.3866 16.5393H29.095C29.4029 16.5393 29.6528 16.2894 29.6528 15.9815V8.84261C29.6528 8.53442 29.4032 8.28481 29.095 8.28481ZM28.5372 15.4237H18.9444V9.40041H28.5372V15.4237Z" fill="white"/>
<path d="M23.459 14.678C23.6312 14.7789 23.8504 14.7789 24.0226 14.678C24.6456 14.313 26.6782 13.0281 26.6782 11.8171C26.6782 11.3078 26.4141 10.6523 25.8238 10.3362C25.4188 10.1197 24.7404 10.0008 23.7408 10.567C22.7411 10.0005 22.0625 10.1197 21.6577 10.3362C21.0675 10.6523 20.8033 11.3078 20.8033 11.8171C20.8033 13.0284 22.836 14.313 23.459 14.678ZM22.1842 11.3199C22.2463 11.2866 22.3214 11.2704 22.4083 11.2704C22.6652 11.2704 23.0227 11.4136 23.4314 11.6861C23.6187 11.8111 23.8628 11.8111 24.0501 11.6861C24.5969 11.3217 25.0518 11.188 25.2973 11.3196C25.4803 11.4176 25.5626 11.6696 25.5626 11.8171C25.5626 12.1346 24.7251 12.9177 23.7405 13.5433C22.7559 12.9185 21.9189 12.1355 21.9189 11.8171C21.9189 11.6696 22.0013 11.4176 22.1842 11.3199Z" fill="white"/>
</svg>
