<svg width="57" height="57" viewBox="0 0 57 57" fill="none" xmlns="http://www.w3.org/2000/svg">
<circle cx="28.5" cy="28.5" r="28.5" fill="#C70136"/>
<path d="M12.2211 19.1827C12.1503 19.2526 12.097 19.3382 12.0655 19.4326C12.034 19.527 12.0252 19.6274 12.0398 19.7258C12.0544 19.8242 12.4094 22.1678 13.5308 25.1463C15.2995 29.8435 17.6484 32.5681 19.4218 34.0753C18.6375 36.5427 18.9468 39.0253 20.3498 41.4808C20.4277 41.6171 20.5533 41.7196 20.7025 41.7685C20.8516 41.8173 21.0135 41.8091 21.1569 41.7454L22.0056 41.3682C21.2722 42.9432 20.8997 44.7832 20.8997 46.8667C20.8997 47.0346 20.9665 47.1957 21.0852 47.3145C21.204 47.4333 21.3651 47.5 21.5331 47.5H35.4665C35.6345 47.5 35.7956 47.4333 35.9144 47.3145C36.0332 47.1957 36.0999 47.0346 36.0999 46.8667C36.0999 44.7832 35.7278 42.9432 34.994 41.3682L35.8427 41.7454C35.9861 41.8092 36.1482 41.8175 36.2974 41.7686C36.4466 41.7197 36.5723 41.6172 36.6502 41.4808C38.0534 39.0251 38.3626 36.5425 37.5781 34.0749C40.6373 31.4802 42.4653 27.8127 43.4692 25.1464C44.5906 22.1678 44.9456 19.8242 44.9602 19.7258C44.9748 19.6274 44.966 19.5269 44.9345 19.4326C44.903 19.3382 44.8497 19.2526 44.7789 19.1826C44.7082 19.1127 44.6219 19.0604 44.5272 19.03C44.4324 18.9996 44.3319 18.992 44.2336 19.0077C43.9373 19.0552 43.6408 19.1011 43.3443 19.1455C43.5818 16.8422 42.6583 14.3668 42.4303 13.7995C42.3958 12.6475 41.914 11.5543 41.087 10.7516C40.26 9.94894 39.1528 9.5 38.0003 9.5C36.8478 9.5 35.7406 9.94894 34.9136 10.7516C34.0866 11.5543 33.6048 12.6475 33.5703 13.7995C33.5053 13.9611 33.3845 14.2757 33.2503 14.6962C33.1157 14.2758 32.9952 13.9611 32.9302 13.7995C32.8957 12.6475 32.4139 11.5543 31.5869 10.7516C30.7599 9.94894 29.6527 9.5 28.5002 9.5C27.3477 9.5 26.2405 9.94894 25.4135 10.7516C24.5865 11.5543 24.1047 12.6475 24.0702 13.7995C24.0052 13.9611 23.8844 14.2757 23.7502 14.6962C23.6156 14.2757 23.4951 13.9611 23.4301 13.7995C23.3956 12.6475 22.9138 11.5543 22.0868 10.7516C21.2598 9.94894 20.1526 9.5 19.0001 9.5C17.8476 9.5 16.7404 9.94894 15.9134 10.7516C15.0864 11.5543 14.6046 12.6475 14.5701 13.7995C14.3421 14.3668 13.4181 16.8418 13.656 19.1455C13.3594 19.1008 13.063 19.0548 12.7668 19.0077C12.6685 18.9919 12.5678 18.9995 12.473 19.0299C12.3782 19.0603 12.2919 19.1127 12.2211 19.1827ZM21.1791 40.3494C19.956 37.9212 19.956 35.5452 21.1791 33.1171L25.9664 35.2449V35.9607L23.5573 35.4789C23.4757 35.4626 23.3918 35.4625 23.3102 35.4786C23.2286 35.4948 23.151 35.5268 23.0818 35.573C23.0126 35.6191 22.9531 35.6784 22.9068 35.7475C22.8606 35.8166 22.8283 35.8942 22.812 35.9758C22.7957 36.0573 22.7956 36.1413 22.8118 36.2229C22.8279 36.3045 22.86 36.3821 22.9061 36.4513C22.9522 36.5205 23.0115 36.5799 23.0807 36.6262C23.1498 36.6725 23.2273 36.7047 23.3089 36.721L25.9664 37.2525V38.2216L21.1791 40.3494ZM22.1791 46.2333C22.272 43.9401 22.8783 42.012 23.9819 40.4898L26.7344 39.2666H30.2652L33.0174 40.4898C34.1212 42.0119 34.7274 43.94 34.8204 46.2333H22.1791ZM27.2331 37.9999V35.4665H29.7665V37.9999H27.2331ZM35.8205 40.3494L31.0332 38.2216V37.2525L33.6907 36.721C33.7723 36.7046 33.8498 36.6724 33.919 36.6261C33.9881 36.5799 34.0474 36.5204 34.0935 36.4512C34.1397 36.382 34.1717 36.3044 34.1879 36.2228C34.204 36.1412 34.2039 36.0572 34.1876 35.9757C34.1713 35.8941 34.1391 35.8166 34.0928 35.7475C34.0465 35.6783 33.9871 35.619 33.9179 35.5729C33.8486 35.5268 33.771 35.4947 33.6894 35.4786C33.6078 35.4624 33.5239 35.4625 33.4423 35.4788L31.0332 35.9606V35.2449L35.8205 33.1172C37.0436 35.5452 37.0436 37.9213 35.8205 40.3494ZM42.042 19.3322C41.1923 19.449 40.3419 19.5547 39.4907 19.6495C39.3746 19.1684 39.2127 18.6995 39.0071 18.2493C39.5969 18.1105 40.1522 17.8527 40.6389 17.4917C41.1255 17.1306 41.5332 16.674 41.8371 16.1497C42.0605 17.1067 42.2187 18.2762 42.042 19.3322ZM34.8969 13.2997C35.0438 14.0144 35.4327 14.6566 35.9979 15.1181C36.5632 15.5796 37.2702 15.8321 37.9999 15.833C38.5038 15.833 38.9871 15.6328 39.3434 15.2765C39.6997 14.9202 39.8999 14.4369 39.8999 13.933C39.8999 13.4291 39.6997 12.9458 39.3434 12.5895C38.9871 12.2332 38.5038 12.033 37.9999 12.033C37.8319 12.033 37.6708 12.0997 37.5521 12.2185C37.4333 12.3372 37.3666 12.4983 37.3666 12.6663C37.3666 12.8343 37.4333 12.9954 37.5521 13.1142C37.6708 13.2329 37.8319 13.2997 37.9999 13.2997C38.1679 13.2997 38.329 13.3664 38.4477 13.4852C38.5665 13.6039 38.6332 13.765 38.6332 13.933C38.6332 14.101 38.5665 14.2621 38.4477 14.3808C38.329 14.4996 38.1679 14.5663 37.9999 14.5663C37.496 14.5663 37.0127 14.3662 36.6564 14.0098C36.3001 13.6535 36.0999 13.1702 36.0999 12.6663C36.0999 12.1624 36.3001 11.6791 36.6564 11.3228C37.0127 10.9665 37.496 10.7663 37.9999 10.7663C38.653 10.7666 39.29 10.9689 39.8237 11.3454C40.3573 11.722 40.7613 12.2544 40.9805 12.8697C41.1996 13.485 41.223 14.1529 41.0475 14.782C40.8721 15.4111 40.5063 15.9706 40.0004 16.3836C39.4945 16.7966 38.8732 17.0431 38.2217 17.0891C37.5702 17.1352 36.9204 16.9786 36.3615 16.6408C35.8025 16.303 35.3617 15.8006 35.0995 15.2024C34.8373 14.6042 34.7665 13.9396 34.8969 13.2997ZM34.0861 16.5055C34.1106 16.3844 34.1363 16.2661 34.1634 16.1503C34.5203 16.7673 35.0206 17.2891 35.622 17.6718C36.2233 18.0545 36.9079 18.2868 37.618 18.3489C37.736 18.5223 37.9921 18.9628 38.2165 19.7834C36.8657 19.9161 35.5136 20.021 34.1602 20.098C33.7369 18.9608 33.8765 17.5423 34.0861 16.5055ZM43.5433 20.3968C43.0585 22.6705 41.3855 28.9439 37.0851 32.8239C36.9539 32.5441 36.8087 32.2647 36.6497 31.9856C36.5718 31.8493 36.4461 31.7467 36.2969 31.6978C36.1477 31.6489 35.9856 31.6572 35.8422 31.7211L30.2652 34.1999H29.1164C28.9574 31.1807 28.2937 28.3245 27.1392 25.7037C26.4796 24.1987 25.6521 22.773 24.6723 21.4539C30.9819 21.6939 37.3 21.34 43.5433 20.3968ZM32.4157 16.5161C32.6301 17.5816 32.7699 19.0402 32.3071 20.1868C31.5841 20.2145 30.8608 20.2342 30.1373 20.2458C30.0188 19.5564 29.8182 18.8837 29.5398 18.2419C30.123 18.1 30.6714 17.8415 31.152 17.482C31.6326 17.1225 32.0355 16.6695 32.3364 16.1502C32.3641 16.2691 32.3905 16.3911 32.4157 16.5161ZM25.3968 13.2997C25.5438 14.0144 25.9326 14.6566 26.4978 15.1181C27.0631 15.5796 27.7701 15.8321 28.4998 15.833C29.0037 15.833 29.487 15.6328 29.8433 15.2765C30.1996 14.9202 30.3998 14.4369 30.3998 13.933C30.3998 13.4291 30.1996 12.9458 29.8433 12.5895C29.487 12.2332 29.0037 12.033 28.4998 12.033C28.3318 12.033 28.1707 12.0997 28.052 12.2185C27.9332 12.3372 27.8665 12.4983 27.8665 12.6663C27.8665 12.8343 27.9332 12.9954 28.052 13.1142C28.1707 13.2329 28.3318 13.2997 28.4998 13.2997C28.6678 13.2997 28.8289 13.3664 28.9476 13.4852C29.0664 13.6039 29.1331 13.765 29.1331 13.933C29.1331 14.101 29.0664 14.2621 28.9476 14.3808C28.8289 14.4996 28.6678 14.5663 28.4998 14.5663C27.9959 14.5663 27.5126 14.3662 27.1563 14.0098C26.8 13.6535 26.5998 13.1702 26.5998 12.6663C26.5998 12.1624 26.8 11.6791 27.1563 11.3228C27.5126 10.9665 27.9959 10.7663 28.4998 10.7663C29.1529 10.7666 29.79 10.9689 30.3236 11.3454C30.8572 11.722 31.2612 12.2544 31.4804 12.8697C31.6995 13.485 31.7229 14.1529 31.5474 14.782C31.372 15.4111 31.0062 15.9706 30.5003 16.3836C29.9944 16.7966 29.3731 17.0431 28.7216 17.0891C28.0701 17.1352 27.4204 16.9786 26.8614 16.6408C26.3024 16.303 25.8616 15.8006 25.5994 15.2024C25.3372 14.6042 25.2664 13.9396 25.3968 13.2997ZM24.586 16.5055C24.6105 16.3844 24.6363 16.2661 24.6633 16.1503C25.0247 16.775 25.533 17.302 26.1441 17.6858C26.7552 18.0696 27.4508 18.2986 28.1704 18.3528C28.3366 18.6209 28.6296 19.2078 28.8488 20.2587C27.4636 20.2636 26.0785 20.2396 24.6937 20.1868C24.2286 19.0356 24.371 17.5694 24.586 16.5055ZM22.9088 16.4825C23.122 17.5265 23.2651 18.9546 22.8394 20.098C22.0791 20.0546 21.3191 20.0027 20.5594 19.9422C20.4378 19.3595 20.2526 18.7918 20.007 18.2495C20.5967 18.1108 21.1519 17.853 21.6384 17.492C22.1249 17.1311 22.5326 16.6745 22.8363 16.1503C22.8614 16.2586 22.8856 16.3692 22.9088 16.4822V16.4825ZM15.8967 13.2997C16.0437 14.0144 16.4325 14.6566 16.9977 15.1181C17.563 15.5796 18.27 15.8321 18.9997 15.833C19.5036 15.833 19.9869 15.6328 20.3432 15.2765C20.6996 14.9202 20.8997 14.4369 20.8997 13.933C20.8997 13.4291 20.6996 12.9458 20.3432 12.5895C19.9869 12.2332 19.5036 12.033 18.9997 12.033C18.8317 12.033 18.6706 12.0997 18.5519 12.2185C18.4331 12.3372 18.3664 12.4983 18.3664 12.6663C18.3664 12.8343 18.4331 12.9954 18.5519 13.1142C18.6706 13.2329 18.8317 13.2997 18.9997 13.2997C19.1677 13.2997 19.3288 13.3664 19.4476 13.4852C19.5663 13.6039 19.6331 13.765 19.6331 13.933C19.6331 14.101 19.5663 14.2621 19.4476 14.3808C19.3288 14.4996 19.1677 14.5663 18.9997 14.5663C18.4958 14.5663 18.0125 14.3662 17.6562 14.0098C17.2999 13.6535 17.0997 13.1702 17.0997 12.6663C17.0997 12.1624 17.2999 11.6791 17.6562 11.3228C18.0125 10.9665 18.4958 10.7663 18.9997 10.7663C19.6528 10.7666 20.2899 10.9689 20.8235 11.3454C21.3571 11.722 21.7611 12.2544 21.9803 12.8697C22.1994 13.485 22.2228 14.1529 22.0473 14.782C21.8719 15.4111 21.5061 15.9706 21.0002 16.3836C20.4943 16.7966 19.873 17.0431 19.2215 17.0891C18.57 17.1352 17.9203 16.9786 17.3613 16.6408C16.8023 16.303 16.3615 15.8006 16.0993 15.2024C15.8371 14.6042 15.7663 13.9396 15.8967 13.2997ZM15.1637 16.1513C15.5205 16.7677 16.0206 17.2892 16.6215 17.6717C17.2224 18.0541 17.9065 18.2864 18.6161 18.3487C18.7411 18.5314 19.0019 18.9825 19.2276 19.8254C17.8026 19.6918 16.3793 19.5276 14.9577 19.3326C14.7819 18.2793 14.9402 17.1095 15.1637 16.1513ZM22.9981 21.3758C24.7465 23.472 27.4886 27.7447 27.8475 34.1999H26.7344L21.1571 31.7211C21.0137 31.6573 20.8517 31.6491 20.7026 31.698C20.5535 31.7469 20.4278 31.8494 20.35 31.9856C20.1905 32.2647 20.0454 32.5441 19.9146 32.8239C15.6141 28.9439 13.9409 22.6704 13.4563 20.3968C16.6268 20.8753 19.8074 21.2016 22.9981 21.3758Z" fill="white"/>
</svg>
