<svg width="508" height="17" viewBox="0 0 508 17" fill="none" xmlns="http://www.w3.org/2000/svg">
<path d="M0 1.49023C10.58 1.49023 10.58 15.0302 21.15 15.0302C31.73 15.0302 31.73 1.49023 42.3 1.49023C52.88 1.49023 52.88 15.0302 63.45 15.0302C74.03 15.0302 74.03 1.49023 84.6 1.49023C95.18 1.49023 95.18 15.0302 105.75 15.0302C116.33 15.0302 116.33 1.49023 126.9 1.49023C137.48 1.49023 137.48 15.0302 148.06 15.0302C158.64 15.0302 158.64 1.49023 169.22 1.49023" stroke="#EAC4AB" stroke-width="2.9781" stroke-miterlimit="10"/>
<path d="M338.46 1.49023C349.04 1.49023 349.04 15.0302 359.61 15.0302C370.19 15.0302 370.19 1.49023 380.76 1.49023C391.34 1.49023 391.34 15.0302 401.91 15.0302C412.49 15.0302 412.49 1.49023 423.06 1.49023C433.64 1.49023 433.64 15.0302 444.21 15.0302C454.79 15.0302 454.79 1.49023 465.36 1.49023C475.94 1.49023 475.94 15.0302 486.52 15.0302C497.1 15.0302 497.1 1.49023 507.68 1.49023" stroke="#EAC4AB" stroke-width="2.9781" stroke-miterlimit="10"/>
<path d="M169.23 1.49023C179.81 1.49023 179.81 15.0302 190.38 15.0302C200.96 15.0302 200.96 1.49023 211.53 1.49023C222.11 1.49023 222.11 15.0302 232.68 15.0302C243.26 15.0302 243.26 1.49023 253.83 1.49023C264.41 1.49023 264.41 15.0302 274.98 15.0302C285.56 15.0302 285.56 1.49023 296.13 1.49023C306.71 1.49023 306.71 15.0302 317.29 15.0302C327.87 15.0302 327.87 1.49023 338.45 1.49023" stroke="#EAC4AB" stroke-width="2.9781" stroke-miterlimit="10"/>
</svg>
