<svg width="111" height="110" viewBox="0 0 111 110" fill="none" xmlns="http://www.w3.org/2000/svg">
<path d="M88.974 67.8678C88.2957 67.3957 87.6046 66.9364 86.8623 66.426C85.8256 67.4467 84.7378 68.5058 83.6499 69.5648C83.5219 69.4627 83.3939 69.3607 83.2659 69.2586C83.5219 67.6126 84.8401 66.5663 85.8 65.3414C84.9041 64.2058 84.021 63.083 82.9844 61.7815C84.405 61.6411 84.9937 62.5598 85.7488 63.083C86.4783 63.5934 86.9007 64.7417 87.7198 64.1803C88.2573 65.3924 88.7308 66.4642 89.2172 67.5488C89.1404 67.6636 89.0508 67.7657 88.974 67.8678Z" fill="#E0E1E0"/>
<path d="M44.4102 95.1094C45.2037 93.9228 45.9971 92.7489 46.8034 91.5495C46.3171 90.9243 45.754 90.1715 45.1781 89.4314C45.306 89.2783 45.434 89.138 45.562 88.9849C46.4707 89.4697 47.3794 89.9674 48.2881 90.4522C48.8768 90.146 49.4911 89.8142 50.1054 89.4952C50.195 89.5846 50.2846 89.6739 50.3614 89.776C50.0158 90.3374 49.6831 90.8988 49.3119 91.5113C49.7727 92.1365 50.2462 92.7745 50.7197 93.4252C50.6301 93.54 50.5406 93.6676 50.451 93.7825C49.7855 93.4124 49.1327 93.0296 48.5184 92.6851C47.3282 93.6421 46.1379 94.5991 44.9349 95.5688C44.7557 95.4029 44.5893 95.2626 44.4102 95.1094Z" fill="#E0E1E0"/>
<path d="M34.7347 83.0648C33.3013 81.9419 32.9429 84.5959 31.3431 84.2004C31.7399 83.4603 32.0982 82.7968 32.5206 82.0057C31.0104 81.1636 29.7689 80.028 29.1162 77.8589C30.1401 78.4458 30.8824 78.8159 31.5607 79.2752C32.239 79.7345 32.8533 80.2704 33.506 80.7681C34.1972 80.2066 34.8755 79.6707 35.541 79.1221C35.6818 79.2497 35.8353 79.3645 35.9761 79.4921C35.6434 80.0153 35.221 80.5129 35.0163 81.0871C34.8243 81.6612 34.8371 82.2992 34.7347 83.0648Z" fill="#E0E1E0"/>
<path d="M73.2578 63.0962C73.9489 64.117 74.576 65.0612 75.216 66.0054C75.088 66.133 74.96 66.2606 74.8448 66.3754C73.8593 65.6736 72.8739 64.9846 71.8756 64.2828C71.3509 64.5508 70.8389 64.8187 70.327 65.0995C70.2374 65.0229 70.1478 64.9591 70.0582 64.8825C70.2886 64.3722 70.5062 63.8745 70.7493 63.3514C70.455 62.4838 68.6504 62.1903 69.6487 60.5698C70.519 61.1185 71.3253 61.6289 72.1188 62.1265C73.0274 61.6544 73.9745 61.1695 74.9216 60.6719C75.024 60.7867 75.1136 60.9016 75.216 61.0036C74.5504 61.7054 73.9105 62.3944 73.2578 63.0962Z" fill="#E0E1E0"/>
<path d="M84.3664 81.763C84.6479 82.4137 84.9423 83.0772 85.2367 83.7407C85.1215 83.83 85.0063 83.9194 84.8783 84.0087C84.4176 83.728 83.9568 83.46 83.4961 83.1793C82.5106 83.8045 81.5252 84.4425 80.5397 85.0805C80.4373 84.9784 80.3221 84.8763 80.2197 84.7743C80.8468 83.728 81.4868 82.6945 82.0883 81.6737C81.6531 80.9081 81.2308 80.1681 80.7957 79.428C80.8852 79.3132 80.9876 79.1983 81.0772 79.0835C81.7427 79.5173 82.421 79.9511 83.1377 80.4105C83.7393 80.0149 84.4304 79.5556 85.1215 79.0963C85.2495 79.1856 85.3647 79.2876 85.4926 79.377C85.1215 80.1936 84.7375 80.9974 84.3664 81.763Z" fill="#E0E1E0"/>
<path d="M13.0795 86.1653C13.3227 86.5736 13.5786 87.0202 13.8346 87.454C11.9532 86.2419 10.7374 87.9261 8.99682 88.2069C9.43197 87.5051 9.86711 86.7905 10.2767 86.1143C9.67514 85.2594 9.04802 84.379 8.4209 83.4986C8.56168 83.3327 8.70246 83.1669 8.85604 83.001C9.87991 83.6134 10.9038 84.2259 11.8892 84.8256C12.542 84.5321 13.2459 84.2004 13.9626 83.8814C14.0778 84.009 14.1929 84.1493 14.3209 84.2769C13.9114 84.8639 13.5274 85.4636 13.0795 86.1653Z" fill="#E0E1E0"/>
<path d="M104.191 38.3171C104.703 38.6361 105.202 38.9423 105.714 39.2613C106.444 38.853 107.224 38.4192 107.992 37.9854C108.12 38.1512 108.261 38.3299 108.389 38.4957C107.711 38.904 107.045 39.3123 106.495 39.6568C107.647 41.2518 108.555 42.515 109.464 43.7782C109.323 43.893 109.195 44.0206 109.054 44.1354C107.48 43.6889 106.687 42.2088 105.484 41.1497C104.665 41.826 103.871 42.4767 103.09 43.1274C102.988 43.0381 102.886 42.9616 102.783 42.8722C103.423 42.0301 104.063 41.188 104.741 40.2821C104.485 39.7589 104.191 39.172 103.897 38.585C103.999 38.4957 104.089 38.4064 104.191 38.3171Z" fill="#E0E1E0"/>
<path d="M76.7128 12.3386C76.3416 12.5682 75.8937 12.9255 75.3945 13.1297C75.1258 13.2317 74.7546 13.0659 74.4219 13.0148C74.4731 12.7086 74.4347 12.3258 74.6011 12.0961C74.9466 11.6113 75.4073 11.203 75.7913 10.7819C75.4841 10.1439 75.2026 9.54423 74.9082 8.93177C74.9722 8.86797 75.0362 8.79141 75.1002 8.72762C75.7145 9.07212 76.3416 9.40387 77.0711 9.79942C77.6855 9.37835 78.3638 8.89349 79.0549 8.42139C79.1701 8.5107 79.2852 8.60002 79.4004 8.68934C78.9653 9.40387 78.5301 10.1312 78.1078 10.8329C78.5813 11.6878 79.0933 12.6065 79.6052 13.5124C79.4772 13.6528 79.3364 13.7932 79.2085 13.9335C78.3766 13.4104 77.5575 12.8872 76.7128 12.3386Z" fill="#E0E1E0"/>
<path d="M27.9898 12.9382C27.465 11.9557 26.9531 11.0115 26.4412 10.08C26.5691 9.99071 26.6843 9.88863 26.8123 9.79932C27.3626 10.1949 27.9897 10.5011 28.4505 10.986C29.116 11.675 29.7175 12.2874 30.8822 11.8408C30.6646 12.2109 30.4342 12.5809 30.2679 12.8744C30.5238 13.5889 30.7542 14.2524 30.9846 14.9159C30.8694 14.9924 30.767 15.0818 30.6518 15.1583C30.1271 14.8393 29.6151 14.5203 29.0904 14.1886C28.6681 14.5714 28.2585 15.1073 27.721 15.4135C27.3498 15.6304 26.8123 15.5411 26.3516 15.5921C26.4156 15.12 26.3388 14.5459 26.5819 14.2014C26.9403 13.6782 27.529 13.3337 27.9898 12.9382Z" fill="#E0E1E0"/>
<path d="M109.336 51.4594C109.899 52.4291 110.45 53.3733 111 54.3047C110.847 54.4323 110.706 54.5599 110.552 54.6875C109.682 54.0496 108.824 53.4243 107.877 52.7226C107.212 53.1309 106.393 53.6412 105.574 54.1389C105.471 54.0368 105.382 53.9475 105.279 53.8454C105.625 53.3478 105.919 52.7864 106.342 52.3653C107.084 51.6125 107.237 50.8852 106.598 50.0175C106.444 49.8134 106.367 49.5454 106.086 48.9585C106.956 49.4689 107.545 49.8134 108.21 50.1962C108.709 49.8644 109.272 49.4816 109.835 49.1116C109.963 49.1754 110.091 49.2392 110.219 49.3158C109.925 50.0048 109.631 50.7193 109.336 51.4594Z" fill="#E0E1E0"/>
<path d="M68.0742 13.219C68.7141 12.4407 69.3413 11.6751 70.0324 10.833C69.3413 10.0036 68.3046 9.22528 68.7269 7.54102C69.7636 8.33211 70.6595 9.03388 71.5938 9.74842C72.0417 9.54426 72.5408 9.31459 73.04 9.08492C73.1168 9.14872 73.1936 9.19976 73.2703 9.26355C72.9888 9.74842 72.72 10.2333 72.4129 10.7564C72.6048 11.2668 72.8096 11.841 73.0144 12.4152C72.9248 12.5045 72.848 12.581 72.7584 12.6704C72.2977 12.4407 71.8241 12.1982 71.4786 12.0196C70.4547 12.581 69.4692 13.1297 68.4838 13.6784C68.3558 13.5252 68.215 13.3721 68.0742 13.219Z" fill="#E0E1E0"/>
<path d="M100.109 28.3774C100.787 28.8751 101.453 29.3727 102.029 29.8065C102.681 29.5386 103.321 29.2706 103.948 29.0154C103.731 29.7427 103.513 30.47 103.232 31.3887C103.513 31.9884 103.923 32.8433 104.332 33.7109C104.179 33.8258 104.038 33.9534 103.884 34.0682C103.232 33.5323 102.579 32.9964 101.888 32.4222C101.184 32.8433 100.365 33.3281 99.5585 33.813C99.4434 33.6854 99.3154 33.5578 99.2002 33.4302C99.7633 32.6136 100.326 31.797 101.005 30.8273C100.698 30.2276 100.288 29.4365 99.8785 28.6326C99.9681 28.5561 100.045 28.4668 100.109 28.3774Z" fill="#E0E1E0"/>
<path d="M37.6913 10.131C37.6145 10.3352 37.4737 10.6797 37.3585 10.9731C37.8705 11.7387 38.3824 12.466 38.8815 13.2061C38.7792 13.3337 38.6896 13.4485 38.5872 13.5761C37.8065 13.155 37.013 12.7467 36.2835 12.3512C35.2212 13.155 34.1206 13.9844 33.0327 14.8138C32.8919 14.6989 32.7511 14.5713 32.6104 14.4565C33.4166 13.3592 34.2229 12.2746 35.0676 11.1263C34.7477 10.5904 34.3509 9.96514 33.7878 9.03369C35.2596 9.442 36.3859 9.77374 37.6913 10.131Z" fill="#E0E1E0"/>
<path d="M99.0721 48.6901C99.8912 48.0394 100.736 47.3887 101.581 46.7252C101.721 46.8145 101.849 46.9166 101.99 47.0059C101.478 47.9884 100.966 48.9708 100.441 49.9916C100.928 50.7827 101.453 51.6631 102.092 52.7221C100.377 52.9135 100.505 51.191 99.5072 50.8593C98.9697 51.1017 98.4065 51.3441 97.8434 51.5993C97.7666 51.5355 97.7026 51.4589 97.6258 51.3951C97.8818 50.8337 98.1506 50.2723 98.4193 49.6981C97.7282 48.8177 97.0115 47.9118 96.3076 47.0059C96.3972 46.9038 96.4868 46.8145 96.5764 46.7124C97.4083 47.3759 98.253 48.0522 99.0721 48.6901Z" fill="#E0E1E0"/>
<path d="M106.866 71.0709C106.546 71.5813 106.214 72.0917 105.83 72.6786C106.265 73.3166 106.738 74.0056 107.212 74.6946C107.122 74.8094 107.033 74.9243 106.943 75.0519C106.252 74.6436 105.561 74.2353 104.819 73.7887C104.063 74.2225 103.244 74.7074 102.412 75.1922C102.323 75.0902 102.22 74.9881 102.131 74.8732C102.604 74.1459 103.078 73.4059 103.59 72.6148C103.155 71.8237 101.913 71.1985 102.758 69.6929C103.526 70.3308 104.243 70.905 104.985 71.5175C105.484 71.2878 106.086 71.0199 106.674 70.7519C106.725 70.854 106.789 70.9561 106.866 71.0709Z" fill="#E0E1E0"/>
<path d="M65.6942 2.48786C66.6157 1.96471 67.4604 1.49261 68.2923 1.02051C68.4075 1.13534 68.5227 1.25018 68.6379 1.36502C68.1003 2.19439 67.55 3.02376 67.0253 3.82761C67.1788 4.36351 67.3452 4.91217 67.5884 5.7543C66.8461 5.34599 66.3981 5.10356 66.0014 4.88665C65.0799 5.39703 64.1712 5.90741 63.2753 6.40503C63.1602 6.26468 63.0322 6.12432 62.917 5.98397C63.4929 5.10356 64.0816 4.23591 64.696 3.30447C64.3888 2.75581 64.0176 2.09231 63.6465 1.42881C63.7233 1.35226 63.8001 1.2757 63.8769 1.19914C64.4656 1.62021 65.0543 2.04127 65.6942 2.48786Z" fill="#E0E1E0"/>
<path d="M40.5707 2.88379C41.3514 3.35589 42.1193 3.828 42.8361 4.26182C43.6423 3.86627 44.423 3.48349 45.1909 3.1007C45.2933 3.2283 45.3957 3.34313 45.4981 3.47073C45.0374 4.10871 44.5766 4.73392 44.0647 5.4357C44.3079 5.85676 44.5766 6.31611 45.0246 7.09444C44.1159 6.81373 43.5272 6.63509 42.9896 6.46922C41.9658 7.18375 40.9547 7.88553 39.9436 8.5873C39.8156 8.47247 39.6749 8.34487 39.5469 8.23004C40.2764 7.23479 40.9931 6.23955 41.761 5.19327C41.3258 4.60633 40.8011 3.90455 40.2892 3.21554C40.3916 3.11346 40.4812 2.99862 40.5707 2.88379Z" fill="#E0E1E0"/>
<path d="M81.0643 22.6354C80.386 22.1123 79.7205 21.5891 79.0421 21.066C78.2486 21.5126 77.4424 21.9719 76.6361 22.4185C76.4953 22.2909 76.3673 22.1633 76.2265 22.0357C76.764 21.2957 77.3016 20.5428 77.8903 19.7262C77.3528 18.9479 76.7256 18.042 76.1113 17.1488C76.2009 17.0595 76.2905 16.9702 76.3801 16.8809C77.212 17.5188 78.0439 18.1568 78.9526 18.8586C79.4901 18.5268 80.1044 18.1441 80.9747 17.5954C80.6419 18.6544 80.13 19.4838 80.2196 20.2494C80.3092 20.9894 81.0387 21.6529 81.4866 22.3419C81.3458 22.4313 81.2051 22.5333 81.0643 22.6354Z" fill="#E0E1E0"/>
<path d="M33.455 45.0028C33.8006 45.7428 34.1461 46.4956 34.4917 47.2485C34.3765 47.3505 34.2485 47.4398 34.1333 47.5419C33.519 47.0698 32.9047 46.585 32.252 46.0746C31.3305 46.7126 30.3194 47.4016 29.3211 48.1033C29.206 47.9885 29.0908 47.8609 28.9756 47.7461C29.7435 46.7508 30.5114 45.7556 31.2921 44.7348C30.9977 44.1862 30.665 43.5609 30.3194 42.9357C30.409 42.8592 30.4858 42.7826 30.5754 42.7061C31.1257 43.0633 31.676 43.4206 32.188 43.7651C32.9047 43.4206 33.6214 43.0761 34.3381 42.7316C34.4533 42.8337 34.5685 42.9485 34.6836 43.0506C34.2997 43.6885 33.8901 44.3265 33.455 45.0028Z" fill="#E0E1E0"/>
<path d="M70.7878 78.3308C70.0327 78.8667 69.2904 79.3898 68.5481 79.9257C68.4201 79.8109 68.2794 79.696 68.1514 79.594C68.5609 78.7901 68.9833 77.999 69.4568 77.0803C69.2904 76.7741 69.0345 76.3148 68.7913 75.8682C68.8681 75.7789 68.9449 75.6895 69.0089 75.613C69.444 75.7916 69.8791 75.9575 70.3015 76.1234C71.1846 75.4599 72.0549 74.7964 72.9379 74.1201C73.0659 74.2222 73.2067 74.337 73.3347 74.4391C72.7972 75.4088 72.2724 76.3913 71.6965 77.4121C72.2724 78.0756 72.8995 78.7901 73.5139 79.5046C73.4499 79.6067 73.3731 79.696 73.3091 79.7981C72.4516 79.2877 71.6069 78.8029 70.7878 78.3308Z" fill="#E0E1E0"/>
<path d="M96.2055 39.6182C95.1048 40.2307 94.145 40.7666 93.1979 41.3025C93.0955 41.1749 92.9803 41.0473 92.8779 40.9197C93.5818 40.1031 94.2729 39.2865 95.0153 38.4061C94.6313 37.6022 94.209 36.7346 93.7994 35.8669C93.889 35.7904 93.9658 35.7011 94.0554 35.6245C94.7977 36.2242 95.54 36.8367 96.2823 37.4364C96.8838 37.2067 97.5365 36.9643 98.1764 36.7091C98.2532 36.8111 98.33 36.9132 98.4068 37.0281C98.0229 37.5512 97.6389 38.0871 97.255 38.6102C97.6005 39.3503 97.9717 40.1286 98.3428 40.9197C98.2404 41.009 98.138 41.0856 98.0229 41.1749C97.6773 40.958 97.3062 40.7921 97.0118 40.5242C96.6918 40.2562 96.4359 39.899 96.2055 39.6182Z" fill="#E0E1E0"/>
<path d="M67.2043 36.5303C66.4364 37.5638 65.6685 38.5846 64.9134 39.5926C65.195 40.1668 65.4509 40.6899 65.7069 41.2258C65.6301 41.3024 65.5661 41.3662 65.4893 41.4427C65.0414 41.1748 64.6062 40.9068 64.1455 40.6134C63.2624 40.9196 62.9297 42.6932 61.3555 41.6852C61.9058 40.8175 62.4049 40.0264 62.9297 39.1971C62.7761 38.7632 62.6097 38.2656 62.3153 37.4235C63.0704 37.819 63.48 38.0232 63.8255 38.2018C64.8494 37.5 65.8477 36.8238 66.8588 36.1348C66.9611 36.2624 67.0891 36.4027 67.2043 36.5303Z" fill="#E0E1E0"/>
<path d="M16.6249 42.9741C17.6231 43.6376 18.6342 44.2884 19.6965 45.0029C20.298 44.6967 21.0019 44.3266 21.7058 43.9566C21.8082 44.0587 21.9234 44.1608 22.0257 44.2628C21.6034 44.837 21.1811 45.4112 20.7075 46.0492C21.1939 46.8275 21.7442 47.7079 22.2945 48.5756C22.1793 48.6649 22.0641 48.7414 21.9362 48.8308C19.5045 47.5803 17.5719 45.8195 16.2793 43.3952C16.4073 43.2548 16.5225 43.1145 16.6249 42.9741Z" fill="#E0E1E0"/>
<path d="M85.8646 92.5447C86.5301 93.0678 87.2084 93.5782 87.8739 94.1014C88.6546 93.4889 89.4481 92.8509 90.5232 92.0088C90.3184 93.9865 88.3091 95.4411 90.3312 97.1892C90.1776 97.2657 90.024 97.3423 89.8577 97.4188C89.3329 97.0743 88.821 96.7426 88.4114 96.4746C87.6563 96.8319 86.9268 97.1764 86.2101 97.5209C86.1205 97.4061 86.0309 97.2785 85.9414 97.1636C86.3253 96.4491 86.6965 95.7346 87.0932 94.9945C86.6069 94.28 86.0949 93.5399 85.583 92.7999C85.6854 92.7106 85.775 92.634 85.8646 92.5447Z" fill="#E0E1E0"/>
<path d="M50.2593 87.4792C49.8881 87.5813 49.7857 87.6578 49.7345 87.6196C48.9922 87.1985 48.2627 86.4457 47.5076 86.4074C46.7909 86.3691 46.023 87.0581 45.2807 87.4282C45.2039 87.3388 45.1143 87.2495 45.0375 87.1602C45.4599 86.5605 45.8822 85.9608 46.3174 85.3356C45.7414 84.6338 45.1271 83.8683 44.5 83.1154C44.5768 83.0006 44.6536 82.8985 44.7304 82.7837C45.3191 83.0644 45.959 83.2686 46.4837 83.6513C47.1493 84.1234 47.674 84.4169 48.4163 83.7534C48.7235 83.4855 49.261 83.4855 49.6961 83.3579C49.7729 83.4472 49.8369 83.5493 49.9137 83.6386C49.5041 84.2 49.0946 84.7742 48.6851 85.3356C49.1714 86.0119 49.6833 86.6881 50.2593 87.4792Z" fill="#E0E1E0"/>
<path d="M82.4858 92.8258C81.9226 92.5068 81.3595 92.1878 80.8988 91.9326C79.8493 92.8896 78.8254 93.821 77.8144 94.7524C77.6608 94.6249 77.5072 94.51 77.3408 94.3824C78.0447 93.1447 78.7486 91.9071 79.4909 90.5928C79.235 90.0825 78.915 89.4955 78.6079 88.8958C78.6846 88.8065 78.7486 88.7172 78.8254 88.6406C79.3886 88.9596 79.9517 89.2658 80.566 89.6104C80.9756 89.4062 81.4747 89.1382 82.281 88.7299C82.0122 89.6869 81.6283 90.3504 81.7307 90.9246C81.833 91.5115 82.409 92.0347 82.7673 92.5833C82.6777 92.6599 82.5753 92.7364 82.4858 92.8258Z" fill="#E0E1E0"/>
<path d="M62.3921 101.183C62.0722 101.63 61.7522 102.063 61.4067 102.536C61.9442 103.212 62.4945 103.914 63.0321 104.615C62.9681 104.73 62.8913 104.858 62.8273 104.973C62.3282 104.781 61.765 104.666 61.3299 104.373C60.562 103.85 59.8965 103.556 59.0774 104.335C58.7958 104.603 58.2455 104.603 57.8231 104.717C57.7464 104.615 57.6696 104.526 57.5928 104.424C57.9639 103.824 58.3351 103.237 58.7446 102.587C58.5399 102.114 58.2967 101.54 58.0535 100.966C58.1047 100.851 58.1559 100.736 58.2071 100.622C59.5381 101.221 60.8819 101.783 62.2898 100.813C62.3154 100.941 62.3538 101.055 62.3921 101.183Z" fill="#E0E1E0"/>
<path d="M4.06939 67.8042C3.26309 68.3018 2.4696 68.7994 1.6889 69.2843C1.59931 69.2205 1.52252 69.1439 1.43293 69.0801C1.93207 68.3273 2.4312 67.5745 2.94313 66.8089C2.36721 66.0816 1.76569 65.3033 1.15137 64.5377C1.21536 64.4357 1.29215 64.3208 1.35614 64.2188C2.07285 64.6015 2.75116 65.163 3.51906 65.3033C4.23577 65.4437 5.02926 65.1374 6.01474 64.9971C5.69478 65.584 5.43881 66.0561 5.20844 66.4899C5.69478 67.1407 6.18111 67.7914 6.65465 68.4422C6.53947 68.5825 6.42428 68.7229 6.3091 68.8632C5.59239 68.506 4.86289 68.1742 4.06939 67.8042Z" fill="#E0E1E0"/>
<path d="M56.7607 31.7201C57.1703 31.0949 57.5286 30.4442 57.9894 29.87C58.5653 29.1555 59.602 28.6196 58.3989 27.3691C58.5269 27.3564 58.6677 27.3309 58.7957 27.3181C59.1668 27.4712 59.5252 27.6371 59.8451 27.7647C60.805 27.1522 61.7521 26.527 62.6992 25.9146C62.84 26.0421 62.9679 26.1825 63.1087 26.3101C62.4432 27.2033 61.7777 28.0837 61.0994 28.9896C61.2146 29.4872 61.3425 30.0614 61.4705 30.6228C61.3937 30.6739 61.3042 30.7249 61.2274 30.7759C60.8562 30.4697 60.4723 30.1635 60.1011 29.8572C59.09 30.5845 58.1046 31.2991 57.1063 32.0264C57.0039 31.9371 56.8887 31.835 56.7607 31.7201Z" fill="#E0E1E0"/>
<path d="M92.8012 75.2431C93.1852 75.09 93.6075 74.9241 94.0298 74.7582C92.878 76.7997 95.1817 77.4632 95.5656 79.2496C94.401 78.6116 93.4795 78.1012 92.558 77.6036C91.7901 78.1523 90.9326 78.752 90.0751 79.3517C89.96 79.2368 89.832 79.122 89.7168 79.0071C90.3183 78.1012 90.9198 77.208 91.5598 76.2511C91.355 75.7917 91.0862 75.2303 90.8303 74.6561C90.907 74.5668 90.9838 74.4775 91.0606 74.3882C91.5982 74.6561 92.1357 74.9241 92.8012 75.2431Z" fill="#E0E1E0"/>
<path d="M34.5936 107.104C35.016 106.53 35.2719 106.172 35.5407 105.802C34.888 105.024 34.2097 104.207 33.5186 103.391C33.5825 103.25 33.6337 103.11 33.6977 102.97C34.4784 103.238 35.2847 103.455 36.0398 103.774C36.7693 104.08 37.4604 104.501 38.2795 104.922C38.5099 105.675 38.8171 106.67 39.1242 107.665C39.0218 107.742 38.9194 107.831 38.8171 107.908C38.1899 107.512 37.6012 106.925 36.9101 106.759C36.3214 106.619 35.6047 106.938 34.5936 107.104Z" fill="#E0E1E0"/>
<path d="M103.602 61.3477C104.575 61.9091 105.548 62.4833 106.405 62.9809C106.853 64.0782 107.301 65.1755 107.762 66.2856C107.698 66.3366 107.634 66.4004 107.557 66.4515C106.84 65.9283 106.111 65.4052 105.368 64.882C104.396 65.4817 103.372 66.1197 102.361 66.7449C102.335 65.3031 103.397 64.6651 104.191 63.874C103.909 63.1085 103.615 62.3301 103.321 61.5518C103.423 61.4753 103.513 61.4115 103.602 61.3477Z" fill="#E0E1E0"/>
<path d="M50.6561 1.6077C51.4368 1.1356 52.2047 0.676256 52.9598 0.216912C53.1006 0.331748 53.2414 0.446584 53.3821 0.56142C52.9086 1.33975 52.4351 2.11808 51.8975 2.99849C52.0511 3.29196 52.2687 3.73855 52.4991 4.17237C52.4991 4.31273 52.4863 4.45308 52.4735 4.58068C50.7457 3.12609 49.5426 4.49136 48.0068 4.8869C48.4932 4.15961 48.9667 3.44508 49.4914 2.65398C49.0435 1.88841 48.57 1.05904 48.0836 0.216912C48.1348 0.153114 48.1988 0.0765572 48.25 0C49.0435 0.523141 49.837 1.05904 50.6561 1.6077Z" fill="#E0E1E0"/>
<path d="M76.0608 101.655C76.4192 101.362 76.8159 101.043 77.2127 100.711C77.3022 100.762 77.4046 100.8 77.4942 100.851C77.315 101.464 77.1359 102.076 76.9311 102.778C77.1871 103.084 77.5582 103.454 77.8398 103.888C77.9806 104.092 77.9294 104.424 77.9678 104.692C77.699 104.692 77.379 104.781 77.1615 104.666C76.6623 104.424 76.2016 104.08 75.7153 103.773C75.0241 104.245 74.3458 104.692 73.6675 105.151C73.5779 105.088 73.4755 105.024 73.386 104.96C73.8083 104.22 74.2306 103.467 74.6658 102.689C74.1794 101.987 73.6547 101.221 73.1172 100.456C73.2324 100.315 73.3476 100.162 73.4627 100.022C74.3074 100.558 75.1393 101.081 76.0608 101.655Z" fill="#E0E1E0"/>
<path d="M10.2643 35.5482C9.90596 34.7061 9.5604 33.9278 9.21484 33.1367C9.34283 33.0473 9.47081 32.958 9.59879 32.856C10.1747 33.3153 10.7634 33.7619 11.365 34.2467C12.0305 33.8129 12.76 33.277 13.5407 32.8432C13.7839 32.7028 14.1678 32.8177 14.475 32.8177C14.4494 33.0984 14.5134 33.4557 14.3726 33.6598C13.9374 34.2467 13.3999 34.7571 12.952 35.3441C12.6576 35.7269 12.4272 36.1734 12.1457 36.6328C11.5185 36.7476 10.6099 36.888 9.5604 37.0538C9.80357 36.5562 10.0595 35.9948 10.2643 35.5482Z" fill="#E0E1E0"/>
<path d="M33.8647 69.7945C33.4296 70.4197 33.0072 71.0577 32.5721 71.6957C33.276 72.6144 34.0055 73.5713 34.8886 74.7325C32.4057 74.4773 29.4621 71.8743 29.0781 69.6797C29.9612 70.1135 30.7035 70.4708 31.5098 70.8536C32.1625 70.4197 32.8664 69.9604 33.5575 69.4883C33.6599 69.5904 33.7623 69.6924 33.8647 69.7945Z" fill="#E0E1E0"/>
<path d="M12.4788 76.1489C11.5701 75.5109 10.6486 74.8857 9.67592 74.1967C9.13839 74.5412 8.48568 74.9623 7.82016 75.3834C7.70498 75.2813 7.58979 75.2047 7.47461 75.1154C7.83296 74.3498 8.20411 73.5843 8.63926 72.6401C8.61366 72.589 8.47288 72.3083 8.48568 72.3466C9.63753 71.6959 10.687 71.1089 11.7237 70.522C11.8388 70.624 11.954 70.7261 12.0692 70.8154C11.6213 71.5938 11.1861 72.3721 10.6998 73.2142C11.3781 73.9926 12.1076 74.8219 12.8243 75.6641C12.7219 75.8299 12.5939 75.9831 12.4788 76.1489Z" fill="#E0E1E0"/>
<path d="M24.1889 57.2903C23.1267 57.8006 22.1924 58.2472 21.2453 58.681C21.1557 58.5662 21.0662 58.4514 20.9766 58.3238C21.5269 57.5837 22.0644 56.8309 22.6915 55.976C22.6275 55.6315 22.538 55.1084 22.4356 54.5852C22.474 54.4832 22.5124 54.3683 22.5508 54.2662C23.6514 55.3253 24.7009 54.9935 25.7119 54.2407C25.7759 54.33 25.8399 54.4194 25.9039 54.4959C25.6608 55.0063 25.4304 55.5039 25.1744 56.0526C25.6736 56.7161 26.2239 57.4434 26.7614 58.1707C26.6462 58.2983 26.5438 58.4259 26.4287 58.5534C25.648 58.1196 24.8289 57.6603 24.1889 57.2903Z" fill="#E0E1E0"/>
<path d="M94.7846 84.6086C94.2855 83.8813 93.7735 83.154 93.2744 82.4267C93.3896 82.2991 93.5048 82.1715 93.6072 82.0439C94.3751 82.5798 95.143 83.1157 95.9493 83.6772C96.7044 83.2689 97.4851 82.8478 98.2658 82.414C98.381 82.5288 98.4962 82.6436 98.6113 82.7585C98.061 83.3837 97.5107 84.0217 96.9475 84.6596C97.3955 85.3487 97.8434 86.0632 98.317 86.816C96.8452 87.5943 96.602 86.1015 95.7701 85.7952C95.2454 86.0122 94.7078 86.2418 94.1575 86.4715C94.0807 86.4205 93.9911 86.3567 93.9143 86.3056C94.1959 85.7697 94.4647 85.2338 94.7846 84.6086Z" fill="#E0E1E0"/>
<path d="M67.2942 103.824C67.4733 103.11 67.6653 102.395 67.8957 101.489C67.6013 100.928 67.1918 100.124 66.7822 99.3203C66.9102 99.2182 67.0382 99.1289 67.1662 99.0269C67.8829 99.6138 68.5996 100.213 69.4315 100.89C69.8666 100.686 70.4042 100.418 70.9545 100.15C71.1081 100.188 71.2488 100.239 71.4024 100.277C69.5723 101.719 71.0697 103.008 71.364 104.36C71.2616 104.437 71.1465 104.513 71.0441 104.59C70.4298 104.131 69.8026 103.671 69.1499 103.174C68.7148 103.429 68.2028 103.722 67.6909 104.016C67.5501 103.965 67.4221 103.901 67.2942 103.824Z" fill="#E0E1E0"/>
<path d="M59.7429 45.4496C58.975 44.9648 58.2071 44.4799 57.4136 43.9823C56.5305 44.5437 55.5706 45.1307 54.6236 45.7304C54.5212 45.6028 54.4188 45.4879 54.3164 45.3603C55.0587 44.5565 55.7882 43.7654 56.5049 42.9871C55.9802 42.2087 55.4683 41.4304 54.9563 40.6648C55.0587 40.55 55.1611 40.4351 55.2763 40.3203C56.0954 40.869 56.9145 41.4176 57.772 41.9791C58.2071 41.8132 58.6934 41.6345 59.5253 41.3156C59.0646 42.0556 58.8086 42.4512 58.5911 42.8084C59.103 43.5868 59.6021 44.3396 60.1013 45.0924C59.9733 45.2072 59.8581 45.3348 59.7429 45.4496Z" fill="#E0E1E0"/>
<path d="M54.0474 107.55C53.3947 106.619 52.7803 105.751 52.166 104.883C52.2428 104.794 52.3324 104.692 52.4092 104.603C52.8699 104.858 53.3563 105.075 53.7914 105.368C54.7129 106.006 55.4808 107.193 56.8758 105.713C56.9142 105.853 56.9654 105.981 57.0038 106.121C56.8374 106.593 56.671 107.065 56.4791 107.614C56.7478 107.984 57.0806 108.443 57.4261 108.915C57.4005 109.043 57.3749 109.17 57.3365 109.298C55.724 108.494 54.2521 108.673 52.9467 110C52.8827 109.834 52.8059 109.668 52.7419 109.502C53.1771 108.864 53.6122 108.213 54.0474 107.55Z" fill="#E0E1E0"/>
<path d="M110.065 61.5267C108.696 60.4804 107.326 60.1232 105.97 61.5139C105.88 61.4119 105.803 61.3098 105.714 61.2077C106.034 60.6208 106.341 60.0466 106.635 59.4979C106.635 58.7706 106.635 58.0561 106.635 57.3416C107.186 57.4819 107.723 57.6223 108.453 57.8137C108.849 57.6223 109.477 57.3161 110.116 56.9971C110.219 57.0991 110.321 57.1885 110.424 57.2905C110.065 57.8647 109.694 58.4389 109.285 59.0896C109.579 59.7276 109.925 60.4677 110.27 61.2077C110.193 61.3226 110.129 61.4246 110.065 61.5267Z" fill="#E0E1E0"/>
<path d="M21.757 23.5543C21.4499 24.6771 19.9397 25.6341 21.4243 27.0376C21.2835 27.0759 21.1555 27.1142 21.0147 27.1525C20.618 26.9738 20.2212 26.7952 19.9781 26.6804C18.9798 27.1142 18.0839 27.5097 17.1752 27.9053C17.0728 27.7777 16.9832 27.6501 16.8809 27.5225C17.1368 27.1014 17.3544 26.6676 17.636 26.2721C17.9175 25.8893 18.2503 25.532 18.583 25.1365C18.2759 24.4857 17.9687 23.835 17.6616 23.1843C17.7511 23.1077 17.8279 23.0311 17.9175 22.9546C18.4679 23.3501 19.0054 23.7457 19.5941 24.1795C20.1444 23.9243 20.7844 23.6181 21.4371 23.3246C21.5523 23.3884 21.6546 23.465 21.757 23.5543Z" fill="#E0E1E0"/>
<path d="M43.7961 20.5684C44.0137 21.2319 44.1929 21.7678 44.3721 22.3164C44.2825 22.3802 44.1929 22.4568 44.1033 22.5206C43.6042 22.2271 43.1178 21.9336 42.5675 21.6147C41.7612 21.9847 40.8909 22.393 40.0078 22.814C39.931 22.7375 39.8542 22.6482 39.7646 22.5716C40.3662 21.8316 40.9677 21.1043 41.6332 20.2749C41.3132 19.6369 40.9549 18.8969 40.5837 18.1568C40.6989 18.0547 40.8013 17.9527 40.9165 17.8506C41.5564 18.3482 42.1963 18.8586 42.7979 19.3307C43.5786 18.9862 44.3593 18.6417 45.14 18.2972C45.2167 18.4248 45.3063 18.5396 45.3831 18.6672C44.8584 19.2924 44.3209 19.9432 43.7961 20.5684Z" fill="#E0E1E0"/>
<path d="M17.3161 92.1878C16.4714 92.5068 15.6395 92.8258 14.8204 93.1448C14.7308 93.03 14.654 92.9279 14.5645 92.8131C15.1276 92.1623 15.6779 91.5244 16.2794 90.8353C16.1259 90.427 15.9339 89.9039 15.7419 89.3935C15.8059 89.3042 15.8699 89.2149 15.9339 89.1256C16.9577 89.7253 17.9432 90.6695 19.1079 89.1128C19.1975 89.2914 19.287 89.4701 19.3894 89.6359C19.1847 90.1974 18.9799 90.7588 18.7751 91.3074C19.1335 91.9709 19.5174 92.6727 19.9014 93.3872C19.7606 93.5148 19.607 93.6297 19.4662 93.7573C18.7623 93.2341 18.0584 92.7237 17.3161 92.1878Z" fill="#E0E1E0"/>
<path d="M96.9215 23.2226C96.0512 23.8478 95.1809 24.473 94.2979 25.0982C94.2211 25.0217 94.1315 24.9579 94.0547 24.8813C94.4898 24.3071 94.8738 23.6947 95.3601 23.1715C95.9488 22.5463 96.4992 21.9977 95.8721 21.079C95.7825 20.9514 95.9104 20.6834 95.9232 20.6196C96.9471 20.6834 97.8814 20.7472 98.9436 20.811C98.7645 21.1683 98.5597 21.5638 98.3805 21.8956C98.8413 22.8781 99.2892 23.835 99.7499 24.8048C99.5964 24.9196 99.4428 25.0217 99.2892 25.1365C98.4957 24.4985 97.715 23.8606 96.9215 23.2226Z" fill="#E0E1E0"/>
<path d="M83.8419 97.1509C83.3812 97.9548 82.6901 98.7331 82.5493 99.588C82.4341 100.328 82.9589 101.157 83.3044 102.331C82.5877 101.719 82.1654 101.362 81.8326 101.081C81.2183 101.387 80.6552 101.668 80.0792 101.961C79.9896 101.872 79.9001 101.77 79.8105 101.681C80.0408 101.068 80.284 100.443 80.5144 99.8049C79.7337 98.8862 78.9274 97.942 78.1211 96.9851C78.2107 96.8702 78.3131 96.7682 78.4027 96.6533C79.3497 97.3934 80.2968 98.1462 81.2439 98.899C81.999 98.2355 82.7925 97.5592 83.5732 96.8702C83.6628 96.9595 83.7524 97.0616 83.8419 97.1509Z" fill="#E0E1E0"/>
<path d="M55.5828 15.2095C55.6852 15.5795 55.8259 16.0389 56.0307 16.7662C55.3908 16.4344 55.0196 16.243 54.6229 16.0389C53.7654 16.6769 52.9079 17.3148 52.0504 17.9528C51.948 17.8635 51.8329 17.7614 51.7305 17.6721C52.3704 16.8172 53.0103 15.9623 53.6246 15.1329C53.3175 14.597 52.9719 14.0101 52.6392 13.4359C52.7159 13.3339 52.8055 13.2318 52.8823 13.1425C53.4838 13.4614 54.0982 13.7804 54.6869 14.0867C55.6596 13.4359 56.6834 12.7469 57.9377 11.9048C58.0017 13.8825 56.0563 13.8442 55.5828 15.2095Z" fill="#E0E1E0"/>
<path d="M42.5671 71.2875C42.9511 72.0148 43.2966 72.6655 43.6422 73.3035C43.527 73.3801 43.4118 73.4694 43.3094 73.546C42.7463 73.1121 42.1832 72.6655 41.7352 72.321C40.3658 72.9335 39.0604 73.5204 37.7549 74.0946C37.627 73.916 37.5118 73.7373 37.3838 73.5587C38.3949 72.6273 39.3931 71.6958 40.5322 70.6368C40.4554 70.4709 40.289 70.1009 40.097 69.6543C41.0569 69.935 41.94 70.1902 42.8999 70.4709C42.8359 70.6368 42.6823 71.0196 42.5671 71.2875Z" fill="#E0E1E0"/>
<path d="M54.4443 38.2149C54.8667 37.6152 55.3018 37.0283 55.737 36.4158C55.3402 35.7778 54.8923 35.0761 54.4571 34.3743C54.5723 34.2595 54.6875 34.1446 54.8027 34.0298C55.481 34.5402 56.1465 35.0505 56.8248 35.5482C57.4264 35.1909 58.0407 34.8336 58.6678 34.4636C58.7702 34.5402 58.8726 34.6167 58.9621 34.6933C58.6038 35.3313 58.2454 35.9692 57.8615 36.6582C58.335 37.3217 58.8726 38.0618 59.3973 38.8018C59.3077 38.9167 59.2053 39.0315 59.1157 39.1464C58.7062 38.9294 58.1943 38.8018 57.8999 38.4829C57.1448 37.628 56.4025 37.4621 55.481 38.1894C55.2762 38.3553 54.9435 38.3808 54.6747 38.4573C54.6107 38.368 54.5211 38.2915 54.4443 38.2149Z" fill="#E0E1E0"/>
<path d="M50.9121 53.3859C50.2978 53.6667 49.7347 53.9218 49.1844 54.177C49.0948 54.0877 48.9924 53.9984 48.9028 53.9091C49.1716 53.3732 49.4275 52.8245 49.7475 52.161C49.4531 51.6379 49.0948 50.9871 48.7236 50.3236C48.8132 50.2088 48.89 50.1067 48.9796 49.9919C49.6195 50.2981 50.2722 50.6044 50.9889 50.9489C51.6289 50.464 52.3712 49.9026 53.331 49.1753C53.459 50.7575 52.1664 51.2423 51.7184 52.2376C52.0384 52.9011 52.3968 53.6156 52.7423 54.3301C52.6399 54.4195 52.5503 54.5215 52.4479 54.6109C51.9488 54.2153 51.4369 53.807 50.9121 53.3859Z" fill="#E0E1E0"/>
<path d="M62.8914 63.1343C62.1363 63.6702 61.394 64.2061 60.6517 64.742C60.511 64.6271 60.383 64.4995 60.2422 64.3847C60.7797 63.5043 61.3172 62.6239 61.8676 61.7307C61.5988 61.1183 61.3044 60.4548 61.0101 59.7785C61.1253 59.7019 61.2405 59.6254 61.3556 59.5488C61.8676 59.9827 62.3795 60.4165 62.8914 60.8503C63.5314 60.4548 64.1713 60.072 64.8112 59.6764C64.9264 59.7402 65.0416 59.7913 65.1695 59.8551C63.9409 61.2714 63.4034 62.7387 64.952 64.3081C64.8112 64.3592 64.6832 64.4102 64.5424 64.474C63.9665 64.0019 63.3906 63.5426 62.8914 63.1343Z" fill="#E0E1E0"/>
<path d="M23.3692 83.1283C23.8428 84.047 24.3035 84.9147 24.7515 85.7823C24.5979 85.8971 24.4443 85.9992 24.3035 86.1141C23.6508 85.5909 22.9853 85.0678 22.3454 84.5574C21.8718 84.9529 21.3727 85.3612 20.8864 85.7823C20.784 85.7313 20.6688 85.6675 20.5664 85.6164C20.8608 84.8636 21.3983 84.1108 21.3727 83.3707C21.3471 82.6435 20.7712 81.9162 20.6304 80.9975C21.2063 81.393 21.795 81.7886 22.4222 82.2224C22.9853 81.7758 23.574 81.3037 24.1755 80.8188C24.2779 80.8826 24.3803 80.9592 24.4827 81.023C24.0859 81.7503 23.702 82.4903 23.3692 83.1283Z" fill="#E0E1E0"/>
<path d="M98.4325 76.3534C97.8949 75.9961 97.4342 75.7027 96.9863 75.3964C96.4615 75.7282 95.9368 76.0727 95.4249 76.4044C95.3481 76.3279 95.2585 76.2513 95.1817 76.1748C95.4377 75.6133 95.6936 75.0392 95.9624 74.465C95.5784 73.8142 95.1945 73.1635 94.8105 72.5128C94.8873 72.4107 94.9769 72.3214 95.0537 72.2193C95.6296 72.5766 96.2056 72.9466 96.8199 73.3294C97.6774 72.5128 98.5988 71.6324 99.5331 70.752C99.6483 70.8285 99.7763 70.9178 99.8915 70.9944C99.6611 71.5558 99.4691 72.1555 99.1748 72.6914C98.1509 74.5415 98.1381 74.5288 98.4325 76.3534Z" fill="#E0E1E0"/>
<path d="M66.2568 68.7613C67.6007 70.4328 68.7525 69.3483 69.9172 68.6465C69.994 68.7486 70.0836 68.8506 70.1603 68.9527C69.802 69.5907 69.4436 70.2287 69.0725 70.8666C69.6868 71.696 70.3395 72.5637 70.9922 73.4313C70.8771 73.5461 70.7619 73.661 70.6467 73.7758C69.738 73.1251 68.8165 72.4616 67.9334 71.8236C67.3063 72.066 66.6536 72.3085 66.0009 72.5509C65.9241 72.4361 65.8473 72.334 65.7705 72.2192C66.1289 71.7215 66.4872 71.2239 66.9096 70.637C66.6664 70.2287 66.372 69.731 66.0777 69.2334C66.1417 69.0803 66.2057 68.9272 66.2568 68.7613Z" fill="#E0E1E0"/>
<path d="M40.0463 37.9084C40.5455 37.8064 41.0574 37.6915 41.5821 37.5895C41.6845 37.6405 41.7997 37.7043 41.9021 37.7553C40.3151 39.2227 41.3518 40.5624 42.0045 42.2467C40.5839 41.4301 39.4192 40.7538 38.293 40.1031C38.293 39.1589 38.293 38.036 38.293 36.6963C38.8561 37.0791 39.4576 37.4874 40.0463 37.9084Z" fill="#E0E1E0"/>
<path d="M57.81 3.39426C58.4115 3.13907 59.0131 2.87112 59.6274 2.60317C59.717 2.69248 59.7938 2.76904 59.8834 2.85836C59.5762 3.48358 59.2562 4.12155 58.8851 4.88713C59.0643 5.29543 59.3202 5.86961 59.5634 6.44379C59.4738 6.54587 59.3714 6.64794 59.2818 6.76278C58.8083 6.52035 58.3348 6.27792 57.7844 5.99721C57.6308 6.07376 57.3749 6.31619 57.1061 6.34171C56.6838 6.36723 56.2486 6.23964 55.8135 6.17584C55.9031 5.79305 55.8647 5.21887 56.095 5.06576C57.3621 4.23639 56.0566 3.36874 56.1846 2.28418C56.8373 2.73076 57.3493 3.07527 57.81 3.39426Z" fill="#E0E1E0"/>
<path d="M62.827 48.5375C63.5693 48.142 64.3628 47.7209 65.1691 47.2871C65.2587 47.3764 65.3611 47.4657 65.4507 47.5678C64.8748 48.2313 64.2861 48.8948 63.6973 49.5583C64.1709 50.1963 64.6956 50.9108 65.2203 51.6126C65.1435 51.7147 65.054 51.8167 64.9772 51.9316C64.5676 51.7274 64.0557 51.5998 63.7485 51.2808C63.0574 50.5408 62.4047 50.0432 61.432 50.847C61.2784 50.9746 60.9457 50.8981 60.3826 50.9491C60.8049 50.3749 61.0737 50.0176 61.3808 49.6221C61.0225 48.9969 60.6641 48.3461 60.293 47.6827C60.3826 47.5678 60.4721 47.4402 60.5745 47.3254C61.2784 47.7082 61.9823 48.091 62.827 48.5375Z" fill="#E0E1E0"/>
<path d="M41.479 98.6438C41.1335 99.1159 40.8007 99.5753 40.2888 100.277C40.6087 100.507 41.0183 100.762 41.351 101.081C41.6454 101.374 41.8502 101.77 42.1061 102.114C42.0421 102.229 41.9654 102.331 41.9014 102.446C40.9671 102 40.0456 101.566 39.0985 101.106C38.6506 101.247 38.1386 101.4 37.2556 101.668C37.5883 100.902 37.7675 100.468 37.9851 99.9836C37.5243 99.3839 37.0508 98.7331 36.5645 98.0952C36.6156 98.0058 36.6796 97.9038 36.7308 97.8145C37.0508 97.9165 37.3963 97.9676 37.6907 98.1207C39.4825 99.0138 39.4825 99.0138 41.479 98.6438Z" fill="#E0E1E0"/>
<path d="M11.416 53.1054C11.9023 53.9603 12.4015 54.8279 12.8878 55.6956C12.7854 55.8104 12.683 55.9253 12.5806 56.0273C11.9791 55.6828 11.4032 55.1342 10.7761 55.0576C10.149 54.9811 9.45784 55.3766 8.60036 55.619C8.86912 55.0704 9.09949 54.611 9.31706 54.19C8.56196 53.3096 7.80686 52.4291 7.05176 51.5487C7.16694 51.4211 7.28213 51.2935 7.38451 51.1787C8.74114 51.8167 10.0978 52.4674 11.416 53.1054Z" fill="#E0E1E0"/>
<path d="M84.8786 8.82978C85.0321 8.77874 85.3905 8.66391 86.2352 8.40872C84.725 10.0292 86.3376 11.0372 86.4144 12.7597C85.4801 12.0579 84.8274 11.5603 84.1362 11.0499C83.4963 11.3562 82.7924 11.7007 82.0757 12.0452C81.9733 11.9431 81.8709 11.8283 81.7686 11.7262C82.2805 11.0499 82.7924 10.3864 83.33 9.67191C83.0612 9.05945 82.7668 8.35768 82.4725 7.66866C82.5749 7.55383 82.6644 7.45175 82.7668 7.33691C83.4067 7.79626 84.0339 8.24284 84.8786 8.82978Z" fill="#E0E1E0"/>
<path d="M91.7131 56.6906C92.4298 56.2951 93.0313 55.9633 93.6456 55.6316C93.7352 55.7337 93.8248 55.8357 93.9144 55.9378C93.4409 56.5503 92.9673 57.1755 92.481 57.8135C92.9289 58.4897 93.3641 59.166 93.812 59.8422C93.684 59.9571 93.556 60.0591 93.4281 60.174C92.7626 59.6891 92.097 59.2043 91.4315 58.7066C90.8172 59.0639 90.1389 59.4467 89.4606 59.8295C89.3582 59.7402 89.243 59.6508 89.1406 59.5615C89.6142 58.9363 90.0749 58.2983 90.574 57.6476C90.2413 56.9969 89.8829 56.3206 89.499 55.5678C90.8172 55.0191 91.022 56.3461 91.7131 56.6906Z" fill="#E0E1E0"/>
<path d="M26.6721 22.3545C27.2993 22.9159 27.8496 23.6942 28.5919 23.975C29.219 24.2174 30.0765 23.8984 31.0876 23.8091C29.8333 24.7405 29.4622 25.7613 30.6908 27.1904C30.0125 27.05 29.7437 26.9862 29.475 26.9607C28.9758 26.9096 28.4895 26.8586 27.9904 26.8459C27.5424 26.8331 27.0945 26.8841 26.6465 26.8969C26.8257 26.4631 26.9921 26.0292 27.2097 25.6082C27.2993 25.4295 27.5168 25.3147 27.632 25.1999C27.1713 24.3195 26.7233 23.4646 26.2754 22.6224C26.4162 22.5459 26.5442 22.4438 26.6721 22.3545Z" fill="#E0E1E0"/>
<path d="M52.9468 65.6733C53.3691 65.9412 53.7915 66.1964 54.2906 66.5026C54.5722 66.2985 54.8665 66.056 55.1865 65.8519C55.4936 65.6477 55.8136 65.4819 56.1463 65.3032C56.2615 65.5201 56.3639 65.635 56.3383 65.6605C55.0585 67.1534 55.5448 68.4166 56.7991 69.616C56.9271 69.7436 56.9143 70.0115 56.7351 70.4453C55.9928 69.8584 55.2505 69.2842 54.5338 68.7228C53.8938 69.029 53.2283 69.348 52.5628 69.6542C52.4732 69.5266 52.3836 69.399 52.2812 69.2714C52.6652 68.6717 53.0492 68.0721 53.4715 67.4086C53.2283 66.9492 52.9596 66.4261 52.6908 65.8902C52.7932 65.8264 52.87 65.7498 52.9468 65.6733Z" fill="#E0E1E0"/>
<path d="M57.2082 74.0948C55.6468 75.5111 57.3746 76.6084 57.4258 78.1906C56.6835 77.5654 56.1587 77.1061 55.698 76.7233C54.9173 77.1188 54.1622 77.5016 53.4071 77.8844C53.2919 77.744 53.1767 77.6037 53.0615 77.4633C53.5479 76.7998 54.0342 76.1491 54.5717 75.4218C54.111 74.7073 53.6119 73.9289 53.1127 73.1634C53.2279 73.0485 53.3303 72.9337 53.4455 72.8188C54.175 73.3292 54.9045 73.8396 55.7748 74.4393C56.0051 74.3372 56.4147 74.1458 56.8242 73.9544C56.9522 74.0055 57.0802 74.0565 57.2082 74.0948Z" fill="#E0E1E0"/>
<path d="M19.8763 38.3044C19.1724 38.7637 18.4301 39.2613 17.6878 39.7462C17.5982 39.6569 17.4958 39.5803 17.4062 39.491C17.9822 38.7382 18.5581 37.9981 19.1596 37.2071C18.9932 36.8625 18.8013 36.4542 18.5965 36.0587C20.5418 37.0922 21.3353 34.6934 23.2551 34.6807C22.4232 35.7142 21.7833 36.518 21.1306 37.3346C21.3225 37.8578 21.5529 38.4702 21.7833 39.0699C21.6553 39.1593 21.5273 39.2358 21.3993 39.3251C20.8874 38.9806 20.3883 38.6361 19.8763 38.3044Z" fill="#E0E1E0"/>
<path d="M57.8105 24.3325C58.4505 23.6052 59.1032 22.8652 59.7687 22.1124C59.6023 21.602 59.4103 21.015 59.2184 20.4281C59.3208 20.3388 59.4359 20.2495 59.5383 20.1602C60.0631 20.5302 60.575 20.9002 61.1253 21.283C61.5605 21.0406 62.034 20.7726 62.5203 20.4919C62.3668 21.7423 62.2132 22.9035 62.0468 24.1922C61.7524 24.0008 61.3429 23.7456 60.831 23.4266C60.0375 23.8859 59.1672 24.3836 58.2969 24.8812C58.1433 24.6898 57.9769 24.5112 57.8105 24.3325Z" fill="#E0E1E0"/>
<path d="M78.0571 52.9519C77.4812 53.2837 76.8669 53.6282 76.2654 53.9727C76.1502 53.8579 76.0478 53.7558 75.9326 53.641C76.3294 53.0285 76.7261 52.416 77.1613 51.7398C76.9821 51.2549 76.7517 50.6807 76.5341 50.0938C76.6109 50.03 76.6877 49.9534 76.7645 49.8896C77.3148 50.2469 77.8652 50.5914 78.4539 50.9742C79.0426 50.6552 79.6697 50.3235 80.2968 50.0045C80.3864 50.1066 80.4632 50.2086 80.5528 50.298C80.1305 50.8339 79.7081 51.3825 79.273 51.9439C79.6953 52.633 80.1305 53.3475 80.5656 54.0748C80.4632 54.1896 80.3608 54.3045 80.2713 54.4193C79.5161 53.9217 78.7738 53.4368 78.0571 52.9519Z" fill="#E0E1E0"/>
<path d="M11.6084 63.7211C11.6979 63.6701 12.0307 63.4914 12.4146 63.2873C12.3507 64.3973 12.2867 65.4309 12.2227 66.541C11.9667 66.4261 11.5572 66.2602 11.1348 66.0688C10.3541 66.6685 9.58622 67.281 8.80552 67.8935C8.69033 67.8042 8.57515 67.7276 8.45996 67.6383C8.97189 66.8089 9.48383 65.9795 10.047 65.0736C9.63741 64.5122 9.16387 63.8359 8.67753 63.1597C8.77992 62.9938 8.88231 62.8407 8.98469 62.6748C9.79099 63.0066 10.6229 63.3255 11.6084 63.7211Z" fill="#E0E1E0"/>
<path d="M67.8825 52.8885C67.5241 52.2505 67.1786 51.587 66.8202 50.9363C66.9226 50.8597 67.0122 50.7832 67.1146 50.6938C67.6905 51.166 68.2664 51.6381 68.868 52.1229C69.4823 51.7656 70.1094 51.3956 70.7493 51.0384C70.8261 51.1149 70.9029 51.2042 70.9797 51.2808C70.5829 51.855 70.1862 52.4419 69.7382 53.0799C70.1862 53.8072 70.6725 54.5855 71.1589 55.3638C71.0565 55.4659 70.9413 55.568 70.8389 55.6701C70.0966 55.0959 69.3671 54.509 68.6632 53.9603C67.9209 54.4452 67.1658 54.9555 66.3979 55.4532C66.2955 55.3383 66.2059 55.2362 66.1035 55.1214C66.7178 54.3686 67.3066 53.6158 67.8825 52.8885Z" fill="#E0E1E0"/>
<path d="M66.6152 94.1656C66.1417 93.4128 65.7193 92.7365 65.2842 92.0475C65.361 91.9454 65.425 91.8306 65.5018 91.7285C66.2697 92.0985 67.0248 92.4558 67.8438 92.8513C68.3686 92.5834 68.9957 92.2772 69.61 91.9709C69.6612 92.0475 69.7124 92.1368 69.7764 92.2134C69.4564 92.7748 69.1493 93.3362 68.7909 93.9487C69.0597 94.4208 69.3413 94.9184 69.6356 95.4288C69.5716 95.5181 69.5076 95.5946 69.4436 95.684C68.9317 95.4543 68.4326 95.2246 67.9718 95.0205C67.2551 95.4798 66.5512 95.9264 65.8473 96.3857C65.7449 96.2964 65.6425 96.1943 65.5401 96.105C65.8985 95.4543 66.2569 94.8163 66.6152 94.1656Z" fill="#E0E1E0"/>
<path d="M20.9504 70.4326C20.2593 70.7771 19.6578 71.0833 19.0435 71.4023C18.9411 71.3257 18.8387 71.2492 18.7363 71.1726C19.1075 70.5857 19.4786 70.0115 19.9138 69.3225C19.6706 68.8759 19.3634 68.289 19.0435 67.6893C19.1075 67.6 19.1715 67.5234 19.2355 67.4341C19.8754 67.7786 20.5153 68.1103 21.1424 68.4421C21.7823 68.1614 22.4222 67.8679 23.0622 67.5872C23.1646 67.702 23.2797 67.8041 23.3821 67.9189C23.0366 68.4421 22.691 68.978 22.3199 69.5394C22.6526 70.1008 23.0494 70.726 23.4333 71.3513C23.3437 71.4406 23.2541 71.5427 23.1774 71.632C22.435 71.2237 21.7055 70.8409 20.9504 70.4326Z" fill="#E0E1E0"/>
<path d="M49.7472 20.0454C50.5663 20.6451 51.3854 21.2448 52.2941 21.9083C52.7548 21.7297 53.3307 21.5128 53.9066 21.2831C53.9834 21.3724 54.073 21.449 54.1498 21.5383C53.8043 22.0869 53.4587 22.6228 53.1003 23.2098C53.3179 23.7074 53.5611 24.2433 53.9066 25.0089C52.7164 24.6133 51.7565 24.3071 50.9886 24.0519C50.4639 22.7377 49.9775 21.4872 49.4912 20.2496C49.568 20.173 49.6576 20.1092 49.7472 20.0454Z" fill="#E0E1E0"/>
<path d="M44.9859 62.0752C44.2435 61.131 43.5524 60.2378 42.8613 59.3447C43.0021 59.1915 43.1301 59.0384 43.2709 58.8726C44.2947 59.5488 45.3186 60.2378 46.3553 60.9396C46.7776 60.7482 47.264 60.5313 47.7503 60.3016C47.8399 60.3782 47.9295 60.4675 48.0063 60.5441C47.7503 61.0289 47.4815 61.5138 47.2 62.0624C47.4431 62.4963 47.7119 62.9811 47.9679 63.4532C47.9167 63.5298 47.8527 63.6063 47.8015 63.6957C47.264 63.4277 46.7264 63.147 46.1761 62.8663C45.6386 63.0577 45.0754 63.2746 44.5123 63.4788C44.4483 63.3894 44.3843 63.3001 44.3075 63.2108C44.5379 62.828 44.7683 62.4452 44.9859 62.0752Z" fill="#E0E1E0"/>
<path d="M66.8328 29.8575C67.2807 29.7299 67.8311 29.5768 68.7654 29.3216C68.2406 30.0361 67.9719 30.4061 67.7671 30.6868C68.343 31.6438 68.8805 32.5497 69.4309 33.4684C69.2773 33.5833 69.1109 33.6981 68.9573 33.8129C66.7944 32.5625 65.3226 30.6741 64.0684 28.556C64.1579 28.4412 64.2475 28.3136 64.3243 28.1987C65.169 28.7474 65.9881 29.2961 66.8328 29.8575Z" fill="#E0E1E0"/>
<path d="M1.42051 56.5884C1.16455 56.0143 0.882982 55.4018 0.550226 54.6618C2.06043 54.2279 2.76434 56.8181 4.38973 54.8531C4.41532 55.0828 4.42812 55.2997 4.45372 55.5294C4.21055 55.976 3.98018 56.4353 3.73701 56.8692C4.01858 57.5454 4.31294 58.2599 4.6201 58.9617C4.5689 59.0766 4.53051 59.1914 4.47932 59.2935C3.14829 58.1324 1.79166 57.1881 0.255864 58.9745C0.166275 58.8341 0.0894853 58.6938 0.0126953 58.5534C0.447839 57.941 0.895781 57.3285 1.42051 56.5884Z" fill="#E0E1E0"/>
<path d="M71.9011 87.1603C71.4147 86.8286 70.9156 86.4841 70.4677 86.1778C69.751 86.6882 69.0214 87.2241 68.3047 87.7473C68.1768 87.6324 68.0616 87.5048 67.9336 87.39C68.3431 86.6755 68.7527 85.9609 69.1878 85.2209C68.8935 84.736 68.5607 84.1618 68.228 83.6004C68.3047 83.5111 68.3815 83.4218 68.4583 83.3197C69.0087 83.5749 69.5718 83.8173 70.2245 84.1108C70.7364 83.7408 71.3507 83.3069 71.9651 82.8604C72.0675 82.9369 72.1826 83.0007 72.285 83.0773C71.9267 83.7918 71.5683 84.5063 71.1716 85.3102C71.5043 85.7823 71.9011 86.3309 72.285 86.8669C72.1442 86.9689 72.0291 87.0582 71.9011 87.1603Z" fill="#E0E1E0"/>
<path d="M58.7823 60.2376C58.3088 60.8246 57.8352 61.4243 57.3233 62.0495C57.72 62.764 58.1168 63.4913 58.5263 64.2314C58.4368 64.3207 58.3472 64.41 58.2576 64.4866C57.5921 63.9379 56.9393 63.3765 56.325 62.8789C55.7107 63.2106 55.1092 63.5424 54.5205 63.8613C54.4053 63.772 54.2901 63.6827 54.1621 63.5806C54.5077 62.9682 54.8404 62.343 55.2628 61.5902C55.0708 61.2584 54.7892 60.748 54.5077 60.2504C54.5845 60.1356 54.6612 60.0207 54.7508 59.9059C55.3652 60.2249 55.9795 60.8246 56.581 60.7991C57.2465 60.7863 57.8992 60.2121 58.5519 59.8804C58.6287 60.008 58.7055 60.1228 58.7823 60.2376Z" fill="#E0E1E0"/>
<path d="M24.7775 89.7124C25.7758 90.1717 26.7741 90.6311 27.5932 91.0139C27.9003 92.0474 28.2075 93.1192 28.5274 94.191C28.4634 94.242 28.3866 94.3058 28.3227 94.3569C27.7467 93.8848 27.158 93.4254 26.5437 92.9278C25.699 93.3616 24.8415 93.821 23.9712 94.2676C23.8688 94.1655 23.7664 94.0634 23.6641 93.9613C24.2784 93.2723 24.8927 92.5833 25.5582 91.8433C25.2511 91.2563 24.9055 90.5928 24.5471 89.9166C24.6367 89.8528 24.7007 89.7762 24.7775 89.7124Z" fill="#E0E1E0"/>
<path d="M91.1758 29.4999C91.4701 28.9768 91.7645 28.4536 92.0973 27.8795C91.6749 26.7949 91.9949 26.1059 92.878 26.3738C93.4027 26.5269 93.8762 26.8077 94.1322 26.9097C94.7977 28.326 95.3992 29.5637 95.988 30.8142C95.86 30.9035 95.7448 30.9928 95.6168 31.0693C95.1689 30.661 94.6569 30.291 94.2858 29.8317C93.6203 28.9768 92.942 28.6833 92.0333 29.4744C91.8797 29.602 91.6749 29.653 91.4829 29.7424C91.3934 29.6658 91.2782 29.5765 91.1758 29.4999Z" fill="#E0E1E0"/>
<path d="M54.1885 87.8878C53.9582 87.4284 53.715 86.9563 53.4718 86.4842C53.5614 86.4077 53.651 86.3183 53.7406 86.2418C54.2269 86.548 54.7133 86.8542 55.1612 87.135C55.8523 86.8032 56.5306 86.4587 57.209 86.127C57.2857 86.2163 57.3753 86.3056 57.4521 86.3949C57.017 86.9308 56.5946 87.4667 56.1211 88.0409C56.633 88.9213 57.1706 89.84 57.7081 90.7459C57.5673 90.848 57.4393 90.9628 57.2985 91.0649C56.5434 90.4014 55.7883 89.7379 54.9564 89.0106C54.5469 89.3424 54.099 89.6996 53.6382 90.0696C53.5358 90.0186 53.4334 89.9676 53.3311 89.9165C53.5998 89.2913 53.8814 88.6406 54.1885 87.8878Z" fill="#E0E1E0"/>
<path d="M73.1809 42.3746C72.5154 42.834 71.9267 43.2423 71.3251 43.6506C71.21 43.5995 71.082 43.5612 70.9668 43.5102C72.3234 42.2215 71.8883 40.7031 71.4659 38.853C72.3874 39.4399 72.9121 39.7717 73.5137 40.1544C74.1024 39.7334 74.7679 39.2485 75.7022 38.5723C75.6894 40.3969 73.3985 41.0349 74.7295 43.0636C73.8592 42.6681 73.5265 42.5277 73.1809 42.3746Z" fill="#E0E1E0"/>
<path d="M37.5885 89.2531C38.51 89.1383 39.1243 89.0745 39.7387 88.9979C39.5467 89.5211 39.3419 90.057 39.0988 90.7077C39.3163 91.1543 39.6235 91.7668 40.0202 92.5961C38.702 92.1496 37.6781 91.7923 36.7567 91.4861C36.3599 90.5163 35.912 89.4062 35.3232 87.9517C36.3599 88.5386 37.1534 88.9979 37.5885 89.2531Z" fill="#E0E1E0"/>
<path d="M28.2714 61.8071C28.7577 62.1644 29.2569 62.5344 29.6664 62.8279C30.3063 62.6493 30.9206 62.4706 31.5222 62.292C31.599 62.4196 31.6629 62.5472 31.7397 62.6875C31.407 63.1086 31.0614 63.5297 30.7031 63.9763C31.0486 64.5887 31.3942 65.2012 31.7525 65.8264C31.7013 65.9285 31.6502 66.0433 31.5862 66.1454C30.4087 65.4564 29.2441 64.4866 27.849 65.8519C28.0922 64.4866 28.9753 63.3128 27.7979 62.0751C27.9642 61.973 28.1178 61.8964 28.2714 61.8071Z" fill="#E0E1E0"/>
<path d="M9.97039 48.1036C9.17689 48.5757 8.44739 49.0095 7.71788 49.4433C7.62829 49.354 7.5515 49.2647 7.46191 49.1754C8.01224 48.4481 8.54977 47.7208 9.1001 46.9807C8.80574 46.3427 8.52418 45.7048 8.22981 45.054C8.3194 44.9647 8.42179 44.8881 8.51138 44.7988C9.0873 45.1944 9.66323 45.5899 10.252 45.9855C10.7255 45.8068 11.2246 45.6154 11.7238 45.424C11.8006 45.5006 11.8901 45.5899 11.9669 45.6665C11.6854 46.1513 11.4166 46.6362 11.135 47.1338C11.3654 47.7208 11.5958 48.3332 11.8389 48.9457C11.7366 49.035 11.6342 49.1116 11.5318 49.2009C11.0199 48.8308 10.5207 48.4736 9.97039 48.1036Z" fill="#E0E1E0"/>
<path d="M37.5754 53.9472C37.8058 54.33 38.0746 54.7511 38.3305 55.1721C38.2665 55.2487 38.2025 55.3125 38.1257 55.3891C37.6778 55.1211 37.2299 54.8659 36.8075 54.6107C35.9116 55.2232 35.0413 55.7974 34.1711 56.3843C34.0431 56.2439 33.9151 56.1163 33.7871 55.976C34.4526 55.1977 35.1053 54.4321 35.7709 53.641C35.3869 53.1179 34.9902 52.5692 34.5806 52.0205C34.6446 51.9185 34.7086 51.8164 34.7726 51.7143C35.3997 52.0333 36.0268 52.365 36.7051 52.7095C37.3322 52.314 38.0234 51.8802 38.7273 51.4336C38.8297 51.5357 38.932 51.625 39.0344 51.7271C38.5481 52.4799 38.0618 53.2072 37.5754 53.9472Z" fill="#E0E1E0"/>
<path d="M102.604 80.1169C101.849 80.5125 101.107 80.8953 100.377 81.278C100.249 81.1632 100.134 81.0356 100.006 80.9208C100.467 80.219 100.927 79.5045 101.388 78.8027C101.094 78.1392 100.799 77.4502 100.441 76.6463C101.99 76.4039 102.412 79.211 104.242 77.3864C104.268 77.5395 104.293 77.6926 104.319 77.8457C104.063 78.2923 103.82 78.7261 103.525 79.2365C103.641 79.581 103.794 80.0148 104.05 80.7421C103.385 80.4487 102.962 80.27 102.604 80.1169Z" fill="#E0E1E0"/>
<path d="M8.11376 26.4121C8.65129 26.7183 9.18882 27.0373 9.75194 27.3563C10.3151 27.0628 10.891 26.7439 11.4797 26.4376C11.5437 26.5142 11.6205 26.578 11.6845 26.6545C11.3389 27.216 11.0062 27.7901 10.6606 28.3516C11.0062 29.0406 11.3517 29.7296 11.6973 30.4186C11.5693 30.5207 11.4541 30.6228 11.3261 30.7248C10.763 30.3293 10.1999 29.9465 9.57277 29.4999C9.02244 29.7934 8.38252 30.1251 7.7426 30.4569C7.64022 30.3931 7.55063 30.3293 7.44824 30.2527C7.83219 29.602 8.21614 28.9513 8.62569 28.2622C8.38252 27.7774 8.11376 27.216 7.83219 26.6673C7.92178 26.578 8.01137 26.4887 8.11376 26.4121Z" fill="#E0E1E0"/>
<path d="M35.4899 20.0197C34.9651 20.6066 34.4404 21.1936 33.8261 21.8698C34.1972 22.444 34.6324 23.1203 35.0675 23.7965C35.0291 23.8731 34.9779 23.9496 34.9395 24.0262C33.8901 23.5158 32.8406 22.9927 31.7144 22.444C31.3944 21.755 30.9848 20.8491 30.5625 19.9559C32.1751 21.3467 33.7365 20.2366 35.3107 19.5986C35.3619 19.739 35.4259 19.8793 35.4899 20.0197Z" fill="#E0E1E0"/>
<path d="M20.9891 65.2394C20.5284 65.3797 20.0549 65.5329 19.3126 65.7625C19.6325 65.0735 19.8373 64.6652 20.0165 64.2697C19.4917 63.5041 18.9798 62.7258 18.4551 61.9474C18.5703 61.8071 18.6854 61.6667 18.7878 61.5264C19.5813 62.0623 20.362 62.5854 21.1683 63.1213C21.6803 62.9044 22.2434 62.662 22.8065 62.4195C22.8705 62.5088 22.9473 62.5982 23.0113 62.6747C22.6913 63.1596 22.3586 63.6444 22.0258 64.1548C22.333 64.729 22.6401 65.3287 22.9601 65.9284C22.8961 66.0177 22.8193 66.107 22.7553 66.1964C22.1794 65.8901 21.6035 65.5839 20.9891 65.2394Z" fill="#E0E1E0"/>
<path d="M54.4694 82.4396C53.9319 82.8351 53.4455 83.1668 52.972 83.5114C52.8824 83.4348 52.7928 83.371 52.6904 83.2944C52.9336 82.7968 53.1896 82.2992 53.4327 81.7888C52.9976 81.0232 51.641 80.5001 52.7928 79.1221C53.4327 79.6069 54.0343 80.0535 54.6998 80.5639C55.1605 80.2959 55.6596 80.0025 56.3764 79.5814C56.0052 80.4873 55.4933 81.1636 55.5573 81.7888C55.6213 82.4778 56.2228 83.1158 56.5811 83.7665C56.4915 83.8303 56.4019 83.9069 56.3252 83.9707C55.7236 83.4858 55.1093 82.9755 54.4694 82.4396Z" fill="#E0E1E0"/>
<path d="M20.2341 15.9622C19.927 16.4598 19.6198 16.9702 19.2999 17.4806C19.6838 18.2206 20.0806 18.9607 20.4773 19.7135C20.4005 19.7773 20.3109 19.8539 20.2341 19.9177C19.6326 19.42 19.0311 18.9097 18.404 18.3865C17.892 18.7438 17.4057 19.0883 16.9194 19.4328C16.8426 19.3945 16.7658 19.3562 16.6762 19.318C16.8682 18.8076 17.0601 18.2972 17.1369 18.1186C16.8426 17.1106 16.6122 16.3195 16.3818 15.5156C17.1497 15.7708 17.9304 16.026 18.6983 16.2812C18.6727 16.3833 18.6343 16.4854 18.6087 16.5874C19.0695 16.3067 19.5302 16.0132 20.0038 15.7325C20.0678 15.7963 20.1573 15.8857 20.2341 15.9622Z" fill="#E0E1E0"/>
<path d="M87.7842 89.7762C87.2851 89.521 86.786 89.2531 86.2484 88.9724C85.4294 89.4062 84.5719 89.8655 83.6504 90.3504C83.3432 88.7682 86.1845 88.4747 84.6743 86.4842C86.2101 87.7092 87.1443 86.1653 88.3218 86.0249C88.4114 86.127 88.501 86.2163 88.6033 86.3184C88.181 86.9053 87.7587 87.4795 87.2723 88.1557C87.4899 88.5513 87.7587 89.0362 88.0274 89.521C87.9378 89.6103 87.861 89.6869 87.7842 89.7762Z" fill="#E0E1E0"/>
<path d="M82.9594 31.3629C82.3067 32.2689 81.526 33.1493 82.6522 34.3614C82.5242 34.3997 82.3963 34.4507 82.2683 34.489C81.8459 34.2593 81.4236 34.0297 81.0012 33.7872C80.1565 34.2849 79.2479 34.8208 78.352 35.3439C78.2496 35.2291 78.1472 35.127 78.0576 35.0122C78.7743 33.9404 79.491 32.8813 80.3613 31.5926C80.8988 31.4778 81.8459 31.2609 82.793 31.0439C82.8442 31.1588 82.8954 31.2609 82.9594 31.3629Z" fill="#E0E1E0"/>
<path d="M46.9572 28.7346C46.6884 28.1732 46.4453 27.6501 46.1381 27.0121C47.5075 26.591 48.3778 29.0153 49.6961 27.0759C49.7473 27.2162 49.8112 27.3693 49.8624 27.5097C49.6193 27.9435 49.3761 28.3773 49.1713 28.7346C49.3633 29.3854 49.5425 30.0106 49.7217 30.6485C49.5937 30.7251 49.4657 30.8017 49.3505 30.8782C48.8514 30.4954 48.3522 30.1254 47.8019 29.7043C47.0852 30.0616 46.3301 30.4444 45.5878 30.8144C45.511 30.7251 45.4342 30.6358 45.3574 30.5465C45.8822 29.9595 46.3941 29.3726 46.9572 28.7346Z" fill="#E0E1E0"/>
<path d="M5.41406 79.709C5.72122 79.288 6.04118 78.8669 6.32274 78.4841C6.06678 77.9227 5.81081 77.3613 5.55484 76.7871C5.64443 76.7233 5.74682 76.6595 5.83641 76.5957C6.77069 76.9657 7.71776 77.3358 8.43447 77.6165C9.16398 78.65 9.84229 79.607 10.5462 80.6022C10.2902 80.7043 10.1878 80.7808 10.1494 80.7553C9.41994 80.296 8.75443 79.5814 7.97373 79.4411C7.26982 79.3135 6.45073 79.7984 5.67003 80.0025C5.56764 79.9004 5.49085 79.8111 5.41406 79.709Z" fill="#E0E1E0"/>
<path d="M28.3487 33.6595C28.4894 33.2894 28.643 32.9067 28.7454 32.6515C28.3103 32.0007 27.9135 31.3883 27.376 30.5844C29.0014 30.5334 29.7693 32.6387 31.3819 31.4521C31.2539 31.8221 31.1131 32.1921 31.0107 32.4728C31.6506 33.2384 32.2521 33.9529 32.8409 34.6675C32.7385 34.7951 32.6489 34.9227 32.5465 35.0503C31.625 34.5016 30.7163 33.9657 29.6925 33.3532C29.3853 33.4936 28.9758 33.685 28.5662 33.8764C28.5022 33.8126 28.4254 33.736 28.3487 33.6595Z" fill="#E0E1E0"/>
<path d="M21.386 15.7195C20.6437 14.9284 19.8886 14.1373 19.1719 13.3845C20.2213 12.8359 20.9764 12.4403 21.7315 12.0575C22.5122 11.6492 23.2929 11.2537 24.368 10.7178C24.2272 12.351 23.2289 12.9252 22.4355 13.5632C21.7571 14.1118 21.066 14.5074 21.8467 15.6047C21.6931 15.643 21.5396 15.6812 21.386 15.7195Z" fill="#E0E1E0"/>
<path d="M91.8157 16.4724C91.1118 16.9063 90.4463 17.3146 89.7936 17.7229C89.6912 17.6208 89.576 17.5315 89.4736 17.4294C89.9472 16.7914 90.4335 16.1534 90.971 15.4517C90.8559 15.0434 90.7023 14.4947 90.4719 13.7036C91.4446 14.1119 92.1613 14.4181 92.7244 14.6606C93.2619 15.7324 93.7611 16.7276 94.2986 17.8249C92.9548 18.1695 92.5964 16.9445 91.8157 16.4724Z" fill="#E0E1E0"/>
<path d="M71.3631 21.5254C72.0415 22.023 72.7198 22.5206 73.5005 23.0821C73.718 22.98 74.0508 22.8141 74.2812 22.6993C74.2812 23.669 74.2812 24.6515 74.2812 25.6467C73.9484 25.4681 73.4877 25.2257 73.1037 25.0087C72.3358 25.5064 71.6063 25.9657 70.8896 26.4251C70.7744 26.2847 70.6464 26.1571 70.5312 26.0167C71.0432 25.3788 71.5551 24.7408 72.131 24.0263C71.7983 23.35 71.4399 22.5972 71.0688 21.8444C71.1584 21.7423 71.2608 21.6402 71.3631 21.5254Z" fill="#E0E1E0"/>
<path d="M49.6446 42.9103C48.9279 42.7955 48.1855 42.7189 47.456 42.553C47.2513 42.502 46.9569 42.2468 46.9441 42.0682C46.8929 41.2388 46.9185 40.3967 46.9185 39.3887C47.3665 39.6694 47.84 39.9628 48.1344 40.1415C48.9918 39.9246 49.7085 39.7459 50.4125 39.5673C50.1565 40.2308 49.8237 40.8688 49.6446 41.545C49.555 41.9789 49.6446 42.451 49.6446 42.9103Z" fill="#E0E1E0"/>
<path d="M94.4645 89.4829C94.2341 89.0108 93.9909 88.5387 93.7478 88.0283C94.7588 88.2963 95.6035 88.5132 96.4738 88.7429C96.5506 89.4191 96.653 90.325 96.781 91.4606C96.269 91.1416 95.8595 90.8992 95.5139 90.6823C94.5669 91.3075 93.6454 91.9327 92.7111 92.5452C92.5831 92.3921 92.4551 92.239 92.3271 92.0859C93.0183 91.2437 93.7094 90.4016 94.4645 89.4829Z" fill="#E0E1E0"/>
<path d="M19.7733 75.4852C19.7478 75.549 19.607 75.8808 19.4662 76.238C19.9269 76.7995 20.4133 77.3864 20.8868 77.9861C20.8356 78.0882 20.7972 78.1775 20.746 78.2796C20.3109 78.152 19.7478 78.1392 19.4662 77.8585C18.7623 77.144 18.1224 76.8633 17.2521 77.5523C17.0985 77.6671 16.7657 77.565 16.3434 77.565C16.7017 77.0419 16.9833 76.6208 17.2521 76.2253C16.8553 75.6766 16.4458 75.1152 16.0234 74.5538C16.1002 74.4517 16.177 74.3496 16.2666 74.2476C17.3929 74.6686 18.5191 75.0514 19.7733 75.4852Z" fill="#E0E1E0"/>
<path d="M86.1717 39.5802C86.5812 40.4095 86.9396 41.1241 87.2851 41.8258C87.1699 41.9152 87.0548 41.9917 86.9396 42.081C86.4148 41.6217 85.8901 41.1496 85.3526 40.6775C84.8151 40.971 84.2647 41.2772 83.4072 41.762C83.6504 40.1926 85.263 39.0187 83.6248 37.628C83.7656 37.5897 83.8936 37.5642 84.0344 37.5259C84.4823 37.8831 84.943 38.2404 85.4678 38.6615C85.9285 38.2915 86.402 37.9087 86.8884 37.5386C87.0164 37.628 87.1315 37.7173 87.2595 37.8066C86.8884 38.3808 86.53 38.9932 86.1717 39.5802Z" fill="#E0E1E0"/>
<path d="M24.5986 41.8131C25.5073 40.6392 25.7121 39.4781 25.1106 38.0107C25.6353 38.3552 26.1728 38.6998 26.7744 39.0953C27.2351 38.9549 27.8238 38.7763 28.4125 38.5849C28.4765 38.6615 28.5405 38.7508 28.6045 38.8274C28.2846 39.3122 27.7982 39.7716 27.683 40.2947C27.5806 40.7923 27.875 41.3665 27.8878 42.03C26.8383 40.7158 25.8017 41.7493 24.5986 41.8131Z" fill="#E0E1E0"/>
<path d="M91.2398 50.3362C90.7535 50.0045 90.2672 49.6727 89.7808 49.341C89.3073 49.6089 88.8721 49.8514 88.2578 50.1959C88.4114 48.9582 88.5522 47.8991 88.629 47.2867C89.8832 46.7635 90.8559 46.3552 92.1613 45.8193C91.227 47.4015 90.1648 48.6902 91.2398 50.3362Z" fill="#E0E1E0"/>
<path d="M14.8202 20.7726C14.7178 21.7168 14.6027 22.7248 14.4747 23.8221C14.1803 23.6052 13.7708 23.3117 13.3868 23.031C12.6189 23.4521 11.8766 23.8732 11.0319 24.3453C10.712 22.9162 11.9406 22.5717 12.4397 21.6658C12.363 21.3468 12.2478 20.913 12.1198 20.4536C13.1053 20.5812 13.9883 20.6833 14.8202 20.7726Z" fill="#E0E1E0"/>
<path d="M8.02436 38.0233C7.11568 38.4444 6.24539 38.8527 5.36231 39.261C5.28552 39.1717 5.20873 39.0951 5.11914 39.0186C5.4007 38.5847 5.60548 38.0616 5.98943 37.7426C6.68054 37.1684 7.64041 36.8112 6.70613 35.3311C7.7684 35.7266 8.38272 35.9563 8.75387 36.0966C9.24021 37.2577 9.66255 38.2785 10.0849 39.2993C10.0081 39.3631 9.93132 39.4396 9.86732 39.5034C9.21461 38.993 8.57469 38.4699 8.02436 38.0233Z" fill="#E0E1E0"/>
<path d="M32.0978 104.373C31.2147 103.659 30.626 103.186 29.9733 102.663C29.5125 102.842 28.9878 103.046 28.0791 103.403C28.4375 102.561 28.6678 102.013 28.975 101.311C28.8726 101.043 28.6806 100.571 28.5014 100.099C28.5654 99.9966 28.6422 99.9073 28.7062 99.8052C29.167 100.022 29.6021 100.303 30.0884 100.443C30.5236 100.571 31.0099 100.558 31.2019 100.571C31.5091 101.847 31.7522 102.919 32.0978 104.373Z" fill="#E0E1E0"/>
<path d="M20.8226 94.4204C21.3473 94.7904 21.8848 95.1349 22.384 95.5177C23.1519 96.1174 23.6126 97.3679 24.9308 96.3981C24.7133 97.1892 24.5469 97.7889 24.3677 98.4524C23.587 98.6055 22.6015 98.8097 21.2833 99.0649C21.6545 98.4141 21.9488 97.9038 22.256 97.3679C21.7313 96.564 21.1297 95.6453 20.541 94.7266C20.6178 94.6246 20.7202 94.5225 20.8226 94.4204Z" fill="#E0E1E0"/>
<path d="M44.1159 48.6648C43.5272 48.3075 42.9385 47.9502 42.3114 47.5674C41.7866 47.8226 41.2235 48.0906 40.6604 48.3585C40.5708 48.2692 40.4812 48.1799 40.3916 48.0906C40.6476 47.644 40.9035 47.1974 41.1211 46.8274C40.9035 46.1511 40.6988 45.5259 40.494 44.8879C40.5836 44.8114 40.686 44.7221 40.7756 44.6455C41.2747 44.9773 41.761 45.5132 42.2986 45.5897C42.8617 45.6663 43.4888 45.309 44.3975 45.0666C43.9495 45.7683 43.6552 46.2404 43.3608 46.6998C43.7064 47.2867 44.0647 47.8609 44.4103 48.4479C44.3079 48.5244 44.2055 48.601 44.1159 48.6648Z" fill="#E0E1E0"/>
<path d="M85.5567 28.9896C85.4287 28.1219 85.3135 27.535 85.2623 26.9353C85.2239 26.578 85.2751 26.208 85.2751 25.8507C85.6207 25.9401 85.979 26.0039 86.3118 26.1314C86.491 26.208 86.6317 26.4122 86.7597 26.527C87.3101 26.2463 87.8092 25.9911 88.3211 25.7231C88.4491 25.7742 88.5899 25.838 88.7179 25.889C87.1309 27.216 87.95 28.5813 88.7307 30.0997C87.3485 29.7041 86.9133 27.9433 85.5567 28.9896Z" fill="#E0E1E0"/>
<path d="M81.7426 43.3188C81.5122 43.1785 81.1283 42.936 80.5524 42.566C80.2452 42.9233 79.9253 43.3826 79.5157 43.7654C79.1318 44.1227 78.671 44.3906 78.2359 44.7096C78.1335 44.633 78.0311 44.5437 77.9287 44.4672C78.1079 44.0716 78.2487 43.6378 78.4918 43.2933C79.6053 41.7111 79.6181 41.7239 79.2981 39.8354C79.8869 40.1672 80.3348 40.4096 80.8723 40.7159C81.1539 40.5245 81.4866 40.282 81.7426 40.1162C81.7426 41.1242 81.7426 42.1577 81.7426 43.3188Z" fill="#E0E1E0"/>
<path d="M44.2949 14.8647C44.7813 14.1629 45.2804 13.4739 45.8179 12.7083C45.6131 12.3128 45.37 11.8279 45.114 11.343C45.1652 11.2537 45.2164 11.1772 45.2676 11.0879C45.7411 11.3303 46.2275 11.5727 46.8162 11.8662C47.2257 11.6238 47.7505 11.3175 48.2752 10.9985C48.352 11.0751 48.4416 11.1517 48.5184 11.2282C48.1984 11.8024 47.8913 12.3766 47.5329 13.0145C47.7377 13.4866 47.9808 14.0353 48.2624 14.6605C47.5073 14.4691 46.8802 14.1246 46.3299 14.2267C45.7155 14.3288 45.1524 14.8264 44.5765 15.1581C44.4741 15.0561 44.3845 14.9668 44.2949 14.8647Z" fill="#E0E1E0"/>
<path d="M27.5672 52.0464C28.7958 52.2505 29.7173 52.4037 30.7412 52.5823C29.5893 54.0114 31.9186 54.6111 31.5603 56.1932C30.7668 55.5297 30.0629 54.9428 29.3589 54.3559C28.783 54.6366 28.1943 54.93 27.5928 55.2235C27.516 55.1342 27.4264 55.0576 27.3496 54.9683C27.6952 54.4069 28.0407 53.8582 28.4631 53.1947C28.2583 52.914 27.9895 52.5695 27.5672 52.0464Z" fill="#E0E1E0"/>
<path d="M3.8907 49.2774C3.8267 49.3795 3.60913 49.7495 3.37876 50.1195C3.62193 50.6044 3.8523 51.0892 4.08267 51.5613C4.01868 51.6379 3.94189 51.7145 3.8779 51.7783C3.42995 51.5231 2.96921 51.2551 2.61086 51.051C1.81736 51.4337 1.07506 51.791 0.332757 52.1355C0.23037 52.0207 0.115185 51.8803 0 51.74C0.499135 51.1148 1.01107 50.5023 1.523 49.8771C1.30543 49.3667 1.07506 48.8053 0.69111 47.9121C1.95815 48.448 2.85403 48.8308 3.8907 49.2774Z" fill="#E0E1E0"/>
<path d="M83.0869 18.5778C83.5093 17.9781 83.8676 17.3273 84.3795 16.8042C85.2498 15.911 86.1969 15.0689 87.1696 14.265C87.3616 14.0992 87.7711 14.214 88.0911 14.2012C88.0783 14.482 88.1934 14.8775 88.0527 15.0434C86.7088 16.549 85.2242 17.9015 83.4709 18.8968C83.3301 18.7947 83.2149 18.6926 83.0869 18.5778Z" fill="#E0E1E0"/>
<path d="M65.7704 19.3692C65.5656 18.9353 65.3352 18.4377 65.0921 17.9401C65.1689 17.838 65.2456 17.7232 65.3096 17.6211C65.924 17.9528 66.5383 18.2846 67.2166 18.6546C67.4598 18.5525 67.8181 18.4122 68.458 18.157C68.0869 18.795 67.8437 19.216 67.6389 19.5733C67.8565 20.1347 68.0741 20.6579 68.2917 21.181C68.2021 21.2576 68.1125 21.3214 68.0357 21.3979C67.5493 21.1044 67.063 20.7982 66.5511 20.492C65.9624 20.7855 65.3608 21.0917 64.7593 21.3979C64.6569 21.2958 64.5545 21.1938 64.4521 21.0917C64.8489 20.5558 65.2712 20.0199 65.7704 19.3692Z" fill="#E0E1E0"/>
<path d="M68.126 47.4017C68.6507 46.5468 69.0347 45.7047 68.5483 44.735C68.4843 44.5946 68.8683 44.2246 69.1242 43.8418C70.2633 45.0667 71.7223 45.8578 71.5943 48.0652C70.7624 47.5931 70.1481 47.2486 69.4442 46.853C69.1754 47.0317 68.8043 47.2996 68.4203 47.5548C68.3307 47.491 68.2284 47.44 68.126 47.4017Z" fill="#E0E1E0"/>
<path d="M14.0527 53.4881C14.3855 53.0288 14.731 52.5567 15.1278 52.0208C14.9102 51.5742 14.6415 51.0383 14.3471 50.4258C15.5373 50.0431 16.4204 52.1739 17.6875 50.6045C17.5211 51.5487 16.7148 52.2887 17.4699 53.1181C17.2651 53.2585 16.9324 53.5392 16.894 53.5137C15.9597 52.595 15.1662 53.5775 14.3215 53.7688C14.2191 53.6795 14.1423 53.5902 14.0527 53.4881Z" fill="#E0E1E0"/>
<path d="M42.6957 31.1459C42.4269 31.567 42.1582 31.988 41.8766 32.4346C42.171 32.9322 42.4781 33.4426 42.7853 33.953C42.7085 34.0551 42.6317 34.1444 42.5549 34.2465C42.0686 33.9275 41.595 33.4171 41.0703 33.3278C40.5584 33.2385 39.9696 33.583 39.1633 33.7999C39.4577 33.1747 39.6753 32.7026 39.9312 32.1794C39.7393 31.8477 39.4961 31.4138 39.0098 30.5845C40.4304 31.0949 41.4798 31.937 42.6445 30.6355C42.6573 30.8141 42.6829 30.98 42.6957 31.1459Z" fill="#E0E1E0"/>
<path d="M81.7559 55.7466C80.7065 57.0353 79.785 58.2857 78.7099 59.3958C78.3772 59.7403 77.6349 59.6893 76.8926 59.8552C77.4685 57.9285 79.7978 56.0528 81.7559 55.7466Z" fill="#E0E1E0"/>
<path d="M3.98021 44.9899C3.18671 44.8496 2.29083 44.7092 1.34375 44.5434C1.34375 43.9819 1.34375 43.1143 1.34375 42.2339C2.20124 42.3104 3.3019 42.4125 4.26177 42.5018C4.15938 43.395 4.057 44.2499 3.98021 44.9899Z" fill="#E0E1E0"/>
<path d="M47.0595 99.6138C47.5075 99.9328 47.9554 100.252 48.365 100.545C48.8769 100.379 49.3888 100.213 50.0288 99.9966C49.3888 101.821 47.2899 103.442 45.4854 103.454C46.1893 102.612 46.7908 101.898 47.4179 101.158C47.2259 100.775 46.9956 100.328 46.778 99.8817C46.8804 99.8052 46.97 99.7158 47.0595 99.6138Z" fill="#E0E1E0"/>
<path d="M59.5254 11.3813C60.5365 13.1549 61.7395 10.9858 63.1345 11.5345C62.597 12.1342 62.149 12.6318 61.6499 13.1804C61.8163 13.576 61.9827 13.9971 62.1491 14.3798C61.2532 14.2395 60.4213 14.0991 59.5254 13.9588C59.5254 13.3591 59.5254 12.4787 59.5254 11.3813Z" fill="#E0E1E0"/>
<path d="M82.0759 71.7979C81.7559 72.27 81.4104 72.6017 81.2824 72.9972C81.1672 73.3545 81.308 73.7883 81.3208 74.1201C80.7449 74.1839 80.2201 74.1711 79.7466 74.337C79.2347 74.5029 78.7867 74.8346 78.1084 74.9239C78.5819 74.018 79.0555 73.1121 79.593 72.0913C80.1561 72.0148 80.988 71.9254 82.0759 71.7979Z" fill="#E0E1E0"/>
<path d="M49.4916 108.66C48.4294 108.099 47.4439 108.341 46.5352 109.183C46.4712 109.094 46.4072 109.005 46.3433 108.915C46.484 108.507 46.6376 108.086 46.7656 107.703C46.3305 107.091 45.8825 106.453 45.4346 105.815C45.5242 105.726 45.6137 105.636 45.6905 105.547C46.6504 106.044 47.5975 106.542 48.6981 107.104C48.8773 107.448 49.1845 108.061 49.4916 108.66Z" fill="#E0E1E0"/>
<path d="M99.7885 62.5726C99.8268 63.2999 99.8652 64.193 99.9164 65.0862C98.0991 64.5503 97.4719 63.185 97.0752 61.3477C98.1119 61.8198 98.9438 62.1898 99.7885 62.5726Z" fill="#E0E1E0"/>
<path d="M32.0986 9.40368C31.2795 8.35739 30.4604 7.32387 29.4365 6.03516C31.1387 6.06068 32.009 7.20903 32.0986 9.40368Z" fill="#E0E1E0"/>
<path d="M67.5109 107.856C66.8838 107.103 66.2567 106.351 65.4248 105.368C66.9094 105.585 67.3062 106.631 67.9717 107.346C67.8181 107.512 67.6645 107.69 67.5109 107.856Z" fill="#E0E1E0"/>
</svg>
