<svg width="118" height="119" viewBox="0 0 118 119" fill="none" xmlns="http://www.w3.org/2000/svg">
<g clip-path="url(#clip0)">
<path d="M114.779 42.23C116.761 43.6308 117.422 45.3612 117.766 47.2015C118.344 50.2503 117.945 53.0794 115.371 55.2218C114.132 56.2518 112.012 55.3591 111.709 53.7248C111.365 51.8571 111.558 50.2915 112.797 48.6298C113.774 47.3251 113.994 45.4711 114.517 43.8505C114.655 43.4248 114.669 42.9716 114.779 42.23Z" fill="#E0E1E0"/>
<path d="M46.9279 7.58058C46.9004 9.33845 45.8542 9.83286 44.4638 9.20112C42.5641 8.33591 40.6507 7.52564 38.6822 6.82524C38.0077 6.57804 37.1955 6.70164 36.4384 6.71537C35.2958 6.71537 34.6626 7.36084 34.2909 8.39085C34.167 8.72045 33.7678 8.94018 33.4925 9.20112C33.2447 8.89898 32.7767 8.59685 32.7767 8.28098C32.7629 7.53938 32.7492 6.64671 33.1208 6.05617C35.4335 2.47175 43.1974 1.46921 46.0193 5.72657C46.4736 6.38577 46.7214 7.14111 46.9279 7.58058Z" fill="#E0E1E0"/>
<path d="M47.1477 118.822C44.546 118.684 42.7013 118.204 41.2697 116.748C40.0583 115.526 40.4851 111.955 41.958 111.076C42.2195 110.925 42.7013 110.925 42.9629 111.062C43.4034 111.309 43.7888 111.68 44.1055 112.079C45.6059 113.919 47.5056 114.715 49.9008 114.729C50.8094 114.729 51.7041 115.333 52.5989 115.663C51.9382 116.377 51.3875 117.352 50.5754 117.75C49.3364 118.382 47.9186 118.602 47.1477 118.822Z" fill="#E0E1E0"/>
<path d="M40.0311 69.4224C35.9702 70.3837 33.1895 68.0215 32.8316 63.8329C32.6526 61.6904 32.8316 59.6304 34.5385 57.9962C35.4608 57.1035 36.5208 56.9799 37.6634 57.3095C38.9849 57.6803 39.2189 58.3807 38.6683 59.6442C37.9662 61.2647 37.4431 62.9677 36.686 64.5745C36.0115 66.0027 36.5759 66.8542 37.6909 67.637C38.4893 68.2001 39.2464 68.8181 40.0311 69.4224Z" fill="#E0E1E0"/>
<path d="M56.412 10.3549C58.9586 9.9704 60.8721 11.1515 62.5515 12.8269C63.3637 13.6372 63.5564 14.5986 63.0058 15.6423C62.345 16.9195 61.4365 17.1392 60.3215 16.2191C58.3392 14.6123 55.8476 14.4063 53.5349 13.7746C53.1082 13.651 52.5025 14.214 51.9794 14.4338C51.6077 14.5848 51.1397 14.8732 50.8644 14.7496C50.5753 14.626 50.2449 14.008 50.3413 13.7471C50.6166 12.9643 50.8919 11.8656 51.5114 11.5635C53.0118 10.8219 54.705 10.4511 56.3156 9.9292C56.3431 10.0803 56.3844 10.2176 56.412 10.3549Z" fill="#E0E1E0"/>
<path d="M83.1865 13.7609C82.9525 13.8296 82.3744 14.118 81.7549 14.1866C81.2456 14.2416 80.5573 14.2141 80.2407 13.912C79.9929 13.6785 80.1994 12.9644 80.2269 12.47C80.2407 12.3326 80.3233 12.209 80.3783 12.0717C81.1767 9.61341 82.1266 9.14647 84.453 10.1078C87.4126 11.3301 89.5188 15.299 88.5139 18.0183C88.2386 18.7461 87.5228 19.6251 86.8345 19.8036C86.3389 19.9272 85.3202 19.1307 85.0036 18.4989C84.274 17.0844 83.8335 15.505 83.1865 13.7609Z" fill="#E0E1E0"/>
<path d="M64.2865 5.85054C63.1991 5.16387 62.084 2.59572 62.5521 1.49705C62.7861 0.975176 63.378 0.439573 63.9286 0.247305C67.1361 -0.878834 72.3257 1.82665 73.248 5.15013C73.4545 5.86427 73.1379 6.71574 73.0691 7.51228C72.2982 7.40241 71.4172 7.47108 70.7564 7.12774C69.3386 6.37241 67.7417 5.7544 67.1774 3.98279C67.1361 3.84546 66.2963 3.74932 66.0761 3.92786C65.4153 4.49093 64.8647 5.20507 64.2865 5.85054Z" fill="#E0E1E0"/>
<path d="M87.9908 87.0837C87.3713 92.1925 84.7834 94.4173 80.2545 94.6371C78.9605 94.7057 78.3685 93.8543 78.341 92.2475C78.3135 90.5308 78.7678 90.0364 80.103 89.8029C82.7048 89.3497 85.0312 88.4021 86.3114 85.8339C86.6693 85.1061 87.2337 85.1747 87.5916 85.7928C87.8807 86.2322 87.9082 86.8228 87.9908 87.0837Z" fill="#E0E1E0"/>
<path d="M43.1146 92.6731C44.0782 93.7031 43.968 95.5159 42.9769 96.9716C42.4813 97.6995 40.7882 97.9467 39.5079 97.26C36.686 95.7493 35.0478 93.3323 34.5247 90.201C34.4559 89.7616 34.5385 89.2534 34.6762 88.8277C35.213 87.2072 36.4795 86.8913 37.4568 88.2646C38.2553 89.377 38.8747 90.7092 39.2326 92.0276C39.9209 94.5271 40.0448 94.6507 42.206 93.2773C42.4951 93.085 42.7704 92.9065 43.1146 92.6731Z" fill="#E0E1E0"/>
<path d="M77.0741 111.611C77.7349 112.847 77.3907 114.743 76.0967 115.896C73.8805 117.887 71.4302 119.329 68.2503 118.917C66.6947 118.711 65.7036 117.929 65.5522 116.569C65.3595 114.852 65.8688 114.482 67.562 114.372C70.0123 114.221 72.4764 113.932 74.8716 113.438C75.67 113.287 76.2895 112.298 77.0741 111.611Z" fill="#E0E1E0"/>
<path d="M106.698 87.3855C107.111 86.9323 107.703 87.4954 108.212 88.0585C109.74 89.7339 110.002 92.0686 108.846 94.005C108.199 95.09 107.51 96.1612 106.684 97.095C105.046 98.9628 101.453 98.2761 100.559 95.9552C100.476 95.7217 100.682 95.2273 100.916 95.0488C101.398 94.6917 101.949 94.3896 102.527 94.1973C104.454 93.5381 105.762 92.0961 106.767 90.4893C107.166 89.8575 106.753 88.7039 106.698 87.3855Z" fill="#E0E1E0"/>
<path d="M87.8527 110.719C87.0405 110.252 85.8016 109.95 85.5263 109.263C85.1546 108.343 85.485 107.121 85.6226 106.049C85.6364 105.885 86.2008 105.72 86.5312 105.679C88.0592 105.473 89.6147 105.404 91.1152 105.088C92.0925 104.882 93.7857 104.951 92.8772 103.001C92.8634 102.959 93.6068 102.341 93.8958 102.41C94.9971 102.657 95.589 103.948 95.2449 105.088C94.4602 107.835 90.8949 110.458 87.8527 110.719Z" fill="#E0E1E0"/>
<path d="M34.7859 16.6588C34.7721 18.5952 34.1389 19.0622 32.2392 19.1446C29.9954 19.2544 27.9168 19.9548 26.3475 21.7265C26.0997 22.0149 25.7693 22.2346 25.4802 22.4818C25.26 22.0561 24.8883 21.6441 24.8608 21.2046C24.6681 18.348 27.5313 15.0108 30.4772 14.6126C31.2618 14.5027 32.074 14.4065 32.8587 14.4752C34.3729 14.5714 34.7996 15.1207 34.7859 16.6588Z" fill="#E0E1E0"/>
<path d="M2.21584 71.6886C1.96805 70.274 2.86283 69.1891 4.34953 68.4749C5.60221 67.8707 6.2079 68.1179 6.49699 69.4637C6.93749 71.5238 7.2541 73.5975 7.63954 75.6575C7.7359 76.1519 7.98369 76.6326 8.09381 77.127C8.19017 77.539 8.31406 78.2669 8.19017 78.3355C7.69461 78.569 7.02008 78.8162 6.55205 78.6514C3.53735 77.539 2.32596 75.9184 2.21584 71.6886Z" fill="#E0E1E0"/>
<path d="M101.398 75.0393C102.789 74.3527 103.945 74.6136 105.005 75.2453C106.23 75.9869 106.313 77.3328 106.147 78.5002C105.941 79.9147 105.432 81.3018 104.895 82.6339C104.358 83.9523 103.312 84.79 101.894 85.1746C100.724 85.5042 98.5212 85.0098 98.6038 84.2682C98.7277 83.1832 99.4848 82.1532 100.091 81.1644C100.269 80.876 100.806 80.7524 101.219 80.6426C102.417 80.313 102.775 79.3654 103.257 78.3628C103.959 76.9071 102.94 76.4676 102.073 75.8359C101.866 75.6848 101.729 75.4239 101.398 75.0393Z" fill="#E0E1E0"/>
<path d="M40.6094 48.1492C41.1462 44.4412 41.807 42.958 45.1245 41.5984C46.9279 40.8568 48.8551 42.2301 49.3782 44.1665C49.6535 45.2103 48.5522 45.018 47.9741 45.2927C46.6112 45.9656 45.1934 46.5424 43.9545 47.3939C43.0184 48.0393 42.509 49.0419 43.8168 50.0032C44.0233 50.1543 44.1334 50.6624 44.0646 50.9371C44.0233 51.1156 43.5552 51.2667 43.2662 51.2804C41.5867 51.4315 40.6094 50.2504 40.6094 48.1492Z" fill="#E0E1E0"/>
<path d="M57.321 95.598C58.1332 97.1224 58.2846 98.5782 57.5963 99.6768C57.1558 100.391 55.8206 100.83 54.857 100.885C51.4981 101.064 48.8826 98.9901 48.0154 95.8177C47.7401 94.7877 47.5611 93.7989 48.7174 93.2908C49.9151 92.7689 50.7685 93.5105 51.4431 94.4032C52.1451 95.3371 52.7233 96.3671 53.4666 97.2597C54.7193 98.7842 55.2011 98.7155 56.2473 97.0812C56.5501 96.6555 56.853 96.2572 57.321 95.598Z" fill="#E0E1E0"/>
<path d="M78.6574 76.0419C80.4607 75.8222 82.443 77.7723 82.1539 79.3654C81.4381 83.3344 79.1392 85.9437 75.5601 86.6304C74.6653 86.8089 73.3438 87.3033 73.0134 85.8476C72.5041 83.5678 73.0547 82.6477 74.8993 82.4417C76.5512 82.2494 78.1068 81.9473 79.4558 80.8349C80.1992 80.2306 80.3781 79.6126 79.9789 78.7749C79.5384 77.8822 79.0979 76.9758 78.6574 76.0419Z" fill="#E0E1E0"/>
<path d="M9.5537 36.2836C9.89785 37.1351 10.1319 37.7119 10.3796 38.3161C8.87918 38.6869 7.98441 38.1651 7.43378 36.778C6.1811 33.5369 8.64517 29.0324 12.0728 28.332C13.0089 28.1397 14.2891 28.9362 14.6608 30.0074C15.0187 31.0374 14.2065 31.3396 13.5595 31.9301C12.0728 33.2485 10.8202 34.8553 9.5537 36.2836Z" fill="#E0E1E0"/>
<path d="M68.5393 41.0079C67.4794 42.3126 66.6397 43.3426 65.7862 44.3726C64.1756 42.9581 65.0704 41.365 65.5522 39.8818C65.9789 38.5908 67.2316 38.7007 68.2916 38.6595C70.5629 38.5634 74.2246 41.5161 74.61 43.7409C74.7615 44.6061 74.5274 45.3477 73.5638 45.5949C72.8893 45.7597 72.201 45.8421 71.5816 45.952C70.5904 44.3451 69.6681 42.8482 68.5393 41.0079Z" fill="#E0E1E0"/>
<path d="M105.817 35.4187C105.652 34.3063 105.652 33.5509 106.698 33.1115C107.717 32.6857 108.419 33.084 109.066 33.7569C111.186 35.968 111.117 40.6649 108.914 42.5875C108.171 43.233 107.359 43.851 106.285 43.1781C105.28 42.5463 105.143 41.6399 105.473 40.6099C105.831 39.5112 106.203 38.3988 106.657 37.3276C107.056 36.3388 107.373 35.4736 105.817 35.4187Z" fill="#E0E1E0"/>
<path d="M35.9975 101.792C35.7773 101.984 35.3919 102.547 34.8688 102.767C32.267 103.866 28.2612 102.492 26.8158 100.089C25.9898 98.7293 26.2927 96.7654 27.6417 96.0238C28.096 95.7766 29.1009 96.0238 29.5827 96.3946C31.6889 98.0564 33.6987 99.8417 35.9975 101.792Z" fill="#E0E1E0"/>
<path d="M11.0536 69.1616C7.44702 66.772 7.46078 60.0563 10.7921 57.9963C11.6731 57.447 13.2699 58.1474 13.559 59.2598C13.972 60.8391 13.9307 62.24 12.8157 63.7232C11.9759 64.8356 11.7832 66.4424 11.3152 67.8432C11.1913 68.2002 11.1638 68.5985 11.0536 69.1616Z" fill="#E0E1E0"/>
<path d="M0 52.8597C0.633224 51.3765 1.08749 49.7834 1.9685 48.465C2.46407 47.7234 3.60663 47.2428 4.5427 47.0505C5.07956 46.9406 6.05693 47.5037 6.33224 48.0256C6.59379 48.52 6.37354 49.4538 6.05693 50.0306C5.60266 50.8821 4.85931 51.5825 4.28115 52.3791C3.31755 53.7249 3.37261 54.5764 4.33621 55.9497C4.55646 56.2519 4.61153 56.6639 4.73542 57.0347C4.34998 57.1171 3.95077 57.3094 3.57909 57.2544C1.33528 56.9523 0.234018 55.5103 0 52.8597Z" fill="#E0E1E0"/>
<path d="M103.588 21.9595C103.505 22.2204 103.409 22.8933 103.106 23.4427C102.39 24.7062 101.096 24.8023 100.105 23.7311C99.0035 22.55 98.7833 21.108 98.7833 19.5836C98.7833 18.3201 99.1136 16.8232 96.98 16.933C96.7597 16.9468 96.2228 16.2052 96.3054 15.958C96.4569 15.4498 96.8423 14.928 97.2828 14.6258C97.5581 14.4336 98.15 14.4885 98.508 14.6533C101.137 15.9305 103.491 18.0317 103.588 21.9595Z" fill="#E0E1E0"/>
<path d="M113.636 68.5848C114.118 68.4338 114.683 68.0492 115.082 68.1591C115.866 68.3926 116.858 68.7084 117.257 69.3264C118.564 71.3727 118.041 74.8335 116.321 76.6326C115.77 77.1957 115.095 77.6352 114.49 78.157C113.499 79.0222 112.563 78.8712 111.613 78.0472C110.567 77.127 110.525 76.4541 111.764 75.5889C113.347 74.4765 114.476 73.1443 115.233 71.3178C115.784 69.9856 115.495 69.5462 114.256 69.299C114.077 69.2578 113.925 69.1616 113.76 69.093C113.719 68.9282 113.678 68.7634 113.636 68.5848Z" fill="#E0E1E0"/>
<path d="M8.85141 84.804C9.12672 83.7328 9.23685 82.5929 9.69112 81.6041C10.3106 80.2445 11.8799 80.1621 12.5544 81.4668C13.0913 82.4968 13.5455 83.6779 12.8985 84.9002C12.8297 85.0238 12.7746 85.1474 12.7196 85.2847C11.4118 88.5533 12.2103 88.8005 14.7844 88.4983C15.1424 88.4571 15.5278 88.7181 15.8995 88.8417C15.7343 89.2537 15.6792 89.7618 15.3901 90.0502C13.9172 91.5197 11.756 91.2862 10.5308 89.5421C9.56723 88.1412 8.79635 86.658 8.85141 84.804Z" fill="#E0E1E0"/>
<path d="M24.2278 100.295C23.7735 100.748 23.4018 101.394 22.8649 101.627C20.2357 102.698 16.753 101.366 15.4314 98.8667C14.5642 97.2187 14.9772 94.7192 16.2436 93.7441C17.0696 93.1261 17.6202 93.0849 17.9781 94.2385C18.3222 95.3509 18.6939 96.4771 19.2583 97.4796C20.0705 98.9353 21.0892 100.254 23.1403 99.7868C23.388 99.7319 23.6771 99.8555 23.9524 99.8967C24.035 100.02 24.1314 100.158 24.2278 100.295Z" fill="#E0E1E0"/>
<path d="M75.2298 94.6919C77.2534 95.667 77.7214 98.6609 76.0971 100.075C73.8945 101.998 71.2377 102.795 68.3745 102.177C67.5485 101.998 66.3922 100.968 66.3371 100.254C66.2545 99.2102 67.4246 98.8806 68.5397 98.6059C69.8887 98.2901 70.9762 98.5647 72.1876 98.9767C74.1561 99.6771 75.1748 98.9493 75.2298 96.8893C75.2436 96.2026 75.2298 95.5022 75.2298 94.6919Z" fill="#E0E1E0"/>
<path d="M50.0381 62.8989C49.3636 63.5444 48.6065 63.6268 47.932 63.0362C46.0598 61.402 45.812 59.3145 46.4315 57.0347C46.9684 55.0571 48.0834 53.519 50.1345 53.0246C50.6989 52.8872 51.6212 53.3267 52.0342 53.7936C52.3095 54.1095 52.1856 55.0434 51.924 55.524C51.4147 56.4579 50.6851 57.2819 50.0519 58.1471C48.2348 60.5779 48.2348 60.729 50.0381 62.8989Z" fill="#E0E1E0"/>
<path d="M87.2887 44.6063C84.219 42.7111 81.2868 40.912 78.3685 39.0992C78.1345 38.9481 77.7903 38.6872 77.8041 38.4949C77.8316 38.2477 78.1345 37.8494 78.3547 37.822C79.4973 37.7258 80.7225 37.4649 81.7687 37.767C83.572 38.2889 85.389 38.9893 86.9583 39.9918C88.4726 40.9669 88.4175 43.5488 87.2887 44.6063Z" fill="#E0E1E0"/>
<path d="M62.7719 60.1388C61.1613 61.0864 59.5783 61.9104 58.1053 62.8992C56.3709 64.0802 56.4122 64.4785 58.0916 65.6733C58.2843 65.8107 58.5321 65.8519 58.656 66.0304C57.0316 66.5797 55.3247 65.3575 54.8979 63.627C54.3198 61.3061 56.1368 58.4908 58.6422 57.7903C60.6107 57.2547 62.1938 58.1337 62.7719 60.1388Z" fill="#E0E1E0"/>
<path d="M53.5215 51.6101C53.6178 50.7586 53.549 49.8385 53.8656 49.0694C54.9118 46.5013 58.3533 44.9494 61.0376 45.7047C62.5793 46.1442 63.6118 48.9733 62.6069 50.2093C62.4279 50.429 61.8773 50.429 61.5194 50.3741C59.9501 50.1269 58.4083 49.7836 56.839 49.5638C55.6139 49.3853 54.7329 49.8248 54.4989 51.1706C54.4713 51.3629 54.2373 51.5277 54.1134 51.7062C53.9069 51.665 53.7142 51.6376 53.5215 51.6101Z" fill="#E0E1E0"/>
<path d="M37.2638 111.721C36.8508 112.957 35.8321 113.163 34.7859 113.273C31.8538 113.561 29.0319 112.133 28.1371 110.046C27.6002 108.796 28.2472 108.013 29.0594 107.217C29.8716 106.42 30.5461 106.942 31.1655 107.436C32.2255 108.274 33.1753 109.263 34.2766 110.046C35.1576 110.677 36.1763 111.131 37.2638 111.721Z" fill="#E0E1E0"/>
<path d="M89.4357 59.7128C89.4495 61.5256 88.8713 62.487 87.4947 63.0775C86.5724 63.4758 85.9117 63.311 85.6914 62.2672C85.3748 60.7153 85.1545 59.1497 84.8379 57.5979C84.7003 56.87 84.4387 56.1696 84.2735 55.4417C84.1909 55.0709 84.0808 54.3842 84.1772 54.3293C84.659 54.137 85.2509 53.9448 85.7189 54.0684C88.0866 54.7413 89.4082 56.8151 89.4357 59.7128Z" fill="#E0E1E0"/>
<path d="M53.6454 65.0962C55.2698 66.6618 55.2835 68.3922 55.1596 70.0265C55.0633 71.3312 55.6552 71.7981 56.7014 71.7981C58.2156 71.7981 59.7299 71.6058 61.4093 71.4822C61.3405 71.7844 61.3405 72.1964 61.1477 72.5122C59.3031 75.6709 55.256 75.7121 53.5077 72.5397C52.5579 70.8093 51.8696 68.9415 52.5854 66.9227C52.8057 66.3322 53.2187 65.8241 53.6454 65.0962Z" fill="#E0E1E0"/>
<path d="M47.9594 82.8401C48.565 83.5679 48.8266 85.8614 48.2897 86.5343C47.4638 87.5644 46.3625 87.3446 45.3439 86.9189C43.0312 85.985 41.517 84.2821 40.8425 81.8787C40.7186 81.4118 40.7736 80.8487 40.9113 80.368C41.283 78.9947 42.0263 78.7612 42.9761 79.8462C43.981 80.9998 44.807 82.3182 45.7155 83.5542C45.6467 83.7327 45.5916 83.8975 45.5228 84.0761C46.2937 83.6778 47.0783 83.2795 47.9594 82.8401Z" fill="#E0E1E0"/>
<path d="M31.5509 79.3791C31.7574 79.3928 32.3218 79.3791 32.8587 79.4752C33.8774 79.64 34.1251 80.3816 33.4781 81.1507C33.2441 81.4391 33.0239 81.7275 32.7899 82.0296C32.1566 82.8537 31.3858 83.0597 30.4497 82.5515C27.9718 81.2056 26.8293 77.2779 28.3711 74.9432C28.784 74.3252 29.6513 73.8583 30.4084 73.6797C30.6424 73.6248 31.3995 74.7097 31.4959 75.3415C31.6748 76.5775 31.5509 77.8547 31.5509 79.3791Z" fill="#E0E1E0"/>
<path d="M95.3418 61.965C96.3329 60.5642 97.2552 60.7015 98.2464 61.2646C100.986 62.8165 102.445 68.6807 99.2513 71.1389C98.4941 71.7158 97.6269 72.2239 96.8698 71.551C96.5394 71.2488 96.7046 70.2188 96.856 69.5733C97.0763 68.6257 97.737 67.7468 97.7783 66.8129C97.8747 64.8765 98.6456 62.5006 95.3418 61.965Z" fill="#E0E1E0"/>
<path d="M63.0332 27.2748C64.7677 24.1985 70.3841 23.8552 72.2287 26.492C72.8895 27.4396 72.4765 30.0078 71.4716 30.612C71.21 30.7631 70.5218 30.612 70.3153 30.3648C68.801 28.5246 66.9289 27.6319 64.5199 27.7967C64.0794 27.8241 63.5976 27.4945 63.0332 27.2748Z" fill="#E0E1E0"/>
<path d="M88.0868 70.3977C89.1055 69.5325 90.0003 70.0956 90.7161 70.8509C92.7397 72.9796 91.9413 77.9374 89.3946 79.3794C88.4723 79.915 86.7378 79.4618 86.3799 78.5142C86.2422 78.1571 86.4212 77.6215 86.6001 77.237C87.371 75.6164 88.3071 74.0645 88.9541 72.3891C89.1193 71.9496 88.4448 71.1805 88.0868 70.3977Z" fill="#E0E1E0"/>
<path d="M102.459 52.4617C102.363 52.805 102.376 53.6153 101.977 53.9998C101.482 54.4805 100.614 54.865 99.9535 54.8101C99.4993 54.7689 98.9624 53.9449 98.7697 53.3818C98.4944 52.6127 98.5632 51.7338 98.3842 50.9235C98.1089 49.66 97.5721 48.63 96.0028 48.6712C95.6724 48.685 95.342 48.4515 95.0254 48.3279C95.1906 47.9846 95.2869 47.5314 95.5623 47.2979C96.7736 46.2404 98.0814 46.158 99.4167 47.0644C101.192 48.273 102.321 49.921 102.459 52.4617Z" fill="#E0E1E0"/>
<path d="M20.5519 62.7891C19.96 62.3496 19.0927 62.0338 18.8037 61.4295C17.7299 59.2047 17.7575 56.9112 19.0652 54.755C19.9462 53.2993 21.5568 52.9148 22.7407 53.7662C24.2687 54.8512 24.3237 55.5378 23.0297 56.87C22.6718 57.2408 22.2864 57.5841 21.9423 57.9687C20.7997 59.2321 19.4369 60.4544 21.1438 62.4183C20.9511 62.5419 20.7584 62.6655 20.5519 62.7891Z" fill="#E0E1E0"/>
<path d="M64.1624 94.2934C62.6894 93.8264 61.5606 93.6616 60.7072 93.0986C60.1428 92.7278 59.716 91.7664 59.6885 91.0386C59.6472 90.1596 60.2529 89.7751 61.3404 89.9536C63.1162 90.2558 64.947 90.3244 66.7641 90.3656C67.1633 90.3794 67.5625 89.83 67.9755 89.5691C68.2921 89.3768 68.7326 88.9923 68.9253 89.0884C69.2282 89.2395 69.5723 89.7476 69.531 90.0498C69.4347 90.6678 69.2557 91.5055 68.8152 91.7802C67.2459 92.7827 65.5665 93.5655 64.1624 94.2934Z" fill="#E0E1E0"/>
<path d="M48.5652 73.2951C48.813 74.7783 47.6154 75.6298 46.1012 75.1079C43.9262 74.3663 41.2281 70.6034 41.3382 68.3099C41.3658 67.7331 41.5722 67.1013 41.9164 66.6344C42.5221 65.7829 43.995 66.0027 44.3116 66.9777C44.6971 68.1588 44.9861 69.3811 45.3303 70.5759C45.3716 70.7132 45.4267 70.8368 45.4542 70.9742C46.0599 73.0342 46.4453 73.3363 48.5652 73.2951Z" fill="#E0E1E0"/>
<path d="M56.6737 81.4803C56.9077 81.1644 57.2243 80.7112 57.5685 80.258C57.9126 79.8185 58.2567 79.3928 58.6284 78.9396C60.0876 80.0932 59.826 81.6588 59.6609 83.0596C59.4957 84.4192 58.1329 84.584 57.1004 84.4467C54.8566 84.1171 53.0533 82.9223 52.0209 80.8623C51.7593 80.3404 51.9796 79.5713 51.9933 78.9121C52.5715 79.0494 53.2185 79.0632 53.7003 79.3378C54.6088 79.8735 55.421 80.5601 56.6737 81.4803Z" fill="#E0E1E0"/>
<path d="M59.9358 56.3484C59.9358 55.7853 59.7293 55.0849 59.9909 54.6866C60.3763 54.0823 61.0508 53.3407 61.6565 53.2858C64.3408 53.0249 66.4608 54.2471 68.0025 56.3896C68.4843 57.0625 68.8009 57.914 67.9337 58.6418C66.9288 59.4796 65.6486 59.6169 64.8915 58.8341C64.3133 58.2298 63.8728 57.502 63.4048 56.8016C62.1108 54.8514 61.9594 54.8239 59.9358 56.3484Z" fill="#E0E1E0"/>
<path d="M19.6712 17.4137C21.2129 17.4 22.1903 18.3476 21.9838 19.8445C21.9288 20.284 21.3781 20.7647 20.9514 21.0393C19.5748 21.8633 18.1432 22.6187 16.7115 23.374C16.2986 23.5938 15.7755 23.8684 15.39 23.7723C15.0872 23.6899 14.7706 23.0856 14.743 22.7011C14.5779 20.5037 17.4962 17.4275 19.6712 17.4137Z" fill="#E0E1E0"/>
<path d="M51.2358 33.8529C51.0431 32.6856 52.0067 31.9165 52.8739 31.4908C55.0489 30.3784 57.3891 29.9252 59.7155 31.1887C61.1471 31.9715 61.5601 33.2899 60.624 34.4435C60.39 34.7456 59.688 34.9104 59.2888 34.8005C57.6782 34.3611 56.1226 33.6195 54.4845 33.3173C53.5347 33.1525 52.461 33.6332 51.2358 33.8529Z" fill="#E0E1E0"/>
<path d="M22.6863 35.8854C22.2458 35.6657 21.6951 35.5421 21.3785 35.1988C20.1809 33.9078 20.0433 32.3697 20.9105 30.7903C21.1996 30.2547 21.53 29.7329 21.8741 29.2522C23.6086 26.8626 24.7511 26.7527 26.8986 28.6754C27.5869 29.2934 27.5456 29.6367 26.7334 30.1449C25.4807 30.9139 24.2693 31.7792 23.1268 32.713C22.1769 33.4821 21.7915 34.4434 23.0717 35.5146C22.9616 35.6382 22.8239 35.7618 22.6863 35.8854Z" fill="#E0E1E0"/>
<path d="M70.8525 52.0635C71.5959 52.036 72.4907 51.7888 73.234 52.0223C75.5329 52.7364 77.2674 55.8539 76.5791 58.1337C76.3588 58.8753 75.6292 59.6169 74.941 60.0151C74.115 60.4958 73.3992 60.0838 73.2615 59.0401C73.0688 57.5157 73.0413 55.9363 72.6558 54.4668C72.4631 53.6703 71.6372 53.066 70.8525 52.0635Z" fill="#E0E1E0"/>
<path d="M95.7823 88.4292C96.1127 89.1845 96.6633 89.9124 96.7321 90.6677C96.9662 93.0436 95.094 95.7079 92.864 96.216C92.1894 96.3671 91.336 96.2984 90.7165 96.01C89.3812 95.4058 89.3537 94.2934 90.5789 93.5106C91.804 92.7277 93.1806 92.151 94.2681 91.2308C94.9151 90.6815 95.1491 89.6515 95.7823 88.4292Z" fill="#E0E1E0"/>
<path d="M36.3554 32.5894C38.379 32.6031 39.2325 33.9215 38.3377 35.748C38.2001 36.009 37.7045 36.1875 37.3466 36.2424C36.2866 36.3935 35.1854 36.3798 34.1529 36.6132C33.3545 36.7918 32.033 36.7094 32.6525 38.275C32.6662 38.3025 32.0055 38.7557 31.8128 38.6733C30.8767 38.2613 30.5188 37.5334 30.8767 36.5034C31.6063 34.361 34.0841 32.5894 36.3554 32.5894Z" fill="#E0E1E0"/>
<path d="M46.9549 108.645C45.1929 108.48 43.5961 108.068 42.5086 106.681C42.1094 106.159 41.779 105.198 41.9993 104.676C42.2746 104.031 43.1281 103.632 43.7888 103.193C43.8852 103.124 44.2568 103.371 44.4633 103.536C45.3168 104.195 46.1015 104.965 47.01 105.541C47.7396 105.995 48.6206 107.038 49.419 105.528C49.4328 105.514 50.2312 105.734 50.2862 105.94C50.4927 106.75 50.479 107.588 49.5016 107.931C48.6619 108.233 47.8084 108.412 46.9549 108.645Z" fill="#E0E1E0"/>
<path d="M92.9053 35.9126C93.1393 35.8028 93.5798 35.4594 94.0478 35.4045C96.6496 35.0749 99.3476 36.9152 99.9396 39.346C100.174 40.321 99.1549 42.0927 98.2051 42.1476C97.8059 42.1751 97.2552 41.818 96.9799 41.4747C95.6447 39.7168 94.3644 37.904 92.9053 35.9126Z" fill="#E0E1E0"/>
<path d="M83.2142 100.227C84.4532 100.762 84.4532 101.641 84.1778 102.424C83.4483 104.525 81.9891 106.022 79.8416 106.681C78.1484 107.203 76.7581 106.31 76.6342 104.786C76.4966 103.069 76.6618 102.905 78.4375 102.822C79.3323 102.781 80.2133 102.685 81.0943 102.548C82.3332 102.369 83.1729 101.737 83.2142 100.227Z" fill="#E0E1E0"/>
<path d="M17.5234 72.842C17.9226 71.8807 18.1429 70.782 18.7624 69.9992C19.7122 68.8044 21.2264 69.1614 21.4467 70.6721C21.6119 71.7983 21.2815 73.0343 21.0199 74.1879C20.8134 75.0668 20.2766 75.8633 21.6256 76.3165C21.8183 76.3852 21.956 77.1955 21.8046 77.5526C21.5155 78.2804 20.8685 78.4727 20.2078 77.9646C18.5834 76.7011 17.84 74.9981 17.5234 72.842Z" fill="#E0E1E0"/>
<path d="M106.396 55.9088C107.428 55.4556 108.364 56.0736 109.162 56.8839C110.608 58.3534 111.076 61.0314 110.085 62.8579C109.768 63.4347 108.97 63.9154 108.309 64.1077C107.345 64.3823 107.001 64.1626 107.07 62.8167C107.194 60.6194 106.671 58.3808 106.396 55.9088Z" fill="#E0E1E0"/>
<path d="M78.0383 63.1049C79.0983 63.0087 79.7315 64.0388 79.8967 65.0138C80.2271 67.0601 80.0481 69.1064 78.6027 70.8368C77.6391 71.9904 76.0147 72.7183 75.3677 72.0728C74.2389 70.9467 75.1475 69.9029 75.7119 68.9416C76.3038 67.939 77.2399 67.115 77.6942 66.0713C78.0521 65.2473 77.9282 64.2036 78.0383 63.1049Z" fill="#E0E1E0"/>
<path d="M27.8066 53.4365C27.8479 51.1019 30.2432 47.6685 32.2117 47.0368C32.6797 46.8857 33.4644 47.0368 33.7947 47.3664C34.015 47.5861 33.8498 48.4788 33.5745 48.8496C32.9963 49.6324 32.308 50.3877 31.4959 50.9233C30.3671 51.6787 30.3671 52.5439 30.6974 53.6837C30.8902 54.343 30.7938 55.0708 30.8213 55.7712C30.0229 55.4554 29.1419 55.2768 28.4674 54.7962C28.0407 54.5078 27.9443 53.7524 27.8066 53.4365Z" fill="#E0E1E0"/>
<path d="M64.6581 106.612C65.3188 107.67 65.0848 108.837 64.0111 109.606C61.9875 111.062 59.6611 111.048 57.3897 110.609C56.9079 110.513 56.3436 109.29 56.3711 108.604C56.3849 107.903 57.0456 107.203 57.5136 106.557C57.5825 106.461 58.1331 106.585 58.3671 106.736C61.4231 108.865 61.8774 108.851 64.6581 106.612Z" fill="#E0E1E0"/>
<path d="M85.3203 26.258C85.4717 25.8598 85.5406 25.3928 85.8021 25.077C86.752 23.8822 89.0646 23.3191 90.7165 23.8959C92.4097 24.4864 93.4696 25.7362 93.6073 27.5078C93.6486 28.167 93.0429 28.8674 92.7401 29.5403C92.2307 29.2107 91.6801 28.9223 91.2396 28.5241C90.6477 27.9885 90.2072 27.3155 89.6015 26.7799C88.3763 25.695 86.9997 25.6675 85.5681 26.6563C85.4855 26.519 85.4029 26.3816 85.3203 26.258Z" fill="#E0E1E0"/>
<path d="M12.6645 51.8296C12.871 52.2279 13.3253 52.6948 13.2427 53.0107C13.1188 53.4364 12.6232 53.9309 12.1965 54.0407C11.7835 54.1506 11.1228 53.9446 10.8061 53.6287C9.29191 52.173 8.82387 47.998 11.1916 46.4736C11.5908 46.2127 12.3479 46.0067 12.6508 46.1989C13.0913 46.5011 13.6006 47.2427 13.518 47.6959C13.2702 49.0967 12.7471 50.4426 12.3341 51.8159C12.4305 51.8296 12.5544 51.8296 12.6645 51.8296Z" fill="#E0E1E0"/>
<path d="M40.8981 25.0224C39.9757 23.9375 39.9895 22.9349 40.9256 21.8637C42.3985 20.1471 44.4083 19.5977 46.542 19.3643C47.657 19.2406 48.1526 20.0784 48.2214 20.8749C48.2765 21.6577 47.8635 22.4955 47.602 23.292C47.5745 23.3744 47.0926 23.4156 46.8724 23.3332C43.3897 21.9873 42.9079 22.1247 40.8981 25.0224Z" fill="#E0E1E0"/>
<path d="M22.8377 87.3447C22.9203 86.7404 22.9203 86.1224 23.0993 85.5456C23.2232 85.1611 23.6361 84.5568 23.8702 84.5705C24.2969 84.6117 24.9164 84.9551 25.054 85.3259C25.4807 86.4383 25.6597 87.6468 26.0314 88.7867C26.1828 89.2262 26.5545 89.6107 26.8711 89.9952C27.1877 90.366 27.5456 90.6819 27.8898 91.0252C27.4217 91.4785 26.8986 92.3574 26.4994 92.3025C25.6184 92.1789 24.4758 91.8081 24.0216 91.1489C23.292 90.0914 23.0304 88.7043 22.5762 87.4683C22.6725 87.4271 22.7551 87.3859 22.8377 87.3447Z" fill="#E0E1E0"/>
<path d="M21.2817 47.6276C20.5934 48.6713 19.2719 48.5477 18.5698 47.3804C17.1519 45.0045 18.8038 40.7609 21.5294 40.1429C22.0388 40.0193 22.8234 40.6647 23.319 41.1317C23.4704 41.269 23.14 42.1068 22.8372 42.4638C22.1214 43.3565 21.1027 44.0569 20.5521 45.032C19.5747 46.7624 19.6848 46.8173 21.2817 47.6276Z" fill="#E0E1E0"/>
<path d="M75.9323 16.3564C77.7907 16.5212 79.2498 17.2491 80.3236 18.7049C81.0119 19.6387 80.8742 20.449 80.0345 21.3005C79.1535 22.2069 78.5891 21.6026 77.9008 21.1219C76.4692 20.1194 75.01 19.1718 73.6059 18.1281C73.4407 18.0045 73.5233 17.1667 73.7023 17.0843C74.4043 16.741 75.189 16.5762 75.9323 16.3564Z" fill="#E0E1E0"/>
<path d="M66.4195 82.2768C65.1256 82.2768 64.2996 81.3842 64.5199 80.0932C64.5749 79.7499 64.9741 79.3791 65.3183 79.1868C66.5021 78.4864 67.7135 77.8547 68.9387 77.223C69.269 77.0444 69.6958 76.8384 70.0124 76.9071C70.2739 76.962 70.6181 77.429 70.6181 77.7036C70.5493 79.7362 68.2917 82.3867 66.4195 82.2768Z" fill="#E0E1E0"/>
<path d="M63.6662 67.9394C63.4597 67.8295 62.9779 67.5686 62.4961 67.2939C62.9228 66.9231 63.2807 66.415 63.7763 66.1952C65.3869 65.4948 67.204 65.1103 67.6445 62.9816C67.6858 62.7619 68.5393 62.4186 68.732 62.5559C69.2826 62.9404 69.9158 63.476 70.0948 64.0666C70.2187 64.4923 69.7782 65.2476 69.379 65.6184C67.8923 67.0055 66.1303 67.8295 63.6662 67.9394Z" fill="#E0E1E0"/>
</g>
<defs>
<clipPath id="clip0">
<rect width="118" height="119" fill="white"/>
</clipPath>
</defs>
</svg>
