<svg width="1078" height="23" viewBox="0 0 1078 23" fill="none" xmlns="http://www.w3.org/2000/svg">
<path d="M4.3574 2C19.2038 2 -10.4749 2 4.3574 2ZM4.3574 2C19.2038 2 19.2038 21 34.0362 21C48.8825 21 48.8827 2 63.715 2C78.5614 2 78.5614 21 93.3938 21C108.24 21 108.24 2 123.072 2C137.919 2 137.919 21 152.765 21C167.611 21 167.611 2 182.458 2" stroke="#2EC2F1" stroke-width="3" stroke-miterlimit="10"/>
<path d="M419.943 2C434.79 2 434.79 21 449.622 21C464.468 21 464.468 2 479.301 2C494.147 2 494.147 21 508.98 21C523.826 21 523.826 2 538.658 2C553.505 2 553.505 21 568.337 21C583.183 21 583.183 2 598.016 2C612.862 2 612.862 21 627.708 21C642.555 21 642.555 2 657.401 2" stroke="#2EC2F1" stroke-width="3" stroke-miterlimit="10"/>
<path d="M182.472 2C197.318 2 197.318 21 212.15 21C226.997 21 226.997 2 241.829 2C256.676 2 256.676 21 271.508 21C286.354 21 286.354 2 301.187 2C316.033 2 316.033 21 330.865 21C345.712 21 345.712 2 360.544 2C375.39 2 375.39 21 390.237 21C405.083 21 405.083 2 419.93 2" stroke="#2EC2F1" stroke-width="3" stroke-miterlimit="10"/>
<path d="M657.402 2C672.249 2 672.249 21 687.081 21C701.927 21 701.927 2 716.76 2C731.606 2 731.606 21 746.439 21C761.285 21 761.285 2 776.117 2C790.964 2 790.964 21 805.796 21C820.642 21 820.642 2 835.475 2C850.321 2 850.321 21 865.167 21C880.014 21 880.014 2 894.86 2" stroke="#2EC2F1" stroke-width="3" stroke-miterlimit="10"/>
<path d="M894.874 2C909.72 2 909.72 21 924.553 21C939.399 21 939.399 2 954.231 2C969.078 2 969.078 21 983.91 21C998.757 21 998.757 2 1013.59 2C1028.44 2 1028.44 21 1043.27 21C1058.11 21 1058.11 2 1072.95 2C1087.79 2 1058.65 2 1073.5 2M1073.5 2C1088.35 2 1058.65 2 1073.5 2Z" stroke="#2EC2F1" stroke-width="3" stroke-miterlimit="10"/>
</svg>
