<svg width="57" height="57" viewBox="0 0 57 57" fill="none" xmlns="http://www.w3.org/2000/svg">
<circle cx="28.5" cy="28.5" r="28.5" fill="#E0BB61"/>
<path d="M14.3906 18.0021L13.1141 15.4491C13.077 15.3734 13.0253 15.3059 12.962 15.2503C12.8987 15.1948 12.825 15.1523 12.7452 15.1253C12.6654 15.0984 12.581 15.0875 12.497 15.0933C12.4129 15.0991 12.3309 15.1215 12.2555 15.1592C12.1802 15.1969 12.113 15.2491 12.058 15.3128C12.0029 15.3766 11.961 15.4506 11.9347 15.5306C11.9084 15.6106 11.8981 15.6951 11.9046 15.7791C11.9111 15.8631 11.9341 15.9449 11.9724 16.02L12.1488 16.3728H9.99014C9.82086 16.3728 9.65851 16.44 9.53881 16.5597C9.41911 16.6794 9.35187 16.8418 9.35187 17.0111V19.5641C9.35187 19.7334 9.41911 19.8958 9.53881 20.0155C9.65851 20.1352 9.82086 20.2024 9.99014 20.2024H12.1488L11.9724 20.5552C11.9341 20.6303 11.9111 20.7121 11.9046 20.7961C11.8981 20.8801 11.9084 20.9646 11.9347 21.0446C11.961 21.1246 12.0029 21.1986 12.058 21.2624C12.113 21.3261 12.1802 21.3783 12.2555 21.416C12.3309 21.4537 12.4129 21.4761 12.497 21.4819C12.581 21.4877 12.6654 21.4768 12.7452 21.4499C12.825 21.4229 12.8987 21.3805 12.962 21.3249C13.0253 21.2693 13.077 21.2018 13.1141 21.1262L14.3906 18.5731C14.4349 18.4844 14.458 18.3867 14.458 18.2876C14.458 18.1885 14.4349 18.0908 14.3906 18.0021ZM10.6284 18.9259V17.6493H12.787L13.1062 18.2876L12.787 18.9259H10.6284Z" fill="white"/>
<path d="M40.1309 20.186C40.2718 20.1538 40.3976 20.0748 40.4878 19.9618C40.5779 19.8489 40.6271 19.7087 40.6272 19.5641V15.7345C40.6272 15.5652 40.5599 15.4029 40.4402 15.2832C40.3205 15.1635 40.1582 15.0962 39.9889 15.0962H39.4738L40.5866 12.129C40.6228 12.0324 40.6351 11.9285 40.6223 11.8262C40.6096 11.7238 40.5723 11.6261 40.5135 11.5413C40.4548 11.4565 40.3764 11.3873 40.285 11.3394C40.1937 11.2916 40.0921 11.2666 39.9889 11.2666H17.0111C16.908 11.2666 16.8064 11.2916 16.715 11.3394C16.6237 11.3873 16.5453 11.4565 16.4865 11.5413C16.4278 11.6261 16.3904 11.7238 16.3777 11.8262C16.365 11.9285 16.3773 12.0324 16.4135 12.129L17.5262 15.0962H17.0111C16.8419 15.0962 16.6795 15.1635 16.5598 15.2832C16.4401 15.4029 16.3729 15.5652 16.3729 15.7345V19.5641C16.373 19.7087 16.4221 19.8489 16.5123 19.9618C16.6024 20.0748 16.7282 20.1538 16.8691 20.186C15.2827 24.2914 14.0531 28.526 13.1939 32.8426C13.1857 32.8839 13.1815 32.9258 13.1815 32.9678V45.095C13.1815 45.2643 13.2488 45.4266 13.3685 45.5463C13.4882 45.666 13.6505 45.7333 13.8198 45.7333H25.9469C26.1162 45.7333 26.2786 45.666 26.3983 45.5463C26.518 45.4266 26.5852 45.2643 26.5852 45.095V43.1802H30.4148V45.095C30.4148 45.2643 30.4821 45.4266 30.6018 45.5463C30.7215 45.666 30.8838 45.7333 31.0531 45.7333H43.1803C43.3496 45.7333 43.5119 45.666 43.6316 45.5463C43.7513 45.4266 43.8185 45.2643 43.8185 45.095V32.9678C43.8185 32.9258 43.8144 32.8839 43.8062 32.8426C42.947 28.526 41.7174 24.2914 40.1309 20.186ZM30.7753 41.9036H26.2252C25.0773 40.6775 19.2484 34.6087 14.5512 32.5759C14.8359 31.2019 15.1456 29.8974 15.4677 28.6695C17.9797 29.6684 22.5371 31.053 28.5 31.053C29.9933 31.053 31.4852 30.9644 32.9679 30.7877V39.6865C31.9034 40.7167 31.1197 41.537 30.7753 41.9036ZM19.5642 17.011C19.7335 17.011 19.8959 16.9438 20.0156 16.8241C20.1353 16.7044 20.2025 16.5421 20.2025 16.3728H21.479V17.011C21.479 17.1803 21.5463 17.3427 21.666 17.4624C21.7857 17.5821 21.948 17.6493 22.1173 17.6493C22.2866 17.6493 22.4489 17.5821 22.5686 17.4624C22.6883 17.3427 22.7556 17.1803 22.7556 17.011V16.3728H24.0321C24.0321 16.5421 24.0994 16.7044 24.2191 16.8241C24.3388 16.9438 24.5011 17.011 24.6704 17.011C24.8397 17.011 25.002 16.9438 25.1217 16.8241C25.2414 16.7044 25.3087 16.5421 25.3087 16.3728H26.5852V18.9259H17.6494V16.3728H18.926C18.926 16.5421 18.9932 16.7044 19.1129 16.8241C19.2326 16.9438 19.395 17.011 19.5642 17.011ZM32.3297 17.6493C32.4989 17.6493 32.6613 17.5821 32.781 17.4624C32.9007 17.3427 32.9679 17.1803 32.9679 17.011V16.3728H34.2445C34.2445 16.5421 34.3117 16.7044 34.4314 16.8241C34.5511 16.9438 34.7135 17.011 34.8827 17.011C35.052 17.011 35.2144 16.9438 35.3341 16.8241C35.4538 16.7044 35.521 16.5421 35.521 16.3728H36.7976V17.011C36.7976 17.1803 36.8648 17.3427 36.9845 17.4624C37.1042 17.5821 37.2665 17.6493 37.4358 17.6493C37.6051 17.6493 37.7675 17.5821 37.8872 17.4624C38.0069 17.3427 38.0741 17.1803 38.0741 17.011V16.3728H39.3506V18.9259H30.4148V16.3728H31.6914V17.011C31.6914 17.1803 31.7586 17.3427 31.8783 17.4624C31.998 17.5821 32.1604 17.6493 32.3297 17.6493ZM37.9464 21.7343L36.7976 20.2024H38.7652C39.7017 22.5668 40.5131 24.9789 41.1961 27.4287C40.1755 27.8372 39.1333 28.1895 38.0741 28.484V22.1172C38.0741 21.9791 38.0293 21.8447 37.9464 21.7343ZM29.1383 18.9259H27.8618V16.3728H29.1383V18.9259ZM32.9679 20.2024V29.5019C31.4857 29.6849 29.9935 29.7766 28.5 29.7765C22.6304 29.7765 18.1861 28.3923 15.8039 27.4288C16.4869 24.979 17.2983 22.5669 18.2349 20.2024H32.9679ZM34.2445 43.1802C34.4138 43.1802 34.5761 43.1129 34.6958 42.9932C34.8155 42.8735 34.8827 42.7112 34.8827 42.5419C34.8827 42.3726 34.8155 42.2103 34.6958 42.0906C34.5761 41.9709 34.4138 41.9036 34.2445 41.9036V40.6271H34.8827C35.052 40.6271 35.2144 40.5598 35.3341 40.4401C35.4538 40.3204 35.521 40.1581 35.521 39.9888C35.521 39.8195 35.4538 39.6572 35.3341 39.5375C35.2144 39.4178 35.052 39.3505 34.8827 39.3505H34.2445V38.074C34.4138 38.074 34.5761 38.0068 34.6958 37.8871C34.8155 37.7674 34.8827 37.605 34.8827 37.4357C34.8827 37.2664 34.8155 37.1041 34.6958 36.9844C34.5761 36.8647 34.4138 36.7975 34.2445 36.7975V35.5209H34.8827C35.052 35.5209 35.2144 35.4537 35.3341 35.334C35.4538 35.2143 35.521 35.0519 35.521 34.8826C35.521 34.7134 35.4538 34.551 35.3341 34.4313C35.2144 34.3116 35.052 34.2444 34.8827 34.2444H34.2445V32.9678C34.4138 32.9678 34.5761 32.9006 34.6958 32.7809C34.8155 32.6612 34.8827 32.4988 34.8827 32.3296C34.8827 32.1603 34.8155 31.9979 34.6958 31.8782C34.5761 31.7585 34.4138 31.6913 34.2445 31.6913V30.4147H34.8827C35.052 30.4147 35.2144 30.3475 35.3341 30.2278C35.4538 30.1081 35.521 29.9458 35.521 29.7765C35.521 29.6072 35.4538 29.4448 35.3341 29.3251C35.2144 29.2054 35.052 29.1382 34.8827 29.1382H34.2445V27.8617C34.4138 27.8617 34.5761 27.7944 34.6958 27.6747C34.8155 27.555 34.8827 27.3927 34.8827 27.2234C34.8827 27.0541 34.8155 26.8918 34.6958 26.7721C34.5761 26.6524 34.4138 26.5851 34.2445 26.5851V25.3086H34.8827C35.052 25.3086 35.2144 25.2413 35.3341 25.1216C35.4538 25.0019 35.521 24.8396 35.521 24.6703C35.521 24.501 35.4538 24.3387 35.3341 24.219C35.2144 24.0993 35.052 24.032 34.8827 24.032H34.2445V22.7555C34.4138 22.7555 34.5761 22.6882 34.6958 22.5685C34.8155 22.4488 34.8827 22.2865 34.8827 22.1172C34.8827 21.9479 34.8155 21.7856 34.6958 21.6659C34.5761 21.5462 34.4138 21.4789 34.2445 21.4789V20.2024H35.2019L36.7976 22.33V44.4567H34.2445V43.1802ZM38.0741 29.8077C39.2476 29.4944 40.4022 29.1142 41.5323 28.669C41.8543 29.8973 42.1642 31.2022 42.449 32.5766C41.1684 33.1307 39.7026 34.0294 38.0741 35.2583V29.8077ZM17.9322 12.5431H39.0679L38.1105 15.0962H18.8896L17.9322 12.5431ZM14.4581 44.4567V33.9361C18.8266 36.0283 24.2907 41.7113 25.3087 42.7935V44.4567H14.4581ZM31.6914 42.7932C31.9181 42.5519 32.3646 42.0831 32.9679 41.4782V44.4567H31.6914V42.7932ZM38.0741 44.4567V36.8729C39.7544 35.5381 41.2523 34.5532 42.542 33.9358V44.4567H38.0741Z" fill="white"/>
<path d="M28.5 22.7555C28.8525 22.7555 29.1383 22.4698 29.1383 22.1173C29.1383 21.7648 28.8525 21.479 28.5 21.479C28.1475 21.479 27.8618 21.7648 27.8618 22.1173C27.8618 22.4698 28.1475 22.7555 28.5 22.7555Z" fill="white"/>
<path d="M47.0099 15.7346H44.8513L45.0277 15.3818C45.066 15.3068 45.089 15.2249 45.0955 15.1409C45.1019 15.0569 45.0917 14.9725 45.0654 14.8924C45.0391 14.8124 44.9972 14.7384 44.9421 14.6747C44.887 14.6109 44.8199 14.5587 44.7445 14.521C44.6692 14.4833 44.5871 14.4609 44.5031 14.4551C44.4191 14.4493 44.3347 14.4602 44.2549 14.4871C44.1751 14.5141 44.1014 14.5566 44.0381 14.6121C43.9748 14.6677 43.9231 14.7352 43.886 14.8109L42.6094 17.364C42.5651 17.4526 42.5421 17.5503 42.5421 17.6494C42.5421 17.7485 42.5651 17.8463 42.6094 17.9349L43.886 20.488C43.9231 20.5636 43.9748 20.6312 44.0381 20.6867C44.1014 20.7423 44.1751 20.7848 44.2549 20.8117C44.3347 20.8386 44.4191 20.8495 44.5031 20.8437C44.5871 20.8379 44.6692 20.8155 44.7445 20.7778C44.8199 20.7402 44.887 20.6879 44.9421 20.6242C44.9972 20.5604 45.0391 20.4864 45.0654 20.4064C45.0917 20.3264 45.1019 20.2419 45.0955 20.158C45.089 20.074 45.066 19.9921 45.0277 19.917L44.8513 19.5642H47.0099C47.1792 19.5642 47.3416 19.497 47.4613 19.3773C47.581 19.2576 47.6482 19.0952 47.6482 18.926V16.3729C47.6482 16.2036 47.581 16.0413 47.4613 15.9216C47.3416 15.8019 47.1792 15.7346 47.0099 15.7346ZM46.3717 18.2877H44.213L43.8939 17.6494L44.213 17.0112H46.3717V18.2877Z" fill="white"/>
</svg>
