<svg width="57" height="57" viewBox="0 0 57 57" fill="none" xmlns="http://www.w3.org/2000/svg">
<circle cx="28.5" cy="28.5" r="28.5" fill="#C70136"/>
<path d="M9.63827 22.2924H17.8364C16.6452 24.1512 16.021 26.277 16.021 28.5065C16.021 31.6396 17.3225 34.6423 19.5845 36.837L15.4581 44.3703C15.3522 44.563 15.3584 44.7954 15.474 44.9826C15.5897 45.1696 15.7969 45.2845 16.021 45.2845H21.7654C21.9992 45.2845 22.2142 45.1601 22.3258 44.9608L25.1375 39.9379C26.1177 40.1822 27.1268 40.3133 28.1481 40.3133C29.1694 40.3133 30.1779 40.1822 31.1587 39.9379L33.9705 44.9608C34.0821 45.1601 34.2971 45.2845 34.5308 45.2845H40.2753C40.4994 45.2845 40.7072 45.1702 40.8222 44.9832C40.9372 44.796 40.9435 44.5636 40.8381 44.3709L36.7118 36.837C38.9751 34.6411 40.2753 31.639 40.2753 28.5065C40.2753 26.277 39.651 24.1512 38.4599 22.2924H46.658C47.0102 22.2924 47.2963 22.0139 47.2963 21.671V17.3211C47.2963 16.9783 47.0102 16.6997 46.658 16.6997H31.5143C32.5783 15.7882 33.2543 14.4565 33.2543 12.9713C33.2543 10.2302 30.9636 8 28.1481 8C25.3326 8 23.042 10.2302 23.042 12.9713C23.042 14.4565 23.7179 15.7882 24.7819 16.6997H9.63827C9.2861 16.6997 9 16.9783 9 17.3211V21.671C9 22.0139 9.2861 22.2924 9.63827 22.2924ZM21.3861 44.0417H17.0844L20.5565 37.7026C21.56 38.4888 22.6923 39.1202 23.894 39.5614L21.3861 44.0417ZM34.9101 44.0417L32.4016 39.5614C33.6034 39.1202 34.7362 38.4888 35.7391 37.7026L39.2113 44.0417H34.9101ZM24.3185 12.9713C24.3185 10.915 26.036 9.24282 28.1481 9.24282C30.2602 9.24282 31.9778 10.915 31.9778 12.9713C31.9778 15.0276 30.2602 16.6997 28.1481 16.6997C26.036 16.6997 24.3185 15.0276 24.3185 12.9713ZM10.2765 17.9425H46.0197V21.0496H37.2373C36.9932 21.0496 36.771 21.1843 36.6638 21.3976C36.5566 21.6106 36.5834 21.8643 36.733 22.0518C38.2149 23.9112 38.9987 26.1425 38.9987 28.5065C38.9987 31.4558 37.7222 34.2849 35.4954 36.2717C34.2987 37.3479 32.8457 38.1602 31.2943 38.6187C29.262 39.2182 27.0324 39.2176 25.002 38.6187C23.4505 38.1596 21.9976 37.3473 20.7984 36.2693C18.5741 34.2849 17.2975 31.4558 17.2975 28.5065C17.2975 26.1425 18.0813 23.9112 19.5633 22.0518C19.7129 21.8643 19.7397 21.6106 19.6324 21.3976C19.5252 21.1843 19.303 21.0496 19.059 21.0496H10.2765V17.9425Z" fill="white"/>
<path d="M27.5099 35.9631H28.7864V37.2048H27.5099V35.9631Z" fill="white"/>
<path d="M27.6878 29.5581C27.8084 29.68 27.9745 29.7489 28.1481 29.7489C28.3217 29.7489 28.4878 29.68 28.6084 29.5581L32.4755 25.6447C33.5096 24.5976 33.5096 22.8952 32.4755 21.8481C31.9662 21.3336 31.2884 21.0496 30.5653 21.0496C29.842 21.0496 29.1635 21.3336 28.6549 21.8481L28.1481 22.3606L27.6414 21.8481C27.1328 21.3336 26.4543 21.0496 25.7309 21.0496C25.0079 21.0496 24.33 21.3336 23.8208 21.8481C22.7867 22.8952 22.7867 24.5976 23.8208 25.6447L27.6878 29.5581ZM24.7411 22.7098C25.0066 22.4407 25.3582 22.2923 25.7309 22.2923C26.1037 22.2923 26.4555 22.4407 26.7217 22.7098L27.6884 23.688C27.9293 23.9316 28.3679 23.9316 28.6084 23.688L29.5752 22.7098C30.1069 22.1725 31.0241 22.1719 31.5558 22.7098C32.1208 23.2814 32.1208 24.2117 31.5558 24.7827L28.1481 28.2316L24.7411 24.7833C24.1761 24.2111 24.1761 23.2814 24.7411 22.7098Z" fill="white"/>
<path d="M47.2963 28.5064H42.4544L43.2797 27.7029L42.3771 26.8242L40.4623 28.6885C40.2127 28.9315 40.2127 29.3241 40.4623 29.5672L42.3771 31.4314L43.2797 30.5527L42.4544 29.7492H47.2963V28.5064Z" fill="white"/>
<path d="M13.0166 30.5527L13.9192 31.4314L15.834 29.5672C16.0836 29.3241 16.0836 28.9315 15.834 28.6885L13.9192 26.8242L13.0166 27.7029L13.8419 28.5064H9V29.7492H13.8419L13.0166 30.5527Z" fill="white"/>
<path d="M27.5099 33.4775H28.7864V34.7192H27.5099V33.4775Z" fill="white"/>
<path d="M30.0629 33.4775H31.3395V34.7192H30.0629V33.4775Z" fill="white"/>
<path d="M24.9568 33.4775H26.2333V34.7192H24.9568V33.4775Z" fill="white"/>
</svg>
