<svg width="57" height="60" viewBox="0 0 57 60" fill="none" xmlns="http://www.w3.org/2000/svg">
<circle cx="28.5" cy="31.5" r="28.5" fill="#C70136"/>
<g clip-path="url(#clip0)">
<path d="M20.2024 31.1251C20.3283 31.125 20.4513 31.0877 20.556 31.0179C21.5989 30.3439 22.7939 29.9419 24.0321 29.8486C24.3846 29.8486 24.6703 29.5628 24.6703 29.2103C24.6703 28.8578 24.3846 28.572 24.0321 28.572C22.5417 28.666 21.1007 29.1426 19.8482 29.9558C19.6142 30.1118 19.5099 30.4027 19.5914 30.6719C19.673 30.9411 19.9211 31.1252 20.2024 31.1251Z" fill="white"/>
<path d="M25.9469 33.6754C25.9469 32.2654 24.8039 31.1223 23.3938 31.1223C21.9838 31.1223 20.8408 32.2654 20.8408 33.6754C20.8422 33.8587 20.8636 34.0412 20.9046 34.2198C20.6157 34.2328 20.3285 34.2706 20.0461 34.3328C19.7038 34.4178 19.4952 34.7641 19.5802 35.1064C19.6651 35.4487 20.0115 35.6573 20.3538 35.5723C20.846 35.4737 21.3513 35.4584 21.8486 35.527H21.8652C22.7553 35.638 23.583 36.0422 24.2179 36.6759C24.4683 36.9178 24.8664 36.9143 25.1126 36.6681C25.3588 36.4219 25.3623 36.0238 25.1204 35.7734C25.077 35.7306 25.0323 35.6955 24.9889 35.6547C25.5895 35.1724 25.9413 34.4456 25.9469 33.6754ZM22.2839 34.3047C22.1741 34.1132 22.1167 33.8962 22.1173 33.6754C22.1182 33.0353 22.5929 32.4949 23.2276 32.4115C23.8622 32.3281 24.4604 32.7276 24.6266 33.3457C24.7928 33.9638 24.4755 34.6095 23.8847 34.8556C23.3835 34.5886 22.8432 34.4027 22.2839 34.3047Z" fill="white"/>
<path d="M32.967 29.8486C34.2047 29.9445 35.3992 30.3465 36.443 31.0185C36.6329 31.145 36.8757 31.1605 37.0802 31.0593C37.2846 30.9582 37.4195 30.7556 37.4341 30.528C37.4487 30.3004 37.3407 30.0822 37.1509 29.9558C35.8984 29.1426 34.4574 28.666 32.967 28.572C32.6145 28.572 32.3287 28.8578 32.3287 29.2103C32.3287 29.5628 32.6145 29.8486 32.967 29.8486Z" fill="white"/>
<path d="M36.9518 34.3317C36.6694 34.2695 36.3822 34.2319 36.0933 34.2194C36.3116 33.2607 35.96 32.2619 35.1894 31.6513C34.4188 31.0408 33.366 30.927 32.4827 31.3588C31.5994 31.7905 31.0425 32.6911 31.0509 33.6743C31.0553 34.4457 31.407 35.1742 32.0083 35.6574C31.9649 35.6983 31.9203 35.7334 31.8769 35.7761C31.7109 35.9364 31.6444 36.1737 31.7028 36.3969C31.7612 36.62 31.9355 36.7943 32.1587 36.8527C32.3818 36.9111 32.6191 36.8446 32.7794 36.6786C33.4143 36.0448 34.2424 35.6405 35.1327 35.5298H35.1486C35.6459 35.4609 36.1513 35.4762 36.6435 35.5751C36.9858 35.66 37.3321 35.4514 37.4171 35.1091C37.502 34.7668 37.2934 34.4205 36.9511 34.3355L36.9518 34.3317ZM32.3288 33.6756C32.3288 32.9706 32.9003 32.399 33.6053 32.399C34.3103 32.399 34.8818 32.9706 34.8818 33.6756C34.8825 33.8966 34.8248 34.1139 34.7146 34.3055C34.1554 34.4029 33.6153 34.5887 33.1145 34.8557C32.639 34.6562 32.3294 34.1912 32.3288 33.6756Z" fill="white"/>
<path d="M29.776 36.0547H27.2229C26.8704 36.0547 26.5847 36.3404 26.5847 36.693C26.5847 37.0455 26.8704 37.3312 27.2229 37.3312H29.776C30.1285 37.3312 30.4143 37.0455 30.4143 36.693C30.4143 36.3404 30.1285 36.0547 29.776 36.0547Z" fill="white"/>
<path d="M45.4257 42.275C45.0025 40.3523 44.3884 38.4766 43.5927 36.6759C44.139 36.1961 44.453 35.5049 44.4549 34.7778V32.8631C44.4538 32.5433 44.3918 32.2267 44.2724 31.93C44.3934 31.1834 44.4545 30.4283 44.4549 29.672C44.4562 28.0896 44.201 26.5175 43.6993 25.0168C44.1138 25.1285 44.5397 25.1928 44.9687 25.2082C45.0872 25.209 45.2055 25.1992 45.3223 25.1789C46.0218 25.0678 46.6548 24.7001 47.0978 24.1475C47.5415 23.6057 47.7299 22.8989 47.6149 22.2081C47.4999 21.5173 47.0926 20.9097 46.4973 20.5409C45.9 20.1603 45.182 20.0169 44.4843 20.1388C44.2609 20.1758 43.6399 20.2811 41.9907 21.5155C41.5714 20.8681 41.1019 20.2545 40.5867 19.6806C41.161 19.5184 41.6924 19.2311 42.1426 18.8394C42.6558 18.3515 42.9683 17.6896 43.0189 16.9834C43.0767 16.2862 42.8312 15.5979 42.3453 15.0945C41.8594 14.5911 41.1802 14.3215 40.4813 14.3546C39.7737 14.3814 39.1015 14.6711 38.596 15.167C38.1053 15.7144 37.7479 16.368 37.5519 17.0766C32.0625 13.4472 24.9361 13.4472 19.4467 17.0766C19.2507 16.368 18.8933 15.7144 18.4026 15.167C17.897 14.6709 17.2245 14.3812 16.5166 14.3546C15.8178 14.3213 15.1386 14.5908 14.6527 15.0941C14.1668 15.5973 13.9213 16.2856 13.979 16.9828C14.0295 17.6892 14.342 18.3513 14.8553 18.8394C15.3056 19.2312 15.8369 19.5187 16.4113 19.6812C15.8959 20.2549 15.4264 20.8682 15.0072 21.5155C13.358 20.2811 12.7351 20.1758 12.5136 20.1388C11.8158 20.0176 11.0978 20.1609 10.5 20.5409C9.90589 20.9099 9.49956 21.5171 9.38493 22.2071C9.2703 22.897 9.45849 23.603 9.90138 24.1443C10.3439 24.6972 10.9768 25.065 11.6763 25.1757C11.7941 25.196 11.9135 25.2056 12.0331 25.2044C12.4621 25.189 12.888 25.1247 13.3025 25.0129C12.7992 26.5147 12.5429 28.0881 12.5436 29.672C12.5442 30.4283 12.6052 31.1834 12.7262 31.93C12.6068 32.2267 12.5448 32.5433 12.5436 32.8631V34.7778C12.5459 35.5046 12.8596 36.1957 13.4052 36.6759C12.6104 38.4767 11.9966 40.3521 11.5729 42.2744C11.2379 43.9041 11.1874 45.5795 11.4235 47.2264C10.1381 48.4914 9.39534 50.2069 9.3525 52.0099C9.3525 52.3624 9.63825 52.6481 9.99073 52.6481H47.0078C47.3603 52.6481 47.6461 52.3624 47.6461 52.0099C47.6032 50.2071 46.8604 48.4918 45.575 47.227C45.8113 45.5801 45.7608 43.9047 45.4257 42.275ZM44.1735 42.522C44.4165 43.7184 44.5 44.9416 44.4218 46.1599C43.2629 45.2455 41.986 44.4916 40.6256 43.9184V43.0747C40.623 42.0652 39.8355 41.2318 38.8277 41.1722C39.6266 39.995 40.2335 38.6983 40.6256 37.3307H41.902C42.0885 37.3297 42.2742 37.3083 42.456 37.2669C43.1994 38.958 43.7747 40.7182 44.1735 42.522ZM37.4345 48.1805H29.1375V41.7983C29.1375 41.0933 29.709 40.5218 30.414 40.5218H31.0522V43.7129C31.0522 44.0654 31.3379 44.3512 31.6904 44.3512C32.0429 44.3512 32.3286 44.0654 32.3286 43.7129V40.5218H33.6051V43.7129C33.6051 44.0654 33.8908 44.3512 34.2433 44.3512C34.5958 44.3512 34.8815 44.0654 34.8815 43.7129V40.5218H35.5198C36.2247 40.5218 36.7962 41.0933 36.7962 41.7983V43.7129C36.7962 44.0654 37.082 44.3512 37.4345 44.3512C37.7869 44.3512 38.0727 44.0654 38.0727 43.7129V42.4365H38.7109C39.0634 42.4365 39.3491 42.7222 39.3491 43.0747V46.2658C39.3491 47.3233 38.4919 48.1805 37.4345 48.1805ZM19.5641 48.1805C18.5067 48.1805 17.6494 47.3233 17.6494 46.2658V43.0747C17.6494 42.7222 17.9352 42.4365 18.2877 42.4365H18.9259V43.7129C18.9259 44.0654 19.2116 44.3512 19.5641 44.3512C19.9166 44.3512 20.2023 44.0654 20.2023 43.7129V41.7983C20.2023 41.0933 20.7738 40.5218 21.4788 40.5218H22.117V43.7129C22.117 44.0654 22.4028 44.3512 22.7553 44.3512C23.1077 44.3512 23.3935 44.0654 23.3935 43.7129V40.5218H24.6699V43.7129C24.6699 44.0654 24.9557 44.3512 25.3082 44.3512C25.6606 44.3512 25.9464 44.0654 25.9464 43.7129V40.5218H26.5846C27.2896 40.5218 27.8611 41.0933 27.8611 41.7983V48.1805H19.5641ZM37.7166 40.5218C37.2644 39.735 36.4273 39.2486 35.5198 39.2454H30.414C29.678 39.2477 28.9794 39.5696 28.4993 40.1274C28.0192 39.5696 27.3206 39.2477 26.5846 39.2454H21.4788C20.5713 39.2486 19.7342 39.735 19.282 40.5218C17.5516 37.8791 16.7784 34.7236 17.091 31.5803C17.0987 31.505 17.1152 31.2612 17.1395 30.9184C17.1982 30.0626 17.2971 28.631 17.4101 27.5001C17.4689 26.8895 17.9587 26.41 18.5704 26.3641C21.2663 26.1668 26.1391 25.4233 28.5108 22.6623C30.8594 25.4227 35.7323 26.1662 38.4263 26.3641C39.0392 26.4095 39.5301 26.8902 39.5885 27.502C39.7014 28.631 39.8004 30.0626 39.8597 30.9184C39.8833 31.2631 39.8999 31.505 39.9069 31.5745C40.2207 34.7196 39.4477 37.8773 37.7166 40.5218ZM41.1866 31.5867H41.902C42.607 31.5867 43.1785 32.1581 43.1785 32.8631V34.7778C43.1785 35.4827 42.607 36.0542 41.902 36.0542H40.9345C41.2269 34.5841 41.3118 33.0803 41.1866 31.5867ZM44.6968 21.398C44.7884 21.3829 44.881 21.3752 44.9738 21.375C45.2689 21.3727 45.5583 21.4556 45.8073 21.6137C46.0991 21.7877 46.2994 22.0813 46.355 22.4164C46.4105 22.7515 46.3158 23.0941 46.0958 23.3529C45.8496 23.6563 45.4992 23.8572 45.113 23.9165C44.767 23.9745 43.7561 23.7971 41.955 23.1627C43.4516 21.9494 44.3515 21.4548 44.6949 21.398H44.6968ZM39.4832 16.0854C39.7607 15.8101 40.131 15.6481 40.5216 15.631H40.5618C40.8936 15.6211 41.2136 15.7546 41.4399 15.9974C41.6663 16.2403 41.777 16.5689 41.7438 16.8992C41.713 17.2885 41.5385 17.6525 41.2542 17.9203C40.6392 18.3247 39.9591 18.6201 39.2438 18.7934C39.2145 18.801 39.1857 18.8106 39.1577 18.8221C38.8756 18.9096 38.573 18.9996 38.229 19.0927C38.7747 17.2444 39.2323 16.3273 39.4832 16.0854ZM15.2529 16.8998C15.2194 16.5691 15.3303 16.24 15.5571 15.9969C15.7839 15.7539 16.1046 15.6205 16.4368 15.631H16.4802C16.8705 15.6481 17.2404 15.8099 17.518 16.0848C17.7688 16.3267 18.2296 17.2438 18.7944 19.0704C16.9289 18.5924 15.9958 18.1635 15.745 17.9216C15.4593 17.6542 15.2838 17.2898 15.2529 16.8998ZM11.8856 23.9165C11.4995 23.8574 11.1491 23.6567 10.9028 23.3535C10.6833 23.0945 10.5887 22.7521 10.6443 22.4172C10.6999 22.0822 10.8999 21.7887 11.1912 21.6144C11.4403 21.4562 11.7297 21.3731 12.0248 21.375C12.1184 21.3751 12.2119 21.3828 12.3043 21.398C12.6477 21.4548 13.5476 21.9488 15.0487 23.1327C13.2406 23.8003 12.2303 23.9726 11.8856 23.9165ZM15.489 24.3307C15.9189 24.1796 16.2329 23.8072 16.3092 23.358C16.3682 22.9863 16.2539 22.608 15.999 22.3311C16.5082 21.5329 17.0997 20.7902 17.7637 20.1152C17.9845 20.179 18.2168 20.2428 18.4728 20.3067C18.582 20.3349 18.6944 20.3492 18.8072 20.3494C19.1441 20.3511 19.4669 20.2148 19.7007 19.9722C20.0165 19.6431 20.1287 19.1685 19.9936 18.7328C19.9522 18.5917 19.912 18.4603 19.8717 18.3301C25.0593 14.7305 31.9367 14.7305 37.1243 18.3301C37.0841 18.4577 37.0439 18.5917 37.0024 18.7328C36.8682 19.1683 36.9808 19.6423 37.2966 19.9709C37.5304 20.2135 37.8532 20.3498 38.1901 20.3481C38.3027 20.348 38.4149 20.3336 38.5239 20.3054C38.7792 20.2416 39.0128 20.1777 39.2336 20.1139C39.898 20.7895 40.4895 21.5331 40.9983 22.3324C40.7436 22.6091 40.6296 22.9872 40.6888 23.3586C40.7647 23.8082 41.0791 24.1809 41.5095 24.3313C41.7412 24.4162 41.9563 24.4915 42.1599 24.5617C42.8316 26.1817 43.1777 27.9182 43.1785 29.672C43.1785 30.0013 43.1613 30.3242 43.1383 30.6434C42.7617 30.4279 42.3359 30.3132 41.902 30.3102H41.0966C41.0366 29.4543 40.953 28.3177 40.8585 27.3744C40.7395 26.1449 39.7515 25.1802 38.5194 25.0908C36.5097 24.944 31.6049 24.3319 29.4796 21.8358C29.2287 21.5572 28.8714 21.3981 28.4964 21.3981C28.1215 21.3981 27.7641 21.5572 27.5132 21.8358C25.3899 24.3319 20.4851 24.944 18.4734 25.0908C17.2435 25.1826 16.2584 26.1467 16.14 27.3744C16.0456 28.3177 15.962 29.4543 15.902 30.3102H15.0965C14.6627 30.3132 14.2369 30.428 13.8603 30.6434C13.8373 30.3236 13.8201 30.0013 13.8201 29.672C13.8214 27.9178 14.1684 26.1811 14.8412 24.5611C15.0436 24.4909 15.2574 24.4155 15.489 24.3307ZM13.8201 34.7778V32.8631C13.8201 32.1581 14.3916 31.5867 15.0965 31.5867H15.8114C15.687 33.0805 15.7729 34.5843 16.0666 36.0542H15.0965C14.3916 36.0542 13.8201 35.4827 13.8201 34.7778ZM12.8251 42.5214C13.2239 40.7178 13.7992 38.9578 14.5426 37.2669C14.7243 37.3083 14.9101 37.3297 15.0965 37.3307H16.373C16.7643 38.6982 17.3703 39.9948 18.1683 41.1722C17.1615 41.2331 16.3755 42.0661 16.373 43.0747V43.9184C15.0125 44.4922 13.7356 45.2468 12.5768 46.1618C12.4982 44.9427 12.5817 43.7185 12.8251 42.5214ZM16.373 45.3219V46.2658C16.3751 48.0274 17.8026 49.4549 19.5641 49.457V51.3717H10.6717C11.1032 48.1582 14.6989 46.1108 16.373 45.3219ZM20.8406 49.457H27.8611V51.3717H20.8406V49.457ZM36.158 51.3717H29.1375V49.457H36.158V51.3717ZM37.4345 51.3717V49.457C39.196 49.4549 40.6235 48.0274 40.6256 46.2658V45.3206C42.3003 46.1069 45.8967 48.1505 46.3275 51.3717H37.4345Z" fill="white"/>
</g>
<defs>
<clipPath id="clip0">
<rect width="47" height="47" fill="white" transform="translate(5)"/>
</clipPath>
</defs>
</svg>
