<svg width="57" height="57" viewBox="0 0 57 57" fill="none" xmlns="http://www.w3.org/2000/svg">
<circle cx="28.5" cy="28.5" r="28.5" fill="#E09E61"/>
<path d="M41.8913 22.1589C41.8909 22.1589 41.8904 22.1589 41.89 22.1589H9.90017C9.59771 22.1586 9.35219 22.4035 9.35187 22.706C9.35187 22.7064 9.35187 22.7068 9.35187 22.7072V38.0624C9.35155 38.3648 9.59643 38.6103 9.89889 38.6107C9.89929 38.6107 9.89977 38.6107 9.90017 38.6107H31.6532C31.956 38.6107 32.2016 38.3651 32.2016 38.0624C32.2016 37.7596 31.956 37.514 31.6532 37.514H10.4485V23.2555H41.3417V24.6266C41.3414 24.9291 41.5862 25.1746 41.8887 25.1749C41.8891 25.1749 41.8896 25.1749 41.89 25.1749C42.1925 25.1753 42.438 24.9304 42.4383 24.6279C42.4383 24.6275 42.4383 24.627 42.4383 24.6266V22.7072C42.4386 22.4048 42.1937 22.1593 41.8913 22.1589Z" fill="white"/>
<path d="M38.1715 19.6132L12.5797 13.8551C12.4376 13.8233 12.2888 13.8491 12.1657 13.9267C12.0428 14.005 11.9559 14.1287 11.9239 14.2709L10.6443 20.0291C10.5785 20.3248 10.7651 20.6179 11.0608 20.6836C11.3565 20.7494 11.6496 20.5628 11.7153 20.2671L12.8753 15.0457L37.931 20.683C37.9706 20.6922 38.0112 20.6967 38.0519 20.6964C38.3547 20.6958 38.5997 20.4499 38.5992 20.1471C38.5987 19.8911 38.4212 19.6696 38.1715 19.6132Z" fill="white"/>
<path d="M35.064 16.4404L19.7089 10.0425C19.4421 9.93122 19.1346 10.0455 19.0052 10.3041L17.7256 12.8633C17.581 13.1306 17.6805 13.4645 17.9479 13.609C18.2152 13.7535 18.5491 13.654 18.6936 13.3867C18.6993 13.3762 18.7046 13.3655 18.7096 13.3546V13.3559L19.7595 11.2548L34.6405 17.4551C34.9207 17.572 35.2427 17.4397 35.3596 17.1595C35.4766 16.8794 35.3443 16.5574 35.064 16.4404Z" fill="white"/>
<path d="M35.4517 24.7183H30.3737C30.0709 24.7183 29.8254 24.9638 29.8254 25.2666C29.8254 25.5693 30.0709 25.8149 30.3737 25.8149H35.4517C35.7545 25.8149 36 25.5693 36 25.2666C36 24.9638 35.7545 24.7183 35.4517 24.7183Z" fill="white"/>
<path d="M25.2553 24.7546C22.1458 24.7546 19.6251 27.2754 19.6251 30.3848C19.6283 33.493 22.1471 36.0118 25.2553 36.015C28.3648 36.015 30.8855 33.4943 30.8855 30.3848C30.8855 27.2754 28.3648 24.7546 25.2553 24.7546ZM25.2553 34.9914C22.7111 34.9914 20.6487 32.929 20.6487 30.3848C20.6515 27.8419 22.7123 25.7811 25.2553 25.7783C27.7994 25.7783 29.8618 27.8407 29.8618 30.3848C29.8618 32.929 27.7994 34.9914 25.2553 34.9914Z" fill="white"/>
<path d="M40.6104 26.5459C37.2195 26.5459 33.5726 27.3469 33.5726 29.1051V44.4602C33.5726 46.2183 37.2195 47.0194 40.6104 47.0194C44.0013 47.0194 47.6482 46.2183 47.6482 44.4602V29.1051C47.6482 27.3469 44.0013 26.5459 40.6104 26.5459ZM46.3686 44.4506C46.272 44.8057 44.3532 45.7398 40.6104 45.7398C36.8676 45.7398 34.9488 44.8057 34.8522 44.4602V43.4544C36.2137 44.1403 38.4626 44.4602 40.6104 44.4602C42.7582 44.4602 45.0077 44.1371 46.3686 43.4538V44.4506ZM46.3686 41.8914C46.272 42.2465 44.3532 43.1806 40.6104 43.1806C36.8676 43.1806 34.9488 42.2465 34.8522 41.901V40.8952C36.2137 41.5811 38.4626 41.901 40.6104 41.901C42.7582 41.901 45.0077 41.5779 46.3686 40.8946V41.8914ZM46.3686 39.3322C46.272 39.6873 44.3532 40.6214 40.6104 40.6214C36.8676 40.6214 34.9488 39.6873 34.8522 39.3418V38.3361C36.2137 39.0219 38.4626 39.3418 40.6104 39.3418C42.7582 39.3418 45.0077 39.0187 46.3686 38.3354V39.3322ZM46.3686 36.773C46.272 37.1281 44.3532 38.0622 40.6104 38.0622C36.8676 38.0622 34.9488 37.1281 34.8522 36.7826V35.7769C36.2137 36.4627 38.4626 36.7826 40.6104 36.7826C42.7582 36.7826 45.0077 36.4595 46.3686 35.7762V36.773ZM46.3686 34.2139C46.272 34.5689 44.3532 35.503 40.6104 35.503C36.8676 35.503 34.9488 34.5689 34.8522 34.2235V33.2177C36.2137 33.9004 38.4626 34.2235 40.6104 34.2235C42.7582 34.2235 45.0077 33.9004 46.3686 33.2171V34.2139ZM46.3686 31.6547C46.272 32.0098 44.3532 32.9439 40.6104 32.9439C36.8676 32.9439 34.9488 32.0098 34.8522 31.6643V30.6585C36.2137 31.3412 38.4626 31.6643 40.6104 31.6643C42.7582 31.6643 45.0077 31.3412 46.3686 30.6579V31.6547ZM40.6104 30.3847C36.8733 30.3847 34.9552 29.4531 34.8522 29.1166V29.1128C34.9552 28.7564 36.8733 27.8255 40.6104 27.8255C44.3212 27.8255 46.2406 28.743 46.3686 29.1051C46.2406 29.4672 44.3212 30.3847 40.6104 30.3847Z" fill="white"/>
<path d="M20.1369 34.9541H15.3007L13.0077 32.4461V28.2874L15.54 25.8146H20.1369C20.4397 25.8146 20.6852 25.5691 20.6852 25.2663C20.6852 24.9635 20.4397 24.718 20.1369 24.718H15.3173C15.174 24.7177 15.0362 24.7735 14.9334 24.8735L12.0755 27.6611C11.9687 27.7858 11.9102 27.9447 11.9104 28.1089V32.6592C11.9104 32.796 11.9615 32.9279 12.0537 33.029L14.6532 35.8722C14.7571 35.9859 14.9041 36.0508 15.0582 36.0507H20.1369C20.4397 36.0507 20.6852 35.8052 20.6852 35.5024C20.6852 35.1996 20.4398 34.9541 20.1369 34.9541Z" fill="white"/>
<path d="M25.5752 29.7452H24.9354C24.7364 29.7452 24.6155 29.6338 24.6155 29.5852C24.6155 29.5366 24.7364 29.4253 24.9354 29.4253H26.5349C26.8882 29.4253 27.1747 29.1388 27.1747 28.7855C27.1747 28.4321 26.8882 28.1457 26.5349 28.1457H25.8951C25.8951 27.7923 25.6086 27.5059 25.2553 27.5059C24.9019 27.5059 24.6155 27.7923 24.6155 28.1457V28.1744C23.9059 28.2747 23.3683 28.8661 23.3359 29.582C23.3817 30.4209 24.0962 31.0654 24.9354 31.0247H25.5752C25.7741 31.0247 25.8951 31.1361 25.8951 31.1847C25.8951 31.2333 25.7741 31.3446 25.5752 31.3446H23.9757C23.6223 31.3446 23.3359 31.6311 23.3359 31.9844C23.3359 32.3378 23.6223 32.6242 23.9757 32.6242H24.6155C24.6155 32.9776 24.9019 33.264 25.2553 33.264C25.6086 33.264 25.8951 32.9776 25.8951 32.6242V32.5954C26.6047 32.4952 27.1423 31.9038 27.1747 31.1879C27.1288 30.349 26.4143 29.7045 25.5752 29.7452Z" fill="white"/>
</svg>
