<svg width="57" height="57" viewBox="0 0 57 57" fill="none" xmlns="http://www.w3.org/2000/svg">
<circle cx="28.5" cy="28.5" r="28.5" fill="#EF6A8D"/>
<path d="M43.9489 37.554C43.5451 37.554 43.2178 37.8814 43.2178 38.2852C43.2178 38.689 43.5452 39.0162 43.9489 39.0162C44.3525 39.0162 44.6801 38.6888 44.6801 38.2852C44.6801 37.8815 44.3527 37.554 43.9489 37.554Z" fill="white"/>
<path d="M9.55228 15.9903C9.6858 16.1238 9.86087 16.1907 10.0358 16.1907C10.2107 16.1907 10.3857 16.1238 10.5193 15.9903L11.0616 15.448L11.6039 15.9903C11.7374 16.1238 11.9124 16.1907 12.0873 16.1907C12.2622 16.1907 12.4373 16.1238 12.5708 15.9903C12.8379 15.7233 12.8379 15.2904 12.5708 15.0233L12.0285 14.481L12.5708 13.9387C12.8379 13.6717 12.8379 13.2388 12.5708 12.9718C12.3038 12.7047 11.8709 12.7047 11.6039 12.9718L11.0616 13.5141L10.5193 12.9718C10.2522 12.7047 9.81933 12.7047 9.55228 12.9718C9.28523 13.2388 9.28523 13.6717 9.55228 13.9387L10.0946 14.481L9.55228 15.0233C9.28506 15.2904 9.28506 15.7233 9.55228 15.9903Z" fill="white"/>
<path d="M42.9336 17.6282L43.3475 13.906C43.4179 13.2695 43.2136 12.6311 42.7866 12.1539C42.3597 11.6771 41.7476 11.4036 41.1075 11.4036H37.7765C37.1364 11.4036 36.5243 11.6771 36.0976 12.1539C35.6705 12.6311 35.4662 13.2695 35.537 13.906L35.9502 17.6244C34.0424 17.9147 32.4179 19.1894 31.6715 20.9933C31.6038 20.9907 31.5373 20.9841 31.4694 20.983L32.2318 16.0287C32.4104 14.8697 32.0748 13.6943 31.3111 12.8041C30.5472 11.9141 29.4367 11.4036 28.2638 11.4036H20.5305C19.3578 11.4036 18.2472 11.9141 17.4835 12.8039C16.7198 13.6941 16.3842 14.8695 16.5629 16.0281L17.325 20.9829C12.9195 21.0412 9.35229 24.6384 9.35229 29.0573V39.9931C9.35229 43.0827 11.866 45.5964 14.9556 45.5964H33.8385C36.9283 45.5964 39.442 43.0827 39.442 39.9931V33.9708H45.2204C46.5591 33.9708 47.6483 32.8816 47.6483 31.543V23.1093C47.6483 20.3335 45.5981 18.0337 42.9336 17.6282ZM37.1165 13.0662C37.2868 12.8763 37.5209 12.7713 37.7763 12.7713H41.1074C41.3628 12.7713 41.5968 12.8761 41.7671 13.0662C41.9374 13.2565 42.0159 13.5013 41.9878 13.755L41.5654 17.5583H37.3186L36.8962 13.755C36.8678 13.5013 36.9463 13.2565 37.1165 13.0662ZM18.5213 13.6948C19.0248 13.1079 19.757 12.7713 20.5305 12.7713H28.2638C29.0371 12.7713 29.7695 13.1079 30.273 13.6948C30.7762 14.2816 30.9976 15.0562 30.8798 15.8206L30.0863 20.9776H28.7027L29.528 15.6122C29.5847 15.2429 29.4779 14.8685 29.2344 14.5854C28.9913 14.3016 28.6374 14.139 28.2637 14.139H20.5303C20.1566 14.139 19.8027 14.3016 19.5595 14.5854C19.3161 14.8685 19.2092 15.2429 19.266 15.6122L20.0914 20.9776H18.7076L17.9144 15.8203C17.7967 15.0562 18.0181 14.2816 18.5213 13.6948ZM21.475 20.9776L20.6335 15.5067H28.1606L27.3191 20.9776H21.475ZM33.8387 44.2287H14.9556C12.6647 44.2287 10.7975 42.3997 10.7267 40.1256H12.7716C13.1492 40.1256 13.4554 39.8194 13.4554 39.4417C13.4554 39.064 13.1492 38.7578 12.7716 38.7578H10.72V38.074H12.7716C13.1492 38.074 13.4554 37.7678 13.4554 37.3901C13.4554 37.0125 13.1492 36.7063 12.7716 36.7063H10.72V29.0573C10.72 25.3561 13.7309 22.3453 17.4321 22.3453H31.3622C35.0633 22.3453 38.0743 25.3561 38.0743 29.0573V36.7063H36.0227C35.6451 36.7063 35.3389 37.0125 35.3389 37.3901C35.3389 37.7678 35.6451 38.074 36.0227 38.074H38.0743V38.7578H36.0227C35.6451 38.7578 35.3389 39.064 35.3389 39.4417C35.3389 39.8194 35.6451 40.1256 36.0227 40.1256H38.0676C37.9967 42.3997 36.1296 44.2287 33.8387 44.2287ZM46.2806 31.543C46.2806 32.1277 45.8051 32.6031 45.2204 32.6031H39.442V29.0573C39.442 25.193 36.7134 21.9575 33.0826 21.1663C33.7964 19.8053 35.2146 18.926 36.7868 18.926H42.0973C44.4039 18.926 46.2806 20.8027 46.2806 23.1093V31.543Z" fill="white"/>
<path d="M22.2366 29.8677H20.2936C19.9159 29.8677 19.6097 30.1739 19.6097 30.5515C19.6097 30.9292 19.9159 31.2354 20.2936 31.2354H22.2366C22.2964 31.2354 22.3452 31.2841 22.3452 31.344V32.4945C22.3452 32.5544 22.2964 32.6031 22.2366 32.6031H20.2936C19.9159 32.6031 19.6097 32.9093 19.6097 33.287V36.0224C19.6097 36.4001 19.9159 36.7062 20.2936 36.7062H23.029C23.4067 36.7062 23.7129 36.4001 23.7129 36.0224C23.7129 35.6447 23.4067 35.3385 23.029 35.3385H20.9775V33.9708H22.2366C23.0507 33.9708 23.7129 33.3087 23.7129 32.4945V31.344C23.7129 30.5298 23.0507 29.8677 22.2366 29.8677Z" fill="white"/>
<path d="M28.4999 29.8677H25.7644C25.3868 29.8677 25.0806 30.1739 25.0806 30.5515V36.0224C25.0806 36.4001 25.3868 36.7062 25.7644 36.7062H28.4999C28.8775 36.7062 29.1837 36.4001 29.1837 36.0224V30.5515C29.1837 30.1739 28.8775 29.8677 28.4999 29.8677ZM27.816 35.3385H26.4483V31.2354H27.816V35.3385Z" fill="white"/>
</svg>
