<svg width="57" height="57" viewBox="0 0 57 57" fill="none" xmlns="http://www.w3.org/2000/svg">
<circle cx="28.5" cy="28.5" r="28.5" fill="#E0BB61"/>
<path d="M38.9725 14.3822V15.6143H37.7404C37.0609 15.6143 36.5084 16.1669 36.5084 16.8463V18.0784C36.5084 18.7579 37.0609 19.3105 37.7404 19.3105H38.9725V20.5425C38.9725 21.222 39.5251 21.7746 40.2046 21.7746H41.4366C42.1161 21.7746 42.6687 21.222 42.6687 20.5425V19.3105H43.9008C44.5802 19.3105 45.1328 18.7579 45.1328 18.0784V16.8463C45.1328 16.1669 44.5802 15.6143 43.9008 15.6143H42.6687V14.3822C42.6687 13.7027 42.1161 13.1501 41.4366 13.1501H40.2046C39.5251 13.1501 38.9725 13.7027 38.9725 14.3822ZM43.9008 16.8457V18.0784H41.4366V20.5425H40.2046V18.0784H37.7404V16.8463H40.2046V14.3822H41.4366V16.8463L43.9008 16.8457Z" fill="white"/>
<path d="M46.981 11.3022C45.0774 11.3022 43.2084 10.7847 41.5771 9.80521L40.8206 9.35181L40.0641 9.80521C38.4329 10.7847 36.5638 11.3022 34.6603 11.3022H34.0443V14.3823H32.8122V13.7663C32.8122 11.3884 30.8772 9.45407 28.5 9.45407C26.1227 9.45407 24.1877 11.3884 24.1877 13.7663V14.3823H15.5633C14.8838 14.3823 14.3312 14.9349 14.3312 15.6144V20.55C12.9334 20.5901 11.6379 21.2277 10.7619 22.3242C9.88531 23.4195 9.40295 24.7957 9.40295 26.2163C9.40295 27.8864 10.0535 29.4567 11.2344 30.6376L14.3312 33.7344V46.416C14.3312 47.0955 14.8838 47.6481 15.5633 47.6481H41.4367C42.1161 47.6481 42.6687 47.0955 42.6687 46.416V24.7563C45.6731 23.1793 47.597 20.0813 47.597 16.5748V11.3022H46.981ZM38.9725 32.6292L37.6696 34.0954H30.3481V41.4878H37.7405V35.8696L38.9725 34.4835V43.9519H18.0274V37.4306L18.6434 38.0466L26.0525 30.6376C26.4929 30.1971 26.8595 29.7018 27.1459 29.1671H32.9256C33.1806 29.8823 33.8582 30.3992 34.6603 30.3992C35.6792 30.3992 36.5084 29.57 36.5084 28.5511C36.5084 27.5322 35.6792 26.703 34.6603 26.703C33.8582 26.703 33.1806 27.2198 32.9256 27.9351H27.64C27.7983 27.3788 27.8839 26.7966 27.8839 26.1985C27.8839 24.7957 27.4016 23.4201 26.525 22.3242C25.62 21.192 24.2691 20.5427 22.8183 20.5427C21.5505 20.5427 20.3591 21.0361 19.4622 21.933L18.6434 22.7518L18.0274 22.1357V18.0785H34.1644C34.627 20.9536 36.4061 23.4091 38.9725 24.7563V32.6292ZM34.6868 39.3052L36.5084 37.2556V40.2557H31.5801V35.3274H36.5084V35.4014L34.6338 37.51L33.2477 36.124L32.3767 36.995L34.6868 39.3052ZM34.0443 28.5511C34.0443 28.2117 34.3203 27.9351 34.6603 27.9351C35.0004 27.9351 35.2763 28.2117 35.2763 28.5511C35.2763 28.8905 35.0004 29.1671 34.6603 29.1671C34.3203 29.1671 34.0443 28.8905 34.0443 28.5511ZM25.4198 13.7663C25.4198 12.0679 26.8016 10.6861 28.5 10.6861C30.1984 10.6861 31.5801 12.0679 31.5801 13.7663V14.3823H30.3481V13.7663C30.3481 12.7474 29.5189 11.9182 28.5 11.9182C27.4811 11.9182 26.6519 12.7474 26.6519 13.7663V14.3823H25.4198V13.7663ZM29.116 14.3823H27.8839V13.7663C27.8839 13.4269 28.1599 13.1503 28.5 13.1503C28.84 13.1503 29.116 13.4269 29.116 13.7663V14.3823ZM34.0443 15.6144V16.5754C34.0443 16.6666 34.0523 16.7559 34.0554 16.8465H16.7953V21.1544C16.4097 20.9363 15.9957 20.7755 15.5633 20.6739V15.6144H34.0443ZM10.635 26.1985C10.635 25.0742 11.0219 23.9721 11.7248 23.0937C12.3938 22.2552 13.3942 21.7747 14.4686 21.7747C15.4068 21.7747 16.2896 22.14 16.9537 22.8041L18.6434 24.4939L20.3332 22.8041C20.9973 22.14 21.8801 21.7747 22.8183 21.7747C23.892 21.7747 24.8925 22.2552 25.5621 23.0937C26.265 23.9715 26.6519 25.0742 26.6519 26.2163C26.6519 26.8126 26.5428 27.3911 26.3451 27.9351H20.7269L19.3741 30.6419L17.4637 24.9128L15.7623 29.1671H14.3312V30.3992H16.5964L17.359 28.4932L19.1449 33.8527L21.4883 29.1671H25.6872C25.5338 29.3766 25.3687 29.5792 25.1814 29.7665L18.6434 36.3045L12.1055 29.7665C11.1574 28.8184 10.635 27.5574 10.635 26.1985ZM41.4367 46.416H15.5633V34.9665L16.7953 36.1985V45.184H40.2046V25.2941C40.3506 25.3459 40.4941 25.4007 40.6438 25.445L40.8206 25.498L40.9974 25.445C41.1471 25.4001 41.2907 25.3452 41.4367 25.2941V46.416ZM46.3649 16.5754C46.3649 20.0862 44.1447 23.1312 40.8206 24.2099C37.4965 23.1312 35.2763 20.0862 35.2763 16.5754V12.5182C37.1885 12.4178 39.0514 11.8504 40.6987 10.8623L40.8206 10.7884L40.9426 10.8617C42.5893 11.8504 44.4528 12.4178 46.3649 12.5182V16.5754Z" fill="white"/>
<path d="M27.8839 40.2556H29.116V41.4877H27.8839V40.2556Z" fill="white"/>
<path d="M25.4198 40.2556H26.6519V41.4877H25.4198V40.2556Z" fill="white"/>
<path d="M22.9557 40.2556H24.1878V41.4877H22.9557V40.2556Z" fill="white"/>
<path d="M29.116 24.2388H32.8122V25.4708H29.116V24.2388Z" fill="white"/>
<path d="M29.116 21.7747H32.8122V23.0067H29.116V21.7747Z" fill="white"/>
<path d="M29.116 19.3105H32.8122V20.5426H29.116V19.3105Z" fill="white"/>
</svg>
