<svg width="57" height="57" viewBox="0 0 57 57" fill="none" xmlns="http://www.w3.org/2000/svg">
<circle cx="28.5" cy="28.5" r="28.5" fill="#C70136"/>
<path d="M43.1638 17.0971C41.5938 14.7002 39.1513 13.0955 36.4029 12.5412L36.4705 11.8776C36.8659 11.6605 37.1147 11.317 37.1519 10.924C37.1943 10.5048 36.9982 10.0944 36.6112 9.79683C36.3086 9.56092 35.9007 9.4075 35.4681 9.36399C34.4436 9.26473 33.5818 9.78187 33.5011 10.5567C33.4641 10.9524 33.64 11.3356 33.9797 11.6256L33.9054 12.3411C32.5982 12.3896 31.3212 12.6735 30.1256 13.1879L29.4859 12.2108C29.8031 11.5896 29.8124 10.9596 29.4906 10.4697C29.1906 10.0119 28.692 9.76057 27.9816 9.77281C27.4259 9.78663 26.8218 9.98719 26.2806 10.3421C25.0575 11.1443 24.5474 12.46 25.1199 13.3355C25.4396 13.8265 26.0252 14.0681 26.7202 14.0248L27.3271 14.9474C23.415 18.372 22.5106 24.2523 25.4412 28.7205C27.4082 31.7173 30.7237 33.5094 34.311 33.5094C34.5877 33.5094 34.861 33.4714 35.1332 33.4498C35.53 35.1685 36.2493 36.8625 37.2926 38.4794C37.5052 38.8116 37.7608 39.2159 38.0214 39.6499C35.024 40.8539 31.6462 41.5038 28.2123 41.5038C28.2105 41.5038 28.2093 41.5038 28.2071 41.5038C24.6426 41.5038 21.1636 40.8045 18.0802 39.5123C18.3138 39.1329 18.5348 38.7769 18.7281 38.4805C25.1137 28.5639 17.3516 19.865 17.2732 19.7782C17.0357 19.519 16.6396 19.5029 16.3765 19.7372C16.1184 19.9729 16.098 20.3747 16.3341 20.635C16.6298 20.96 23.5111 28.709 17.661 37.7925C16.4637 39.6562 14.2316 43.1257 14.6061 47.0729C14.6352 47.4045 14.913 47.6481 15.2361 47.6481C15.2586 47.6481 15.2776 47.6481 15.298 47.6458C15.6475 47.6139 15.9038 47.3036 15.8711 46.9537C15.6445 44.594 16.512 42.3754 17.4402 40.6381C20.7115 42.0332 24.4244 42.7749 28.2068 42.7749C28.2082 42.7749 28.2105 42.7749 28.2121 42.7749C31.8667 42.7749 35.4654 42.0756 38.6521 40.7723C39.5554 42.4896 40.3715 44.6574 40.15 46.9537C40.1183 47.3036 40.3758 47.6139 40.7234 47.6458C40.7458 47.6481 40.7628 47.6481 40.7848 47.6481C41.1075 47.6481 41.3849 47.4045 41.4153 47.0729C41.7921 43.1232 39.5572 39.6551 38.3568 37.7916C37.4191 36.3326 36.7671 34.815 36.395 33.2746C37.7101 33.0095 38.9721 32.5182 40.1106 31.7719C44.9979 28.5639 46.3657 21.983 43.1638 17.0971ZM35.3369 10.6253C35.5678 10.65 35.7265 10.7232 35.8151 10.7853C35.7879 10.7978 35.7532 10.81 35.7108 10.82C35.5076 10.8746 35.3444 11.0271 35.2744 11.2232C35.2472 11.0172 35.1209 10.8352 34.9297 10.7421C34.8925 10.7221 34.8608 10.7047 34.8379 10.6874C34.9349 10.6428 35.1071 10.602 35.3369 10.6253ZM27.5623 12.9915C27.4166 12.7705 27.154 12.6626 26.8913 12.7211C26.5204 12.8056 26.2516 12.741 26.1825 12.6393C26.0687 12.4643 26.2817 11.8618 26.9786 11.4042C27.3189 11.1824 27.694 11.0507 28.0126 11.0432C28.203 11.0357 28.3741 11.0867 28.4278 11.1674C28.4962 11.2692 28.4441 11.5431 28.2195 11.8507C28.0645 12.0639 28.0566 12.3517 28.2005 12.5724L28.9862 13.7717C28.8223 13.8685 28.6476 13.9442 28.4863 14.0495C28.4301 14.0867 28.3822 14.1289 28.3274 14.1649L27.5623 12.9915ZM34.311 32.2358C31.1524 32.2358 28.234 30.6611 26.5024 28.0221C23.6826 23.7216 24.8887 17.9281 29.1885 15.1097C30.7125 14.11 32.4772 13.5807 34.2949 13.5807C37.4524 13.5807 40.3717 15.1554 42.1026 17.793C44.9226 22.0924 43.7175 27.887 39.4163 30.7068C37.8913 31.7074 36.1276 32.2358 34.311 32.2358ZM39.1389 29.9255C37.6999 30.868 36.0809 31.3203 34.4789 31.3203C31.7006 31.3203 28.9751 29.9665 27.3407 27.4739C25.4142 24.5374 25.5037 20.6523 27.5589 17.8078C27.7652 17.5225 28.1626 17.4606 28.4443 17.6652C28.7272 17.871 28.7915 18.2678 28.5869 18.552C26.8378 20.9736 26.7617 24.2786 28.401 26.7784C30.5927 30.1192 35.0935 31.0592 38.4393 28.8642C41.7842 26.6719 42.7174 22.1679 40.5274 18.8248C40.3365 18.5323 40.4172 18.1379 40.7112 17.9469C41.0012 17.7547 41.396 17.8354 41.5895 18.1291C44.1657 22.0562 43.0646 27.3488 39.1389 29.9255ZM33.0673 21.8293C32.937 22.0165 32.8441 22.2261 32.7968 22.4555C32.7057 22.9008 32.7895 23.3547 33.0388 23.7365C33.3551 24.2176 33.8872 24.5057 34.464 24.5057C34.7985 24.5057 35.1209 24.4087 35.3983 24.2253C36.1813 23.7096 36.4004 22.6517 35.8869 21.8678C35.5105 21.2938 34.7908 21.0246 34.1336 21.1413L30.6679 15.8598C30.4755 15.5658 30.0805 15.4852 29.7916 15.6762C29.4986 15.8672 29.4172 16.2616 29.6064 16.5543L33.0673 21.8293ZM34.7042 23.1634C34.5086 23.2924 34.2278 23.2316 34.1003 23.0395C34.037 22.9427 34.0175 22.8262 34.0395 22.7134C34.062 22.6003 34.1288 22.5024 34.224 22.4394C34.2947 22.3925 34.3751 22.3675 34.4608 22.3675C34.6072 22.3675 34.7463 22.4419 34.8259 22.5633C34.9596 22.7643 34.9025 23.0333 34.7042 23.1634ZM28.0129 38.8288C27.2911 38.8288 26.7084 38.2437 26.7084 37.5246C26.7084 36.8029 27.2913 36.2191 28.0129 36.2191C28.7344 36.2191 29.3175 36.8029 29.3175 37.5246C29.3198 38.2437 28.7344 38.8288 28.0129 38.8288ZM14.6379 30.3846H12.1054V26.4138H14.6379V24.818L18.2207 28.3992L14.6379 31.9818V30.3846Z" fill="white"/>
</svg>
