<svg width="57" height="62" viewBox="0 0 57 62" fill="none" xmlns="http://www.w3.org/2000/svg">
<circle cx="28.5" cy="33.5" r="28.5" fill="#E09E61"/>
<g clip-path="url(#clip0)">
<path d="M21.9551 18.7233C29.2064 16.8831 37.8375 18.6524 43.4125 23.6315C43.5962 23.7956 43.6713 24.0456 43.6083 24.2836L42.6737 27.8199C42.5956 28.1153 42.0793 30.0518 42.3748 30.1299C42.4222 30.1425 42.8891 30.0925 42.9358 30.0925C43.1809 30.0925 43.678 28.3508 43.7436 28.1027L44.6782 24.5665C44.8482 23.9236 44.6456 23.249 44.1496 22.8061C38.2999 17.5815 28.8153 15.8949 21.2071 17.8257C20.9109 17.9009 21.5433 18.0157 21.6185 18.3119C21.6937 18.6082 21.6592 18.7985 21.9551 18.7233Z" fill="white"/>
<path d="M35.6996 26.3253L36.7793 22.2405C36.9178 21.7165 36.642 21.1709 36.1378 20.9713C33.6882 20.0015 31.1063 19.5098 28.4639 19.5098C25.8216 19.5098 23.2397 20.0015 20.7901 20.9713C20.2859 21.1709 20.0101 21.7165 20.1485 22.2406L21.2282 26.3252C21.3455 26.7692 21.7482 27.0792 22.2074 27.0792H31.2439C31.038 27.3806 31.0681 27.7963 31.3354 28.0638L32.4512 29.1795C32.5975 29.3257 32.792 29.4063 32.9989 29.4063C33.2059 29.4063 33.4004 29.3257 33.5467 29.1795L34.6625 28.0636C34.9302 27.7959 34.96 27.3795 34.7529 27.0779C35.1985 27.0635 35.5851 26.7586 35.6996 26.3253ZM21.2267 21.9887C25.8951 20.1489 31.0328 20.1489 35.7011 21.9887L34.6481 25.9726H33.6669L33.5466 25.8523C33.2446 25.5504 32.7532 25.5505 32.4512 25.8524C32.4512 25.8524 32.3391 25.977 32.3435 25.9726H29.1982L28.1888 23.1648C28.0971 22.9093 27.9379 22.683 27.7285 22.5101L26.2721 21.3077C26.0822 21.1508 25.8204 21.1052 25.5888 21.1886C25.3571 21.2719 25.1843 21.4738 25.1378 21.7155L24.7803 23.5701C24.729 23.8366 24.7504 24.1124 24.8422 24.3678L25.4191 25.9725H22.2797L21.2267 21.9887ZM26.5951 25.9726L25.8836 23.9935C25.859 23.925 25.8532 23.8509 25.867 23.7794L26.095 22.5965L27.0239 23.3635C27.0801 23.4099 27.1228 23.4705 27.1474 23.539V23.5391L28.0223 25.9726H26.5951ZM32.999 28.1621L32.3528 27.516L32.999 26.8698L33.6452 27.516L32.999 28.1621Z" fill="white"/>
<path d="M28.4639 22.2209C28.7848 22.2209 29.0449 21.9608 29.0449 21.6399C29.0449 21.319 28.7848 21.0588 28.4639 21.0588C28.143 21.0588 27.8829 21.319 27.8829 21.6399C27.8829 21.9608 28.143 22.2209 28.4639 22.2209Z" fill="white"/>
<path d="M31.264 22.4008C31.5849 22.4008 31.845 22.1407 31.845 21.8198C31.845 21.4989 31.5849 21.2388 31.264 21.2388C30.9431 21.2388 30.683 21.4989 30.683 21.8198C30.683 22.1407 30.9431 22.4008 31.264 22.4008Z" fill="white"/>
<path d="M33.9696 23.0732C34.2905 23.0732 34.5506 22.8131 34.5506 22.4922C34.5506 22.1713 34.2905 21.9111 33.9696 21.9111C33.6487 21.9111 33.3886 22.1713 33.3886 22.4922C33.3886 22.8131 33.6487 23.0732 33.9696 23.0732Z" fill="white"/>
<path d="M22.9583 23.0732C23.2791 23.0732 23.5393 22.8131 23.5393 22.4922C23.5393 22.1713 23.2791 21.9111 22.9583 21.9111C22.6374 21.9111 22.3772 22.1713 22.3772 22.4922C22.3772 22.8131 22.6374 23.0732 22.9583 23.0732Z" fill="white"/>
<path d="M24.4527 31.1647C24.4527 32.0208 25.1492 32.7173 26.0053 32.7173C26.8613 32.7173 27.5578 32.0208 27.5578 31.1647C27.5578 30.3086 26.8613 29.6121 26.0053 29.6121C25.1492 29.6121 24.4527 30.3086 24.4527 31.1647ZM26.4512 31.1647C26.4512 31.4106 26.2512 31.6107 26.0053 31.6107C25.7593 31.6107 25.5593 31.4106 25.5593 31.1647C25.5593 30.9188 25.7593 30.7187 26.0053 30.7187C26.2512 30.7187 26.4512 30.9189 26.4512 31.1647Z" fill="white"/>
<path d="M45.3452 33.5784C44.4891 33.5784 43.7926 34.2749 43.7926 35.131C43.7926 35.9871 44.4891 36.6836 45.3452 36.6836C46.2014 36.6836 46.8979 35.9871 46.8979 35.131C46.8978 34.2749 46.2014 33.5784 45.3452 33.5784ZM45.3452 35.5769C45.0993 35.5769 44.8993 35.3769 44.8993 35.1309C44.8993 34.885 45.0993 34.685 45.3452 34.685C45.5912 34.685 45.7912 34.8851 45.7912 35.1309C45.7912 35.3769 45.5911 35.5769 45.3452 35.5769Z" fill="white"/>
<path d="M39.9336 36.5893C39.9336 35.7331 39.2371 35.0366 38.3809 35.0366C37.5248 35.0366 36.8284 35.7331 36.8284 36.5893C36.8284 37.4453 37.5249 38.1418 38.3809 38.1418C39.2371 38.1418 39.9336 37.4453 39.9336 36.5893ZM37.935 36.5893C37.935 36.3433 38.135 36.1433 38.3809 36.1433C38.6269 36.1433 38.8269 36.3434 38.8269 36.5893C38.8269 36.8351 38.6269 37.0352 38.3809 37.0352C38.1351 37.0352 37.935 36.8352 37.935 36.5893Z" fill="white"/>
<path d="M46.0955 25.6257C45.2394 25.6257 44.5429 26.3222 44.5429 27.1783C44.5429 28.0344 45.2394 28.731 46.0955 28.731C46.9516 28.731 47.6481 28.0344 47.6481 27.1783C47.6481 26.3222 46.9516 25.6257 46.0955 25.6257ZM46.0955 27.6243C45.8496 27.6243 45.6496 27.4242 45.6496 27.1783C45.6496 26.9324 45.8496 26.7324 46.0955 26.7324C46.3414 26.7324 46.5415 26.9324 46.5415 27.1783C46.5415 27.4242 46.3414 27.6243 46.0955 27.6243Z" fill="white"/>
<path d="M44.0986 36.5334H42.5207C42.0935 36.5334 41.746 36.881 41.746 37.3081V38.886C41.746 39.3132 42.0935 39.6607 42.5207 39.6607H44.0986C44.5258 39.6607 44.8733 39.3132 44.8733 38.886V37.3081C44.8732 36.8809 44.5257 36.5334 44.0986 36.5334ZM43.7666 38.554H42.8527V37.6401H43.7666V38.554Z" fill="white"/>
<path d="M33.6999 34.5068C33.493 34.5068 33.2984 34.5875 33.1522 34.7337L32.0364 35.8496C31.8901 35.9958 31.8096 36.1904 31.8096 36.3973C31.8096 36.6042 31.8901 36.7988 32.0364 36.9451L33.1521 38.0607L33.1522 38.0609C33.2985 38.2072 33.493 38.2877 33.6999 38.2877C33.9068 38.2877 34.1014 38.2072 34.2478 38.0609L35.3633 36.9452C35.5097 36.7989 35.5904 36.6043 35.5904 36.3973C35.5904 36.1905 35.5098 35.9959 35.3634 35.8495L34.2478 34.7338C34.1014 34.5874 33.9068 34.5068 33.6999 34.5068ZM33.6999 37.0435L33.0538 36.3973L33.6999 35.7511L34.3461 36.3973L33.6999 37.0435Z" fill="white"/>
<path d="M44.4925 31.5629C44.7259 31.7599 45.0751 31.7304 45.2722 31.497C45.4693 31.2635 45.4398 30.9144 45.2063 30.7172C44.279 29.9344 42.9983 29.7132 41.8641 30.1397C41.0476 30.4468 40.3975 31.0434 40.0228 31.8266C39.2249 31.4846 38.3427 31.4639 37.5262 31.7711C36.6745 32.0915 36.0039 32.7268 35.638 33.5602C35.5152 33.84 35.6424 34.1665 35.9222 34.2893C36.1953 34.4111 36.5283 34.2878 36.6514 34.0051C36.8964 33.447 37.3455 33.0215 37.9158 32.8069C38.4861 32.5924 39.1043 32.6166 39.6564 32.8749C39.9012 32.9894 40.1754 33.0001 40.4285 32.9051C40.6814 32.81 40.8806 32.6213 40.9892 32.3737C41.1494 32.0089 41.3972 31.7013 41.7086 31.4717L38.4764 43.6999C38.4567 43.7744 38.3891 43.8263 38.3121 43.8263H24.413L30.0556 41.2964C30.3767 41.1524 30.6064 40.8599 30.6701 40.5138C30.7337 40.1678 30.6232 39.8126 30.3744 39.5638L28.3549 37.5443C28.7663 37.1966 29.2821 37.0118 29.8279 37.0158C30.0964 37.0202 30.3523 36.9156 30.5434 36.7245C30.7345 36.5335 30.8379 36.2793 30.8347 36.0089C30.8274 35.3995 31.0607 34.8265 31.4915 34.3956C31.9223 33.9648 32.4961 33.732 33.1047 33.7387C33.3764 33.7428 33.6293 33.6386 33.8204 33.4476C34.0115 33.2565 34.115 33.0023 34.1117 32.7319C34.1045 32.1224 34.3377 31.5494 34.7686 31.1186C35.1995 30.6877 35.7739 30.4564 36.382 30.4617C36.651 30.4679 36.9064 30.3614 37.0975 30.1704C37.2886 29.9793 37.392 29.7253 37.3888 29.4549C37.3814 28.8454 37.6147 28.2724 38.0456 27.8416C38.6195 27.2677 39.462 27.0486 40.2446 27.2698C40.5384 27.3531 40.8444 27.182 40.9275 26.8879C41.0106 26.5939 40.8396 26.288 40.5455 26.2049C39.3778 25.8745 38.1199 26.202 37.263 27.059C36.6461 27.6758 36.3005 28.4877 36.2826 29.3556C35.4148 29.3735 34.6028 29.7192 33.9859 30.336C33.3691 30.9528 33.0234 31.7646 33.0055 32.6326C32.1375 32.6506 31.3257 32.9962 30.7088 33.6131C30.092 34.23 29.7463 35.0419 29.7285 35.9097C28.924 35.9263 28.1679 36.225 27.5703 36.7598L26.5053 35.6947L26.5802 35.5699C26.9126 35.0592 27.4249 34.7124 28.0227 34.5935C28.2879 34.5407 28.5152 34.387 28.6626 34.1605C28.81 33.9341 28.8587 33.664 28.7996 33.4001C28.6663 32.8053 28.7761 32.1964 29.1085 31.6858C29.4409 31.1751 29.9532 30.8282 30.551 30.7093C30.8507 30.6497 31.0453 30.3584 30.9857 30.0586C30.926 29.759 30.6349 29.5641 30.3351 29.624C29.4424 29.8016 28.6775 30.3194 28.181 31.0821C27.7051 31.8133 27.5349 32.679 27.6969 33.5318C26.8803 33.7222 26.1789 34.2015 25.7032 34.8927L19.7368 28.9263C19.2376 28.3987 18.2849 28.5732 18.0042 29.2451L15.8819 33.9785L13.3195 24.2838C13.2566 24.0457 13.3316 23.7957 13.5154 23.6316C15.5939 21.7753 19.3263 19.6984 21.9177 18.7234C22.2037 18.6157 21.7635 18.6148 21.6559 18.3288C21.5484 18.0428 21.3807 17.7556 21.0949 17.8632C18.3753 18.8865 14.9589 20.8586 12.7782 22.8063C12.2822 23.2492 12.0797 23.9238 12.2497 24.5667L15.1619 35.5848L9.45485 48.3135C9.25619 48.7565 9.34968 49.2646 9.69301 49.6079C10.0378 49.9535 10.5497 50.0432 10.9874 49.8461L21.9485 44.9315L38.3122 44.9331C38.8909 44.9331 39.3985 44.5422 39.5464 43.9827L42.9689 31.0342C43.516 31.0164 44.0612 31.1987 44.4925 31.5629ZM18.7411 45.1566V36.826C18.7411 36.5204 18.4933 37.1236 18.1877 37.1236C17.8821 37.1236 17.6343 34.6811 17.6343 34.9867V45.6528L15.818 46.4672V36.826L17.6343 32.7751V35.6074C17.6343 35.9131 17.8821 37.1236 18.1877 37.1236C18.4933 37.1236 18.7411 37.1317 18.7411 36.826V30.3068L18.9922 29.7467L20.3503 31.1048V44.4351L18.7411 45.1566ZM13.1022 47.6849V42.8834L14.7115 39.2942V46.9633L13.1022 47.6849ZM21.457 32.2115L23.2214 33.9759V43.1478L21.457 43.9388V32.2115ZM25.9373 36.6918V41.9301L25.8967 41.9483L24.3281 42.6517V35.0825L25.9373 36.6918ZM27.044 41.4339V37.7984L29.554 40.3084L27.044 41.4339ZM10.5346 48.8361C10.5035 48.8661 10.4347 48.7973 10.4646 48.7662L11.9956 45.3517V48.1811L10.5346 48.8361Z" fill="white"/>
</g>
<defs>
<clipPath id="clip0">
<rect width="47" height="47" fill="white" transform="translate(5)"/>
</clipPath>
</defs>
</svg>
