<svg width="57" height="57" viewBox="0 0 57 57" fill="none" xmlns="http://www.w3.org/2000/svg">
<circle cx="28.5" cy="28.5" r="28.5" fill="#EF6A8D"/>
<path d="M26.0293 17.9993C26.3704 17.9993 26.647 17.7227 26.647 17.3816C26.647 17.0405 26.3704 16.7639 26.0293 16.7639C25.6881 16.7639 25.4116 17.0405 25.4116 17.3816C25.4116 17.7227 25.6881 17.9993 26.0293 17.9993Z" fill="white"/>
<path d="M30.9707 17.9993C31.3118 17.9993 31.5884 17.7227 31.5884 17.3816C31.5884 17.0405 31.3118 16.7639 30.9707 16.7639C30.6296 16.7639 30.353 17.0405 30.353 17.3816C30.353 17.7227 30.6296 17.9993 30.9707 17.9993Z" fill="white"/>
<path d="M28.5 18.926C26.797 18.926 25.4116 20.3114 25.4116 22.0144V22.6321L31.5884 22.6321V22.0144C31.5884 20.3114 30.2029 18.926 28.5 18.926ZM26.7526 21.3967C27.0077 20.6777 27.6945 20.1614 28.5 20.1614C29.3054 20.1614 29.9923 20.6777 30.2474 21.3967H26.7526Z" fill="white"/>
<path d="M46.4758 32.6705C46.3986 32.0535 45.8717 31.5884 45.2497 31.5884H45.1774V30.9707H45.7951C46.8167 30.9707 47.6481 30.1393 47.6481 29.1176C47.6481 28.096 46.8167 27.2646 45.7951 27.2646H45.1774C45.1774 26.5833 44.6233 26.0292 43.942 26.0292H42.7067C42.0254 26.0292 41.4713 26.5833 41.4713 27.2646H41.349C40.055 27.2646 38.8888 28.0812 38.4465 29.2974L37.9684 30.6124L37.3545 29.3845C36.7399 28.1553 35.6435 27.2491 34.3315 26.8619C35.7349 25.3936 36.5299 23.4572 36.5299 21.3843V16.1463C36.5299 12.4001 33.4816 9.35181 29.7353 9.35181H27.2646C23.5184 9.35181 20.4701 12.4001 20.4701 16.1463V21.3843C20.4701 23.4325 21.27 25.3893 22.6703 26.8612C21.3571 27.2485 20.2607 28.1547 19.6455 29.3845L19.0315 30.6124L18.5534 29.2974C18.1112 28.0812 16.945 27.2646 15.651 27.2646H15.5287C15.5287 26.5833 14.9746 26.0292 14.2933 26.0292H13.0579C12.3766 26.0292 11.8226 26.5833 11.8226 27.2646H11.2049C10.1832 27.2646 9.35184 28.096 9.35184 29.1176C9.35184 30.1393 10.1832 30.9707 11.2049 30.9707H11.8226V31.5884H11.7503C11.1289 31.5884 10.602 32.0535 10.5248 32.6705L9.36543 41.9395C9.35616 42.013 9.35184 42.0871 9.35184 42.1612C9.35184 43.1433 10.1505 43.942 11.1326 43.942H16.1463C17.1278 43.942 17.9271 43.1433 17.9271 42.1612C17.9271 42.0871 17.9228 42.013 17.9135 41.9407L17.5176 38.7732C17.9623 38.9196 18.4287 39.0005 18.8963 39.0005C20.076 39.0005 21.1854 38.541 22.0199 37.7065L22.3528 37.3742L22.8908 40.6016C20.9253 42.2483 19.4621 44.3972 18.6492 46.8352L18.3774 47.6481H38.6219L38.3508 46.8352C37.5429 44.4114 36.0913 42.2736 34.1092 40.6028L34.6472 37.3742L34.9801 37.7071C35.8146 38.541 36.9239 39.0005 38.1037 39.0005C38.5713 39.0005 39.0376 38.9196 39.483 38.7732L39.0871 41.9389C39.0778 42.0124 39.0735 42.0865 39.0735 42.1606C39.0728 43.1433 39.8721 43.942 40.8536 43.942H45.8674C46.8495 43.942 47.6481 43.1433 47.6481 42.1612C47.6481 42.0871 47.6438 42.013 47.6345 41.9407L46.4758 32.6705ZM42.7067 32.8237V39.9505L40.328 41.9722L41.4713 32.8237H42.7067ZM43.3281 41.0432L45.3238 42.7066H41.3706L43.3281 41.0432ZM46.3955 41.9914L43.942 39.9468V32.8237H45.2497L46.3955 41.9914ZM45.7951 28.5C46.1354 28.5 46.4128 28.7767 46.4128 29.1176C46.4128 29.4586 46.1354 29.7353 45.7951 29.7353H45.1774V28.5H45.7951ZM43.942 27.2646V31.5884H42.7067V27.2646H43.942ZM21.7055 16.1463C21.7055 13.0808 24.1997 10.5872 27.2646 10.5872H29.7353C32.8003 10.5872 35.2945 13.0808 35.2945 16.1463V21.3843C35.2945 23.375 34.4273 25.2176 32.9189 26.4974L31.4797 26.1379L31.1319 24.7469C32.8732 23.8068 34.0591 21.9661 34.0591 19.8524V16.8078C34.0591 16.0178 33.8096 15.2673 33.3531 14.6379L33.8788 14.1123L33.0047 13.2389L32.4093 13.8349C32.1134 14.1302 31.72 14.2933 31.3018 14.2933C30.4383 14.2933 29.7353 13.5903 29.7353 12.7274V11.8225H28.5V12.7274C28.5 13.242 28.6495 13.7182 28.8922 14.1327C28.6822 14.234 28.453 14.2933 28.2134 14.2933C27.3499 14.2933 26.6469 13.5903 26.6469 12.7274V11.8225H25.4116V12.7274C25.4116 12.9171 25.4313 13.1024 25.4678 13.2815L25.4233 13.2901C23.9847 13.578 22.9408 14.8516 22.9408 16.3186V19.8524C22.9408 21.9661 24.1268 23.8068 25.8674 24.7469L25.4684 26.3424L26.0651 26.9391C26.4351 27.3078 26.6469 27.8199 26.6469 28.3424C26.6469 29.0077 26.3165 29.6248 25.763 29.9941L25.4116 30.2282L25.2763 30.138C24.5876 29.6785 24.1762 28.9101 24.1762 28.0812L24.1731 26.595L23.9662 26.411C22.5295 25.1367 21.7055 23.3046 21.7055 21.3843V16.1463ZM26.007 14.4335C26.5197 15.095 27.3134 15.5286 28.2134 15.5286C28.7724 15.5286 29.3061 15.3656 29.7607 15.0629C30.2036 15.3557 30.7323 15.5286 31.3018 15.5286C31.6576 15.5286 32.0016 15.4582 32.3234 15.3322C32.6428 15.7572 32.8238 16.2668 32.8238 16.8078V19.8524C32.8238 22.236 30.8842 24.1762 28.5 24.1762C26.1157 24.1762 24.1762 22.236 24.1762 19.8524V16.3186C24.1762 15.4378 24.8025 14.6738 25.6654 14.5014L26.007 14.4335ZM26.9391 26.0657L26.8366 25.9638L27.0256 25.2071C27.4963 25.3368 27.9892 25.4115 28.5 25.4115C29.0108 25.4115 29.5037 25.3368 29.9738 25.2071L30.353 26.7229V28.5C30.353 28.8409 30.0757 29.1176 29.7353 29.1176H27.7872C27.8489 28.8669 27.8823 28.6074 27.8823 28.3424C27.8823 27.4944 27.5383 26.6648 26.9391 26.0657ZM26.9805 35.4384C27.5197 35.6187 27.8823 36.1215 27.8823 36.6904C27.8823 36.8943 27.8341 37.0981 27.7427 37.2803L27.5691 37.6281L27.5488 37.6213C27.0095 37.4409 26.6469 36.9381 26.6469 36.3692C26.6469 36.1654 26.6951 35.9616 26.7865 35.7793L26.9601 35.4316L26.9805 35.4384ZM26.5073 33.5742L26.3338 33.922L26.3134 33.9152C25.7742 33.7348 25.4116 33.232 25.4116 32.6631C25.4116 32.4593 25.4598 32.2555 25.5512 32.0732L25.7247 31.7255L25.7451 31.7323C26.2844 31.9126 26.6469 32.4154 26.6469 32.9843C26.6469 33.1882 26.5988 33.392 26.5073 33.5742ZM20.7512 29.9373C21.2002 29.0398 21.9915 28.3715 22.9408 28.0688V28.0824C22.9408 29.3239 23.5579 30.4765 24.5913 31.1659L24.6154 31.1819L24.4461 31.5204C24.2695 31.8737 24.1762 32.2691 24.1762 32.6631C24.1762 33.7126 24.8174 34.6391 25.7816 35.0264L25.6815 35.2265C25.5048 35.5798 25.4116 35.9751 25.4116 36.3692C25.4116 37.4706 26.1133 38.444 27.1584 38.793L28.1955 39.1383L28.8484 37.8331C29.0244 37.4798 29.1177 37.0845 29.1177 36.6904C29.1177 35.641 28.4765 34.7145 27.5123 34.3272L27.6124 34.127C27.789 33.7737 27.8823 33.3784 27.8823 32.9843C27.8823 32.0955 27.4203 31.2962 26.6951 30.8348C26.8749 30.6884 27.0342 30.5241 27.1763 30.3462C27.2059 30.3474 27.235 30.353 27.2646 30.353H29.7353C30.757 30.353 31.5884 29.5216 31.5884 28.5V27.4375L33.8331 27.9984C34.8843 28.2615 35.7645 28.9682 36.2494 29.9373L37.2834 32.0053L35.2537 32.875C35.2778 32.4463 35.2945 32.017 35.2945 31.5884H34.0591C34.0591 32.7842 33.9597 33.9887 33.7633 35.1678L32.9183 40.2359H24.0817L23.2367 35.1678C23.0403 33.9887 22.9408 32.7842 22.9408 31.5884H21.7055C21.7055 32.017 21.7222 32.4463 21.7462 32.875L19.7165 32.0053L20.7512 29.9373ZM13.6719 41.0432L15.6287 42.7066H11.6756L13.6719 41.0432ZM14.2933 39.9505V32.8237H15.5287L16.672 41.9728L14.2933 39.9505ZM11.2049 29.7353C10.8645 29.7353 10.5872 29.4586 10.5872 29.1176C10.5872 28.7767 10.8645 28.5 11.2049 28.5H11.8226V29.7353H11.2049ZM13.0579 27.2646H14.2933V31.5884H13.0579V27.2646ZM11.7503 32.8237H13.0579V39.9468L10.6045 41.9914L11.7503 32.8237ZM21.1465 36.8331C20.5449 37.4341 19.7462 37.7652 18.8963 37.7652C18.4052 37.7652 17.9129 37.6491 17.4731 37.4292L17.3409 37.3631L16.7541 32.6705C16.6769 32.0535 16.15 31.5884 15.5287 31.5884V28.5H15.651C16.4274 28.5 17.1272 28.9904 17.3922 29.7199L19.2712 34.888L20.4324 34.4655L20.0841 33.5069L21.8648 34.2697C21.9081 34.6379 21.9575 35.0054 22.018 35.3698L22.1026 35.8763L21.1465 36.8331ZM36.877 46.4127H20.123C20.9093 44.501 22.157 42.8166 23.7852 41.4713H33.2166C34.8312 42.7968 36.0857 44.4887 36.877 46.4127ZM39.5268 37.4292C39.0871 37.6491 38.5948 37.7652 38.1037 37.7652C37.2544 37.7652 36.4551 37.4341 35.8535 36.8331L34.8967 35.8763L34.9813 35.3698C35.0419 35.0054 35.0913 34.6379 35.1345 34.2697L36.9153 33.5069L36.5669 34.4655L37.7282 34.888L39.6071 29.7199C39.8727 28.9904 40.5726 28.5 41.349 28.5H41.4713V31.5884C40.8499 31.5884 40.323 32.0535 40.2458 32.6705L39.659 37.3631L39.5268 37.4292Z" fill="white"/>
</svg>
