<svg width="57" height="61" viewBox="0 0 57 61" fill="none" xmlns="http://www.w3.org/2000/svg">
<circle cx="28.5" cy="28.5" r="28.5" fill="#E0BB61"/>
<path d="M26.993 20.3935L22.9959 23.3735C22.9951 23.3742 22.9943 23.3748 22.9935 23.3753C21.6196 24.4108 21.6372 26.4483 22.9959 27.4613C24.1205 28.2999 25.7216 28.0706 26.5636 26.9413L29.544 22.9438C30.0217 22.302 30.0215 21.4061 29.5437 20.7652C28.943 19.9596 27.7987 19.7927 26.993 20.3935ZM28.6368 22.2681L25.6568 26.2652C25.1893 26.8922 24.299 27.0219 23.6721 26.5545C22.9199 25.9937 22.9024 24.8618 23.6734 24.2796L27.6692 21.3005C27.9748 21.0725 28.409 21.1358 28.6368 21.4416C28.8181 21.6846 28.818 22.0247 28.6368 22.2681Z" fill="white"/>
<path d="M32.5966 37.3957V38.3684C32.5966 38.6808 32.8499 38.934 33.1623 38.934C33.4746 38.934 33.7279 38.6808 33.7279 38.3684V37.3957C33.7279 37.0833 33.4746 36.8301 33.1623 36.8301C32.8499 36.8301 32.5966 37.0833 32.5966 37.3957Z" fill="white"/>
<path d="M42.7202 37.3957V38.3684C42.7202 38.6808 42.9734 38.934 43.2858 38.934C43.5982 38.934 43.8514 38.6808 43.8514 38.3684V37.3957C43.8514 37.0833 43.5982 36.8301 43.2858 36.8301C42.9734 36.8301 42.7202 37.0833 42.7202 37.3957Z" fill="white"/>
<path d="M39.1321 37.968C38.9029 38.2311 38.5719 38.382 38.224 38.382C37.8762 38.382 37.5452 38.2311 37.3159 37.968C37.1106 37.7325 36.7534 37.708 36.5178 37.9132C36.2824 38.1184 36.2578 38.4757 36.463 38.7112C36.9072 39.2208 37.549 39.5131 38.224 39.5131C38.8989 39.5131 39.5408 39.2208 39.9849 38.7111C40.1901 38.4756 40.1656 38.1183 39.9301 37.9131C39.6946 37.7079 39.3373 37.7325 39.1321 37.968Z" fill="white"/>
<path d="M15.6865 35.0502L17.5546 33.1822C19.3722 34.8074 21.693 35.6964 24.1511 35.6964C25.8755 35.6964 27.5269 35.2609 28.9993 34.4301C27.9024 41.098 32.405 46.3286 38.224 46.3286C39.8564 46.3286 41.4654 45.9041 42.8771 45.101C43.1486 44.9465 43.2435 44.6012 43.089 44.3297C42.9346 44.0582 42.5892 43.9633 42.3177 44.1178C41.0762 44.8241 39.6606 45.1974 38.224 45.1974C32.6395 45.1974 28.4704 39.7246 30.4677 33.0962C30.7194 32.261 31.0613 31.483 31.4796 30.7871C32.0049 29.9133 32.4705 29.4634 32.5933 29.3191C32.5967 29.3185 32.606 29.32 32.6126 29.3253C32.6632 29.3655 32.7505 31.1621 34.4867 32.6242C34.7186 32.8193 35.0758 32.7989 35.2808 32.5593C35.4812 32.3251 35.3866 32.1958 35.4459 31.339C35.6407 28.5544 36.8811 26.1734 39.4026 25.0604C39.4179 25.0536 39.4321 25.0641 39.4293 25.0821C38.5669 30.5621 42.194 29.8511 41.9544 34.8836C41.9311 35.3758 42.5075 35.6608 42.8844 35.3426C44.1597 34.2654 44.6392 32.8884 44.8168 31.9229C44.8178 31.9171 44.8192 31.9141 44.8195 31.9136C44.8231 31.9093 44.8373 31.9057 44.8415 31.9067C44.8415 31.9067 44.8436 31.9082 44.8473 31.913C45.9395 33.36 46.5169 35.086 46.5169 36.9043C46.5169 39.1518 45.6321 41.256 44.0253 42.8294C43.8022 43.048 43.7984 43.406 44.017 43.6292C44.2355 43.8524 44.5936 43.8561 44.8168 43.6376C46.6427 41.8498 47.6481 39.4586 47.6481 36.9045C47.6481 34.8382 46.9918 32.8766 45.7502 31.2317C45.1482 30.4342 43.8851 30.7359 43.7043 31.7183C43.6138 32.2101 43.4281 32.8323 43.0504 33.4404C42.6343 29.4132 39.8461 29.7103 40.5468 25.258C40.6739 24.4501 39.9455 23.775 39.1537 23.9569C38.2553 16.5428 31.959 10.6714 24.151 10.6714C18.5639 10.6714 13.1899 14.5388 10.5801 18.8842C10.4192 19.152 10.4255 19.5906 10.6932 19.7515C10.961 19.9124 11.3243 20.0192 11.4851 19.7515C11.9779 18.9311 13.2231 17.0098 13.8712 16.3072C14.4646 16.9005 16.1896 18.6252 16.7542 19.1897C15.2885 20.8289 14.3848 22.9272 14.2562 25.221H10.1781C10.2403 23.648 10.9098 21.2096 11.4851 19.7515C11.5998 19.4609 10.9837 19.8661 10.6932 19.7515C10.4026 19.6369 10.6947 18.5937 10.5801 18.8842C8.75551 23.5085 8.75559 30.4059 12.0058 34.785C12.8914 35.9783 14.6353 36.1016 15.6865 35.0502ZM29.3599 32.8529C27.8435 33.9739 26.0466 34.5653 24.151 34.5653C16.3765 34.5653 12.4003 25.1214 17.9429 19.5785C21.3522 16.1693 26.9068 16.1268 30.3584 19.5785C32.6853 21.9055 33.4403 25.2116 32.5951 28.1864C32.2969 28.1871 31.9886 28.3137 31.7697 28.5427L31.7695 28.5429C30.6277 29.7376 29.828 31.2612 29.3599 32.8529ZM24.7166 11.8137C28.0518 11.9456 31.1799 13.2414 33.6308 15.5068C33.3609 15.7767 31.4523 17.6849 30.7472 18.3898C29.0746 16.894 26.9676 16.0183 24.7166 15.8918V11.8137ZM33.6018 28.7742C33.8508 27.984 33.9999 27.1642 34.045 26.3522H36.0134C35.0429 27.6386 34.5362 29.1657 34.3594 30.7868C34.056 30.3116 33.8367 29.7584 33.7342 29.1503C33.7119 29.0186 33.6626 28.8826 33.6018 28.7742ZM37.0658 25.221H34.0451C33.9194 22.9777 33.0466 20.8663 31.5471 19.1897C31.8975 18.8394 34.0679 16.6695 34.4302 16.3072C36.5094 18.5607 37.7905 21.4325 38.0732 24.4829C37.7367 24.6885 37.3779 24.9492 37.0658 25.221ZM23.5854 11.8137V15.8918C21.3193 16.0192 19.2132 16.9056 17.554 18.3898L14.6705 15.5068C17.1214 13.2415 20.2498 11.9456 23.5854 11.8137ZM14.2562 26.3522C14.3817 28.592 15.2554 30.7079 16.7542 32.3828L14.8866 34.2504C14.3218 34.8151 13.387 34.7479 12.9141 34.1108C11.2294 31.8409 10.2892 29.1691 10.1781 26.3522H14.2562Z" fill="white"/>
<path d="M43.9688 42.9126L42.4981 44.0816L42.9129 45.062L44.6853 43.7045L44.6476 43.6668L44.4213 43.7799L44.0819 43.6668L43.9688 43.5159L43.8557 43.252L43.9688 42.9126Z" fill="white" stroke="white"/>
</svg>
