<svg width="70" height="70" viewBox="0 0 70 70" fill="none" xmlns="http://www.w3.org/2000/svg">
<circle r="33.5" transform="matrix(0 -1 -1 0 35 35)" stroke="url(#paint0_linear_68_11)" stroke-width="3"/>
<path d="M33.9393 26.9393C34.5251 26.3536 35.4749 26.3536 36.0607 26.9393L45.6066 36.4853C46.1924 37.0711 46.1924 38.0208 45.6066 38.6066C45.0208 39.1924 44.0711 39.1924 43.4853 38.6066L35 30.1213L26.5147 38.6066C25.9289 39.1924 24.9792 39.1924 24.3934 38.6066C23.8076 38.0208 23.8076 37.0711 24.3934 36.4853L33.9393 26.9393ZM33.5 29V28H36.5V29H33.5Z" fill="url(#paint1_linear_68_11)"/>
<defs>
<linearGradient id="paint0_linear_68_11" x1="0" y1="35" x2="70" y2="35" gradientUnits="userSpaceOnUse">
<stop stop-color="#0250C5"/>
<stop offset="1" stop-color="#16375F"/>
</linearGradient>
<linearGradient id="paint1_linear_68_11" x1="34.5" y1="29" x2="34.5" y2="28" gradientUnits="userSpaceOnUse">
<stop stop-color="#0250C5"/>
<stop offset="1" stop-color="#16375F"/>
</linearGradient>
</defs>
</svg>
